G04 #@! TF.GenerationSoftware,KiCad,Pcbnew,8.0.8*
G04 #@! TF.CreationDate,2025-02-12T23:04:25-08:00*
G04 #@! TF.ProjectId,gamecontroller,67616d65-636f-46e7-9472-6f6c6c65722e,rev?*
G04 #@! TF.SameCoordinates,Original*
G04 #@! TF.FileFunction,Soldermask,Top*
G04 #@! TF.FilePolarity,Negative*
%FSLAX46Y46*%
G04 Gerber Fmt 4.6, Leading zero omitted, Abs format (unit mm)*
G04 Created by KiCad (PCBNEW 8.0.8) date 2025-02-12 23:04:25*
%MOMM*%
%LPD*%
G01*
G04 APERTURE LIST*
G04 APERTURE END LIST*
G36*
X122977811Y-126632711D02*
G01*
X123019588Y-126632711D01*
X123066718Y-126642728D01*
X123114017Y-126648058D01*
X123148408Y-126660092D01*
X123183110Y-126667468D01*
X123233117Y-126689733D01*
X123283107Y-126707225D01*
X123309128Y-126723575D01*
X123335835Y-126735466D01*
X123385633Y-126771646D01*
X123434792Y-126802535D01*
X123452444Y-126820187D01*
X123471084Y-126833730D01*
X123517165Y-126884908D01*
X123561465Y-126929208D01*
X123571654Y-126945424D01*
X123582946Y-126957965D01*
X123621573Y-127024870D01*
X123656775Y-127080893D01*
X123661170Y-127093453D01*
X123666535Y-127102746D01*
X123694010Y-127187305D01*
X123715942Y-127249983D01*
X123716773Y-127257363D01*
X123718195Y-127261738D01*
X123731076Y-127384306D01*
X123736000Y-127428000D01*
X123731076Y-127471697D01*
X123718195Y-127594261D01*
X123716773Y-127598635D01*
X123715942Y-127606017D01*
X123694005Y-127668707D01*
X123666535Y-127753253D01*
X123661171Y-127762543D01*
X123656775Y-127775107D01*
X123621566Y-127831140D01*
X123582946Y-127898034D01*
X123571656Y-127910572D01*
X123561465Y-127926792D01*
X123517155Y-127971101D01*
X123471084Y-128022269D01*
X123452448Y-128035808D01*
X123434792Y-128053465D01*
X123385623Y-128084359D01*
X123335835Y-128120533D01*
X123309134Y-128132421D01*
X123283107Y-128148775D01*
X123233107Y-128166270D01*
X123183110Y-128188531D01*
X123148414Y-128195905D01*
X123114017Y-128207942D01*
X123066715Y-128213271D01*
X123019588Y-128223289D01*
X122977811Y-128223289D01*
X122936000Y-128228000D01*
X122894189Y-128223289D01*
X122852412Y-128223289D01*
X122805284Y-128213271D01*
X122757983Y-128207942D01*
X122723586Y-128195906D01*
X122688889Y-128188531D01*
X122638887Y-128166268D01*
X122588893Y-128148775D01*
X122562868Y-128132422D01*
X122536164Y-128120533D01*
X122486369Y-128084355D01*
X122437208Y-128053465D01*
X122419554Y-128035811D01*
X122400915Y-128022269D01*
X122354833Y-127971090D01*
X122310535Y-127926792D01*
X122300345Y-127910575D01*
X122289053Y-127898034D01*
X122250420Y-127831120D01*
X122215225Y-127775107D01*
X122210830Y-127762547D01*
X122205464Y-127753253D01*
X122177980Y-127668667D01*
X122156058Y-127606017D01*
X122155226Y-127598639D01*
X122153804Y-127594261D01*
X122140908Y-127471565D01*
X122136000Y-127428000D01*
X122140908Y-127384438D01*
X122153804Y-127261738D01*
X122155226Y-127257358D01*
X122156058Y-127249983D01*
X122177975Y-127187345D01*
X122205464Y-127102746D01*
X122210831Y-127093449D01*
X122215225Y-127080893D01*
X122250413Y-127024890D01*
X122289053Y-126957965D01*
X122300347Y-126945421D01*
X122310535Y-126929208D01*
X122354826Y-126884916D01*
X122400917Y-126833728D01*
X122419559Y-126820183D01*
X122437208Y-126802535D01*
X122486354Y-126771654D01*
X122536162Y-126735467D01*
X122562873Y-126723574D01*
X122588893Y-126707225D01*
X122638877Y-126689734D01*
X122688889Y-126667468D01*
X122723592Y-126660091D01*
X122757983Y-126648058D01*
X122805281Y-126642728D01*
X122852412Y-126632711D01*
X122894189Y-126632711D01*
X122936000Y-126628000D01*
X122977811Y-126632711D01*
G37*
G36*
X92933335Y-123755542D02*
G01*
X93119239Y-123811935D01*
X93290570Y-123903514D01*
X93440743Y-124026757D01*
X93563986Y-124176930D01*
X93655565Y-124348261D01*
X93711958Y-124534165D01*
X93731000Y-124727500D01*
X93711958Y-124920835D01*
X93655565Y-125106739D01*
X93563986Y-125278070D01*
X93440743Y-125428243D01*
X93290570Y-125551486D01*
X93119239Y-125643065D01*
X92933335Y-125699458D01*
X92740000Y-125718500D01*
X92546665Y-125699458D01*
X92360761Y-125643065D01*
X92189430Y-125551486D01*
X92039257Y-125428243D01*
X91916014Y-125278070D01*
X91824435Y-125106739D01*
X91768042Y-124920835D01*
X91749000Y-124727500D01*
X91768042Y-124534165D01*
X91824435Y-124348261D01*
X91916014Y-124176930D01*
X92039257Y-124026757D01*
X92189430Y-123903514D01*
X92360761Y-123811935D01*
X92546665Y-123755542D01*
X92740000Y-123736500D01*
X92933335Y-123755542D01*
G37*
G36*
X95473335Y-123755542D02*
G01*
X95659239Y-123811935D01*
X95830570Y-123903514D01*
X95980743Y-124026757D01*
X96103986Y-124176930D01*
X96195565Y-124348261D01*
X96251958Y-124534165D01*
X96271000Y-124727500D01*
X96251958Y-124920835D01*
X96195565Y-125106739D01*
X96103986Y-125278070D01*
X95980743Y-125428243D01*
X95830570Y-125551486D01*
X95659239Y-125643065D01*
X95473335Y-125699458D01*
X95280000Y-125718500D01*
X95086665Y-125699458D01*
X94900761Y-125643065D01*
X94729430Y-125551486D01*
X94579257Y-125428243D01*
X94456014Y-125278070D01*
X94364435Y-125106739D01*
X94308042Y-124920835D01*
X94289000Y-124727500D01*
X94308042Y-124534165D01*
X94364435Y-124348261D01*
X94456014Y-124176930D01*
X94579257Y-124026757D01*
X94729430Y-123903514D01*
X94900761Y-123811935D01*
X95086665Y-123755542D01*
X95280000Y-123736500D01*
X95473335Y-123755542D01*
G37*
G36*
X98013335Y-123755542D02*
G01*
X98199239Y-123811935D01*
X98370570Y-123903514D01*
X98520743Y-124026757D01*
X98643986Y-124176930D01*
X98735565Y-124348261D01*
X98791958Y-124534165D01*
X98811000Y-124727500D01*
X98791958Y-124920835D01*
X98735565Y-125106739D01*
X98643986Y-125278070D01*
X98520743Y-125428243D01*
X98370570Y-125551486D01*
X98199239Y-125643065D01*
X98013335Y-125699458D01*
X97820000Y-125718500D01*
X97626665Y-125699458D01*
X97440761Y-125643065D01*
X97269430Y-125551486D01*
X97119257Y-125428243D01*
X96996014Y-125278070D01*
X96904435Y-125106739D01*
X96848042Y-124920835D01*
X96829000Y-124727500D01*
X96848042Y-124534165D01*
X96904435Y-124348261D01*
X96996014Y-124176930D01*
X97119257Y-124026757D01*
X97269430Y-123903514D01*
X97440761Y-123811935D01*
X97626665Y-123755542D01*
X97820000Y-123736500D01*
X98013335Y-123755542D01*
G37*
G36*
X159426811Y-123664711D02*
G01*
X159468588Y-123664711D01*
X159515718Y-123674728D01*
X159563017Y-123680058D01*
X159597408Y-123692092D01*
X159632110Y-123699468D01*
X159682117Y-123721733D01*
X159732107Y-123739225D01*
X159758128Y-123755575D01*
X159784835Y-123767466D01*
X159834633Y-123803646D01*
X159883792Y-123834535D01*
X159901444Y-123852187D01*
X159920084Y-123865730D01*
X159966165Y-123916908D01*
X160010465Y-123961208D01*
X160020654Y-123977424D01*
X160031946Y-123989965D01*
X160070573Y-124056870D01*
X160105775Y-124112893D01*
X160110170Y-124125453D01*
X160115535Y-124134746D01*
X160143010Y-124219305D01*
X160164942Y-124281983D01*
X160165773Y-124289363D01*
X160167195Y-124293738D01*
X160180076Y-124416306D01*
X160185000Y-124460000D01*
X160180076Y-124503697D01*
X160167195Y-124626261D01*
X160165773Y-124630635D01*
X160164942Y-124638017D01*
X160143005Y-124700707D01*
X160115535Y-124785253D01*
X160110171Y-124794543D01*
X160105775Y-124807107D01*
X160070566Y-124863140D01*
X160031946Y-124930034D01*
X160020656Y-124942572D01*
X160010465Y-124958792D01*
X159966155Y-125003101D01*
X159920084Y-125054269D01*
X159901448Y-125067808D01*
X159883792Y-125085465D01*
X159834623Y-125116359D01*
X159784835Y-125152533D01*
X159758134Y-125164421D01*
X159732107Y-125180775D01*
X159682107Y-125198270D01*
X159632110Y-125220531D01*
X159597414Y-125227905D01*
X159563017Y-125239942D01*
X159515715Y-125245271D01*
X159468588Y-125255289D01*
X159426811Y-125255289D01*
X159385000Y-125260000D01*
X159343189Y-125255289D01*
X159301412Y-125255289D01*
X159254284Y-125245271D01*
X159206983Y-125239942D01*
X159172586Y-125227906D01*
X159137889Y-125220531D01*
X159087887Y-125198268D01*
X159037893Y-125180775D01*
X159011868Y-125164422D01*
X158985164Y-125152533D01*
X158935369Y-125116355D01*
X158886208Y-125085465D01*
X158868554Y-125067811D01*
X158849915Y-125054269D01*
X158803833Y-125003090D01*
X158759535Y-124958792D01*
X158749345Y-124942575D01*
X158738053Y-124930034D01*
X158699420Y-124863120D01*
X158664225Y-124807107D01*
X158659830Y-124794547D01*
X158654464Y-124785253D01*
X158626980Y-124700667D01*
X158605058Y-124638017D01*
X158604226Y-124630639D01*
X158602804Y-124626261D01*
X158589908Y-124503565D01*
X158585000Y-124460000D01*
X158589908Y-124416438D01*
X158602804Y-124293738D01*
X158604226Y-124289358D01*
X158605058Y-124281983D01*
X158626975Y-124219345D01*
X158654464Y-124134746D01*
X158659831Y-124125449D01*
X158664225Y-124112893D01*
X158699413Y-124056890D01*
X158738053Y-123989965D01*
X158749347Y-123977421D01*
X158759535Y-123961208D01*
X158803826Y-123916916D01*
X158849917Y-123865728D01*
X158868559Y-123852183D01*
X158886208Y-123834535D01*
X158935354Y-123803654D01*
X158985162Y-123767467D01*
X159011873Y-123755574D01*
X159037893Y-123739225D01*
X159087877Y-123721734D01*
X159137889Y-123699468D01*
X159172592Y-123692091D01*
X159206983Y-123680058D01*
X159254281Y-123674728D01*
X159301412Y-123664711D01*
X159343189Y-123664711D01*
X159385000Y-123660000D01*
X159426811Y-123664711D01*
G37*
G36*
X167046811Y-123664711D02*
G01*
X167088588Y-123664711D01*
X167135718Y-123674728D01*
X167183017Y-123680058D01*
X167217408Y-123692092D01*
X167252110Y-123699468D01*
X167302117Y-123721733D01*
X167352107Y-123739225D01*
X167378128Y-123755575D01*
X167404835Y-123767466D01*
X167454633Y-123803646D01*
X167503792Y-123834535D01*
X167521444Y-123852187D01*
X167540084Y-123865730D01*
X167586165Y-123916908D01*
X167630465Y-123961208D01*
X167640654Y-123977424D01*
X167651946Y-123989965D01*
X167690573Y-124056870D01*
X167725775Y-124112893D01*
X167730170Y-124125453D01*
X167735535Y-124134746D01*
X167763010Y-124219305D01*
X167784942Y-124281983D01*
X167785773Y-124289363D01*
X167787195Y-124293738D01*
X167800076Y-124416306D01*
X167805000Y-124460000D01*
X167800076Y-124503697D01*
X167787195Y-124626261D01*
X167785773Y-124630635D01*
X167784942Y-124638017D01*
X167763005Y-124700707D01*
X167735535Y-124785253D01*
X167730171Y-124794543D01*
X167725775Y-124807107D01*
X167690566Y-124863140D01*
X167651946Y-124930034D01*
X167640656Y-124942572D01*
X167630465Y-124958792D01*
X167586155Y-125003101D01*
X167540084Y-125054269D01*
X167521448Y-125067808D01*
X167503792Y-125085465D01*
X167454623Y-125116359D01*
X167404835Y-125152533D01*
X167378134Y-125164421D01*
X167352107Y-125180775D01*
X167302107Y-125198270D01*
X167252110Y-125220531D01*
X167217414Y-125227905D01*
X167183017Y-125239942D01*
X167135715Y-125245271D01*
X167088588Y-125255289D01*
X167046811Y-125255289D01*
X167005000Y-125260000D01*
X166963189Y-125255289D01*
X166921412Y-125255289D01*
X166874284Y-125245271D01*
X166826983Y-125239942D01*
X166792586Y-125227906D01*
X166757889Y-125220531D01*
X166707887Y-125198268D01*
X166657893Y-125180775D01*
X166631868Y-125164422D01*
X166605164Y-125152533D01*
X166555369Y-125116355D01*
X166506208Y-125085465D01*
X166488554Y-125067811D01*
X166469915Y-125054269D01*
X166423833Y-125003090D01*
X166379535Y-124958792D01*
X166369345Y-124942575D01*
X166358053Y-124930034D01*
X166319420Y-124863120D01*
X166284225Y-124807107D01*
X166279830Y-124794547D01*
X166274464Y-124785253D01*
X166246980Y-124700667D01*
X166225058Y-124638017D01*
X166224226Y-124630639D01*
X166222804Y-124626261D01*
X166209908Y-124503565D01*
X166205000Y-124460000D01*
X166209908Y-124416438D01*
X166222804Y-124293738D01*
X166224226Y-124289358D01*
X166225058Y-124281983D01*
X166246975Y-124219345D01*
X166274464Y-124134746D01*
X166279831Y-124125449D01*
X166284225Y-124112893D01*
X166319413Y-124056890D01*
X166358053Y-123989965D01*
X166369347Y-123977421D01*
X166379535Y-123961208D01*
X166423826Y-123916916D01*
X166469917Y-123865728D01*
X166488559Y-123852183D01*
X166506208Y-123834535D01*
X166555354Y-123803654D01*
X166605162Y-123767467D01*
X166631873Y-123755574D01*
X166657893Y-123739225D01*
X166707877Y-123721734D01*
X166757889Y-123699468D01*
X166792592Y-123692091D01*
X166826983Y-123680058D01*
X166874281Y-123674728D01*
X166921412Y-123664711D01*
X166963189Y-123664711D01*
X167005000Y-123660000D01*
X167046811Y-123664711D01*
G37*
G36*
X171317811Y-123664711D02*
G01*
X171359588Y-123664711D01*
X171406718Y-123674728D01*
X171454017Y-123680058D01*
X171488408Y-123692092D01*
X171523110Y-123699468D01*
X171573117Y-123721733D01*
X171623107Y-123739225D01*
X171649128Y-123755575D01*
X171675835Y-123767466D01*
X171725633Y-123803646D01*
X171774792Y-123834535D01*
X171792444Y-123852187D01*
X171811084Y-123865730D01*
X171857165Y-123916908D01*
X171901465Y-123961208D01*
X171911654Y-123977424D01*
X171922946Y-123989965D01*
X171961573Y-124056870D01*
X171996775Y-124112893D01*
X172001170Y-124125453D01*
X172006535Y-124134746D01*
X172034010Y-124219305D01*
X172055942Y-124281983D01*
X172056773Y-124289363D01*
X172058195Y-124293738D01*
X172071076Y-124416306D01*
X172076000Y-124460000D01*
X172071076Y-124503697D01*
X172058195Y-124626261D01*
X172056773Y-124630635D01*
X172055942Y-124638017D01*
X172034005Y-124700707D01*
X172006535Y-124785253D01*
X172001171Y-124794543D01*
X171996775Y-124807107D01*
X171961566Y-124863140D01*
X171922946Y-124930034D01*
X171911656Y-124942572D01*
X171901465Y-124958792D01*
X171857155Y-125003101D01*
X171811084Y-125054269D01*
X171792448Y-125067808D01*
X171774792Y-125085465D01*
X171725623Y-125116359D01*
X171675835Y-125152533D01*
X171649134Y-125164421D01*
X171623107Y-125180775D01*
X171573107Y-125198270D01*
X171523110Y-125220531D01*
X171488414Y-125227905D01*
X171454017Y-125239942D01*
X171406715Y-125245271D01*
X171359588Y-125255289D01*
X171317811Y-125255289D01*
X171276000Y-125260000D01*
X171234189Y-125255289D01*
X171192412Y-125255289D01*
X171145284Y-125245271D01*
X171097983Y-125239942D01*
X171063586Y-125227906D01*
X171028889Y-125220531D01*
X170978887Y-125198268D01*
X170928893Y-125180775D01*
X170902868Y-125164422D01*
X170876164Y-125152533D01*
X170826369Y-125116355D01*
X170777208Y-125085465D01*
X170759554Y-125067811D01*
X170740915Y-125054269D01*
X170694833Y-125003090D01*
X170650535Y-124958792D01*
X170640345Y-124942575D01*
X170629053Y-124930034D01*
X170590420Y-124863120D01*
X170555225Y-124807107D01*
X170550830Y-124794547D01*
X170545464Y-124785253D01*
X170517980Y-124700667D01*
X170496058Y-124638017D01*
X170495226Y-124630639D01*
X170493804Y-124626261D01*
X170480908Y-124503565D01*
X170476000Y-124460000D01*
X170480908Y-124416438D01*
X170493804Y-124293738D01*
X170495226Y-124289358D01*
X170496058Y-124281983D01*
X170517975Y-124219345D01*
X170545464Y-124134746D01*
X170550831Y-124125449D01*
X170555225Y-124112893D01*
X170590413Y-124056890D01*
X170629053Y-123989965D01*
X170640347Y-123977421D01*
X170650535Y-123961208D01*
X170694826Y-123916916D01*
X170740917Y-123865728D01*
X170759559Y-123852183D01*
X170777208Y-123834535D01*
X170826354Y-123803654D01*
X170876162Y-123767467D01*
X170902873Y-123755574D01*
X170928893Y-123739225D01*
X170978877Y-123721734D01*
X171028889Y-123699468D01*
X171063592Y-123692091D01*
X171097983Y-123680058D01*
X171145281Y-123674728D01*
X171192412Y-123664711D01*
X171234189Y-123664711D01*
X171276000Y-123660000D01*
X171317811Y-123664711D01*
G37*
G36*
X176317811Y-123664711D02*
G01*
X176359588Y-123664711D01*
X176406718Y-123674728D01*
X176454017Y-123680058D01*
X176488408Y-123692092D01*
X176523110Y-123699468D01*
X176573117Y-123721733D01*
X176623107Y-123739225D01*
X176649128Y-123755575D01*
X176675835Y-123767466D01*
X176725633Y-123803646D01*
X176774792Y-123834535D01*
X176792444Y-123852187D01*
X176811084Y-123865730D01*
X176857165Y-123916908D01*
X176901465Y-123961208D01*
X176911654Y-123977424D01*
X176922946Y-123989965D01*
X176961573Y-124056870D01*
X176996775Y-124112893D01*
X177001170Y-124125453D01*
X177006535Y-124134746D01*
X177034010Y-124219305D01*
X177055942Y-124281983D01*
X177056773Y-124289363D01*
X177058195Y-124293738D01*
X177071076Y-124416306D01*
X177076000Y-124460000D01*
X177071076Y-124503697D01*
X177058195Y-124626261D01*
X177056773Y-124630635D01*
X177055942Y-124638017D01*
X177034005Y-124700707D01*
X177006535Y-124785253D01*
X177001171Y-124794543D01*
X176996775Y-124807107D01*
X176961566Y-124863140D01*
X176922946Y-124930034D01*
X176911656Y-124942572D01*
X176901465Y-124958792D01*
X176857155Y-125003101D01*
X176811084Y-125054269D01*
X176792448Y-125067808D01*
X176774792Y-125085465D01*
X176725623Y-125116359D01*
X176675835Y-125152533D01*
X176649134Y-125164421D01*
X176623107Y-125180775D01*
X176573107Y-125198270D01*
X176523110Y-125220531D01*
X176488414Y-125227905D01*
X176454017Y-125239942D01*
X176406715Y-125245271D01*
X176359588Y-125255289D01*
X176317811Y-125255289D01*
X176276000Y-125260000D01*
X176234189Y-125255289D01*
X176192412Y-125255289D01*
X176145284Y-125245271D01*
X176097983Y-125239942D01*
X176063586Y-125227906D01*
X176028889Y-125220531D01*
X175978887Y-125198268D01*
X175928893Y-125180775D01*
X175902868Y-125164422D01*
X175876164Y-125152533D01*
X175826369Y-125116355D01*
X175777208Y-125085465D01*
X175759554Y-125067811D01*
X175740915Y-125054269D01*
X175694833Y-125003090D01*
X175650535Y-124958792D01*
X175640345Y-124942575D01*
X175629053Y-124930034D01*
X175590420Y-124863120D01*
X175555225Y-124807107D01*
X175550830Y-124794547D01*
X175545464Y-124785253D01*
X175517980Y-124700667D01*
X175496058Y-124638017D01*
X175495226Y-124630639D01*
X175493804Y-124626261D01*
X175480908Y-124503565D01*
X175476000Y-124460000D01*
X175480908Y-124416438D01*
X175493804Y-124293738D01*
X175495226Y-124289358D01*
X175496058Y-124281983D01*
X175517975Y-124219345D01*
X175545464Y-124134746D01*
X175550831Y-124125449D01*
X175555225Y-124112893D01*
X175590413Y-124056890D01*
X175629053Y-123989965D01*
X175640347Y-123977421D01*
X175650535Y-123961208D01*
X175694826Y-123916916D01*
X175740917Y-123865728D01*
X175759559Y-123852183D01*
X175777208Y-123834535D01*
X175826354Y-123803654D01*
X175876162Y-123767467D01*
X175902873Y-123755574D01*
X175928893Y-123739225D01*
X175978877Y-123721734D01*
X176028889Y-123699468D01*
X176063592Y-123692091D01*
X176097983Y-123680058D01*
X176145281Y-123674728D01*
X176192412Y-123664711D01*
X176234189Y-123664711D01*
X176276000Y-123660000D01*
X176317811Y-123664711D01*
G37*
G36*
X122977811Y-121632711D02*
G01*
X123019588Y-121632711D01*
X123066718Y-121642728D01*
X123114017Y-121648058D01*
X123148408Y-121660092D01*
X123183110Y-121667468D01*
X123233117Y-121689733D01*
X123283107Y-121707225D01*
X123309128Y-121723575D01*
X123335835Y-121735466D01*
X123385633Y-121771646D01*
X123434792Y-121802535D01*
X123452444Y-121820187D01*
X123471084Y-121833730D01*
X123517165Y-121884908D01*
X123561465Y-121929208D01*
X123571654Y-121945424D01*
X123582946Y-121957965D01*
X123621573Y-122024870D01*
X123656775Y-122080893D01*
X123661170Y-122093453D01*
X123666535Y-122102746D01*
X123694010Y-122187305D01*
X123715942Y-122249983D01*
X123716773Y-122257363D01*
X123718195Y-122261738D01*
X123731076Y-122384306D01*
X123736000Y-122428000D01*
X123731076Y-122471697D01*
X123718195Y-122594261D01*
X123716773Y-122598635D01*
X123715942Y-122606017D01*
X123694005Y-122668707D01*
X123666535Y-122753253D01*
X123661171Y-122762543D01*
X123656775Y-122775107D01*
X123621566Y-122831140D01*
X123582946Y-122898034D01*
X123571656Y-122910572D01*
X123561465Y-122926792D01*
X123517155Y-122971101D01*
X123471084Y-123022269D01*
X123452448Y-123035808D01*
X123434792Y-123053465D01*
X123385623Y-123084359D01*
X123335835Y-123120533D01*
X123309134Y-123132421D01*
X123283107Y-123148775D01*
X123233107Y-123166270D01*
X123183110Y-123188531D01*
X123148414Y-123195905D01*
X123114017Y-123207942D01*
X123066715Y-123213271D01*
X123019588Y-123223289D01*
X122977811Y-123223289D01*
X122936000Y-123228000D01*
X122894189Y-123223289D01*
X122852412Y-123223289D01*
X122805284Y-123213271D01*
X122757983Y-123207942D01*
X122723586Y-123195906D01*
X122688889Y-123188531D01*
X122638887Y-123166268D01*
X122588893Y-123148775D01*
X122562868Y-123132422D01*
X122536164Y-123120533D01*
X122486369Y-123084355D01*
X122437208Y-123053465D01*
X122419554Y-123035811D01*
X122400915Y-123022269D01*
X122354833Y-122971090D01*
X122310535Y-122926792D01*
X122300345Y-122910575D01*
X122289053Y-122898034D01*
X122250420Y-122831120D01*
X122215225Y-122775107D01*
X122210830Y-122762547D01*
X122205464Y-122753253D01*
X122177980Y-122668667D01*
X122156058Y-122606017D01*
X122155226Y-122598639D01*
X122153804Y-122594261D01*
X122140908Y-122471565D01*
X122136000Y-122428000D01*
X122140908Y-122384438D01*
X122153804Y-122261738D01*
X122155226Y-122257358D01*
X122156058Y-122249983D01*
X122177975Y-122187345D01*
X122205464Y-122102746D01*
X122210831Y-122093449D01*
X122215225Y-122080893D01*
X122250413Y-122024890D01*
X122289053Y-121957965D01*
X122300347Y-121945421D01*
X122310535Y-121929208D01*
X122354826Y-121884916D01*
X122400917Y-121833728D01*
X122419559Y-121820183D01*
X122437208Y-121802535D01*
X122486354Y-121771654D01*
X122536162Y-121735467D01*
X122562873Y-121723574D01*
X122588893Y-121707225D01*
X122638877Y-121689734D01*
X122688889Y-121667468D01*
X122723592Y-121660091D01*
X122757983Y-121648058D01*
X122805281Y-121642728D01*
X122852412Y-121632711D01*
X122894189Y-121632711D01*
X122936000Y-121628000D01*
X122977811Y-121632711D01*
G37*
G36*
X87876192Y-120008914D02*
G01*
X88085815Y-120065083D01*
X88282500Y-120156798D01*
X88460271Y-120281275D01*
X88613725Y-120434729D01*
X88738202Y-120612500D01*
X88829917Y-120809185D01*
X88886086Y-121018808D01*
X88905000Y-121235000D01*
X88886086Y-121451192D01*
X88829917Y-121660815D01*
X88738202Y-121857500D01*
X88613725Y-122035271D01*
X88460271Y-122188725D01*
X88282500Y-122313202D01*
X88085815Y-122404917D01*
X87876192Y-122461086D01*
X87660000Y-122480000D01*
X87443808Y-122461086D01*
X87234185Y-122404917D01*
X87037500Y-122313202D01*
X86859729Y-122188725D01*
X86706275Y-122035271D01*
X86581798Y-121857500D01*
X86490083Y-121660815D01*
X86433914Y-121451192D01*
X86415000Y-121235000D01*
X86433914Y-121018808D01*
X86490083Y-120809185D01*
X86581798Y-120612500D01*
X86706275Y-120434729D01*
X86859729Y-120281275D01*
X87037500Y-120156798D01*
X87234185Y-120065083D01*
X87443808Y-120008914D01*
X87660000Y-119990000D01*
X87876192Y-120008914D01*
G37*
G36*
X103116192Y-120008914D02*
G01*
X103325815Y-120065083D01*
X103522500Y-120156798D01*
X103700271Y-120281275D01*
X103853725Y-120434729D01*
X103978202Y-120612500D01*
X104069917Y-120809185D01*
X104126086Y-121018808D01*
X104145000Y-121235000D01*
X104126086Y-121451192D01*
X104069917Y-121660815D01*
X103978202Y-121857500D01*
X103853725Y-122035271D01*
X103700271Y-122188725D01*
X103522500Y-122313202D01*
X103325815Y-122404917D01*
X103116192Y-122461086D01*
X102900000Y-122480000D01*
X102683808Y-122461086D01*
X102474185Y-122404917D01*
X102277500Y-122313202D01*
X102099729Y-122188725D01*
X101946275Y-122035271D01*
X101821798Y-121857500D01*
X101730083Y-121660815D01*
X101673914Y-121451192D01*
X101655000Y-121235000D01*
X101673914Y-121018808D01*
X101730083Y-120809185D01*
X101821798Y-120612500D01*
X101946275Y-120434729D01*
X102099729Y-120281275D01*
X102277500Y-120156798D01*
X102474185Y-120065083D01*
X102683808Y-120008914D01*
X102900000Y-119990000D01*
X103116192Y-120008914D01*
G37*
G36*
X181437116Y-120154575D02*
G01*
X181619770Y-120190907D01*
X181791827Y-120262175D01*
X181946674Y-120365640D01*
X182078360Y-120497326D01*
X182181825Y-120652173D01*
X182253093Y-120824230D01*
X182289425Y-121006884D01*
X182289425Y-121193116D01*
X182253093Y-121375770D01*
X182181825Y-121547827D01*
X182078360Y-121702674D01*
X181946674Y-121834360D01*
X181791827Y-121937825D01*
X181619770Y-122009093D01*
X181437116Y-122045425D01*
X181344000Y-122050000D01*
X181342522Y-122050000D01*
X180045478Y-122050000D01*
X180044000Y-122050000D01*
X179950884Y-122045425D01*
X179768230Y-122009093D01*
X179596173Y-121937825D01*
X179441326Y-121834360D01*
X179309640Y-121702674D01*
X179206175Y-121547827D01*
X179134907Y-121375770D01*
X179098575Y-121193116D01*
X179098575Y-121006884D01*
X179134907Y-120824230D01*
X179206175Y-120652173D01*
X179309640Y-120497326D01*
X179441326Y-120365640D01*
X179596173Y-120262175D01*
X179768230Y-120190907D01*
X179950884Y-120154575D01*
X180044000Y-120150000D01*
X181344000Y-120150000D01*
X181437116Y-120154575D01*
G37*
G36*
X193937116Y-120154575D02*
G01*
X194119770Y-120190907D01*
X194291827Y-120262175D01*
X194446674Y-120365640D01*
X194578360Y-120497326D01*
X194681825Y-120652173D01*
X194753093Y-120824230D01*
X194789425Y-121006884D01*
X194789425Y-121193116D01*
X194753093Y-121375770D01*
X194681825Y-121547827D01*
X194578360Y-121702674D01*
X194446674Y-121834360D01*
X194291827Y-121937825D01*
X194119770Y-122009093D01*
X193937116Y-122045425D01*
X193844000Y-122050000D01*
X193842522Y-122050000D01*
X192545478Y-122050000D01*
X192544000Y-122050000D01*
X192450884Y-122045425D01*
X192268230Y-122009093D01*
X192096173Y-121937825D01*
X191941326Y-121834360D01*
X191809640Y-121702674D01*
X191706175Y-121547827D01*
X191634907Y-121375770D01*
X191598575Y-121193116D01*
X191598575Y-121006884D01*
X191634907Y-120824230D01*
X191706175Y-120652173D01*
X191809640Y-120497326D01*
X191941326Y-120365640D01*
X192096173Y-120262175D01*
X192268230Y-120190907D01*
X192450884Y-120154575D01*
X192544000Y-120150000D01*
X193844000Y-120150000D01*
X193937116Y-120154575D01*
G37*
G36*
X129074561Y-120542105D02*
G01*
X129235619Y-120598462D01*
X129380099Y-120689244D01*
X129500756Y-120809901D01*
X129591538Y-120954381D01*
X129647895Y-121115439D01*
X129667000Y-121285000D01*
X129647895Y-121454561D01*
X129591538Y-121615619D01*
X129500756Y-121760099D01*
X129380099Y-121880756D01*
X129235619Y-121971538D01*
X129074561Y-122027895D01*
X128905000Y-122047000D01*
X128735439Y-122027895D01*
X128574381Y-121971538D01*
X128429901Y-121880756D01*
X128309244Y-121760099D01*
X128218462Y-121615619D01*
X128162105Y-121454561D01*
X128143000Y-121285000D01*
X128162105Y-121115439D01*
X128218462Y-120954381D01*
X128309244Y-120809901D01*
X128429901Y-120689244D01*
X128574381Y-120598462D01*
X128735439Y-120542105D01*
X128905000Y-120523000D01*
X129074561Y-120542105D01*
G37*
G36*
X154474561Y-120542105D02*
G01*
X154635619Y-120598462D01*
X154780099Y-120689244D01*
X154900756Y-120809901D01*
X154991538Y-120954381D01*
X155047895Y-121115439D01*
X155067000Y-121285000D01*
X155047895Y-121454561D01*
X154991538Y-121615619D01*
X154900756Y-121760099D01*
X154780099Y-121880756D01*
X154635619Y-121971538D01*
X154474561Y-122027895D01*
X154305000Y-122047000D01*
X154135439Y-122027895D01*
X153974381Y-121971538D01*
X153829901Y-121880756D01*
X153709244Y-121760099D01*
X153618462Y-121615619D01*
X153562105Y-121454561D01*
X153543000Y-121285000D01*
X153562105Y-121115439D01*
X153618462Y-120954381D01*
X153709244Y-120809901D01*
X153829901Y-120689244D01*
X153974381Y-120598462D01*
X154135439Y-120542105D01*
X154305000Y-120523000D01*
X154474561Y-120542105D01*
G37*
G36*
X159426811Y-118330711D02*
G01*
X159468588Y-118330711D01*
X159515718Y-118340728D01*
X159563017Y-118346058D01*
X159597408Y-118358092D01*
X159632110Y-118365468D01*
X159682117Y-118387733D01*
X159732107Y-118405225D01*
X159758128Y-118421575D01*
X159784835Y-118433466D01*
X159834633Y-118469646D01*
X159883792Y-118500535D01*
X159901444Y-118518187D01*
X159920084Y-118531730D01*
X159966165Y-118582908D01*
X160010465Y-118627208D01*
X160020654Y-118643424D01*
X160031946Y-118655965D01*
X160070573Y-118722870D01*
X160105775Y-118778893D01*
X160110170Y-118791453D01*
X160115535Y-118800746D01*
X160143010Y-118885305D01*
X160164942Y-118947983D01*
X160165773Y-118955363D01*
X160167195Y-118959738D01*
X160180076Y-119082306D01*
X160185000Y-119126000D01*
X160180076Y-119169697D01*
X160167195Y-119292261D01*
X160165773Y-119296635D01*
X160164942Y-119304017D01*
X160143005Y-119366707D01*
X160115535Y-119451253D01*
X160110171Y-119460543D01*
X160105775Y-119473107D01*
X160070566Y-119529140D01*
X160031946Y-119596034D01*
X160020656Y-119608572D01*
X160010465Y-119624792D01*
X159966155Y-119669101D01*
X159920084Y-119720269D01*
X159901448Y-119733808D01*
X159883792Y-119751465D01*
X159834623Y-119782359D01*
X159784835Y-119818533D01*
X159758134Y-119830421D01*
X159732107Y-119846775D01*
X159682107Y-119864270D01*
X159632110Y-119886531D01*
X159597414Y-119893905D01*
X159563017Y-119905942D01*
X159515715Y-119911271D01*
X159468588Y-119921289D01*
X159426811Y-119921289D01*
X159385000Y-119926000D01*
X159343189Y-119921289D01*
X159301412Y-119921289D01*
X159254284Y-119911271D01*
X159206983Y-119905942D01*
X159172586Y-119893906D01*
X159137889Y-119886531D01*
X159087887Y-119864268D01*
X159037893Y-119846775D01*
X159011868Y-119830422D01*
X158985164Y-119818533D01*
X158935369Y-119782355D01*
X158886208Y-119751465D01*
X158868554Y-119733811D01*
X158849915Y-119720269D01*
X158803833Y-119669090D01*
X158759535Y-119624792D01*
X158749345Y-119608575D01*
X158738053Y-119596034D01*
X158699420Y-119529120D01*
X158664225Y-119473107D01*
X158659830Y-119460547D01*
X158654464Y-119451253D01*
X158626980Y-119366667D01*
X158605058Y-119304017D01*
X158604226Y-119296639D01*
X158602804Y-119292261D01*
X158589908Y-119169565D01*
X158585000Y-119126000D01*
X158589908Y-119082438D01*
X158602804Y-118959738D01*
X158604226Y-118955358D01*
X158605058Y-118947983D01*
X158626975Y-118885345D01*
X158654464Y-118800746D01*
X158659831Y-118791449D01*
X158664225Y-118778893D01*
X158699413Y-118722890D01*
X158738053Y-118655965D01*
X158749347Y-118643421D01*
X158759535Y-118627208D01*
X158803826Y-118582916D01*
X158849917Y-118531728D01*
X158868559Y-118518183D01*
X158886208Y-118500535D01*
X158935354Y-118469654D01*
X158985162Y-118433467D01*
X159011873Y-118421574D01*
X159037893Y-118405225D01*
X159087877Y-118387734D01*
X159137889Y-118365468D01*
X159172592Y-118358091D01*
X159206983Y-118346058D01*
X159254281Y-118340728D01*
X159301412Y-118330711D01*
X159343189Y-118330711D01*
X159385000Y-118326000D01*
X159426811Y-118330711D01*
G37*
G36*
X167046811Y-118330711D02*
G01*
X167088588Y-118330711D01*
X167135718Y-118340728D01*
X167183017Y-118346058D01*
X167217408Y-118358092D01*
X167252110Y-118365468D01*
X167302117Y-118387733D01*
X167352107Y-118405225D01*
X167378128Y-118421575D01*
X167404835Y-118433466D01*
X167454633Y-118469646D01*
X167503792Y-118500535D01*
X167521444Y-118518187D01*
X167540084Y-118531730D01*
X167586165Y-118582908D01*
X167630465Y-118627208D01*
X167640654Y-118643424D01*
X167651946Y-118655965D01*
X167690573Y-118722870D01*
X167725775Y-118778893D01*
X167730170Y-118791453D01*
X167735535Y-118800746D01*
X167763010Y-118885305D01*
X167784942Y-118947983D01*
X167785773Y-118955363D01*
X167787195Y-118959738D01*
X167800076Y-119082306D01*
X167805000Y-119126000D01*
X167800076Y-119169697D01*
X167787195Y-119292261D01*
X167785773Y-119296635D01*
X167784942Y-119304017D01*
X167763005Y-119366707D01*
X167735535Y-119451253D01*
X167730171Y-119460543D01*
X167725775Y-119473107D01*
X167690566Y-119529140D01*
X167651946Y-119596034D01*
X167640656Y-119608572D01*
X167630465Y-119624792D01*
X167586155Y-119669101D01*
X167540084Y-119720269D01*
X167521448Y-119733808D01*
X167503792Y-119751465D01*
X167454623Y-119782359D01*
X167404835Y-119818533D01*
X167378134Y-119830421D01*
X167352107Y-119846775D01*
X167302107Y-119864270D01*
X167252110Y-119886531D01*
X167217414Y-119893905D01*
X167183017Y-119905942D01*
X167135715Y-119911271D01*
X167088588Y-119921289D01*
X167046811Y-119921289D01*
X167005000Y-119926000D01*
X166963189Y-119921289D01*
X166921412Y-119921289D01*
X166874284Y-119911271D01*
X166826983Y-119905942D01*
X166792586Y-119893906D01*
X166757889Y-119886531D01*
X166707887Y-119864268D01*
X166657893Y-119846775D01*
X166631868Y-119830422D01*
X166605164Y-119818533D01*
X166555369Y-119782355D01*
X166506208Y-119751465D01*
X166488554Y-119733811D01*
X166469915Y-119720269D01*
X166423833Y-119669090D01*
X166379535Y-119624792D01*
X166369345Y-119608575D01*
X166358053Y-119596034D01*
X166319420Y-119529120D01*
X166284225Y-119473107D01*
X166279830Y-119460547D01*
X166274464Y-119451253D01*
X166246980Y-119366667D01*
X166225058Y-119304017D01*
X166224226Y-119296639D01*
X166222804Y-119292261D01*
X166209908Y-119169565D01*
X166205000Y-119126000D01*
X166209908Y-119082438D01*
X166222804Y-118959738D01*
X166224226Y-118955358D01*
X166225058Y-118947983D01*
X166246975Y-118885345D01*
X166274464Y-118800746D01*
X166279831Y-118791449D01*
X166284225Y-118778893D01*
X166319413Y-118722890D01*
X166358053Y-118655965D01*
X166369347Y-118643421D01*
X166379535Y-118627208D01*
X166423826Y-118582916D01*
X166469917Y-118531728D01*
X166488559Y-118518183D01*
X166506208Y-118500535D01*
X166555354Y-118469654D01*
X166605162Y-118433467D01*
X166631873Y-118421574D01*
X166657893Y-118405225D01*
X166707877Y-118387734D01*
X166757889Y-118365468D01*
X166792592Y-118358091D01*
X166826983Y-118346058D01*
X166874281Y-118340728D01*
X166921412Y-118330711D01*
X166963189Y-118330711D01*
X167005000Y-118326000D01*
X167046811Y-118330711D01*
G37*
G36*
X171277811Y-118330711D02*
G01*
X171319588Y-118330711D01*
X171366718Y-118340728D01*
X171414017Y-118346058D01*
X171448408Y-118358092D01*
X171483110Y-118365468D01*
X171533117Y-118387733D01*
X171583107Y-118405225D01*
X171609128Y-118421575D01*
X171635835Y-118433466D01*
X171685633Y-118469646D01*
X171734792Y-118500535D01*
X171752444Y-118518187D01*
X171771084Y-118531730D01*
X171817165Y-118582908D01*
X171861465Y-118627208D01*
X171871654Y-118643424D01*
X171882946Y-118655965D01*
X171921573Y-118722870D01*
X171956775Y-118778893D01*
X171961170Y-118791453D01*
X171966535Y-118800746D01*
X171994010Y-118885305D01*
X172015942Y-118947983D01*
X172016773Y-118955363D01*
X172018195Y-118959738D01*
X172031076Y-119082306D01*
X172036000Y-119126000D01*
X172031076Y-119169697D01*
X172018195Y-119292261D01*
X172016773Y-119296635D01*
X172015942Y-119304017D01*
X171994005Y-119366707D01*
X171966535Y-119451253D01*
X171961171Y-119460543D01*
X171956775Y-119473107D01*
X171921566Y-119529140D01*
X171882946Y-119596034D01*
X171871656Y-119608572D01*
X171861465Y-119624792D01*
X171817155Y-119669101D01*
X171771084Y-119720269D01*
X171752448Y-119733808D01*
X171734792Y-119751465D01*
X171685623Y-119782359D01*
X171635835Y-119818533D01*
X171609134Y-119830421D01*
X171583107Y-119846775D01*
X171533107Y-119864270D01*
X171483110Y-119886531D01*
X171448414Y-119893905D01*
X171414017Y-119905942D01*
X171366715Y-119911271D01*
X171319588Y-119921289D01*
X171277811Y-119921289D01*
X171236000Y-119926000D01*
X171194189Y-119921289D01*
X171152412Y-119921289D01*
X171105284Y-119911271D01*
X171057983Y-119905942D01*
X171023586Y-119893906D01*
X170988889Y-119886531D01*
X170938887Y-119864268D01*
X170888893Y-119846775D01*
X170862868Y-119830422D01*
X170836164Y-119818533D01*
X170786369Y-119782355D01*
X170737208Y-119751465D01*
X170719554Y-119733811D01*
X170700915Y-119720269D01*
X170654833Y-119669090D01*
X170610535Y-119624792D01*
X170600345Y-119608575D01*
X170589053Y-119596034D01*
X170550420Y-119529120D01*
X170515225Y-119473107D01*
X170510830Y-119460547D01*
X170505464Y-119451253D01*
X170477980Y-119366667D01*
X170456058Y-119304017D01*
X170455226Y-119296639D01*
X170453804Y-119292261D01*
X170440908Y-119169565D01*
X170436000Y-119126000D01*
X170440908Y-119082438D01*
X170453804Y-118959738D01*
X170455226Y-118955358D01*
X170456058Y-118947983D01*
X170477975Y-118885345D01*
X170505464Y-118800746D01*
X170510831Y-118791449D01*
X170515225Y-118778893D01*
X170550413Y-118722890D01*
X170589053Y-118655965D01*
X170600347Y-118643421D01*
X170610535Y-118627208D01*
X170654826Y-118582916D01*
X170700917Y-118531728D01*
X170719559Y-118518183D01*
X170737208Y-118500535D01*
X170786354Y-118469654D01*
X170836162Y-118433467D01*
X170862873Y-118421574D01*
X170888893Y-118405225D01*
X170938877Y-118387734D01*
X170988889Y-118365468D01*
X171023592Y-118358091D01*
X171057983Y-118346058D01*
X171105281Y-118340728D01*
X171152412Y-118330711D01*
X171194189Y-118330711D01*
X171236000Y-118326000D01*
X171277811Y-118330711D01*
G37*
G36*
X176277811Y-118330711D02*
G01*
X176319588Y-118330711D01*
X176366718Y-118340728D01*
X176414017Y-118346058D01*
X176448408Y-118358092D01*
X176483110Y-118365468D01*
X176533117Y-118387733D01*
X176583107Y-118405225D01*
X176609128Y-118421575D01*
X176635835Y-118433466D01*
X176685633Y-118469646D01*
X176734792Y-118500535D01*
X176752444Y-118518187D01*
X176771084Y-118531730D01*
X176817165Y-118582908D01*
X176861465Y-118627208D01*
X176871654Y-118643424D01*
X176882946Y-118655965D01*
X176921573Y-118722870D01*
X176956775Y-118778893D01*
X176961170Y-118791453D01*
X176966535Y-118800746D01*
X176994010Y-118885305D01*
X177015942Y-118947983D01*
X177016773Y-118955363D01*
X177018195Y-118959738D01*
X177031076Y-119082306D01*
X177036000Y-119126000D01*
X177031076Y-119169697D01*
X177018195Y-119292261D01*
X177016773Y-119296635D01*
X177015942Y-119304017D01*
X176994005Y-119366707D01*
X176966535Y-119451253D01*
X176961171Y-119460543D01*
X176956775Y-119473107D01*
X176921566Y-119529140D01*
X176882946Y-119596034D01*
X176871656Y-119608572D01*
X176861465Y-119624792D01*
X176817155Y-119669101D01*
X176771084Y-119720269D01*
X176752448Y-119733808D01*
X176734792Y-119751465D01*
X176685623Y-119782359D01*
X176635835Y-119818533D01*
X176609134Y-119830421D01*
X176583107Y-119846775D01*
X176533107Y-119864270D01*
X176483110Y-119886531D01*
X176448414Y-119893905D01*
X176414017Y-119905942D01*
X176366715Y-119911271D01*
X176319588Y-119921289D01*
X176277811Y-119921289D01*
X176236000Y-119926000D01*
X176194189Y-119921289D01*
X176152412Y-119921289D01*
X176105284Y-119911271D01*
X176057983Y-119905942D01*
X176023586Y-119893906D01*
X175988889Y-119886531D01*
X175938887Y-119864268D01*
X175888893Y-119846775D01*
X175862868Y-119830422D01*
X175836164Y-119818533D01*
X175786369Y-119782355D01*
X175737208Y-119751465D01*
X175719554Y-119733811D01*
X175700915Y-119720269D01*
X175654833Y-119669090D01*
X175610535Y-119624792D01*
X175600345Y-119608575D01*
X175589053Y-119596034D01*
X175550420Y-119529120D01*
X175515225Y-119473107D01*
X175510830Y-119460547D01*
X175505464Y-119451253D01*
X175477980Y-119366667D01*
X175456058Y-119304017D01*
X175455226Y-119296639D01*
X175453804Y-119292261D01*
X175440908Y-119169565D01*
X175436000Y-119126000D01*
X175440908Y-119082438D01*
X175453804Y-118959738D01*
X175455226Y-118955358D01*
X175456058Y-118947983D01*
X175477975Y-118885345D01*
X175505464Y-118800746D01*
X175510831Y-118791449D01*
X175515225Y-118778893D01*
X175550413Y-118722890D01*
X175589053Y-118655965D01*
X175600347Y-118643421D01*
X175610535Y-118627208D01*
X175654826Y-118582916D01*
X175700917Y-118531728D01*
X175719559Y-118518183D01*
X175737208Y-118500535D01*
X175786354Y-118469654D01*
X175836162Y-118433467D01*
X175862873Y-118421574D01*
X175888893Y-118405225D01*
X175938877Y-118387734D01*
X175988889Y-118365468D01*
X176023592Y-118358091D01*
X176057983Y-118346058D01*
X176105281Y-118340728D01*
X176152412Y-118330711D01*
X176194189Y-118330711D01*
X176236000Y-118326000D01*
X176277811Y-118330711D01*
G37*
G36*
X129074561Y-118002105D02*
G01*
X129235619Y-118058462D01*
X129380099Y-118149244D01*
X129500756Y-118269901D01*
X129591538Y-118414381D01*
X129647895Y-118575439D01*
X129667000Y-118745000D01*
X129647895Y-118914561D01*
X129591538Y-119075619D01*
X129500756Y-119220099D01*
X129380099Y-119340756D01*
X129235619Y-119431538D01*
X129074561Y-119487895D01*
X128905000Y-119507000D01*
X128735439Y-119487895D01*
X128574381Y-119431538D01*
X128429901Y-119340756D01*
X128309244Y-119220099D01*
X128218462Y-119075619D01*
X128162105Y-118914561D01*
X128143000Y-118745000D01*
X128162105Y-118575439D01*
X128218462Y-118414381D01*
X128309244Y-118269901D01*
X128429901Y-118149244D01*
X128574381Y-118058462D01*
X128735439Y-118002105D01*
X128905000Y-117983000D01*
X129074561Y-118002105D01*
G37*
G36*
X154474561Y-118002105D02*
G01*
X154635619Y-118058462D01*
X154780099Y-118149244D01*
X154900756Y-118269901D01*
X154991538Y-118414381D01*
X155047895Y-118575439D01*
X155067000Y-118745000D01*
X155047895Y-118914561D01*
X154991538Y-119075619D01*
X154900756Y-119220099D01*
X154780099Y-119340756D01*
X154635619Y-119431538D01*
X154474561Y-119487895D01*
X154305000Y-119507000D01*
X154135439Y-119487895D01*
X153974381Y-119431538D01*
X153829901Y-119340756D01*
X153709244Y-119220099D01*
X153618462Y-119075619D01*
X153562105Y-118914561D01*
X153543000Y-118745000D01*
X153562105Y-118575439D01*
X153618462Y-118414381D01*
X153709244Y-118269901D01*
X153829901Y-118149244D01*
X153974381Y-118058462D01*
X154135439Y-118002105D01*
X154305000Y-117983000D01*
X154474561Y-118002105D01*
G37*
G36*
X123041811Y-117822711D02*
G01*
X123083588Y-117822711D01*
X123130718Y-117832728D01*
X123178017Y-117838058D01*
X123212408Y-117850092D01*
X123247110Y-117857468D01*
X123297117Y-117879733D01*
X123347107Y-117897225D01*
X123373128Y-117913575D01*
X123399835Y-117925466D01*
X123449633Y-117961646D01*
X123498792Y-117992535D01*
X123516444Y-118010187D01*
X123535084Y-118023730D01*
X123581165Y-118074908D01*
X123625465Y-118119208D01*
X123635654Y-118135424D01*
X123646946Y-118147965D01*
X123685573Y-118214870D01*
X123720775Y-118270893D01*
X123725170Y-118283453D01*
X123730535Y-118292746D01*
X123758010Y-118377305D01*
X123779942Y-118439983D01*
X123780773Y-118447363D01*
X123782195Y-118451738D01*
X123795076Y-118574306D01*
X123800000Y-118618000D01*
X123795076Y-118661697D01*
X123782195Y-118784261D01*
X123780773Y-118788635D01*
X123779942Y-118796017D01*
X123758005Y-118858707D01*
X123730535Y-118943253D01*
X123725171Y-118952543D01*
X123720775Y-118965107D01*
X123685566Y-119021140D01*
X123646946Y-119088034D01*
X123635656Y-119100572D01*
X123625465Y-119116792D01*
X123581155Y-119161101D01*
X123535084Y-119212269D01*
X123516448Y-119225808D01*
X123498792Y-119243465D01*
X123449623Y-119274359D01*
X123399835Y-119310533D01*
X123373134Y-119322421D01*
X123347107Y-119338775D01*
X123297107Y-119356270D01*
X123247110Y-119378531D01*
X123212414Y-119385905D01*
X123178017Y-119397942D01*
X123130715Y-119403271D01*
X123083588Y-119413289D01*
X123041811Y-119413289D01*
X123000000Y-119418000D01*
X122958189Y-119413289D01*
X122916412Y-119413289D01*
X122869284Y-119403271D01*
X122821983Y-119397942D01*
X122787586Y-119385906D01*
X122752889Y-119378531D01*
X122702887Y-119356268D01*
X122652893Y-119338775D01*
X122626868Y-119322422D01*
X122600164Y-119310533D01*
X122550369Y-119274355D01*
X122501208Y-119243465D01*
X122483554Y-119225811D01*
X122464915Y-119212269D01*
X122418833Y-119161090D01*
X122374535Y-119116792D01*
X122364345Y-119100575D01*
X122353053Y-119088034D01*
X122314420Y-119021120D01*
X122279225Y-118965107D01*
X122274830Y-118952547D01*
X122269464Y-118943253D01*
X122241980Y-118858667D01*
X122220058Y-118796017D01*
X122219226Y-118788639D01*
X122217804Y-118784261D01*
X122204908Y-118661565D01*
X122200000Y-118618000D01*
X122204908Y-118574438D01*
X122217804Y-118451738D01*
X122219226Y-118447358D01*
X122220058Y-118439983D01*
X122241975Y-118377345D01*
X122269464Y-118292746D01*
X122274831Y-118283449D01*
X122279225Y-118270893D01*
X122314413Y-118214890D01*
X122353053Y-118147965D01*
X122364347Y-118135421D01*
X122374535Y-118119208D01*
X122418826Y-118074916D01*
X122464917Y-118023728D01*
X122483559Y-118010183D01*
X122501208Y-117992535D01*
X122550354Y-117961654D01*
X122600162Y-117925467D01*
X122626873Y-117913574D01*
X122652893Y-117897225D01*
X122702877Y-117879734D01*
X122752889Y-117857468D01*
X122787592Y-117850091D01*
X122821983Y-117838058D01*
X122869281Y-117832728D01*
X122916412Y-117822711D01*
X122958189Y-117822711D01*
X123000000Y-117818000D01*
X123041811Y-117822711D01*
G37*
G36*
X85313335Y-116135542D02*
G01*
X85499239Y-116191935D01*
X85670570Y-116283514D01*
X85820743Y-116406757D01*
X85943986Y-116556930D01*
X86035565Y-116728261D01*
X86091958Y-116914165D01*
X86111000Y-117107500D01*
X86091958Y-117300835D01*
X86035565Y-117486739D01*
X85943986Y-117658070D01*
X85820743Y-117808243D01*
X85670570Y-117931486D01*
X85499239Y-118023065D01*
X85313335Y-118079458D01*
X85120000Y-118098500D01*
X84926665Y-118079458D01*
X84740761Y-118023065D01*
X84569430Y-117931486D01*
X84419257Y-117808243D01*
X84296014Y-117658070D01*
X84204435Y-117486739D01*
X84148042Y-117300835D01*
X84129000Y-117107500D01*
X84148042Y-116914165D01*
X84204435Y-116728261D01*
X84296014Y-116556930D01*
X84419257Y-116406757D01*
X84569430Y-116283514D01*
X84740761Y-116191935D01*
X84926665Y-116135542D01*
X85120000Y-116116500D01*
X85313335Y-116135542D01*
G37*
G36*
X181437116Y-115154575D02*
G01*
X181619770Y-115190907D01*
X181791827Y-115262175D01*
X181946674Y-115365640D01*
X182078360Y-115497326D01*
X182181825Y-115652173D01*
X182253093Y-115824230D01*
X182289425Y-116006884D01*
X182289425Y-116193116D01*
X182253093Y-116375770D01*
X182181825Y-116547827D01*
X182078360Y-116702674D01*
X181946674Y-116834360D01*
X181791827Y-116937825D01*
X181619770Y-117009093D01*
X181437116Y-117045425D01*
X181344000Y-117050000D01*
X181342522Y-117050000D01*
X180045478Y-117050000D01*
X180044000Y-117050000D01*
X179950884Y-117045425D01*
X179768230Y-117009093D01*
X179596173Y-116937825D01*
X179441326Y-116834360D01*
X179309640Y-116702674D01*
X179206175Y-116547827D01*
X179134907Y-116375770D01*
X179098575Y-116193116D01*
X179098575Y-116006884D01*
X179134907Y-115824230D01*
X179206175Y-115652173D01*
X179309640Y-115497326D01*
X179441326Y-115365640D01*
X179596173Y-115262175D01*
X179768230Y-115190907D01*
X179950884Y-115154575D01*
X180044000Y-115150000D01*
X181344000Y-115150000D01*
X181437116Y-115154575D01*
G37*
G36*
X193937116Y-115154575D02*
G01*
X194119770Y-115190907D01*
X194291827Y-115262175D01*
X194446674Y-115365640D01*
X194578360Y-115497326D01*
X194681825Y-115652173D01*
X194753093Y-115824230D01*
X194789425Y-116006884D01*
X194789425Y-116193116D01*
X194753093Y-116375770D01*
X194681825Y-116547827D01*
X194578360Y-116702674D01*
X194446674Y-116834360D01*
X194291827Y-116937825D01*
X194119770Y-117009093D01*
X193937116Y-117045425D01*
X193844000Y-117050000D01*
X193842522Y-117050000D01*
X192545478Y-117050000D01*
X192544000Y-117050000D01*
X192450884Y-117045425D01*
X192268230Y-117009093D01*
X192096173Y-116937825D01*
X191941326Y-116834360D01*
X191809640Y-116702674D01*
X191706175Y-116547827D01*
X191634907Y-116375770D01*
X191598575Y-116193116D01*
X191598575Y-116006884D01*
X191634907Y-115824230D01*
X191706175Y-115652173D01*
X191809640Y-115497326D01*
X191941326Y-115365640D01*
X192096173Y-115262175D01*
X192268230Y-115190907D01*
X192450884Y-115154575D01*
X192544000Y-115150000D01*
X193844000Y-115150000D01*
X193937116Y-115154575D01*
G37*
G36*
X129074561Y-115462105D02*
G01*
X129235619Y-115518462D01*
X129380099Y-115609244D01*
X129500756Y-115729901D01*
X129591538Y-115874381D01*
X129647895Y-116035439D01*
X129667000Y-116205000D01*
X129647895Y-116374561D01*
X129591538Y-116535619D01*
X129500756Y-116680099D01*
X129380099Y-116800756D01*
X129235619Y-116891538D01*
X129074561Y-116947895D01*
X128905000Y-116967000D01*
X128735439Y-116947895D01*
X128574381Y-116891538D01*
X128429901Y-116800756D01*
X128309244Y-116680099D01*
X128218462Y-116535619D01*
X128162105Y-116374561D01*
X128143000Y-116205000D01*
X128162105Y-116035439D01*
X128218462Y-115874381D01*
X128309244Y-115729901D01*
X128429901Y-115609244D01*
X128574381Y-115518462D01*
X128735439Y-115462105D01*
X128905000Y-115443000D01*
X129074561Y-115462105D01*
G37*
G36*
X154474561Y-115462105D02*
G01*
X154635619Y-115518462D01*
X154780099Y-115609244D01*
X154900756Y-115729901D01*
X154991538Y-115874381D01*
X155047895Y-116035439D01*
X155067000Y-116205000D01*
X155047895Y-116374561D01*
X154991538Y-116535619D01*
X154900756Y-116680099D01*
X154780099Y-116800756D01*
X154635619Y-116891538D01*
X154474561Y-116947895D01*
X154305000Y-116967000D01*
X154135439Y-116947895D01*
X153974381Y-116891538D01*
X153829901Y-116800756D01*
X153709244Y-116680099D01*
X153618462Y-116535619D01*
X153562105Y-116374561D01*
X153543000Y-116205000D01*
X153562105Y-116035439D01*
X153618462Y-115874381D01*
X153709244Y-115729901D01*
X153829901Y-115609244D01*
X153974381Y-115518462D01*
X154135439Y-115462105D01*
X154305000Y-115443000D01*
X154474561Y-115462105D01*
G37*
G36*
X85313335Y-113595542D02*
G01*
X85499239Y-113651935D01*
X85670570Y-113743514D01*
X85820743Y-113866757D01*
X85943986Y-114016930D01*
X86035565Y-114188261D01*
X86091958Y-114374165D01*
X86111000Y-114567500D01*
X86091958Y-114760835D01*
X86035565Y-114946739D01*
X85943986Y-115118070D01*
X85820743Y-115268243D01*
X85670570Y-115391486D01*
X85499239Y-115483065D01*
X85313335Y-115539458D01*
X85120000Y-115558500D01*
X84926665Y-115539458D01*
X84740761Y-115483065D01*
X84569430Y-115391486D01*
X84419257Y-115268243D01*
X84296014Y-115118070D01*
X84204435Y-114946739D01*
X84148042Y-114760835D01*
X84129000Y-114567500D01*
X84148042Y-114374165D01*
X84204435Y-114188261D01*
X84296014Y-114016930D01*
X84419257Y-113866757D01*
X84569430Y-113743514D01*
X84740761Y-113651935D01*
X84926665Y-113595542D01*
X85120000Y-113576500D01*
X85313335Y-113595542D01*
G37*
G36*
X129074561Y-112922105D02*
G01*
X129235619Y-112978462D01*
X129380099Y-113069244D01*
X129500756Y-113189901D01*
X129591538Y-113334381D01*
X129647895Y-113495439D01*
X129667000Y-113665000D01*
X129647895Y-113834561D01*
X129591538Y-113995619D01*
X129500756Y-114140099D01*
X129380099Y-114260756D01*
X129235619Y-114351538D01*
X129074561Y-114407895D01*
X128905000Y-114427000D01*
X128735439Y-114407895D01*
X128574381Y-114351538D01*
X128429901Y-114260756D01*
X128309244Y-114140099D01*
X128218462Y-113995619D01*
X128162105Y-113834561D01*
X128143000Y-113665000D01*
X128162105Y-113495439D01*
X128218462Y-113334381D01*
X128309244Y-113189901D01*
X128429901Y-113069244D01*
X128574381Y-112978462D01*
X128735439Y-112922105D01*
X128905000Y-112903000D01*
X129074561Y-112922105D01*
G37*
G36*
X154474561Y-112922105D02*
G01*
X154635619Y-112978462D01*
X154780099Y-113069244D01*
X154900756Y-113189901D01*
X154991538Y-113334381D01*
X155047895Y-113495439D01*
X155067000Y-113665000D01*
X155047895Y-113834561D01*
X154991538Y-113995619D01*
X154900756Y-114140099D01*
X154780099Y-114260756D01*
X154635619Y-114351538D01*
X154474561Y-114407895D01*
X154305000Y-114427000D01*
X154135439Y-114407895D01*
X153974381Y-114351538D01*
X153829901Y-114260756D01*
X153709244Y-114140099D01*
X153618462Y-113995619D01*
X153562105Y-113834561D01*
X153543000Y-113665000D01*
X153562105Y-113495439D01*
X153618462Y-113334381D01*
X153709244Y-113189901D01*
X153829901Y-113069244D01*
X153974381Y-112978462D01*
X154135439Y-112922105D01*
X154305000Y-112903000D01*
X154474561Y-112922105D01*
G37*
G36*
X85313335Y-111055542D02*
G01*
X85499239Y-111111935D01*
X85670570Y-111203514D01*
X85820743Y-111326757D01*
X85943986Y-111476930D01*
X86035565Y-111648261D01*
X86091958Y-111834165D01*
X86111000Y-112027500D01*
X86091958Y-112220835D01*
X86035565Y-112406739D01*
X85943986Y-112578070D01*
X85820743Y-112728243D01*
X85670570Y-112851486D01*
X85499239Y-112943065D01*
X85313335Y-112999458D01*
X85120000Y-113018500D01*
X84926665Y-112999458D01*
X84740761Y-112943065D01*
X84569430Y-112851486D01*
X84419257Y-112728243D01*
X84296014Y-112578070D01*
X84204435Y-112406739D01*
X84148042Y-112220835D01*
X84129000Y-112027500D01*
X84148042Y-111834165D01*
X84204435Y-111648261D01*
X84296014Y-111476930D01*
X84419257Y-111326757D01*
X84569430Y-111203514D01*
X84740761Y-111111935D01*
X84926665Y-111055542D01*
X85120000Y-111036500D01*
X85313335Y-111055542D01*
G37*
G36*
X129074561Y-110382105D02*
G01*
X129235619Y-110438462D01*
X129380099Y-110529244D01*
X129500756Y-110649901D01*
X129591538Y-110794381D01*
X129647895Y-110955439D01*
X129667000Y-111125000D01*
X129647895Y-111294561D01*
X129591538Y-111455619D01*
X129500756Y-111600099D01*
X129380099Y-111720756D01*
X129235619Y-111811538D01*
X129074561Y-111867895D01*
X128905000Y-111887000D01*
X128735439Y-111867895D01*
X128574381Y-111811538D01*
X128429901Y-111720756D01*
X128309244Y-111600099D01*
X128218462Y-111455619D01*
X128162105Y-111294561D01*
X128143000Y-111125000D01*
X128162105Y-110955439D01*
X128218462Y-110794381D01*
X128309244Y-110649901D01*
X128429901Y-110529244D01*
X128574381Y-110438462D01*
X128735439Y-110382105D01*
X128905000Y-110363000D01*
X129074561Y-110382105D01*
G37*
G36*
X154474561Y-110382105D02*
G01*
X154635619Y-110438462D01*
X154780099Y-110529244D01*
X154900756Y-110649901D01*
X154991538Y-110794381D01*
X155047895Y-110955439D01*
X155067000Y-111125000D01*
X155047895Y-111294561D01*
X154991538Y-111455619D01*
X154900756Y-111600099D01*
X154780099Y-111720756D01*
X154635619Y-111811538D01*
X154474561Y-111867895D01*
X154305000Y-111887000D01*
X154135439Y-111867895D01*
X153974381Y-111811538D01*
X153829901Y-111720756D01*
X153709244Y-111600099D01*
X153618462Y-111455619D01*
X153562105Y-111294561D01*
X153543000Y-111125000D01*
X153562105Y-110955439D01*
X153618462Y-110794381D01*
X153709244Y-110649901D01*
X153829901Y-110529244D01*
X153974381Y-110438462D01*
X154135439Y-110382105D01*
X154305000Y-110363000D01*
X154474561Y-110382105D01*
G37*
G36*
X123041811Y-110202711D02*
G01*
X123083588Y-110202711D01*
X123130718Y-110212728D01*
X123178017Y-110218058D01*
X123212408Y-110230092D01*
X123247110Y-110237468D01*
X123297117Y-110259733D01*
X123347107Y-110277225D01*
X123373128Y-110293575D01*
X123399835Y-110305466D01*
X123449633Y-110341646D01*
X123498792Y-110372535D01*
X123516444Y-110390187D01*
X123535084Y-110403730D01*
X123581165Y-110454908D01*
X123625465Y-110499208D01*
X123635654Y-110515424D01*
X123646946Y-110527965D01*
X123685573Y-110594870D01*
X123720775Y-110650893D01*
X123725170Y-110663453D01*
X123730535Y-110672746D01*
X123758010Y-110757305D01*
X123779942Y-110819983D01*
X123780773Y-110827363D01*
X123782195Y-110831738D01*
X123795076Y-110954306D01*
X123800000Y-110998000D01*
X123795076Y-111041697D01*
X123782195Y-111164261D01*
X123780773Y-111168635D01*
X123779942Y-111176017D01*
X123758005Y-111238707D01*
X123730535Y-111323253D01*
X123725171Y-111332543D01*
X123720775Y-111345107D01*
X123685566Y-111401140D01*
X123646946Y-111468034D01*
X123635656Y-111480572D01*
X123625465Y-111496792D01*
X123581155Y-111541101D01*
X123535084Y-111592269D01*
X123516448Y-111605808D01*
X123498792Y-111623465D01*
X123449623Y-111654359D01*
X123399835Y-111690533D01*
X123373134Y-111702421D01*
X123347107Y-111718775D01*
X123297107Y-111736270D01*
X123247110Y-111758531D01*
X123212414Y-111765905D01*
X123178017Y-111777942D01*
X123130715Y-111783271D01*
X123083588Y-111793289D01*
X123041811Y-111793289D01*
X123000000Y-111798000D01*
X122958189Y-111793289D01*
X122916412Y-111793289D01*
X122869284Y-111783271D01*
X122821983Y-111777942D01*
X122787586Y-111765906D01*
X122752889Y-111758531D01*
X122702887Y-111736268D01*
X122652893Y-111718775D01*
X122626868Y-111702422D01*
X122600164Y-111690533D01*
X122550369Y-111654355D01*
X122501208Y-111623465D01*
X122483554Y-111605811D01*
X122464915Y-111592269D01*
X122418833Y-111541090D01*
X122374535Y-111496792D01*
X122364345Y-111480575D01*
X122353053Y-111468034D01*
X122314420Y-111401120D01*
X122279225Y-111345107D01*
X122274830Y-111332547D01*
X122269464Y-111323253D01*
X122241980Y-111238667D01*
X122220058Y-111176017D01*
X122219226Y-111168639D01*
X122217804Y-111164261D01*
X122204908Y-111041565D01*
X122200000Y-110998000D01*
X122204908Y-110954438D01*
X122217804Y-110831738D01*
X122219226Y-110827358D01*
X122220058Y-110819983D01*
X122241975Y-110757345D01*
X122269464Y-110672746D01*
X122274831Y-110663449D01*
X122279225Y-110650893D01*
X122314413Y-110594890D01*
X122353053Y-110527965D01*
X122364347Y-110515421D01*
X122374535Y-110499208D01*
X122418826Y-110454916D01*
X122464917Y-110403728D01*
X122483559Y-110390183D01*
X122501208Y-110372535D01*
X122550354Y-110341654D01*
X122600162Y-110305467D01*
X122626873Y-110293574D01*
X122652893Y-110277225D01*
X122702877Y-110259734D01*
X122752889Y-110237468D01*
X122787592Y-110230091D01*
X122821983Y-110218058D01*
X122869281Y-110212728D01*
X122916412Y-110202711D01*
X122958189Y-110202711D01*
X123000000Y-110198000D01*
X123041811Y-110202711D01*
G37*
G36*
X129074561Y-107842105D02*
G01*
X129235619Y-107898462D01*
X129380099Y-107989244D01*
X129500756Y-108109901D01*
X129591538Y-108254381D01*
X129647895Y-108415439D01*
X129667000Y-108585000D01*
X129647895Y-108754561D01*
X129591538Y-108915619D01*
X129500756Y-109060099D01*
X129380099Y-109180756D01*
X129235619Y-109271538D01*
X129074561Y-109327895D01*
X128905000Y-109347000D01*
X128735439Y-109327895D01*
X128574381Y-109271538D01*
X128429901Y-109180756D01*
X128309244Y-109060099D01*
X128218462Y-108915619D01*
X128162105Y-108754561D01*
X128143000Y-108585000D01*
X128162105Y-108415439D01*
X128218462Y-108254381D01*
X128309244Y-108109901D01*
X128429901Y-107989244D01*
X128574381Y-107898462D01*
X128735439Y-107842105D01*
X128905000Y-107823000D01*
X129074561Y-107842105D01*
G37*
G36*
X154474561Y-107842105D02*
G01*
X154635619Y-107898462D01*
X154780099Y-107989244D01*
X154900756Y-108109901D01*
X154991538Y-108254381D01*
X155047895Y-108415439D01*
X155067000Y-108585000D01*
X155047895Y-108754561D01*
X154991538Y-108915619D01*
X154900756Y-109060099D01*
X154780099Y-109180756D01*
X154635619Y-109271538D01*
X154474561Y-109327895D01*
X154305000Y-109347000D01*
X154135439Y-109327895D01*
X153974381Y-109271538D01*
X153829901Y-109180756D01*
X153709244Y-109060099D01*
X153618462Y-108915619D01*
X153562105Y-108754561D01*
X153543000Y-108585000D01*
X153562105Y-108415439D01*
X153618462Y-108254381D01*
X153709244Y-108109901D01*
X153829901Y-107989244D01*
X153974381Y-107898462D01*
X154135439Y-107842105D01*
X154305000Y-107823000D01*
X154474561Y-107842105D01*
G37*
G36*
X87876192Y-106673914D02*
G01*
X88085815Y-106730083D01*
X88282500Y-106821798D01*
X88460271Y-106946275D01*
X88613725Y-107099729D01*
X88738202Y-107277500D01*
X88829917Y-107474185D01*
X88886086Y-107683808D01*
X88905000Y-107900000D01*
X88886086Y-108116192D01*
X88829917Y-108325815D01*
X88738202Y-108522500D01*
X88613725Y-108700271D01*
X88460271Y-108853725D01*
X88282500Y-108978202D01*
X88085815Y-109069917D01*
X87876192Y-109126086D01*
X87660000Y-109145000D01*
X87443808Y-109126086D01*
X87234185Y-109069917D01*
X87037500Y-108978202D01*
X86859729Y-108853725D01*
X86706275Y-108700271D01*
X86581798Y-108522500D01*
X86490083Y-108325815D01*
X86433914Y-108116192D01*
X86415000Y-107900000D01*
X86433914Y-107683808D01*
X86490083Y-107474185D01*
X86581798Y-107277500D01*
X86706275Y-107099729D01*
X86859729Y-106946275D01*
X87037500Y-106821798D01*
X87234185Y-106730083D01*
X87443808Y-106673914D01*
X87660000Y-106655000D01*
X87876192Y-106673914D01*
G37*
G36*
X103116192Y-106673914D02*
G01*
X103325815Y-106730083D01*
X103522500Y-106821798D01*
X103700271Y-106946275D01*
X103853725Y-107099729D01*
X103978202Y-107277500D01*
X104069917Y-107474185D01*
X104126086Y-107683808D01*
X104145000Y-107900000D01*
X104126086Y-108116192D01*
X104069917Y-108325815D01*
X103978202Y-108522500D01*
X103853725Y-108700271D01*
X103700271Y-108853725D01*
X103522500Y-108978202D01*
X103325815Y-109069917D01*
X103116192Y-109126086D01*
X102900000Y-109145000D01*
X102683808Y-109126086D01*
X102474185Y-109069917D01*
X102277500Y-108978202D01*
X102099729Y-108853725D01*
X101946275Y-108700271D01*
X101821798Y-108522500D01*
X101730083Y-108325815D01*
X101673914Y-108116192D01*
X101655000Y-107900000D01*
X101673914Y-107683808D01*
X101730083Y-107474185D01*
X101821798Y-107277500D01*
X101946275Y-107099729D01*
X102099729Y-106946275D01*
X102277500Y-106821798D01*
X102474185Y-106730083D01*
X102683808Y-106673914D01*
X102900000Y-106655000D01*
X103116192Y-106673914D01*
G37*
G36*
X123041811Y-106404711D02*
G01*
X123083588Y-106404711D01*
X123130718Y-106414728D01*
X123178017Y-106420058D01*
X123212408Y-106432092D01*
X123247110Y-106439468D01*
X123297117Y-106461733D01*
X123347107Y-106479225D01*
X123373128Y-106495575D01*
X123399835Y-106507466D01*
X123449633Y-106543646D01*
X123498792Y-106574535D01*
X123516444Y-106592187D01*
X123535084Y-106605730D01*
X123581165Y-106656908D01*
X123625465Y-106701208D01*
X123635654Y-106717424D01*
X123646946Y-106729965D01*
X123685573Y-106796870D01*
X123720775Y-106852893D01*
X123725170Y-106865453D01*
X123730535Y-106874746D01*
X123758010Y-106959305D01*
X123779942Y-107021983D01*
X123780773Y-107029363D01*
X123782195Y-107033738D01*
X123795076Y-107156306D01*
X123800000Y-107200000D01*
X123795076Y-107243697D01*
X123782195Y-107366261D01*
X123780773Y-107370635D01*
X123779942Y-107378017D01*
X123758005Y-107440707D01*
X123730535Y-107525253D01*
X123725171Y-107534543D01*
X123720775Y-107547107D01*
X123685566Y-107603140D01*
X123646946Y-107670034D01*
X123635656Y-107682572D01*
X123625465Y-107698792D01*
X123581155Y-107743101D01*
X123535084Y-107794269D01*
X123516448Y-107807808D01*
X123498792Y-107825465D01*
X123449623Y-107856359D01*
X123399835Y-107892533D01*
X123373134Y-107904421D01*
X123347107Y-107920775D01*
X123297107Y-107938270D01*
X123247110Y-107960531D01*
X123212414Y-107967905D01*
X123178017Y-107979942D01*
X123130715Y-107985271D01*
X123083588Y-107995289D01*
X123041811Y-107995289D01*
X123000000Y-108000000D01*
X122958189Y-107995289D01*
X122916412Y-107995289D01*
X122869284Y-107985271D01*
X122821983Y-107979942D01*
X122787586Y-107967906D01*
X122752889Y-107960531D01*
X122702887Y-107938268D01*
X122652893Y-107920775D01*
X122626868Y-107904422D01*
X122600164Y-107892533D01*
X122550369Y-107856355D01*
X122501208Y-107825465D01*
X122483554Y-107807811D01*
X122464915Y-107794269D01*
X122418833Y-107743090D01*
X122374535Y-107698792D01*
X122364345Y-107682575D01*
X122353053Y-107670034D01*
X122314420Y-107603120D01*
X122279225Y-107547107D01*
X122274830Y-107534547D01*
X122269464Y-107525253D01*
X122241980Y-107440667D01*
X122220058Y-107378017D01*
X122219226Y-107370639D01*
X122217804Y-107366261D01*
X122204908Y-107243565D01*
X122200000Y-107200000D01*
X122204908Y-107156438D01*
X122217804Y-107033738D01*
X122219226Y-107029358D01*
X122220058Y-107021983D01*
X122241975Y-106959345D01*
X122269464Y-106874746D01*
X122274831Y-106865449D01*
X122279225Y-106852893D01*
X122314413Y-106796890D01*
X122353053Y-106729965D01*
X122364347Y-106717421D01*
X122374535Y-106701208D01*
X122418826Y-106656916D01*
X122464917Y-106605728D01*
X122483559Y-106592183D01*
X122501208Y-106574535D01*
X122550354Y-106543654D01*
X122600162Y-106507467D01*
X122626873Y-106495574D01*
X122652893Y-106479225D01*
X122702877Y-106461734D01*
X122752889Y-106439468D01*
X122787592Y-106432091D01*
X122821983Y-106420058D01*
X122869281Y-106414728D01*
X122916412Y-106404711D01*
X122958189Y-106404711D01*
X123000000Y-106400000D01*
X123041811Y-106404711D01*
G37*
G36*
X92298335Y-105975542D02*
G01*
X92484239Y-106031935D01*
X92655570Y-106123514D01*
X92805743Y-106246757D01*
X92928986Y-106396930D01*
X93020565Y-106568261D01*
X93076958Y-106754165D01*
X93096000Y-106947500D01*
X93076958Y-107140835D01*
X93020565Y-107326739D01*
X92928986Y-107498070D01*
X92805743Y-107648243D01*
X92655570Y-107771486D01*
X92484239Y-107863065D01*
X92298335Y-107919458D01*
X92105000Y-107938500D01*
X91911665Y-107919458D01*
X91725761Y-107863065D01*
X91554430Y-107771486D01*
X91404257Y-107648243D01*
X91281014Y-107498070D01*
X91189435Y-107326739D01*
X91133042Y-107140835D01*
X91114000Y-106947500D01*
X91133042Y-106754165D01*
X91189435Y-106568261D01*
X91281014Y-106396930D01*
X91404257Y-106246757D01*
X91554430Y-106123514D01*
X91725761Y-106031935D01*
X91911665Y-105975542D01*
X92105000Y-105956500D01*
X92298335Y-105975542D01*
G37*
G36*
X98648335Y-105975542D02*
G01*
X98834239Y-106031935D01*
X99005570Y-106123514D01*
X99155743Y-106246757D01*
X99278986Y-106396930D01*
X99370565Y-106568261D01*
X99426958Y-106754165D01*
X99446000Y-106947500D01*
X99426958Y-107140835D01*
X99370565Y-107326739D01*
X99278986Y-107498070D01*
X99155743Y-107648243D01*
X99005570Y-107771486D01*
X98834239Y-107863065D01*
X98648335Y-107919458D01*
X98455000Y-107938500D01*
X98261665Y-107919458D01*
X98075761Y-107863065D01*
X97904430Y-107771486D01*
X97754257Y-107648243D01*
X97631014Y-107498070D01*
X97539435Y-107326739D01*
X97483042Y-107140835D01*
X97464000Y-106947500D01*
X97483042Y-106754165D01*
X97539435Y-106568261D01*
X97631014Y-106396930D01*
X97754257Y-106246757D01*
X97904430Y-106123514D01*
X98075761Y-106031935D01*
X98261665Y-105975542D01*
X98455000Y-105956500D01*
X98648335Y-105975542D01*
G37*
G36*
X112045090Y-105819215D02*
G01*
X112232683Y-105876120D01*
X112405570Y-105968530D01*
X112557107Y-106092893D01*
X112681470Y-106244430D01*
X112773880Y-106417317D01*
X112830785Y-106604910D01*
X112850000Y-106800000D01*
X112830785Y-106995090D01*
X112773880Y-107182683D01*
X112681470Y-107355570D01*
X112557107Y-107507107D01*
X112405570Y-107631470D01*
X112232683Y-107723880D01*
X112045090Y-107780785D01*
X111850000Y-107800000D01*
X111654910Y-107780785D01*
X111467317Y-107723880D01*
X111294430Y-107631470D01*
X111142893Y-107507107D01*
X111018530Y-107355570D01*
X110926120Y-107182683D01*
X110869215Y-106995090D01*
X110850000Y-106800000D01*
X110869215Y-106604910D01*
X110926120Y-106417317D01*
X111018530Y-106244430D01*
X111142893Y-106092893D01*
X111294430Y-105968530D01*
X111467317Y-105876120D01*
X111654910Y-105819215D01*
X111850000Y-105800000D01*
X112045090Y-105819215D01*
G37*
G36*
X118545090Y-105819215D02*
G01*
X118732683Y-105876120D01*
X118905570Y-105968530D01*
X119057107Y-106092893D01*
X119181470Y-106244430D01*
X119273880Y-106417317D01*
X119330785Y-106604910D01*
X119350000Y-106800000D01*
X119330785Y-106995090D01*
X119273880Y-107182683D01*
X119181470Y-107355570D01*
X119057107Y-107507107D01*
X118905570Y-107631470D01*
X118732683Y-107723880D01*
X118545090Y-107780785D01*
X118350000Y-107800000D01*
X118154910Y-107780785D01*
X117967317Y-107723880D01*
X117794430Y-107631470D01*
X117642893Y-107507107D01*
X117518530Y-107355570D01*
X117426120Y-107182683D01*
X117369215Y-106995090D01*
X117350000Y-106800000D01*
X117369215Y-106604910D01*
X117426120Y-106417317D01*
X117518530Y-106244430D01*
X117642893Y-106092893D01*
X117794430Y-105968530D01*
X117967317Y-105876120D01*
X118154910Y-105819215D01*
X118350000Y-105800000D01*
X118545090Y-105819215D01*
G37*
G36*
X129074561Y-105302105D02*
G01*
X129235619Y-105358462D01*
X129380099Y-105449244D01*
X129500756Y-105569901D01*
X129591538Y-105714381D01*
X129647895Y-105875439D01*
X129667000Y-106045000D01*
X129647895Y-106214561D01*
X129591538Y-106375619D01*
X129500756Y-106520099D01*
X129380099Y-106640756D01*
X129235619Y-106731538D01*
X129074561Y-106787895D01*
X128905000Y-106807000D01*
X128735439Y-106787895D01*
X128574381Y-106731538D01*
X128429901Y-106640756D01*
X128309244Y-106520099D01*
X128218462Y-106375619D01*
X128162105Y-106214561D01*
X128143000Y-106045000D01*
X128162105Y-105875439D01*
X128218462Y-105714381D01*
X128309244Y-105569901D01*
X128429901Y-105449244D01*
X128574381Y-105358462D01*
X128735439Y-105302105D01*
X128905000Y-105283000D01*
X129074561Y-105302105D01*
G37*
G36*
X154474561Y-105302105D02*
G01*
X154635619Y-105358462D01*
X154780099Y-105449244D01*
X154900756Y-105569901D01*
X154991538Y-105714381D01*
X155047895Y-105875439D01*
X155067000Y-106045000D01*
X155047895Y-106214561D01*
X154991538Y-106375619D01*
X154900756Y-106520099D01*
X154780099Y-106640756D01*
X154635619Y-106731538D01*
X154474561Y-106787895D01*
X154305000Y-106807000D01*
X154135439Y-106787895D01*
X153974381Y-106731538D01*
X153829901Y-106640756D01*
X153709244Y-106520099D01*
X153618462Y-106375619D01*
X153562105Y-106214561D01*
X153543000Y-106045000D01*
X153562105Y-105875439D01*
X153618462Y-105714381D01*
X153709244Y-105569901D01*
X153829901Y-105449244D01*
X153974381Y-105358462D01*
X154135439Y-105302105D01*
X154305000Y-105283000D01*
X154474561Y-105302105D01*
G37*
G36*
X164773116Y-104638575D02*
G01*
X164955770Y-104674907D01*
X165127827Y-104746175D01*
X165282674Y-104849640D01*
X165414360Y-104981326D01*
X165517825Y-105136173D01*
X165589093Y-105308230D01*
X165625425Y-105490884D01*
X165625425Y-105677116D01*
X165589093Y-105859770D01*
X165517825Y-106031827D01*
X165414360Y-106186674D01*
X165282674Y-106318360D01*
X165127827Y-106421825D01*
X164955770Y-106493093D01*
X164773116Y-106529425D01*
X164680000Y-106534000D01*
X164678522Y-106534000D01*
X163381478Y-106534000D01*
X163380000Y-106534000D01*
X163286884Y-106529425D01*
X163104230Y-106493093D01*
X162932173Y-106421825D01*
X162777326Y-106318360D01*
X162645640Y-106186674D01*
X162542175Y-106031827D01*
X162470907Y-105859770D01*
X162434575Y-105677116D01*
X162434575Y-105490884D01*
X162470907Y-105308230D01*
X162542175Y-105136173D01*
X162645640Y-104981326D01*
X162777326Y-104849640D01*
X162932173Y-104746175D01*
X163104230Y-104674907D01*
X163286884Y-104638575D01*
X163380000Y-104634000D01*
X164680000Y-104634000D01*
X164773116Y-104638575D01*
G37*
G36*
X177273116Y-104638575D02*
G01*
X177455770Y-104674907D01*
X177627827Y-104746175D01*
X177782674Y-104849640D01*
X177914360Y-104981326D01*
X178017825Y-105136173D01*
X178089093Y-105308230D01*
X178125425Y-105490884D01*
X178125425Y-105677116D01*
X178089093Y-105859770D01*
X178017825Y-106031827D01*
X177914360Y-106186674D01*
X177782674Y-106318360D01*
X177627827Y-106421825D01*
X177455770Y-106493093D01*
X177273116Y-106529425D01*
X177180000Y-106534000D01*
X177178522Y-106534000D01*
X175881478Y-106534000D01*
X175880000Y-106534000D01*
X175786884Y-106529425D01*
X175604230Y-106493093D01*
X175432173Y-106421825D01*
X175277326Y-106318360D01*
X175145640Y-106186674D01*
X175042175Y-106031827D01*
X174970907Y-105859770D01*
X174934575Y-105677116D01*
X174934575Y-105490884D01*
X174970907Y-105308230D01*
X175042175Y-105136173D01*
X175145640Y-104981326D01*
X175277326Y-104849640D01*
X175432173Y-104746175D01*
X175604230Y-104674907D01*
X175786884Y-104638575D01*
X175880000Y-104634000D01*
X177180000Y-104634000D01*
X177273116Y-104638575D01*
G37*
G36*
X198047116Y-104638575D02*
G01*
X198229770Y-104674907D01*
X198401827Y-104746175D01*
X198556674Y-104849640D01*
X198688360Y-104981326D01*
X198791825Y-105136173D01*
X198863093Y-105308230D01*
X198899425Y-105490884D01*
X198899425Y-105677116D01*
X198863093Y-105859770D01*
X198791825Y-106031827D01*
X198688360Y-106186674D01*
X198556674Y-106318360D01*
X198401827Y-106421825D01*
X198229770Y-106493093D01*
X198047116Y-106529425D01*
X197954000Y-106534000D01*
X197952522Y-106534000D01*
X196655478Y-106534000D01*
X196654000Y-106534000D01*
X196560884Y-106529425D01*
X196378230Y-106493093D01*
X196206173Y-106421825D01*
X196051326Y-106318360D01*
X195919640Y-106186674D01*
X195816175Y-106031827D01*
X195744907Y-105859770D01*
X195708575Y-105677116D01*
X195708575Y-105490884D01*
X195744907Y-105308230D01*
X195816175Y-105136173D01*
X195919640Y-104981326D01*
X196051326Y-104849640D01*
X196206173Y-104746175D01*
X196378230Y-104674907D01*
X196560884Y-104638575D01*
X196654000Y-104634000D01*
X197954000Y-104634000D01*
X198047116Y-104638575D01*
G37*
G36*
X210547116Y-104638575D02*
G01*
X210729770Y-104674907D01*
X210901827Y-104746175D01*
X211056674Y-104849640D01*
X211188360Y-104981326D01*
X211291825Y-105136173D01*
X211363093Y-105308230D01*
X211399425Y-105490884D01*
X211399425Y-105677116D01*
X211363093Y-105859770D01*
X211291825Y-106031827D01*
X211188360Y-106186674D01*
X211056674Y-106318360D01*
X210901827Y-106421825D01*
X210729770Y-106493093D01*
X210547116Y-106529425D01*
X210454000Y-106534000D01*
X210452522Y-106534000D01*
X209155478Y-106534000D01*
X209154000Y-106534000D01*
X209060884Y-106529425D01*
X208878230Y-106493093D01*
X208706173Y-106421825D01*
X208551326Y-106318360D01*
X208419640Y-106186674D01*
X208316175Y-106031827D01*
X208244907Y-105859770D01*
X208208575Y-105677116D01*
X208208575Y-105490884D01*
X208244907Y-105308230D01*
X208316175Y-105136173D01*
X208419640Y-104981326D01*
X208551326Y-104849640D01*
X208706173Y-104746175D01*
X208878230Y-104674907D01*
X209060884Y-104638575D01*
X209154000Y-104634000D01*
X210454000Y-104634000D01*
X210547116Y-104638575D01*
G37*
G36*
X129074561Y-102762105D02*
G01*
X129235619Y-102818462D01*
X129380099Y-102909244D01*
X129500756Y-103029901D01*
X129591538Y-103174381D01*
X129647895Y-103335439D01*
X129667000Y-103505000D01*
X129647895Y-103674561D01*
X129591538Y-103835619D01*
X129500756Y-103980099D01*
X129380099Y-104100756D01*
X129235619Y-104191538D01*
X129074561Y-104247895D01*
X128905000Y-104267000D01*
X128735439Y-104247895D01*
X128574381Y-104191538D01*
X128429901Y-104100756D01*
X128309244Y-103980099D01*
X128218462Y-103835619D01*
X128162105Y-103674561D01*
X128143000Y-103505000D01*
X128162105Y-103335439D01*
X128218462Y-103174381D01*
X128309244Y-103029901D01*
X128429901Y-102909244D01*
X128574381Y-102818462D01*
X128735439Y-102762105D01*
X128905000Y-102743000D01*
X129074561Y-102762105D01*
G37*
G36*
X154474561Y-102762105D02*
G01*
X154635619Y-102818462D01*
X154780099Y-102909244D01*
X154900756Y-103029901D01*
X154991538Y-103174381D01*
X155047895Y-103335439D01*
X155067000Y-103505000D01*
X155047895Y-103674561D01*
X154991538Y-103835619D01*
X154900756Y-103980099D01*
X154780099Y-104100756D01*
X154635619Y-104191538D01*
X154474561Y-104247895D01*
X154305000Y-104267000D01*
X154135439Y-104247895D01*
X153974381Y-104191538D01*
X153829901Y-104100756D01*
X153709244Y-103980099D01*
X153618462Y-103835619D01*
X153562105Y-103674561D01*
X153543000Y-103505000D01*
X153562105Y-103335439D01*
X153618462Y-103174381D01*
X153709244Y-103029901D01*
X153829901Y-102909244D01*
X153974381Y-102818462D01*
X154135439Y-102762105D01*
X154305000Y-102743000D01*
X154474561Y-102762105D01*
G37*
G36*
X112045090Y-101319215D02*
G01*
X112232683Y-101376120D01*
X112405570Y-101468530D01*
X112557107Y-101592893D01*
X112681470Y-101744430D01*
X112773880Y-101917317D01*
X112830785Y-102104910D01*
X112850000Y-102300000D01*
X112830785Y-102495090D01*
X112773880Y-102682683D01*
X112681470Y-102855570D01*
X112557107Y-103007107D01*
X112405570Y-103131470D01*
X112232683Y-103223880D01*
X112045090Y-103280785D01*
X111850000Y-103300000D01*
X111654910Y-103280785D01*
X111467317Y-103223880D01*
X111294430Y-103131470D01*
X111142893Y-103007107D01*
X111018530Y-102855570D01*
X110926120Y-102682683D01*
X110869215Y-102495090D01*
X110850000Y-102300000D01*
X110869215Y-102104910D01*
X110926120Y-101917317D01*
X111018530Y-101744430D01*
X111142893Y-101592893D01*
X111294430Y-101468530D01*
X111467317Y-101376120D01*
X111654910Y-101319215D01*
X111850000Y-101300000D01*
X112045090Y-101319215D01*
G37*
G36*
X118545090Y-101319215D02*
G01*
X118732683Y-101376120D01*
X118905570Y-101468530D01*
X119057107Y-101592893D01*
X119181470Y-101744430D01*
X119273880Y-101917317D01*
X119330785Y-102104910D01*
X119350000Y-102300000D01*
X119330785Y-102495090D01*
X119273880Y-102682683D01*
X119181470Y-102855570D01*
X119057107Y-103007107D01*
X118905570Y-103131470D01*
X118732683Y-103223880D01*
X118545090Y-103280785D01*
X118350000Y-103300000D01*
X118154910Y-103280785D01*
X117967317Y-103223880D01*
X117794430Y-103131470D01*
X117642893Y-103007107D01*
X117518530Y-102855570D01*
X117426120Y-102682683D01*
X117369215Y-102495090D01*
X117350000Y-102300000D01*
X117369215Y-102104910D01*
X117426120Y-101917317D01*
X117518530Y-101744430D01*
X117642893Y-101592893D01*
X117794430Y-101468530D01*
X117967317Y-101376120D01*
X118154910Y-101319215D01*
X118350000Y-101300000D01*
X118545090Y-101319215D01*
G37*
G36*
X123041811Y-101404711D02*
G01*
X123083588Y-101404711D01*
X123130718Y-101414728D01*
X123178017Y-101420058D01*
X123212408Y-101432092D01*
X123247110Y-101439468D01*
X123297117Y-101461733D01*
X123347107Y-101479225D01*
X123373128Y-101495575D01*
X123399835Y-101507466D01*
X123449633Y-101543646D01*
X123498792Y-101574535D01*
X123516444Y-101592187D01*
X123535084Y-101605730D01*
X123581165Y-101656908D01*
X123625465Y-101701208D01*
X123635654Y-101717424D01*
X123646946Y-101729965D01*
X123685573Y-101796870D01*
X123720775Y-101852893D01*
X123725170Y-101865453D01*
X123730535Y-101874746D01*
X123758010Y-101959305D01*
X123779942Y-102021983D01*
X123780773Y-102029363D01*
X123782195Y-102033738D01*
X123795076Y-102156306D01*
X123800000Y-102200000D01*
X123795076Y-102243697D01*
X123782195Y-102366261D01*
X123780773Y-102370635D01*
X123779942Y-102378017D01*
X123758005Y-102440707D01*
X123730535Y-102525253D01*
X123725171Y-102534543D01*
X123720775Y-102547107D01*
X123685566Y-102603140D01*
X123646946Y-102670034D01*
X123635656Y-102682572D01*
X123625465Y-102698792D01*
X123581155Y-102743101D01*
X123535084Y-102794269D01*
X123516448Y-102807808D01*
X123498792Y-102825465D01*
X123449623Y-102856359D01*
X123399835Y-102892533D01*
X123373134Y-102904421D01*
X123347107Y-102920775D01*
X123297107Y-102938270D01*
X123247110Y-102960531D01*
X123212414Y-102967905D01*
X123178017Y-102979942D01*
X123130715Y-102985271D01*
X123083588Y-102995289D01*
X123041811Y-102995289D01*
X123000000Y-103000000D01*
X122958189Y-102995289D01*
X122916412Y-102995289D01*
X122869284Y-102985271D01*
X122821983Y-102979942D01*
X122787586Y-102967906D01*
X122752889Y-102960531D01*
X122702887Y-102938268D01*
X122652893Y-102920775D01*
X122626868Y-102904422D01*
X122600164Y-102892533D01*
X122550369Y-102856355D01*
X122501208Y-102825465D01*
X122483554Y-102807811D01*
X122464915Y-102794269D01*
X122418833Y-102743090D01*
X122374535Y-102698792D01*
X122364345Y-102682575D01*
X122353053Y-102670034D01*
X122314420Y-102603120D01*
X122279225Y-102547107D01*
X122274830Y-102534547D01*
X122269464Y-102525253D01*
X122241980Y-102440667D01*
X122220058Y-102378017D01*
X122219226Y-102370639D01*
X122217804Y-102366261D01*
X122204908Y-102243565D01*
X122200000Y-102200000D01*
X122204908Y-102156438D01*
X122217804Y-102033738D01*
X122219226Y-102029358D01*
X122220058Y-102021983D01*
X122241975Y-101959345D01*
X122269464Y-101874746D01*
X122274831Y-101865449D01*
X122279225Y-101852893D01*
X122314413Y-101796890D01*
X122353053Y-101729965D01*
X122364347Y-101717421D01*
X122374535Y-101701208D01*
X122418826Y-101656916D01*
X122464917Y-101605728D01*
X122483559Y-101592183D01*
X122501208Y-101574535D01*
X122550354Y-101543654D01*
X122600162Y-101507467D01*
X122626873Y-101495574D01*
X122652893Y-101479225D01*
X122702877Y-101461734D01*
X122752889Y-101439468D01*
X122787592Y-101432091D01*
X122821983Y-101420058D01*
X122869281Y-101414728D01*
X122916412Y-101404711D01*
X122958189Y-101404711D01*
X123000000Y-101400000D01*
X123041811Y-101404711D01*
G37*
G36*
X92298335Y-100895542D02*
G01*
X92484239Y-100951935D01*
X92655570Y-101043514D01*
X92805743Y-101166757D01*
X92928986Y-101316930D01*
X93020565Y-101488261D01*
X93076958Y-101674165D01*
X93096000Y-101867500D01*
X93076958Y-102060835D01*
X93020565Y-102246739D01*
X92928986Y-102418070D01*
X92805743Y-102568243D01*
X92655570Y-102691486D01*
X92484239Y-102783065D01*
X92298335Y-102839458D01*
X92105000Y-102858500D01*
X91911665Y-102839458D01*
X91725761Y-102783065D01*
X91554430Y-102691486D01*
X91404257Y-102568243D01*
X91281014Y-102418070D01*
X91189435Y-102246739D01*
X91133042Y-102060835D01*
X91114000Y-101867500D01*
X91133042Y-101674165D01*
X91189435Y-101488261D01*
X91281014Y-101316930D01*
X91404257Y-101166757D01*
X91554430Y-101043514D01*
X91725761Y-100951935D01*
X91911665Y-100895542D01*
X92105000Y-100876500D01*
X92298335Y-100895542D01*
G37*
G36*
X98648335Y-100895542D02*
G01*
X98834239Y-100951935D01*
X99005570Y-101043514D01*
X99155743Y-101166757D01*
X99278986Y-101316930D01*
X99370565Y-101488261D01*
X99426958Y-101674165D01*
X99446000Y-101867500D01*
X99426958Y-102060835D01*
X99370565Y-102246739D01*
X99278986Y-102418070D01*
X99155743Y-102568243D01*
X99005570Y-102691486D01*
X98834239Y-102783065D01*
X98648335Y-102839458D01*
X98455000Y-102858500D01*
X98261665Y-102839458D01*
X98075761Y-102783065D01*
X97904430Y-102691486D01*
X97754257Y-102568243D01*
X97631014Y-102418070D01*
X97539435Y-102246739D01*
X97483042Y-102060835D01*
X97464000Y-101867500D01*
X97483042Y-101674165D01*
X97539435Y-101488261D01*
X97631014Y-101316930D01*
X97754257Y-101166757D01*
X97904430Y-101043514D01*
X98075761Y-100951935D01*
X98261665Y-100895542D01*
X98455000Y-100876500D01*
X98648335Y-100895542D01*
G37*
G36*
X129074561Y-100222105D02*
G01*
X129235619Y-100278462D01*
X129380099Y-100369244D01*
X129500756Y-100489901D01*
X129591538Y-100634381D01*
X129647895Y-100795439D01*
X129667000Y-100965000D01*
X129647895Y-101134561D01*
X129591538Y-101295619D01*
X129500756Y-101440099D01*
X129380099Y-101560756D01*
X129235619Y-101651538D01*
X129074561Y-101707895D01*
X128905000Y-101727000D01*
X128735439Y-101707895D01*
X128574381Y-101651538D01*
X128429901Y-101560756D01*
X128309244Y-101440099D01*
X128218462Y-101295619D01*
X128162105Y-101134561D01*
X128143000Y-100965000D01*
X128162105Y-100795439D01*
X128218462Y-100634381D01*
X128309244Y-100489901D01*
X128429901Y-100369244D01*
X128574381Y-100278462D01*
X128735439Y-100222105D01*
X128905000Y-100203000D01*
X129074561Y-100222105D01*
G37*
G36*
X154474561Y-100222105D02*
G01*
X154635619Y-100278462D01*
X154780099Y-100369244D01*
X154900756Y-100489901D01*
X154991538Y-100634381D01*
X155047895Y-100795439D01*
X155067000Y-100965000D01*
X155047895Y-101134561D01*
X154991538Y-101295619D01*
X154900756Y-101440099D01*
X154780099Y-101560756D01*
X154635619Y-101651538D01*
X154474561Y-101707895D01*
X154305000Y-101727000D01*
X154135439Y-101707895D01*
X153974381Y-101651538D01*
X153829901Y-101560756D01*
X153709244Y-101440099D01*
X153618462Y-101295619D01*
X153562105Y-101134561D01*
X153543000Y-100965000D01*
X153562105Y-100795439D01*
X153618462Y-100634381D01*
X153709244Y-100489901D01*
X153829901Y-100369244D01*
X153974381Y-100278462D01*
X154135439Y-100222105D01*
X154305000Y-100203000D01*
X154474561Y-100222105D01*
G37*
G36*
X164773116Y-99638575D02*
G01*
X164955770Y-99674907D01*
X165127827Y-99746175D01*
X165282674Y-99849640D01*
X165414360Y-99981326D01*
X165517825Y-100136173D01*
X165589093Y-100308230D01*
X165625425Y-100490884D01*
X165625425Y-100677116D01*
X165589093Y-100859770D01*
X165517825Y-101031827D01*
X165414360Y-101186674D01*
X165282674Y-101318360D01*
X165127827Y-101421825D01*
X164955770Y-101493093D01*
X164773116Y-101529425D01*
X164680000Y-101534000D01*
X164678522Y-101534000D01*
X163381478Y-101534000D01*
X163380000Y-101534000D01*
X163286884Y-101529425D01*
X163104230Y-101493093D01*
X162932173Y-101421825D01*
X162777326Y-101318360D01*
X162645640Y-101186674D01*
X162542175Y-101031827D01*
X162470907Y-100859770D01*
X162434575Y-100677116D01*
X162434575Y-100490884D01*
X162470907Y-100308230D01*
X162542175Y-100136173D01*
X162645640Y-99981326D01*
X162777326Y-99849640D01*
X162932173Y-99746175D01*
X163104230Y-99674907D01*
X163286884Y-99638575D01*
X163380000Y-99634000D01*
X164680000Y-99634000D01*
X164773116Y-99638575D01*
G37*
G36*
X177273116Y-99638575D02*
G01*
X177455770Y-99674907D01*
X177627827Y-99746175D01*
X177782674Y-99849640D01*
X177914360Y-99981326D01*
X178017825Y-100136173D01*
X178089093Y-100308230D01*
X178125425Y-100490884D01*
X178125425Y-100677116D01*
X178089093Y-100859770D01*
X178017825Y-101031827D01*
X177914360Y-101186674D01*
X177782674Y-101318360D01*
X177627827Y-101421825D01*
X177455770Y-101493093D01*
X177273116Y-101529425D01*
X177180000Y-101534000D01*
X177178522Y-101534000D01*
X175881478Y-101534000D01*
X175880000Y-101534000D01*
X175786884Y-101529425D01*
X175604230Y-101493093D01*
X175432173Y-101421825D01*
X175277326Y-101318360D01*
X175145640Y-101186674D01*
X175042175Y-101031827D01*
X174970907Y-100859770D01*
X174934575Y-100677116D01*
X174934575Y-100490884D01*
X174970907Y-100308230D01*
X175042175Y-100136173D01*
X175145640Y-99981326D01*
X175277326Y-99849640D01*
X175432173Y-99746175D01*
X175604230Y-99674907D01*
X175786884Y-99638575D01*
X175880000Y-99634000D01*
X177180000Y-99634000D01*
X177273116Y-99638575D01*
G37*
G36*
X198047116Y-99638575D02*
G01*
X198229770Y-99674907D01*
X198401827Y-99746175D01*
X198556674Y-99849640D01*
X198688360Y-99981326D01*
X198791825Y-100136173D01*
X198863093Y-100308230D01*
X198899425Y-100490884D01*
X198899425Y-100677116D01*
X198863093Y-100859770D01*
X198791825Y-101031827D01*
X198688360Y-101186674D01*
X198556674Y-101318360D01*
X198401827Y-101421825D01*
X198229770Y-101493093D01*
X198047116Y-101529425D01*
X197954000Y-101534000D01*
X197952522Y-101534000D01*
X196655478Y-101534000D01*
X196654000Y-101534000D01*
X196560884Y-101529425D01*
X196378230Y-101493093D01*
X196206173Y-101421825D01*
X196051326Y-101318360D01*
X195919640Y-101186674D01*
X195816175Y-101031827D01*
X195744907Y-100859770D01*
X195708575Y-100677116D01*
X195708575Y-100490884D01*
X195744907Y-100308230D01*
X195816175Y-100136173D01*
X195919640Y-99981326D01*
X196051326Y-99849640D01*
X196206173Y-99746175D01*
X196378230Y-99674907D01*
X196560884Y-99638575D01*
X196654000Y-99634000D01*
X197954000Y-99634000D01*
X198047116Y-99638575D01*
G37*
G36*
X210547116Y-99638575D02*
G01*
X210729770Y-99674907D01*
X210901827Y-99746175D01*
X211056674Y-99849640D01*
X211188360Y-99981326D01*
X211291825Y-100136173D01*
X211363093Y-100308230D01*
X211399425Y-100490884D01*
X211399425Y-100677116D01*
X211363093Y-100859770D01*
X211291825Y-101031827D01*
X211188360Y-101186674D01*
X211056674Y-101318360D01*
X210901827Y-101421825D01*
X210729770Y-101493093D01*
X210547116Y-101529425D01*
X210454000Y-101534000D01*
X210452522Y-101534000D01*
X209155478Y-101534000D01*
X209154000Y-101534000D01*
X209060884Y-101529425D01*
X208878230Y-101493093D01*
X208706173Y-101421825D01*
X208551326Y-101318360D01*
X208419640Y-101186674D01*
X208316175Y-101031827D01*
X208244907Y-100859770D01*
X208208575Y-100677116D01*
X208208575Y-100490884D01*
X208244907Y-100308230D01*
X208316175Y-100136173D01*
X208419640Y-99981326D01*
X208551326Y-99849640D01*
X208706173Y-99746175D01*
X208878230Y-99674907D01*
X209060884Y-99638575D01*
X209154000Y-99634000D01*
X210454000Y-99634000D01*
X210547116Y-99638575D01*
G37*
G36*
X129074561Y-97682105D02*
G01*
X129235619Y-97738462D01*
X129380099Y-97829244D01*
X129500756Y-97949901D01*
X129591538Y-98094381D01*
X129647895Y-98255439D01*
X129667000Y-98425000D01*
X129647895Y-98594561D01*
X129591538Y-98755619D01*
X129500756Y-98900099D01*
X129380099Y-99020756D01*
X129235619Y-99111538D01*
X129074561Y-99167895D01*
X128905000Y-99187000D01*
X128735439Y-99167895D01*
X128574381Y-99111538D01*
X128429901Y-99020756D01*
X128309244Y-98900099D01*
X128218462Y-98755619D01*
X128162105Y-98594561D01*
X128143000Y-98425000D01*
X128162105Y-98255439D01*
X128218462Y-98094381D01*
X128309244Y-97949901D01*
X128429901Y-97829244D01*
X128574381Y-97738462D01*
X128735439Y-97682105D01*
X128905000Y-97663000D01*
X129074561Y-97682105D01*
G37*
G36*
X154474561Y-97682105D02*
G01*
X154635619Y-97738462D01*
X154780099Y-97829244D01*
X154900756Y-97949901D01*
X154991538Y-98094381D01*
X155047895Y-98255439D01*
X155067000Y-98425000D01*
X155047895Y-98594561D01*
X154991538Y-98755619D01*
X154900756Y-98900099D01*
X154780099Y-99020756D01*
X154635619Y-99111538D01*
X154474561Y-99167895D01*
X154305000Y-99187000D01*
X154135439Y-99167895D01*
X153974381Y-99111538D01*
X153829901Y-99020756D01*
X153709244Y-98900099D01*
X153618462Y-98755619D01*
X153562105Y-98594561D01*
X153543000Y-98425000D01*
X153562105Y-98255439D01*
X153618462Y-98094381D01*
X153709244Y-97949901D01*
X153829901Y-97829244D01*
X153974381Y-97738462D01*
X154135439Y-97682105D01*
X154305000Y-97663000D01*
X154474561Y-97682105D01*
G37*
G36*
X123091811Y-97248711D02*
G01*
X123133588Y-97248711D01*
X123180718Y-97258728D01*
X123228017Y-97264058D01*
X123262408Y-97276092D01*
X123297110Y-97283468D01*
X123347117Y-97305733D01*
X123397107Y-97323225D01*
X123423128Y-97339575D01*
X123449835Y-97351466D01*
X123499633Y-97387646D01*
X123548792Y-97418535D01*
X123566444Y-97436187D01*
X123585084Y-97449730D01*
X123631165Y-97500908D01*
X123675465Y-97545208D01*
X123685654Y-97561424D01*
X123696946Y-97573965D01*
X123735573Y-97640870D01*
X123770775Y-97696893D01*
X123775170Y-97709453D01*
X123780535Y-97718746D01*
X123808010Y-97803305D01*
X123829942Y-97865983D01*
X123830773Y-97873363D01*
X123832195Y-97877738D01*
X123845076Y-98000306D01*
X123850000Y-98044000D01*
X123845076Y-98087697D01*
X123832195Y-98210261D01*
X123830773Y-98214635D01*
X123829942Y-98222017D01*
X123808005Y-98284707D01*
X123780535Y-98369253D01*
X123775171Y-98378543D01*
X123770775Y-98391107D01*
X123735566Y-98447140D01*
X123696946Y-98514034D01*
X123685656Y-98526572D01*
X123675465Y-98542792D01*
X123631155Y-98587101D01*
X123585084Y-98638269D01*
X123566448Y-98651808D01*
X123548792Y-98669465D01*
X123499623Y-98700359D01*
X123449835Y-98736533D01*
X123423134Y-98748421D01*
X123397107Y-98764775D01*
X123347107Y-98782270D01*
X123297110Y-98804531D01*
X123262414Y-98811905D01*
X123228017Y-98823942D01*
X123180715Y-98829271D01*
X123133588Y-98839289D01*
X123091811Y-98839289D01*
X123050000Y-98844000D01*
X123008189Y-98839289D01*
X122966412Y-98839289D01*
X122919284Y-98829271D01*
X122871983Y-98823942D01*
X122837586Y-98811906D01*
X122802889Y-98804531D01*
X122752887Y-98782268D01*
X122702893Y-98764775D01*
X122676868Y-98748422D01*
X122650164Y-98736533D01*
X122600369Y-98700355D01*
X122551208Y-98669465D01*
X122533554Y-98651811D01*
X122514915Y-98638269D01*
X122468833Y-98587090D01*
X122424535Y-98542792D01*
X122414345Y-98526575D01*
X122403053Y-98514034D01*
X122364420Y-98447120D01*
X122329225Y-98391107D01*
X122324830Y-98378547D01*
X122319464Y-98369253D01*
X122291980Y-98284667D01*
X122270058Y-98222017D01*
X122269226Y-98214639D01*
X122267804Y-98210261D01*
X122254908Y-98087565D01*
X122250000Y-98044000D01*
X122254908Y-98000438D01*
X122267804Y-97877738D01*
X122269226Y-97873358D01*
X122270058Y-97865983D01*
X122291975Y-97803345D01*
X122319464Y-97718746D01*
X122324831Y-97709449D01*
X122329225Y-97696893D01*
X122364413Y-97640890D01*
X122403053Y-97573965D01*
X122414347Y-97561421D01*
X122424535Y-97545208D01*
X122468826Y-97500916D01*
X122514917Y-97449728D01*
X122533559Y-97436183D01*
X122551208Y-97418535D01*
X122600354Y-97387654D01*
X122650162Y-97351467D01*
X122676873Y-97339574D01*
X122702893Y-97323225D01*
X122752877Y-97305734D01*
X122802889Y-97283468D01*
X122837592Y-97276091D01*
X122871983Y-97264058D01*
X122919281Y-97258728D01*
X122966412Y-97248711D01*
X123008189Y-97248711D01*
X123050000Y-97244000D01*
X123091811Y-97248711D01*
G37*
G36*
X112145090Y-94719215D02*
G01*
X112332683Y-94776120D01*
X112505570Y-94868530D01*
X112657107Y-94992893D01*
X112781470Y-95144430D01*
X112873880Y-95317317D01*
X112930785Y-95504910D01*
X112950000Y-95700000D01*
X112930785Y-95895090D01*
X112873880Y-96082683D01*
X112781470Y-96255570D01*
X112657107Y-96407107D01*
X112505570Y-96531470D01*
X112332683Y-96623880D01*
X112145090Y-96680785D01*
X111950000Y-96700000D01*
X111754910Y-96680785D01*
X111567317Y-96623880D01*
X111394430Y-96531470D01*
X111242893Y-96407107D01*
X111118530Y-96255570D01*
X111026120Y-96082683D01*
X110969215Y-95895090D01*
X110950000Y-95700000D01*
X110969215Y-95504910D01*
X111026120Y-95317317D01*
X111118530Y-95144430D01*
X111242893Y-94992893D01*
X111394430Y-94868530D01*
X111567317Y-94776120D01*
X111754910Y-94719215D01*
X111950000Y-94700000D01*
X112145090Y-94719215D01*
G37*
G36*
X118645090Y-94719215D02*
G01*
X118832683Y-94776120D01*
X119005570Y-94868530D01*
X119157107Y-94992893D01*
X119281470Y-95144430D01*
X119373880Y-95317317D01*
X119430785Y-95504910D01*
X119450000Y-95700000D01*
X119430785Y-95895090D01*
X119373880Y-96082683D01*
X119281470Y-96255570D01*
X119157107Y-96407107D01*
X119005570Y-96531470D01*
X118832683Y-96623880D01*
X118645090Y-96680785D01*
X118450000Y-96700000D01*
X118254910Y-96680785D01*
X118067317Y-96623880D01*
X117894430Y-96531470D01*
X117742893Y-96407107D01*
X117618530Y-96255570D01*
X117526120Y-96082683D01*
X117469215Y-95895090D01*
X117450000Y-95700000D01*
X117469215Y-95504910D01*
X117526120Y-95317317D01*
X117618530Y-95144430D01*
X117742893Y-94992893D01*
X117894430Y-94868530D01*
X118067317Y-94776120D01*
X118254910Y-94719215D01*
X118450000Y-94700000D01*
X118645090Y-94719215D01*
G37*
G36*
X129074561Y-95142105D02*
G01*
X129235619Y-95198462D01*
X129380099Y-95289244D01*
X129500756Y-95409901D01*
X129591538Y-95554381D01*
X129647895Y-95715439D01*
X129667000Y-95885000D01*
X129647895Y-96054561D01*
X129591538Y-96215619D01*
X129500756Y-96360099D01*
X129380099Y-96480756D01*
X129235619Y-96571538D01*
X129074561Y-96627895D01*
X128905000Y-96647000D01*
X128735439Y-96627895D01*
X128574381Y-96571538D01*
X128429901Y-96480756D01*
X128309244Y-96360099D01*
X128218462Y-96215619D01*
X128162105Y-96054561D01*
X128143000Y-95885000D01*
X128162105Y-95715439D01*
X128218462Y-95554381D01*
X128309244Y-95409901D01*
X128429901Y-95289244D01*
X128574381Y-95198462D01*
X128735439Y-95142105D01*
X128905000Y-95123000D01*
X129074561Y-95142105D01*
G37*
G36*
X154474561Y-95142105D02*
G01*
X154635619Y-95198462D01*
X154780099Y-95289244D01*
X154900756Y-95409901D01*
X154991538Y-95554381D01*
X155047895Y-95715439D01*
X155067000Y-95885000D01*
X155047895Y-96054561D01*
X154991538Y-96215619D01*
X154900756Y-96360099D01*
X154780099Y-96480756D01*
X154635619Y-96571538D01*
X154474561Y-96627895D01*
X154305000Y-96647000D01*
X154135439Y-96627895D01*
X153974381Y-96571538D01*
X153829901Y-96480756D01*
X153709244Y-96360099D01*
X153618462Y-96215619D01*
X153562105Y-96054561D01*
X153543000Y-95885000D01*
X153562105Y-95715439D01*
X153618462Y-95554381D01*
X153709244Y-95409901D01*
X153829901Y-95289244D01*
X153974381Y-95198462D01*
X154135439Y-95142105D01*
X154305000Y-95123000D01*
X154474561Y-95142105D01*
G37*
G36*
X129074561Y-92602105D02*
G01*
X129235619Y-92658462D01*
X129380099Y-92749244D01*
X129500756Y-92869901D01*
X129591538Y-93014381D01*
X129647895Y-93175439D01*
X129667000Y-93345000D01*
X129647895Y-93514561D01*
X129591538Y-93675619D01*
X129500756Y-93820099D01*
X129380099Y-93940756D01*
X129235619Y-94031538D01*
X129074561Y-94087895D01*
X128905000Y-94107000D01*
X128735439Y-94087895D01*
X128574381Y-94031538D01*
X128429901Y-93940756D01*
X128309244Y-93820099D01*
X128218462Y-93675619D01*
X128162105Y-93514561D01*
X128143000Y-93345000D01*
X128162105Y-93175439D01*
X128218462Y-93014381D01*
X128309244Y-92869901D01*
X128429901Y-92749244D01*
X128574381Y-92658462D01*
X128735439Y-92602105D01*
X128905000Y-92583000D01*
X129074561Y-92602105D01*
G37*
G36*
X154474561Y-92602105D02*
G01*
X154635619Y-92658462D01*
X154780099Y-92749244D01*
X154900756Y-92869901D01*
X154991538Y-93014381D01*
X155047895Y-93175439D01*
X155067000Y-93345000D01*
X155047895Y-93514561D01*
X154991538Y-93675619D01*
X154900756Y-93820099D01*
X154780099Y-93940756D01*
X154635619Y-94031538D01*
X154474561Y-94087895D01*
X154305000Y-94107000D01*
X154135439Y-94087895D01*
X153974381Y-94031538D01*
X153829901Y-93940756D01*
X153709244Y-93820099D01*
X153618462Y-93675619D01*
X153562105Y-93514561D01*
X153543000Y-93345000D01*
X153562105Y-93175439D01*
X153618462Y-93014381D01*
X153709244Y-92869901D01*
X153829901Y-92749244D01*
X153974381Y-92658462D01*
X154135439Y-92602105D01*
X154305000Y-92583000D01*
X154474561Y-92602105D01*
G37*
G36*
X112145090Y-90219215D02*
G01*
X112332683Y-90276120D01*
X112505570Y-90368530D01*
X112657107Y-90492893D01*
X112781470Y-90644430D01*
X112873880Y-90817317D01*
X112930785Y-91004910D01*
X112950000Y-91200000D01*
X112930785Y-91395090D01*
X112873880Y-91582683D01*
X112781470Y-91755570D01*
X112657107Y-91907107D01*
X112505570Y-92031470D01*
X112332683Y-92123880D01*
X112145090Y-92180785D01*
X111950000Y-92200000D01*
X111754910Y-92180785D01*
X111567317Y-92123880D01*
X111394430Y-92031470D01*
X111242893Y-91907107D01*
X111118530Y-91755570D01*
X111026120Y-91582683D01*
X110969215Y-91395090D01*
X110950000Y-91200000D01*
X110969215Y-91004910D01*
X111026120Y-90817317D01*
X111118530Y-90644430D01*
X111242893Y-90492893D01*
X111394430Y-90368530D01*
X111567317Y-90276120D01*
X111754910Y-90219215D01*
X111950000Y-90200000D01*
X112145090Y-90219215D01*
G37*
G36*
X118645090Y-90219215D02*
G01*
X118832683Y-90276120D01*
X119005570Y-90368530D01*
X119157107Y-90492893D01*
X119281470Y-90644430D01*
X119373880Y-90817317D01*
X119430785Y-91004910D01*
X119450000Y-91200000D01*
X119430785Y-91395090D01*
X119373880Y-91582683D01*
X119281470Y-91755570D01*
X119157107Y-91907107D01*
X119005570Y-92031470D01*
X118832683Y-92123880D01*
X118645090Y-92180785D01*
X118450000Y-92200000D01*
X118254910Y-92180785D01*
X118067317Y-92123880D01*
X117894430Y-92031470D01*
X117742893Y-91907107D01*
X117618530Y-91755570D01*
X117526120Y-91582683D01*
X117469215Y-91395090D01*
X117450000Y-91200000D01*
X117469215Y-91004910D01*
X117526120Y-90817317D01*
X117618530Y-90644430D01*
X117742893Y-90492893D01*
X117894430Y-90368530D01*
X118067317Y-90276120D01*
X118254910Y-90219215D01*
X118450000Y-90200000D01*
X118645090Y-90219215D01*
G37*
G36*
X129074561Y-90062105D02*
G01*
X129235619Y-90118462D01*
X129380099Y-90209244D01*
X129500756Y-90329901D01*
X129591538Y-90474381D01*
X129647895Y-90635439D01*
X129667000Y-90805000D01*
X129647895Y-90974561D01*
X129591538Y-91135619D01*
X129500756Y-91280099D01*
X129380099Y-91400756D01*
X129235619Y-91491538D01*
X129074561Y-91547895D01*
X128905000Y-91567000D01*
X128735439Y-91547895D01*
X128574381Y-91491538D01*
X128429901Y-91400756D01*
X128309244Y-91280099D01*
X128218462Y-91135619D01*
X128162105Y-90974561D01*
X128143000Y-90805000D01*
X128162105Y-90635439D01*
X128218462Y-90474381D01*
X128309244Y-90329901D01*
X128429901Y-90209244D01*
X128574381Y-90118462D01*
X128735439Y-90062105D01*
X128905000Y-90043000D01*
X129074561Y-90062105D01*
G37*
G36*
X154474561Y-90062105D02*
G01*
X154635619Y-90118462D01*
X154780099Y-90209244D01*
X154900756Y-90329901D01*
X154991538Y-90474381D01*
X155047895Y-90635439D01*
X155067000Y-90805000D01*
X155047895Y-90974561D01*
X154991538Y-91135619D01*
X154900756Y-91280099D01*
X154780099Y-91400756D01*
X154635619Y-91491538D01*
X154474561Y-91547895D01*
X154305000Y-91567000D01*
X154135439Y-91547895D01*
X153974381Y-91491538D01*
X153829901Y-91400756D01*
X153709244Y-91280099D01*
X153618462Y-91135619D01*
X153562105Y-90974561D01*
X153543000Y-90805000D01*
X153562105Y-90635439D01*
X153618462Y-90474381D01*
X153709244Y-90329901D01*
X153829901Y-90209244D01*
X153974381Y-90118462D01*
X154135439Y-90062105D01*
X154305000Y-90043000D01*
X154474561Y-90062105D01*
G37*
G36*
X123091811Y-89628711D02*
G01*
X123133588Y-89628711D01*
X123180718Y-89638728D01*
X123228017Y-89644058D01*
X123262408Y-89656092D01*
X123297110Y-89663468D01*
X123347117Y-89685733D01*
X123397107Y-89703225D01*
X123423128Y-89719575D01*
X123449835Y-89731466D01*
X123499633Y-89767646D01*
X123548792Y-89798535D01*
X123566444Y-89816187D01*
X123585084Y-89829730D01*
X123631165Y-89880908D01*
X123675465Y-89925208D01*
X123685654Y-89941424D01*
X123696946Y-89953965D01*
X123735573Y-90020870D01*
X123770775Y-90076893D01*
X123775170Y-90089453D01*
X123780535Y-90098746D01*
X123808010Y-90183305D01*
X123829942Y-90245983D01*
X123830773Y-90253363D01*
X123832195Y-90257738D01*
X123845076Y-90380306D01*
X123850000Y-90424000D01*
X123845076Y-90467697D01*
X123832195Y-90590261D01*
X123830773Y-90594635D01*
X123829942Y-90602017D01*
X123808005Y-90664707D01*
X123780535Y-90749253D01*
X123775171Y-90758543D01*
X123770775Y-90771107D01*
X123735566Y-90827140D01*
X123696946Y-90894034D01*
X123685656Y-90906572D01*
X123675465Y-90922792D01*
X123631155Y-90967101D01*
X123585084Y-91018269D01*
X123566448Y-91031808D01*
X123548792Y-91049465D01*
X123499623Y-91080359D01*
X123449835Y-91116533D01*
X123423134Y-91128421D01*
X123397107Y-91144775D01*
X123347107Y-91162270D01*
X123297110Y-91184531D01*
X123262414Y-91191905D01*
X123228017Y-91203942D01*
X123180715Y-91209271D01*
X123133588Y-91219289D01*
X123091811Y-91219289D01*
X123050000Y-91224000D01*
X123008189Y-91219289D01*
X122966412Y-91219289D01*
X122919284Y-91209271D01*
X122871983Y-91203942D01*
X122837586Y-91191906D01*
X122802889Y-91184531D01*
X122752887Y-91162268D01*
X122702893Y-91144775D01*
X122676868Y-91128422D01*
X122650164Y-91116533D01*
X122600369Y-91080355D01*
X122551208Y-91049465D01*
X122533554Y-91031811D01*
X122514915Y-91018269D01*
X122468833Y-90967090D01*
X122424535Y-90922792D01*
X122414345Y-90906575D01*
X122403053Y-90894034D01*
X122364420Y-90827120D01*
X122329225Y-90771107D01*
X122324830Y-90758547D01*
X122319464Y-90749253D01*
X122291980Y-90664667D01*
X122270058Y-90602017D01*
X122269226Y-90594639D01*
X122267804Y-90590261D01*
X122254908Y-90467565D01*
X122250000Y-90424000D01*
X122254908Y-90380438D01*
X122267804Y-90257738D01*
X122269226Y-90253358D01*
X122270058Y-90245983D01*
X122291975Y-90183345D01*
X122319464Y-90098746D01*
X122324831Y-90089449D01*
X122329225Y-90076893D01*
X122364413Y-90020890D01*
X122403053Y-89953965D01*
X122414347Y-89941421D01*
X122424535Y-89925208D01*
X122468826Y-89880916D01*
X122514917Y-89829728D01*
X122533559Y-89816183D01*
X122551208Y-89798535D01*
X122600354Y-89767654D01*
X122650162Y-89731467D01*
X122676873Y-89719574D01*
X122702893Y-89703225D01*
X122752877Y-89685734D01*
X122802889Y-89663468D01*
X122837592Y-89656091D01*
X122871983Y-89644058D01*
X122919281Y-89638728D01*
X122966412Y-89628711D01*
X123008189Y-89628711D01*
X123050000Y-89624000D01*
X123091811Y-89628711D01*
G37*
G36*
X181493116Y-89304575D02*
G01*
X181675770Y-89340907D01*
X181847827Y-89412175D01*
X182002674Y-89515640D01*
X182134360Y-89647326D01*
X182237825Y-89802173D01*
X182309093Y-89974230D01*
X182345425Y-90156884D01*
X182345425Y-90343116D01*
X182309093Y-90525770D01*
X182237825Y-90697827D01*
X182134360Y-90852674D01*
X182002674Y-90984360D01*
X181847827Y-91087825D01*
X181675770Y-91159093D01*
X181493116Y-91195425D01*
X181400000Y-91200000D01*
X181398522Y-91200000D01*
X180101478Y-91200000D01*
X180100000Y-91200000D01*
X180006884Y-91195425D01*
X179824230Y-91159093D01*
X179652173Y-91087825D01*
X179497326Y-90984360D01*
X179365640Y-90852674D01*
X179262175Y-90697827D01*
X179190907Y-90525770D01*
X179154575Y-90343116D01*
X179154575Y-90156884D01*
X179190907Y-89974230D01*
X179262175Y-89802173D01*
X179365640Y-89647326D01*
X179497326Y-89515640D01*
X179652173Y-89412175D01*
X179824230Y-89340907D01*
X180006884Y-89304575D01*
X180100000Y-89300000D01*
X181400000Y-89300000D01*
X181493116Y-89304575D01*
G37*
G36*
X193993116Y-89304575D02*
G01*
X194175770Y-89340907D01*
X194347827Y-89412175D01*
X194502674Y-89515640D01*
X194634360Y-89647326D01*
X194737825Y-89802173D01*
X194809093Y-89974230D01*
X194845425Y-90156884D01*
X194845425Y-90343116D01*
X194809093Y-90525770D01*
X194737825Y-90697827D01*
X194634360Y-90852674D01*
X194502674Y-90984360D01*
X194347827Y-91087825D01*
X194175770Y-91159093D01*
X193993116Y-91195425D01*
X193900000Y-91200000D01*
X193898522Y-91200000D01*
X192601478Y-91200000D01*
X192600000Y-91200000D01*
X192506884Y-91195425D01*
X192324230Y-91159093D01*
X192152173Y-91087825D01*
X191997326Y-90984360D01*
X191865640Y-90852674D01*
X191762175Y-90697827D01*
X191690907Y-90525770D01*
X191654575Y-90343116D01*
X191654575Y-90156884D01*
X191690907Y-89974230D01*
X191762175Y-89802173D01*
X191865640Y-89647326D01*
X191997326Y-89515640D01*
X192152173Y-89412175D01*
X192324230Y-89340907D01*
X192506884Y-89304575D01*
X192600000Y-89300000D01*
X193900000Y-89300000D01*
X193993116Y-89304575D01*
G37*
G36*
X88022000Y-89292000D02*
G01*
X86222000Y-89292000D01*
X86222000Y-87492000D01*
X88022000Y-87492000D01*
X88022000Y-89292000D01*
G37*
G36*
X95642000Y-89292000D02*
G01*
X93842000Y-89292000D01*
X93842000Y-87492000D01*
X95642000Y-87492000D01*
X95642000Y-89292000D01*
G37*
G36*
X103262000Y-89292000D02*
G01*
X101462000Y-89292000D01*
X101462000Y-87492000D01*
X103262000Y-87492000D01*
X103262000Y-89292000D01*
G37*
G36*
X89709113Y-87496930D02*
G01*
X89756076Y-87496930D01*
X89796622Y-87505548D01*
X89837526Y-87509577D01*
X89888916Y-87525166D01*
X89940115Y-87536049D01*
X89972879Y-87550636D01*
X90006304Y-87560776D01*
X90059420Y-87589166D01*
X90112000Y-87612577D01*
X90136445Y-87630337D01*
X90161849Y-87643916D01*
X90213669Y-87686444D01*
X90264218Y-87723170D01*
X90280631Y-87741398D01*
X90298190Y-87755809D01*
X90345379Y-87813308D01*
X90390115Y-87862993D01*
X90399512Y-87879269D01*
X90410083Y-87892150D01*
X90449183Y-87965302D01*
X90484191Y-88025937D01*
X90488218Y-88038331D01*
X90493223Y-88047695D01*
X90520821Y-88138672D01*
X90542333Y-88204879D01*
X90543090Y-88212082D01*
X90544422Y-88216473D01*
X90557377Y-88348021D01*
X90562000Y-88392000D01*
X90557377Y-88435982D01*
X90544422Y-88567526D01*
X90543090Y-88571916D01*
X90542333Y-88579121D01*
X90520816Y-88645341D01*
X90493223Y-88736304D01*
X90488219Y-88745665D01*
X90484191Y-88758063D01*
X90449176Y-88818709D01*
X90410083Y-88891849D01*
X90399514Y-88904726D01*
X90390115Y-88921007D01*
X90345369Y-88970701D01*
X90298190Y-89028190D01*
X90280634Y-89042597D01*
X90264218Y-89060830D01*
X90213659Y-89097563D01*
X90161849Y-89140083D01*
X90136450Y-89153658D01*
X90112000Y-89171423D01*
X90059408Y-89194838D01*
X90006304Y-89223223D01*
X89972886Y-89233360D01*
X89940115Y-89247951D01*
X89888905Y-89258836D01*
X89837526Y-89274422D01*
X89796631Y-89278449D01*
X89756076Y-89287070D01*
X89709103Y-89287070D01*
X89662000Y-89291709D01*
X89614897Y-89287070D01*
X89567924Y-89287070D01*
X89527368Y-89278449D01*
X89486473Y-89274422D01*
X89435091Y-89258835D01*
X89383885Y-89247951D01*
X89351115Y-89233361D01*
X89317695Y-89223223D01*
X89264585Y-89194835D01*
X89212000Y-89171423D01*
X89187552Y-89153660D01*
X89162150Y-89140083D01*
X89110332Y-89097556D01*
X89059782Y-89060830D01*
X89043368Y-89042600D01*
X89025809Y-89028190D01*
X88978618Y-88970688D01*
X88933885Y-88921007D01*
X88924487Y-88904730D01*
X88913916Y-88891849D01*
X88874810Y-88818686D01*
X88839809Y-88758063D01*
X88835782Y-88745670D01*
X88830776Y-88736304D01*
X88803168Y-88645294D01*
X88781667Y-88579121D01*
X88780910Y-88571921D01*
X88779577Y-88567526D01*
X88766606Y-88435831D01*
X88762000Y-88392000D01*
X88766606Y-88348172D01*
X88779577Y-88216473D01*
X88780910Y-88212077D01*
X88781667Y-88204879D01*
X88803163Y-88138719D01*
X88830776Y-88047695D01*
X88835783Y-88038327D01*
X88839809Y-88025937D01*
X88874802Y-87965326D01*
X88913916Y-87892150D01*
X88924489Y-87879265D01*
X88933885Y-87862993D01*
X88978609Y-87813321D01*
X89025809Y-87755809D01*
X89043371Y-87741395D01*
X89059782Y-87723170D01*
X89110321Y-87686450D01*
X89162150Y-87643916D01*
X89187557Y-87630335D01*
X89212000Y-87612577D01*
X89264573Y-87589169D01*
X89317695Y-87560776D01*
X89351122Y-87550635D01*
X89383885Y-87536049D01*
X89435080Y-87525166D01*
X89486473Y-87509577D01*
X89527377Y-87505548D01*
X89567924Y-87496930D01*
X89614887Y-87496930D01*
X89662000Y-87492290D01*
X89709113Y-87496930D01*
G37*
G36*
X97329113Y-87496930D02*
G01*
X97376076Y-87496930D01*
X97416622Y-87505548D01*
X97457526Y-87509577D01*
X97508916Y-87525166D01*
X97560115Y-87536049D01*
X97592879Y-87550636D01*
X97626304Y-87560776D01*
X97679420Y-87589166D01*
X97732000Y-87612577D01*
X97756445Y-87630337D01*
X97781849Y-87643916D01*
X97833669Y-87686444D01*
X97884218Y-87723170D01*
X97900631Y-87741398D01*
X97918190Y-87755809D01*
X97965379Y-87813308D01*
X98010115Y-87862993D01*
X98019512Y-87879269D01*
X98030083Y-87892150D01*
X98069183Y-87965302D01*
X98104191Y-88025937D01*
X98108218Y-88038331D01*
X98113223Y-88047695D01*
X98140821Y-88138672D01*
X98162333Y-88204879D01*
X98163090Y-88212082D01*
X98164422Y-88216473D01*
X98177377Y-88348021D01*
X98182000Y-88392000D01*
X98177377Y-88435982D01*
X98164422Y-88567526D01*
X98163090Y-88571916D01*
X98162333Y-88579121D01*
X98140816Y-88645341D01*
X98113223Y-88736304D01*
X98108219Y-88745665D01*
X98104191Y-88758063D01*
X98069176Y-88818709D01*
X98030083Y-88891849D01*
X98019514Y-88904726D01*
X98010115Y-88921007D01*
X97965369Y-88970701D01*
X97918190Y-89028190D01*
X97900634Y-89042597D01*
X97884218Y-89060830D01*
X97833659Y-89097563D01*
X97781849Y-89140083D01*
X97756450Y-89153658D01*
X97732000Y-89171423D01*
X97679408Y-89194838D01*
X97626304Y-89223223D01*
X97592886Y-89233360D01*
X97560115Y-89247951D01*
X97508905Y-89258836D01*
X97457526Y-89274422D01*
X97416631Y-89278449D01*
X97376076Y-89287070D01*
X97329103Y-89287070D01*
X97282000Y-89291709D01*
X97234897Y-89287070D01*
X97187924Y-89287070D01*
X97147368Y-89278449D01*
X97106473Y-89274422D01*
X97055091Y-89258835D01*
X97003885Y-89247951D01*
X96971115Y-89233361D01*
X96937695Y-89223223D01*
X96884585Y-89194835D01*
X96832000Y-89171423D01*
X96807552Y-89153660D01*
X96782150Y-89140083D01*
X96730332Y-89097556D01*
X96679782Y-89060830D01*
X96663368Y-89042600D01*
X96645809Y-89028190D01*
X96598618Y-88970688D01*
X96553885Y-88921007D01*
X96544487Y-88904730D01*
X96533916Y-88891849D01*
X96494810Y-88818686D01*
X96459809Y-88758063D01*
X96455782Y-88745670D01*
X96450776Y-88736304D01*
X96423168Y-88645294D01*
X96401667Y-88579121D01*
X96400910Y-88571921D01*
X96399577Y-88567526D01*
X96386606Y-88435831D01*
X96382000Y-88392000D01*
X96386606Y-88348172D01*
X96399577Y-88216473D01*
X96400910Y-88212077D01*
X96401667Y-88204879D01*
X96423163Y-88138719D01*
X96450776Y-88047695D01*
X96455783Y-88038327D01*
X96459809Y-88025937D01*
X96494802Y-87965326D01*
X96533916Y-87892150D01*
X96544489Y-87879265D01*
X96553885Y-87862993D01*
X96598609Y-87813321D01*
X96645809Y-87755809D01*
X96663371Y-87741395D01*
X96679782Y-87723170D01*
X96730321Y-87686450D01*
X96782150Y-87643916D01*
X96807557Y-87630335D01*
X96832000Y-87612577D01*
X96884573Y-87589169D01*
X96937695Y-87560776D01*
X96971122Y-87550635D01*
X97003885Y-87536049D01*
X97055080Y-87525166D01*
X97106473Y-87509577D01*
X97147377Y-87505548D01*
X97187924Y-87496930D01*
X97234887Y-87496930D01*
X97282000Y-87492290D01*
X97329113Y-87496930D01*
G37*
G36*
X104949113Y-87496930D02*
G01*
X104996076Y-87496930D01*
X105036622Y-87505548D01*
X105077526Y-87509577D01*
X105128916Y-87525166D01*
X105180115Y-87536049D01*
X105212879Y-87550636D01*
X105246304Y-87560776D01*
X105299420Y-87589166D01*
X105352000Y-87612577D01*
X105376445Y-87630337D01*
X105401849Y-87643916D01*
X105453669Y-87686444D01*
X105504218Y-87723170D01*
X105520631Y-87741398D01*
X105538190Y-87755809D01*
X105585379Y-87813308D01*
X105630115Y-87862993D01*
X105639512Y-87879269D01*
X105650083Y-87892150D01*
X105689183Y-87965302D01*
X105724191Y-88025937D01*
X105728218Y-88038331D01*
X105733223Y-88047695D01*
X105760821Y-88138672D01*
X105782333Y-88204879D01*
X105783090Y-88212082D01*
X105784422Y-88216473D01*
X105797377Y-88348021D01*
X105802000Y-88392000D01*
X105797377Y-88435982D01*
X105784422Y-88567526D01*
X105783090Y-88571916D01*
X105782333Y-88579121D01*
X105760816Y-88645341D01*
X105733223Y-88736304D01*
X105728219Y-88745665D01*
X105724191Y-88758063D01*
X105689176Y-88818709D01*
X105650083Y-88891849D01*
X105639514Y-88904726D01*
X105630115Y-88921007D01*
X105585369Y-88970701D01*
X105538190Y-89028190D01*
X105520634Y-89042597D01*
X105504218Y-89060830D01*
X105453659Y-89097563D01*
X105401849Y-89140083D01*
X105376450Y-89153658D01*
X105352000Y-89171423D01*
X105299408Y-89194838D01*
X105246304Y-89223223D01*
X105212886Y-89233360D01*
X105180115Y-89247951D01*
X105128905Y-89258836D01*
X105077526Y-89274422D01*
X105036631Y-89278449D01*
X104996076Y-89287070D01*
X104949103Y-89287070D01*
X104902000Y-89291709D01*
X104854897Y-89287070D01*
X104807924Y-89287070D01*
X104767368Y-89278449D01*
X104726473Y-89274422D01*
X104675091Y-89258835D01*
X104623885Y-89247951D01*
X104591115Y-89233361D01*
X104557695Y-89223223D01*
X104504585Y-89194835D01*
X104452000Y-89171423D01*
X104427552Y-89153660D01*
X104402150Y-89140083D01*
X104350332Y-89097556D01*
X104299782Y-89060830D01*
X104283368Y-89042600D01*
X104265809Y-89028190D01*
X104218618Y-88970688D01*
X104173885Y-88921007D01*
X104164487Y-88904730D01*
X104153916Y-88891849D01*
X104114810Y-88818686D01*
X104079809Y-88758063D01*
X104075782Y-88745670D01*
X104070776Y-88736304D01*
X104043168Y-88645294D01*
X104021667Y-88579121D01*
X104020910Y-88571921D01*
X104019577Y-88567526D01*
X104006606Y-88435831D01*
X104002000Y-88392000D01*
X104006606Y-88348172D01*
X104019577Y-88216473D01*
X104020910Y-88212077D01*
X104021667Y-88204879D01*
X104043163Y-88138719D01*
X104070776Y-88047695D01*
X104075783Y-88038327D01*
X104079809Y-88025937D01*
X104114802Y-87965326D01*
X104153916Y-87892150D01*
X104164489Y-87879265D01*
X104173885Y-87862993D01*
X104218609Y-87813321D01*
X104265809Y-87755809D01*
X104283371Y-87741395D01*
X104299782Y-87723170D01*
X104350321Y-87686450D01*
X104402150Y-87643916D01*
X104427557Y-87630335D01*
X104452000Y-87612577D01*
X104504573Y-87589169D01*
X104557695Y-87560776D01*
X104591122Y-87550635D01*
X104623885Y-87536049D01*
X104675080Y-87525166D01*
X104726473Y-87509577D01*
X104767377Y-87505548D01*
X104807924Y-87496930D01*
X104854887Y-87496930D01*
X104902000Y-87492290D01*
X104949113Y-87496930D01*
G37*
G36*
X129074561Y-87522105D02*
G01*
X129235619Y-87578462D01*
X129380099Y-87669244D01*
X129500756Y-87789901D01*
X129591538Y-87934381D01*
X129647895Y-88095439D01*
X129667000Y-88265000D01*
X129647895Y-88434561D01*
X129591538Y-88595619D01*
X129500756Y-88740099D01*
X129380099Y-88860756D01*
X129235619Y-88951538D01*
X129074561Y-89007895D01*
X128905000Y-89027000D01*
X128735439Y-89007895D01*
X128574381Y-88951538D01*
X128429901Y-88860756D01*
X128309244Y-88740099D01*
X128218462Y-88595619D01*
X128162105Y-88434561D01*
X128143000Y-88265000D01*
X128162105Y-88095439D01*
X128218462Y-87934381D01*
X128309244Y-87789901D01*
X128429901Y-87669244D01*
X128574381Y-87578462D01*
X128735439Y-87522105D01*
X128905000Y-87503000D01*
X129074561Y-87522105D01*
G37*
G36*
X154474561Y-87522105D02*
G01*
X154635619Y-87578462D01*
X154780099Y-87669244D01*
X154900756Y-87789901D01*
X154991538Y-87934381D01*
X155047895Y-88095439D01*
X155067000Y-88265000D01*
X155047895Y-88434561D01*
X154991538Y-88595619D01*
X154900756Y-88740099D01*
X154780099Y-88860756D01*
X154635619Y-88951538D01*
X154474561Y-89007895D01*
X154305000Y-89027000D01*
X154135439Y-89007895D01*
X153974381Y-88951538D01*
X153829901Y-88860756D01*
X153709244Y-88740099D01*
X153618462Y-88595619D01*
X153562105Y-88434561D01*
X153543000Y-88265000D01*
X153562105Y-88095439D01*
X153618462Y-87934381D01*
X153709244Y-87789901D01*
X153829901Y-87669244D01*
X153974381Y-87578462D01*
X154135439Y-87522105D01*
X154305000Y-87503000D01*
X154474561Y-87522105D01*
G37*
G36*
X159426811Y-86246711D02*
G01*
X159468588Y-86246711D01*
X159515718Y-86256728D01*
X159563017Y-86262058D01*
X159597408Y-86274092D01*
X159632110Y-86281468D01*
X159682117Y-86303733D01*
X159732107Y-86321225D01*
X159758128Y-86337575D01*
X159784835Y-86349466D01*
X159834633Y-86385646D01*
X159883792Y-86416535D01*
X159901444Y-86434187D01*
X159920084Y-86447730D01*
X159966165Y-86498908D01*
X160010465Y-86543208D01*
X160020654Y-86559424D01*
X160031946Y-86571965D01*
X160070573Y-86638870D01*
X160105775Y-86694893D01*
X160110170Y-86707453D01*
X160115535Y-86716746D01*
X160143010Y-86801305D01*
X160164942Y-86863983D01*
X160165773Y-86871363D01*
X160167195Y-86875738D01*
X160180076Y-86998306D01*
X160185000Y-87042000D01*
X160180076Y-87085697D01*
X160167195Y-87208261D01*
X160165773Y-87212635D01*
X160164942Y-87220017D01*
X160143005Y-87282707D01*
X160115535Y-87367253D01*
X160110171Y-87376543D01*
X160105775Y-87389107D01*
X160070566Y-87445140D01*
X160031946Y-87512034D01*
X160020656Y-87524572D01*
X160010465Y-87540792D01*
X159966155Y-87585101D01*
X159920084Y-87636269D01*
X159901448Y-87649808D01*
X159883792Y-87667465D01*
X159834623Y-87698359D01*
X159784835Y-87734533D01*
X159758134Y-87746421D01*
X159732107Y-87762775D01*
X159682107Y-87780270D01*
X159632110Y-87802531D01*
X159597414Y-87809905D01*
X159563017Y-87821942D01*
X159515715Y-87827271D01*
X159468588Y-87837289D01*
X159426811Y-87837289D01*
X159385000Y-87842000D01*
X159343189Y-87837289D01*
X159301412Y-87837289D01*
X159254284Y-87827271D01*
X159206983Y-87821942D01*
X159172586Y-87809906D01*
X159137889Y-87802531D01*
X159087887Y-87780268D01*
X159037893Y-87762775D01*
X159011868Y-87746422D01*
X158985164Y-87734533D01*
X158935369Y-87698355D01*
X158886208Y-87667465D01*
X158868554Y-87649811D01*
X158849915Y-87636269D01*
X158803833Y-87585090D01*
X158759535Y-87540792D01*
X158749345Y-87524575D01*
X158738053Y-87512034D01*
X158699420Y-87445120D01*
X158664225Y-87389107D01*
X158659830Y-87376547D01*
X158654464Y-87367253D01*
X158626980Y-87282667D01*
X158605058Y-87220017D01*
X158604226Y-87212639D01*
X158602804Y-87208261D01*
X158589908Y-87085565D01*
X158585000Y-87042000D01*
X158589908Y-86998438D01*
X158602804Y-86875738D01*
X158604226Y-86871358D01*
X158605058Y-86863983D01*
X158626975Y-86801345D01*
X158654464Y-86716746D01*
X158659831Y-86707449D01*
X158664225Y-86694893D01*
X158699413Y-86638890D01*
X158738053Y-86571965D01*
X158749347Y-86559421D01*
X158759535Y-86543208D01*
X158803826Y-86498916D01*
X158849917Y-86447728D01*
X158868559Y-86434183D01*
X158886208Y-86416535D01*
X158935354Y-86385654D01*
X158985162Y-86349467D01*
X159011873Y-86337574D01*
X159037893Y-86321225D01*
X159087877Y-86303734D01*
X159137889Y-86281468D01*
X159172592Y-86274091D01*
X159206983Y-86262058D01*
X159254281Y-86256728D01*
X159301412Y-86246711D01*
X159343189Y-86246711D01*
X159385000Y-86242000D01*
X159426811Y-86246711D01*
G37*
G36*
X167046811Y-86246711D02*
G01*
X167088588Y-86246711D01*
X167135718Y-86256728D01*
X167183017Y-86262058D01*
X167217408Y-86274092D01*
X167252110Y-86281468D01*
X167302117Y-86303733D01*
X167352107Y-86321225D01*
X167378128Y-86337575D01*
X167404835Y-86349466D01*
X167454633Y-86385646D01*
X167503792Y-86416535D01*
X167521444Y-86434187D01*
X167540084Y-86447730D01*
X167586165Y-86498908D01*
X167630465Y-86543208D01*
X167640654Y-86559424D01*
X167651946Y-86571965D01*
X167690573Y-86638870D01*
X167725775Y-86694893D01*
X167730170Y-86707453D01*
X167735535Y-86716746D01*
X167763010Y-86801305D01*
X167784942Y-86863983D01*
X167785773Y-86871363D01*
X167787195Y-86875738D01*
X167800076Y-86998306D01*
X167805000Y-87042000D01*
X167800076Y-87085697D01*
X167787195Y-87208261D01*
X167785773Y-87212635D01*
X167784942Y-87220017D01*
X167763005Y-87282707D01*
X167735535Y-87367253D01*
X167730171Y-87376543D01*
X167725775Y-87389107D01*
X167690566Y-87445140D01*
X167651946Y-87512034D01*
X167640656Y-87524572D01*
X167630465Y-87540792D01*
X167586155Y-87585101D01*
X167540084Y-87636269D01*
X167521448Y-87649808D01*
X167503792Y-87667465D01*
X167454623Y-87698359D01*
X167404835Y-87734533D01*
X167378134Y-87746421D01*
X167352107Y-87762775D01*
X167302107Y-87780270D01*
X167252110Y-87802531D01*
X167217414Y-87809905D01*
X167183017Y-87821942D01*
X167135715Y-87827271D01*
X167088588Y-87837289D01*
X167046811Y-87837289D01*
X167005000Y-87842000D01*
X166963189Y-87837289D01*
X166921412Y-87837289D01*
X166874284Y-87827271D01*
X166826983Y-87821942D01*
X166792586Y-87809906D01*
X166757889Y-87802531D01*
X166707887Y-87780268D01*
X166657893Y-87762775D01*
X166631868Y-87746422D01*
X166605164Y-87734533D01*
X166555369Y-87698355D01*
X166506208Y-87667465D01*
X166488554Y-87649811D01*
X166469915Y-87636269D01*
X166423833Y-87585090D01*
X166379535Y-87540792D01*
X166369345Y-87524575D01*
X166358053Y-87512034D01*
X166319420Y-87445120D01*
X166284225Y-87389107D01*
X166279830Y-87376547D01*
X166274464Y-87367253D01*
X166246980Y-87282667D01*
X166225058Y-87220017D01*
X166224226Y-87212639D01*
X166222804Y-87208261D01*
X166209908Y-87085565D01*
X166205000Y-87042000D01*
X166209908Y-86998438D01*
X166222804Y-86875738D01*
X166224226Y-86871358D01*
X166225058Y-86863983D01*
X166246975Y-86801345D01*
X166274464Y-86716746D01*
X166279831Y-86707449D01*
X166284225Y-86694893D01*
X166319413Y-86638890D01*
X166358053Y-86571965D01*
X166369347Y-86559421D01*
X166379535Y-86543208D01*
X166423826Y-86498916D01*
X166469917Y-86447728D01*
X166488559Y-86434183D01*
X166506208Y-86416535D01*
X166555354Y-86385654D01*
X166605162Y-86349467D01*
X166631873Y-86337574D01*
X166657893Y-86321225D01*
X166707877Y-86303734D01*
X166757889Y-86281468D01*
X166792592Y-86274091D01*
X166826983Y-86262058D01*
X166874281Y-86256728D01*
X166921412Y-86246711D01*
X166963189Y-86246711D01*
X167005000Y-86242000D01*
X167046811Y-86246711D01*
G37*
G36*
X171237811Y-86246711D02*
G01*
X171279588Y-86246711D01*
X171326718Y-86256728D01*
X171374017Y-86262058D01*
X171408408Y-86274092D01*
X171443110Y-86281468D01*
X171493117Y-86303733D01*
X171543107Y-86321225D01*
X171569128Y-86337575D01*
X171595835Y-86349466D01*
X171645633Y-86385646D01*
X171694792Y-86416535D01*
X171712444Y-86434187D01*
X171731084Y-86447730D01*
X171777165Y-86498908D01*
X171821465Y-86543208D01*
X171831654Y-86559424D01*
X171842946Y-86571965D01*
X171881573Y-86638870D01*
X171916775Y-86694893D01*
X171921170Y-86707453D01*
X171926535Y-86716746D01*
X171954010Y-86801305D01*
X171975942Y-86863983D01*
X171976773Y-86871363D01*
X171978195Y-86875738D01*
X171991076Y-86998306D01*
X171996000Y-87042000D01*
X171991076Y-87085697D01*
X171978195Y-87208261D01*
X171976773Y-87212635D01*
X171975942Y-87220017D01*
X171954005Y-87282707D01*
X171926535Y-87367253D01*
X171921171Y-87376543D01*
X171916775Y-87389107D01*
X171881566Y-87445140D01*
X171842946Y-87512034D01*
X171831656Y-87524572D01*
X171821465Y-87540792D01*
X171777155Y-87585101D01*
X171731084Y-87636269D01*
X171712448Y-87649808D01*
X171694792Y-87667465D01*
X171645623Y-87698359D01*
X171595835Y-87734533D01*
X171569134Y-87746421D01*
X171543107Y-87762775D01*
X171493107Y-87780270D01*
X171443110Y-87802531D01*
X171408414Y-87809905D01*
X171374017Y-87821942D01*
X171326715Y-87827271D01*
X171279588Y-87837289D01*
X171237811Y-87837289D01*
X171196000Y-87842000D01*
X171154189Y-87837289D01*
X171112412Y-87837289D01*
X171065284Y-87827271D01*
X171017983Y-87821942D01*
X170983586Y-87809906D01*
X170948889Y-87802531D01*
X170898887Y-87780268D01*
X170848893Y-87762775D01*
X170822868Y-87746422D01*
X170796164Y-87734533D01*
X170746369Y-87698355D01*
X170697208Y-87667465D01*
X170679554Y-87649811D01*
X170660915Y-87636269D01*
X170614833Y-87585090D01*
X170570535Y-87540792D01*
X170560345Y-87524575D01*
X170549053Y-87512034D01*
X170510420Y-87445120D01*
X170475225Y-87389107D01*
X170470830Y-87376547D01*
X170465464Y-87367253D01*
X170437980Y-87282667D01*
X170416058Y-87220017D01*
X170415226Y-87212639D01*
X170413804Y-87208261D01*
X170400908Y-87085565D01*
X170396000Y-87042000D01*
X170400908Y-86998438D01*
X170413804Y-86875738D01*
X170415226Y-86871358D01*
X170416058Y-86863983D01*
X170437975Y-86801345D01*
X170465464Y-86716746D01*
X170470831Y-86707449D01*
X170475225Y-86694893D01*
X170510413Y-86638890D01*
X170549053Y-86571965D01*
X170560347Y-86559421D01*
X170570535Y-86543208D01*
X170614826Y-86498916D01*
X170660917Y-86447728D01*
X170679559Y-86434183D01*
X170697208Y-86416535D01*
X170746354Y-86385654D01*
X170796162Y-86349467D01*
X170822873Y-86337574D01*
X170848893Y-86321225D01*
X170898877Y-86303734D01*
X170948889Y-86281468D01*
X170983592Y-86274091D01*
X171017983Y-86262058D01*
X171065281Y-86256728D01*
X171112412Y-86246711D01*
X171154189Y-86246711D01*
X171196000Y-86242000D01*
X171237811Y-86246711D01*
G37*
G36*
X176237811Y-86246711D02*
G01*
X176279588Y-86246711D01*
X176326718Y-86256728D01*
X176374017Y-86262058D01*
X176408408Y-86274092D01*
X176443110Y-86281468D01*
X176493117Y-86303733D01*
X176543107Y-86321225D01*
X176569128Y-86337575D01*
X176595835Y-86349466D01*
X176645633Y-86385646D01*
X176694792Y-86416535D01*
X176712444Y-86434187D01*
X176731084Y-86447730D01*
X176777165Y-86498908D01*
X176821465Y-86543208D01*
X176831654Y-86559424D01*
X176842946Y-86571965D01*
X176881573Y-86638870D01*
X176916775Y-86694893D01*
X176921170Y-86707453D01*
X176926535Y-86716746D01*
X176954010Y-86801305D01*
X176975942Y-86863983D01*
X176976773Y-86871363D01*
X176978195Y-86875738D01*
X176991076Y-86998306D01*
X176996000Y-87042000D01*
X176991076Y-87085697D01*
X176978195Y-87208261D01*
X176976773Y-87212635D01*
X176975942Y-87220017D01*
X176954005Y-87282707D01*
X176926535Y-87367253D01*
X176921171Y-87376543D01*
X176916775Y-87389107D01*
X176881566Y-87445140D01*
X176842946Y-87512034D01*
X176831656Y-87524572D01*
X176821465Y-87540792D01*
X176777155Y-87585101D01*
X176731084Y-87636269D01*
X176712448Y-87649808D01*
X176694792Y-87667465D01*
X176645623Y-87698359D01*
X176595835Y-87734533D01*
X176569134Y-87746421D01*
X176543107Y-87762775D01*
X176493107Y-87780270D01*
X176443110Y-87802531D01*
X176408414Y-87809905D01*
X176374017Y-87821942D01*
X176326715Y-87827271D01*
X176279588Y-87837289D01*
X176237811Y-87837289D01*
X176196000Y-87842000D01*
X176154189Y-87837289D01*
X176112412Y-87837289D01*
X176065284Y-87827271D01*
X176017983Y-87821942D01*
X175983586Y-87809906D01*
X175948889Y-87802531D01*
X175898887Y-87780268D01*
X175848893Y-87762775D01*
X175822868Y-87746422D01*
X175796164Y-87734533D01*
X175746369Y-87698355D01*
X175697208Y-87667465D01*
X175679554Y-87649811D01*
X175660915Y-87636269D01*
X175614833Y-87585090D01*
X175570535Y-87540792D01*
X175560345Y-87524575D01*
X175549053Y-87512034D01*
X175510420Y-87445120D01*
X175475225Y-87389107D01*
X175470830Y-87376547D01*
X175465464Y-87367253D01*
X175437980Y-87282667D01*
X175416058Y-87220017D01*
X175415226Y-87212639D01*
X175413804Y-87208261D01*
X175400908Y-87085565D01*
X175396000Y-87042000D01*
X175400908Y-86998438D01*
X175413804Y-86875738D01*
X175415226Y-86871358D01*
X175416058Y-86863983D01*
X175437975Y-86801345D01*
X175465464Y-86716746D01*
X175470831Y-86707449D01*
X175475225Y-86694893D01*
X175510413Y-86638890D01*
X175549053Y-86571965D01*
X175560347Y-86559421D01*
X175570535Y-86543208D01*
X175614826Y-86498916D01*
X175660917Y-86447728D01*
X175679559Y-86434183D01*
X175697208Y-86416535D01*
X175746354Y-86385654D01*
X175796162Y-86349467D01*
X175822873Y-86337574D01*
X175848893Y-86321225D01*
X175898877Y-86303734D01*
X175948889Y-86281468D01*
X175983592Y-86274091D01*
X176017983Y-86262058D01*
X176065281Y-86256728D01*
X176112412Y-86246711D01*
X176154189Y-86246711D01*
X176196000Y-86242000D01*
X176237811Y-86246711D01*
G37*
G36*
X112309811Y-85310711D02*
G01*
X112351588Y-85310711D01*
X112398718Y-85320728D01*
X112446017Y-85326058D01*
X112480408Y-85338092D01*
X112515110Y-85345468D01*
X112565117Y-85367733D01*
X112615107Y-85385225D01*
X112641128Y-85401575D01*
X112667835Y-85413466D01*
X112717633Y-85449646D01*
X112766792Y-85480535D01*
X112784444Y-85498187D01*
X112803084Y-85511730D01*
X112849165Y-85562908D01*
X112893465Y-85607208D01*
X112903654Y-85623424D01*
X112914946Y-85635965D01*
X112953573Y-85702870D01*
X112988775Y-85758893D01*
X112993170Y-85771453D01*
X112998535Y-85780746D01*
X113026010Y-85865305D01*
X113047942Y-85927983D01*
X113048773Y-85935363D01*
X113050195Y-85939738D01*
X113063076Y-86062306D01*
X113068000Y-86106000D01*
X113063076Y-86149697D01*
X113050195Y-86272261D01*
X113048773Y-86276635D01*
X113047942Y-86284017D01*
X113026005Y-86346707D01*
X112998535Y-86431253D01*
X112993171Y-86440543D01*
X112988775Y-86453107D01*
X112953566Y-86509140D01*
X112914946Y-86576034D01*
X112903656Y-86588572D01*
X112893465Y-86604792D01*
X112849155Y-86649101D01*
X112803084Y-86700269D01*
X112784448Y-86713808D01*
X112766792Y-86731465D01*
X112717623Y-86762359D01*
X112667835Y-86798533D01*
X112641134Y-86810421D01*
X112615107Y-86826775D01*
X112565107Y-86844270D01*
X112515110Y-86866531D01*
X112480414Y-86873905D01*
X112446017Y-86885942D01*
X112398715Y-86891271D01*
X112351588Y-86901289D01*
X112309811Y-86901289D01*
X112268000Y-86906000D01*
X112226189Y-86901289D01*
X112184412Y-86901289D01*
X112137284Y-86891271D01*
X112089983Y-86885942D01*
X112055586Y-86873906D01*
X112020889Y-86866531D01*
X111970887Y-86844268D01*
X111920893Y-86826775D01*
X111894868Y-86810422D01*
X111868164Y-86798533D01*
X111818369Y-86762355D01*
X111769208Y-86731465D01*
X111751554Y-86713811D01*
X111732915Y-86700269D01*
X111686833Y-86649090D01*
X111642535Y-86604792D01*
X111632345Y-86588575D01*
X111621053Y-86576034D01*
X111582420Y-86509120D01*
X111547225Y-86453107D01*
X111542830Y-86440547D01*
X111537464Y-86431253D01*
X111509980Y-86346667D01*
X111488058Y-86284017D01*
X111487226Y-86276639D01*
X111485804Y-86272261D01*
X111472908Y-86149565D01*
X111468000Y-86106000D01*
X111472908Y-86062438D01*
X111485804Y-85939738D01*
X111487226Y-85935358D01*
X111488058Y-85927983D01*
X111509975Y-85865345D01*
X111537464Y-85780746D01*
X111542831Y-85771449D01*
X111547225Y-85758893D01*
X111582413Y-85702890D01*
X111621053Y-85635965D01*
X111632347Y-85623421D01*
X111642535Y-85607208D01*
X111686826Y-85562916D01*
X111732917Y-85511728D01*
X111751559Y-85498183D01*
X111769208Y-85480535D01*
X111818354Y-85449654D01*
X111868162Y-85413467D01*
X111894873Y-85401574D01*
X111920893Y-85385225D01*
X111970877Y-85367734D01*
X112020889Y-85345468D01*
X112055592Y-85338091D01*
X112089983Y-85326058D01*
X112137281Y-85320728D01*
X112184412Y-85310711D01*
X112226189Y-85310711D01*
X112268000Y-85306000D01*
X112309811Y-85310711D01*
G37*
G36*
X117491811Y-85310711D02*
G01*
X117533588Y-85310711D01*
X117580718Y-85320728D01*
X117628017Y-85326058D01*
X117662408Y-85338092D01*
X117697110Y-85345468D01*
X117747117Y-85367733D01*
X117797107Y-85385225D01*
X117823128Y-85401575D01*
X117849835Y-85413466D01*
X117899633Y-85449646D01*
X117948792Y-85480535D01*
X117966444Y-85498187D01*
X117985084Y-85511730D01*
X118031165Y-85562908D01*
X118075465Y-85607208D01*
X118085654Y-85623424D01*
X118096946Y-85635965D01*
X118135573Y-85702870D01*
X118170775Y-85758893D01*
X118175170Y-85771453D01*
X118180535Y-85780746D01*
X118208010Y-85865305D01*
X118229942Y-85927983D01*
X118230773Y-85935363D01*
X118232195Y-85939738D01*
X118245076Y-86062306D01*
X118250000Y-86106000D01*
X118245076Y-86149697D01*
X118232195Y-86272261D01*
X118230773Y-86276635D01*
X118229942Y-86284017D01*
X118208005Y-86346707D01*
X118180535Y-86431253D01*
X118175171Y-86440543D01*
X118170775Y-86453107D01*
X118135566Y-86509140D01*
X118096946Y-86576034D01*
X118085656Y-86588572D01*
X118075465Y-86604792D01*
X118031155Y-86649101D01*
X117985084Y-86700269D01*
X117966448Y-86713808D01*
X117948792Y-86731465D01*
X117899623Y-86762359D01*
X117849835Y-86798533D01*
X117823134Y-86810421D01*
X117797107Y-86826775D01*
X117747107Y-86844270D01*
X117697110Y-86866531D01*
X117662414Y-86873905D01*
X117628017Y-86885942D01*
X117580715Y-86891271D01*
X117533588Y-86901289D01*
X117491811Y-86901289D01*
X117450000Y-86906000D01*
X117408189Y-86901289D01*
X117366412Y-86901289D01*
X117319284Y-86891271D01*
X117271983Y-86885942D01*
X117237586Y-86873906D01*
X117202889Y-86866531D01*
X117152887Y-86844268D01*
X117102893Y-86826775D01*
X117076868Y-86810422D01*
X117050164Y-86798533D01*
X117000369Y-86762355D01*
X116951208Y-86731465D01*
X116933554Y-86713811D01*
X116914915Y-86700269D01*
X116868833Y-86649090D01*
X116824535Y-86604792D01*
X116814345Y-86588575D01*
X116803053Y-86576034D01*
X116764420Y-86509120D01*
X116729225Y-86453107D01*
X116724830Y-86440547D01*
X116719464Y-86431253D01*
X116691980Y-86346667D01*
X116670058Y-86284017D01*
X116669226Y-86276639D01*
X116667804Y-86272261D01*
X116654908Y-86149565D01*
X116650000Y-86106000D01*
X116654908Y-86062438D01*
X116667804Y-85939738D01*
X116669226Y-85935358D01*
X116670058Y-85927983D01*
X116691975Y-85865345D01*
X116719464Y-85780746D01*
X116724831Y-85771449D01*
X116729225Y-85758893D01*
X116764413Y-85702890D01*
X116803053Y-85635965D01*
X116814347Y-85623421D01*
X116824535Y-85607208D01*
X116868826Y-85562916D01*
X116914917Y-85511728D01*
X116933559Y-85498183D01*
X116951208Y-85480535D01*
X117000354Y-85449654D01*
X117050162Y-85413467D01*
X117076873Y-85401574D01*
X117102893Y-85385225D01*
X117152877Y-85367734D01*
X117202889Y-85345468D01*
X117237592Y-85338091D01*
X117271983Y-85326058D01*
X117319281Y-85320728D01*
X117366412Y-85310711D01*
X117408189Y-85310711D01*
X117450000Y-85306000D01*
X117491811Y-85310711D01*
G37*
G36*
X122723811Y-85310711D02*
G01*
X122765588Y-85310711D01*
X122812718Y-85320728D01*
X122860017Y-85326058D01*
X122894408Y-85338092D01*
X122929110Y-85345468D01*
X122979117Y-85367733D01*
X123029107Y-85385225D01*
X123055128Y-85401575D01*
X123081835Y-85413466D01*
X123131633Y-85449646D01*
X123180792Y-85480535D01*
X123198444Y-85498187D01*
X123217084Y-85511730D01*
X123263165Y-85562908D01*
X123307465Y-85607208D01*
X123317654Y-85623424D01*
X123328946Y-85635965D01*
X123367573Y-85702870D01*
X123402775Y-85758893D01*
X123407170Y-85771453D01*
X123412535Y-85780746D01*
X123440010Y-85865305D01*
X123461942Y-85927983D01*
X123462773Y-85935363D01*
X123464195Y-85939738D01*
X123477076Y-86062306D01*
X123482000Y-86106000D01*
X123477076Y-86149697D01*
X123464195Y-86272261D01*
X123462773Y-86276635D01*
X123461942Y-86284017D01*
X123440005Y-86346707D01*
X123412535Y-86431253D01*
X123407171Y-86440543D01*
X123402775Y-86453107D01*
X123367566Y-86509140D01*
X123328946Y-86576034D01*
X123317656Y-86588572D01*
X123307465Y-86604792D01*
X123263155Y-86649101D01*
X123217084Y-86700269D01*
X123198448Y-86713808D01*
X123180792Y-86731465D01*
X123131623Y-86762359D01*
X123081835Y-86798533D01*
X123055134Y-86810421D01*
X123029107Y-86826775D01*
X122979107Y-86844270D01*
X122929110Y-86866531D01*
X122894414Y-86873905D01*
X122860017Y-86885942D01*
X122812715Y-86891271D01*
X122765588Y-86901289D01*
X122723811Y-86901289D01*
X122682000Y-86906000D01*
X122640189Y-86901289D01*
X122598412Y-86901289D01*
X122551284Y-86891271D01*
X122503983Y-86885942D01*
X122469586Y-86873906D01*
X122434889Y-86866531D01*
X122384887Y-86844268D01*
X122334893Y-86826775D01*
X122308868Y-86810422D01*
X122282164Y-86798533D01*
X122232369Y-86762355D01*
X122183208Y-86731465D01*
X122165554Y-86713811D01*
X122146915Y-86700269D01*
X122100833Y-86649090D01*
X122056535Y-86604792D01*
X122046345Y-86588575D01*
X122035053Y-86576034D01*
X121996420Y-86509120D01*
X121961225Y-86453107D01*
X121956830Y-86440547D01*
X121951464Y-86431253D01*
X121923980Y-86346667D01*
X121902058Y-86284017D01*
X121901226Y-86276639D01*
X121899804Y-86272261D01*
X121886908Y-86149565D01*
X121882000Y-86106000D01*
X121886908Y-86062438D01*
X121899804Y-85939738D01*
X121901226Y-85935358D01*
X121902058Y-85927983D01*
X121923975Y-85865345D01*
X121951464Y-85780746D01*
X121956831Y-85771449D01*
X121961225Y-85758893D01*
X121996413Y-85702890D01*
X122035053Y-85635965D01*
X122046347Y-85623421D01*
X122056535Y-85607208D01*
X122100826Y-85562916D01*
X122146917Y-85511728D01*
X122165559Y-85498183D01*
X122183208Y-85480535D01*
X122232354Y-85449654D01*
X122282162Y-85413467D01*
X122308873Y-85401574D01*
X122334893Y-85385225D01*
X122384877Y-85367734D01*
X122434889Y-85345468D01*
X122469592Y-85338091D01*
X122503983Y-85326058D01*
X122551281Y-85320728D01*
X122598412Y-85310711D01*
X122640189Y-85310711D01*
X122682000Y-85306000D01*
X122723811Y-85310711D01*
G37*
G36*
X129074561Y-84982105D02*
G01*
X129235619Y-85038462D01*
X129380099Y-85129244D01*
X129500756Y-85249901D01*
X129591538Y-85394381D01*
X129647895Y-85555439D01*
X129667000Y-85725000D01*
X129647895Y-85894561D01*
X129591538Y-86055619D01*
X129500756Y-86200099D01*
X129380099Y-86320756D01*
X129235619Y-86411538D01*
X129074561Y-86467895D01*
X128905000Y-86487000D01*
X128735439Y-86467895D01*
X128574381Y-86411538D01*
X128429901Y-86320756D01*
X128309244Y-86200099D01*
X128218462Y-86055619D01*
X128162105Y-85894561D01*
X128143000Y-85725000D01*
X128162105Y-85555439D01*
X128218462Y-85394381D01*
X128309244Y-85249901D01*
X128429901Y-85129244D01*
X128574381Y-85038462D01*
X128735439Y-84982105D01*
X128905000Y-84963000D01*
X129074561Y-84982105D01*
G37*
G36*
X154474561Y-84982105D02*
G01*
X154635619Y-85038462D01*
X154780099Y-85129244D01*
X154900756Y-85249901D01*
X154991538Y-85394381D01*
X155047895Y-85555439D01*
X155067000Y-85725000D01*
X155047895Y-85894561D01*
X154991538Y-86055619D01*
X154900756Y-86200099D01*
X154780099Y-86320756D01*
X154635619Y-86411538D01*
X154474561Y-86467895D01*
X154305000Y-86487000D01*
X154135439Y-86467895D01*
X153974381Y-86411538D01*
X153829901Y-86320756D01*
X153709244Y-86200099D01*
X153618462Y-86055619D01*
X153562105Y-85894561D01*
X153543000Y-85725000D01*
X153562105Y-85555439D01*
X153618462Y-85394381D01*
X153709244Y-85249901D01*
X153829901Y-85129244D01*
X153974381Y-85038462D01*
X154135439Y-84982105D01*
X154305000Y-84963000D01*
X154474561Y-84982105D01*
G37*
G36*
X181493116Y-84304575D02*
G01*
X181675770Y-84340907D01*
X181847827Y-84412175D01*
X182002674Y-84515640D01*
X182134360Y-84647326D01*
X182237825Y-84802173D01*
X182309093Y-84974230D01*
X182345425Y-85156884D01*
X182345425Y-85343116D01*
X182309093Y-85525770D01*
X182237825Y-85697827D01*
X182134360Y-85852674D01*
X182002674Y-85984360D01*
X181847827Y-86087825D01*
X181675770Y-86159093D01*
X181493116Y-86195425D01*
X181400000Y-86200000D01*
X181398522Y-86200000D01*
X180101478Y-86200000D01*
X180100000Y-86200000D01*
X180006884Y-86195425D01*
X179824230Y-86159093D01*
X179652173Y-86087825D01*
X179497326Y-85984360D01*
X179365640Y-85852674D01*
X179262175Y-85697827D01*
X179190907Y-85525770D01*
X179154575Y-85343116D01*
X179154575Y-85156884D01*
X179190907Y-84974230D01*
X179262175Y-84802173D01*
X179365640Y-84647326D01*
X179497326Y-84515640D01*
X179652173Y-84412175D01*
X179824230Y-84340907D01*
X180006884Y-84304575D01*
X180100000Y-84300000D01*
X181400000Y-84300000D01*
X181493116Y-84304575D01*
G37*
G36*
X193993116Y-84304575D02*
G01*
X194175770Y-84340907D01*
X194347827Y-84412175D01*
X194502674Y-84515640D01*
X194634360Y-84647326D01*
X194737825Y-84802173D01*
X194809093Y-84974230D01*
X194845425Y-85156884D01*
X194845425Y-85343116D01*
X194809093Y-85525770D01*
X194737825Y-85697827D01*
X194634360Y-85852674D01*
X194502674Y-85984360D01*
X194347827Y-86087825D01*
X194175770Y-86159093D01*
X193993116Y-86195425D01*
X193900000Y-86200000D01*
X193898522Y-86200000D01*
X192601478Y-86200000D01*
X192600000Y-86200000D01*
X192506884Y-86195425D01*
X192324230Y-86159093D01*
X192152173Y-86087825D01*
X191997326Y-85984360D01*
X191865640Y-85852674D01*
X191762175Y-85697827D01*
X191690907Y-85525770D01*
X191654575Y-85343116D01*
X191654575Y-85156884D01*
X191690907Y-84974230D01*
X191762175Y-84802173D01*
X191865640Y-84647326D01*
X191997326Y-84515640D01*
X192152173Y-84412175D01*
X192324230Y-84340907D01*
X192506884Y-84304575D01*
X192600000Y-84300000D01*
X193900000Y-84300000D01*
X193993116Y-84304575D01*
G37*
G36*
X159426811Y-81042711D02*
G01*
X159468588Y-81042711D01*
X159515718Y-81052728D01*
X159563017Y-81058058D01*
X159597408Y-81070092D01*
X159632110Y-81077468D01*
X159682117Y-81099733D01*
X159732107Y-81117225D01*
X159758128Y-81133575D01*
X159784835Y-81145466D01*
X159834633Y-81181646D01*
X159883792Y-81212535D01*
X159901444Y-81230187D01*
X159920084Y-81243730D01*
X159966165Y-81294908D01*
X160010465Y-81339208D01*
X160020654Y-81355424D01*
X160031946Y-81367965D01*
X160070573Y-81434870D01*
X160105775Y-81490893D01*
X160110170Y-81503453D01*
X160115535Y-81512746D01*
X160143010Y-81597305D01*
X160164942Y-81659983D01*
X160165773Y-81667363D01*
X160167195Y-81671738D01*
X160180076Y-81794306D01*
X160185000Y-81838000D01*
X160180076Y-81881697D01*
X160167195Y-82004261D01*
X160165773Y-82008635D01*
X160164942Y-82016017D01*
X160143005Y-82078707D01*
X160115535Y-82163253D01*
X160110171Y-82172543D01*
X160105775Y-82185107D01*
X160070566Y-82241140D01*
X160031946Y-82308034D01*
X160020656Y-82320572D01*
X160010465Y-82336792D01*
X159966155Y-82381101D01*
X159920084Y-82432269D01*
X159901448Y-82445808D01*
X159883792Y-82463465D01*
X159834623Y-82494359D01*
X159784835Y-82530533D01*
X159758134Y-82542421D01*
X159732107Y-82558775D01*
X159682107Y-82576270D01*
X159632110Y-82598531D01*
X159597414Y-82605905D01*
X159563017Y-82617942D01*
X159515715Y-82623271D01*
X159468588Y-82633289D01*
X159426811Y-82633289D01*
X159385000Y-82638000D01*
X159343189Y-82633289D01*
X159301412Y-82633289D01*
X159254284Y-82623271D01*
X159206983Y-82617942D01*
X159172586Y-82605906D01*
X159137889Y-82598531D01*
X159087887Y-82576268D01*
X159037893Y-82558775D01*
X159011868Y-82542422D01*
X158985164Y-82530533D01*
X158935369Y-82494355D01*
X158886208Y-82463465D01*
X158868554Y-82445811D01*
X158849915Y-82432269D01*
X158803833Y-82381090D01*
X158759535Y-82336792D01*
X158749345Y-82320575D01*
X158738053Y-82308034D01*
X158699420Y-82241120D01*
X158664225Y-82185107D01*
X158659830Y-82172547D01*
X158654464Y-82163253D01*
X158626980Y-82078667D01*
X158605058Y-82016017D01*
X158604226Y-82008639D01*
X158602804Y-82004261D01*
X158589908Y-81881565D01*
X158585000Y-81838000D01*
X158589908Y-81794438D01*
X158602804Y-81671738D01*
X158604226Y-81667358D01*
X158605058Y-81659983D01*
X158626975Y-81597345D01*
X158654464Y-81512746D01*
X158659831Y-81503449D01*
X158664225Y-81490893D01*
X158699413Y-81434890D01*
X158738053Y-81367965D01*
X158749347Y-81355421D01*
X158759535Y-81339208D01*
X158803826Y-81294916D01*
X158849917Y-81243728D01*
X158868559Y-81230183D01*
X158886208Y-81212535D01*
X158935354Y-81181654D01*
X158985162Y-81145467D01*
X159011873Y-81133574D01*
X159037893Y-81117225D01*
X159087877Y-81099734D01*
X159137889Y-81077468D01*
X159172592Y-81070091D01*
X159206983Y-81058058D01*
X159254281Y-81052728D01*
X159301412Y-81042711D01*
X159343189Y-81042711D01*
X159385000Y-81038000D01*
X159426811Y-81042711D01*
G37*
G36*
X167046811Y-81042711D02*
G01*
X167088588Y-81042711D01*
X167135718Y-81052728D01*
X167183017Y-81058058D01*
X167217408Y-81070092D01*
X167252110Y-81077468D01*
X167302117Y-81099733D01*
X167352107Y-81117225D01*
X167378128Y-81133575D01*
X167404835Y-81145466D01*
X167454633Y-81181646D01*
X167503792Y-81212535D01*
X167521444Y-81230187D01*
X167540084Y-81243730D01*
X167586165Y-81294908D01*
X167630465Y-81339208D01*
X167640654Y-81355424D01*
X167651946Y-81367965D01*
X167690573Y-81434870D01*
X167725775Y-81490893D01*
X167730170Y-81503453D01*
X167735535Y-81512746D01*
X167763010Y-81597305D01*
X167784942Y-81659983D01*
X167785773Y-81667363D01*
X167787195Y-81671738D01*
X167800076Y-81794306D01*
X167805000Y-81838000D01*
X167800076Y-81881697D01*
X167787195Y-82004261D01*
X167785773Y-82008635D01*
X167784942Y-82016017D01*
X167763005Y-82078707D01*
X167735535Y-82163253D01*
X167730171Y-82172543D01*
X167725775Y-82185107D01*
X167690566Y-82241140D01*
X167651946Y-82308034D01*
X167640656Y-82320572D01*
X167630465Y-82336792D01*
X167586155Y-82381101D01*
X167540084Y-82432269D01*
X167521448Y-82445808D01*
X167503792Y-82463465D01*
X167454623Y-82494359D01*
X167404835Y-82530533D01*
X167378134Y-82542421D01*
X167352107Y-82558775D01*
X167302107Y-82576270D01*
X167252110Y-82598531D01*
X167217414Y-82605905D01*
X167183017Y-82617942D01*
X167135715Y-82623271D01*
X167088588Y-82633289D01*
X167046811Y-82633289D01*
X167005000Y-82638000D01*
X166963189Y-82633289D01*
X166921412Y-82633289D01*
X166874284Y-82623271D01*
X166826983Y-82617942D01*
X166792586Y-82605906D01*
X166757889Y-82598531D01*
X166707887Y-82576268D01*
X166657893Y-82558775D01*
X166631868Y-82542422D01*
X166605164Y-82530533D01*
X166555369Y-82494355D01*
X166506208Y-82463465D01*
X166488554Y-82445811D01*
X166469915Y-82432269D01*
X166423833Y-82381090D01*
X166379535Y-82336792D01*
X166369345Y-82320575D01*
X166358053Y-82308034D01*
X166319420Y-82241120D01*
X166284225Y-82185107D01*
X166279830Y-82172547D01*
X166274464Y-82163253D01*
X166246980Y-82078667D01*
X166225058Y-82016017D01*
X166224226Y-82008639D01*
X166222804Y-82004261D01*
X166209908Y-81881565D01*
X166205000Y-81838000D01*
X166209908Y-81794438D01*
X166222804Y-81671738D01*
X166224226Y-81667358D01*
X166225058Y-81659983D01*
X166246975Y-81597345D01*
X166274464Y-81512746D01*
X166279831Y-81503449D01*
X166284225Y-81490893D01*
X166319413Y-81434890D01*
X166358053Y-81367965D01*
X166369347Y-81355421D01*
X166379535Y-81339208D01*
X166423826Y-81294916D01*
X166469917Y-81243728D01*
X166488559Y-81230183D01*
X166506208Y-81212535D01*
X166555354Y-81181654D01*
X166605162Y-81145467D01*
X166631873Y-81133574D01*
X166657893Y-81117225D01*
X166707877Y-81099734D01*
X166757889Y-81077468D01*
X166792592Y-81070091D01*
X166826983Y-81058058D01*
X166874281Y-81052728D01*
X166921412Y-81042711D01*
X166963189Y-81042711D01*
X167005000Y-81038000D01*
X167046811Y-81042711D01*
G37*
G36*
X171277811Y-80992711D02*
G01*
X171319588Y-80992711D01*
X171366718Y-81002728D01*
X171414017Y-81008058D01*
X171448408Y-81020092D01*
X171483110Y-81027468D01*
X171533117Y-81049733D01*
X171583107Y-81067225D01*
X171609128Y-81083575D01*
X171635835Y-81095466D01*
X171685633Y-81131646D01*
X171734792Y-81162535D01*
X171752444Y-81180187D01*
X171771084Y-81193730D01*
X171817165Y-81244908D01*
X171861465Y-81289208D01*
X171871654Y-81305424D01*
X171882946Y-81317965D01*
X171921573Y-81384870D01*
X171956775Y-81440893D01*
X171961170Y-81453453D01*
X171966535Y-81462746D01*
X171994010Y-81547305D01*
X172015942Y-81609983D01*
X172016773Y-81617363D01*
X172018195Y-81621738D01*
X172031076Y-81744306D01*
X172036000Y-81788000D01*
X172031076Y-81831697D01*
X172018195Y-81954261D01*
X172016773Y-81958635D01*
X172015942Y-81966017D01*
X171994005Y-82028707D01*
X171966535Y-82113253D01*
X171961171Y-82122543D01*
X171956775Y-82135107D01*
X171921566Y-82191140D01*
X171882946Y-82258034D01*
X171871656Y-82270572D01*
X171861465Y-82286792D01*
X171817155Y-82331101D01*
X171771084Y-82382269D01*
X171752448Y-82395808D01*
X171734792Y-82413465D01*
X171685623Y-82444359D01*
X171635835Y-82480533D01*
X171609134Y-82492421D01*
X171583107Y-82508775D01*
X171533107Y-82526270D01*
X171483110Y-82548531D01*
X171448414Y-82555905D01*
X171414017Y-82567942D01*
X171366715Y-82573271D01*
X171319588Y-82583289D01*
X171277811Y-82583289D01*
X171236000Y-82588000D01*
X171194189Y-82583289D01*
X171152412Y-82583289D01*
X171105284Y-82573271D01*
X171057983Y-82567942D01*
X171023586Y-82555906D01*
X170988889Y-82548531D01*
X170938887Y-82526268D01*
X170888893Y-82508775D01*
X170862868Y-82492422D01*
X170836164Y-82480533D01*
X170786369Y-82444355D01*
X170737208Y-82413465D01*
X170719554Y-82395811D01*
X170700915Y-82382269D01*
X170654833Y-82331090D01*
X170610535Y-82286792D01*
X170600345Y-82270575D01*
X170589053Y-82258034D01*
X170550420Y-82191120D01*
X170515225Y-82135107D01*
X170510830Y-82122547D01*
X170505464Y-82113253D01*
X170477980Y-82028667D01*
X170456058Y-81966017D01*
X170455226Y-81958639D01*
X170453804Y-81954261D01*
X170440908Y-81831565D01*
X170436000Y-81788000D01*
X170440908Y-81744438D01*
X170453804Y-81621738D01*
X170455226Y-81617358D01*
X170456058Y-81609983D01*
X170477975Y-81547345D01*
X170505464Y-81462746D01*
X170510831Y-81453449D01*
X170515225Y-81440893D01*
X170550413Y-81384890D01*
X170589053Y-81317965D01*
X170600347Y-81305421D01*
X170610535Y-81289208D01*
X170654826Y-81244916D01*
X170700917Y-81193728D01*
X170719559Y-81180183D01*
X170737208Y-81162535D01*
X170786354Y-81131654D01*
X170836162Y-81095467D01*
X170862873Y-81083574D01*
X170888893Y-81067225D01*
X170938877Y-81049734D01*
X170988889Y-81027468D01*
X171023592Y-81020091D01*
X171057983Y-81008058D01*
X171105281Y-81002728D01*
X171152412Y-80992711D01*
X171194189Y-80992711D01*
X171236000Y-80988000D01*
X171277811Y-80992711D01*
G37*
G36*
X176277811Y-80992711D02*
G01*
X176319588Y-80992711D01*
X176366718Y-81002728D01*
X176414017Y-81008058D01*
X176448408Y-81020092D01*
X176483110Y-81027468D01*
X176533117Y-81049733D01*
X176583107Y-81067225D01*
X176609128Y-81083575D01*
X176635835Y-81095466D01*
X176685633Y-81131646D01*
X176734792Y-81162535D01*
X176752444Y-81180187D01*
X176771084Y-81193730D01*
X176817165Y-81244908D01*
X176861465Y-81289208D01*
X176871654Y-81305424D01*
X176882946Y-81317965D01*
X176921573Y-81384870D01*
X176956775Y-81440893D01*
X176961170Y-81453453D01*
X176966535Y-81462746D01*
X176994010Y-81547305D01*
X177015942Y-81609983D01*
X177016773Y-81617363D01*
X177018195Y-81621738D01*
X177031076Y-81744306D01*
X177036000Y-81788000D01*
X177031076Y-81831697D01*
X177018195Y-81954261D01*
X177016773Y-81958635D01*
X177015942Y-81966017D01*
X176994005Y-82028707D01*
X176966535Y-82113253D01*
X176961171Y-82122543D01*
X176956775Y-82135107D01*
X176921566Y-82191140D01*
X176882946Y-82258034D01*
X176871656Y-82270572D01*
X176861465Y-82286792D01*
X176817155Y-82331101D01*
X176771084Y-82382269D01*
X176752448Y-82395808D01*
X176734792Y-82413465D01*
X176685623Y-82444359D01*
X176635835Y-82480533D01*
X176609134Y-82492421D01*
X176583107Y-82508775D01*
X176533107Y-82526270D01*
X176483110Y-82548531D01*
X176448414Y-82555905D01*
X176414017Y-82567942D01*
X176366715Y-82573271D01*
X176319588Y-82583289D01*
X176277811Y-82583289D01*
X176236000Y-82588000D01*
X176194189Y-82583289D01*
X176152412Y-82583289D01*
X176105284Y-82573271D01*
X176057983Y-82567942D01*
X176023586Y-82555906D01*
X175988889Y-82548531D01*
X175938887Y-82526268D01*
X175888893Y-82508775D01*
X175862868Y-82492422D01*
X175836164Y-82480533D01*
X175786369Y-82444355D01*
X175737208Y-82413465D01*
X175719554Y-82395811D01*
X175700915Y-82382269D01*
X175654833Y-82331090D01*
X175610535Y-82286792D01*
X175600345Y-82270575D01*
X175589053Y-82258034D01*
X175550420Y-82191120D01*
X175515225Y-82135107D01*
X175510830Y-82122547D01*
X175505464Y-82113253D01*
X175477980Y-82028667D01*
X175456058Y-81966017D01*
X175455226Y-81958639D01*
X175453804Y-81954261D01*
X175440908Y-81831565D01*
X175436000Y-81788000D01*
X175440908Y-81744438D01*
X175453804Y-81621738D01*
X175455226Y-81617358D01*
X175456058Y-81609983D01*
X175477975Y-81547345D01*
X175505464Y-81462746D01*
X175510831Y-81453449D01*
X175515225Y-81440893D01*
X175550413Y-81384890D01*
X175589053Y-81317965D01*
X175600347Y-81305421D01*
X175610535Y-81289208D01*
X175654826Y-81244916D01*
X175700917Y-81193728D01*
X175719559Y-81180183D01*
X175737208Y-81162535D01*
X175786354Y-81131654D01*
X175836162Y-81095467D01*
X175862873Y-81083574D01*
X175888893Y-81067225D01*
X175938877Y-81049734D01*
X175988889Y-81027468D01*
X176023592Y-81020091D01*
X176057983Y-81008058D01*
X176105281Y-81002728D01*
X176152412Y-80992711D01*
X176194189Y-80992711D01*
X176236000Y-80988000D01*
X176277811Y-80992711D01*
G37*
G36*
X112309811Y-77690711D02*
G01*
X112351588Y-77690711D01*
X112398718Y-77700728D01*
X112446017Y-77706058D01*
X112480408Y-77718092D01*
X112515110Y-77725468D01*
X112565117Y-77747733D01*
X112615107Y-77765225D01*
X112641128Y-77781575D01*
X112667835Y-77793466D01*
X112717633Y-77829646D01*
X112766792Y-77860535D01*
X112784444Y-77878187D01*
X112803084Y-77891730D01*
X112849165Y-77942908D01*
X112893465Y-77987208D01*
X112903654Y-78003424D01*
X112914946Y-78015965D01*
X112953573Y-78082870D01*
X112988775Y-78138893D01*
X112993170Y-78151453D01*
X112998535Y-78160746D01*
X113026010Y-78245305D01*
X113047942Y-78307983D01*
X113048773Y-78315363D01*
X113050195Y-78319738D01*
X113063076Y-78442306D01*
X113068000Y-78486000D01*
X113063076Y-78529697D01*
X113050195Y-78652261D01*
X113048773Y-78656635D01*
X113047942Y-78664017D01*
X113026005Y-78726707D01*
X112998535Y-78811253D01*
X112993171Y-78820543D01*
X112988775Y-78833107D01*
X112953566Y-78889140D01*
X112914946Y-78956034D01*
X112903656Y-78968572D01*
X112893465Y-78984792D01*
X112849155Y-79029101D01*
X112803084Y-79080269D01*
X112784448Y-79093808D01*
X112766792Y-79111465D01*
X112717623Y-79142359D01*
X112667835Y-79178533D01*
X112641134Y-79190421D01*
X112615107Y-79206775D01*
X112565107Y-79224270D01*
X112515110Y-79246531D01*
X112480414Y-79253905D01*
X112446017Y-79265942D01*
X112398715Y-79271271D01*
X112351588Y-79281289D01*
X112309811Y-79281289D01*
X112268000Y-79286000D01*
X112226189Y-79281289D01*
X112184412Y-79281289D01*
X112137284Y-79271271D01*
X112089983Y-79265942D01*
X112055586Y-79253906D01*
X112020889Y-79246531D01*
X111970887Y-79224268D01*
X111920893Y-79206775D01*
X111894868Y-79190422D01*
X111868164Y-79178533D01*
X111818369Y-79142355D01*
X111769208Y-79111465D01*
X111751554Y-79093811D01*
X111732915Y-79080269D01*
X111686833Y-79029090D01*
X111642535Y-78984792D01*
X111632345Y-78968575D01*
X111621053Y-78956034D01*
X111582420Y-78889120D01*
X111547225Y-78833107D01*
X111542830Y-78820547D01*
X111537464Y-78811253D01*
X111509980Y-78726667D01*
X111488058Y-78664017D01*
X111487226Y-78656639D01*
X111485804Y-78652261D01*
X111472908Y-78529565D01*
X111468000Y-78486000D01*
X111472908Y-78442438D01*
X111485804Y-78319738D01*
X111487226Y-78315358D01*
X111488058Y-78307983D01*
X111509975Y-78245345D01*
X111537464Y-78160746D01*
X111542831Y-78151449D01*
X111547225Y-78138893D01*
X111582413Y-78082890D01*
X111621053Y-78015965D01*
X111632347Y-78003421D01*
X111642535Y-77987208D01*
X111686826Y-77942916D01*
X111732917Y-77891728D01*
X111751559Y-77878183D01*
X111769208Y-77860535D01*
X111818354Y-77829654D01*
X111868162Y-77793467D01*
X111894873Y-77781574D01*
X111920893Y-77765225D01*
X111970877Y-77747734D01*
X112020889Y-77725468D01*
X112055592Y-77718091D01*
X112089983Y-77706058D01*
X112137281Y-77700728D01*
X112184412Y-77690711D01*
X112226189Y-77690711D01*
X112268000Y-77686000D01*
X112309811Y-77690711D01*
G37*
G36*
X117491811Y-77690711D02*
G01*
X117533588Y-77690711D01*
X117580718Y-77700728D01*
X117628017Y-77706058D01*
X117662408Y-77718092D01*
X117697110Y-77725468D01*
X117747117Y-77747733D01*
X117797107Y-77765225D01*
X117823128Y-77781575D01*
X117849835Y-77793466D01*
X117899633Y-77829646D01*
X117948792Y-77860535D01*
X117966444Y-77878187D01*
X117985084Y-77891730D01*
X118031165Y-77942908D01*
X118075465Y-77987208D01*
X118085654Y-78003424D01*
X118096946Y-78015965D01*
X118135573Y-78082870D01*
X118170775Y-78138893D01*
X118175170Y-78151453D01*
X118180535Y-78160746D01*
X118208010Y-78245305D01*
X118229942Y-78307983D01*
X118230773Y-78315363D01*
X118232195Y-78319738D01*
X118245076Y-78442306D01*
X118250000Y-78486000D01*
X118245076Y-78529697D01*
X118232195Y-78652261D01*
X118230773Y-78656635D01*
X118229942Y-78664017D01*
X118208005Y-78726707D01*
X118180535Y-78811253D01*
X118175171Y-78820543D01*
X118170775Y-78833107D01*
X118135566Y-78889140D01*
X118096946Y-78956034D01*
X118085656Y-78968572D01*
X118075465Y-78984792D01*
X118031155Y-79029101D01*
X117985084Y-79080269D01*
X117966448Y-79093808D01*
X117948792Y-79111465D01*
X117899623Y-79142359D01*
X117849835Y-79178533D01*
X117823134Y-79190421D01*
X117797107Y-79206775D01*
X117747107Y-79224270D01*
X117697110Y-79246531D01*
X117662414Y-79253905D01*
X117628017Y-79265942D01*
X117580715Y-79271271D01*
X117533588Y-79281289D01*
X117491811Y-79281289D01*
X117450000Y-79286000D01*
X117408189Y-79281289D01*
X117366412Y-79281289D01*
X117319284Y-79271271D01*
X117271983Y-79265942D01*
X117237586Y-79253906D01*
X117202889Y-79246531D01*
X117152887Y-79224268D01*
X117102893Y-79206775D01*
X117076868Y-79190422D01*
X117050164Y-79178533D01*
X117000369Y-79142355D01*
X116951208Y-79111465D01*
X116933554Y-79093811D01*
X116914915Y-79080269D01*
X116868833Y-79029090D01*
X116824535Y-78984792D01*
X116814345Y-78968575D01*
X116803053Y-78956034D01*
X116764420Y-78889120D01*
X116729225Y-78833107D01*
X116724830Y-78820547D01*
X116719464Y-78811253D01*
X116691980Y-78726667D01*
X116670058Y-78664017D01*
X116669226Y-78656639D01*
X116667804Y-78652261D01*
X116654908Y-78529565D01*
X116650000Y-78486000D01*
X116654908Y-78442438D01*
X116667804Y-78319738D01*
X116669226Y-78315358D01*
X116670058Y-78307983D01*
X116691975Y-78245345D01*
X116719464Y-78160746D01*
X116724831Y-78151449D01*
X116729225Y-78138893D01*
X116764413Y-78082890D01*
X116803053Y-78015965D01*
X116814347Y-78003421D01*
X116824535Y-77987208D01*
X116868826Y-77942916D01*
X116914917Y-77891728D01*
X116933559Y-77878183D01*
X116951208Y-77860535D01*
X117000354Y-77829654D01*
X117050162Y-77793467D01*
X117076873Y-77781574D01*
X117102893Y-77765225D01*
X117152877Y-77747734D01*
X117202889Y-77725468D01*
X117237592Y-77718091D01*
X117271983Y-77706058D01*
X117319281Y-77700728D01*
X117366412Y-77690711D01*
X117408189Y-77690711D01*
X117450000Y-77686000D01*
X117491811Y-77690711D01*
G37*
G36*
X122723811Y-77690711D02*
G01*
X122765588Y-77690711D01*
X122812718Y-77700728D01*
X122860017Y-77706058D01*
X122894408Y-77718092D01*
X122929110Y-77725468D01*
X122979117Y-77747733D01*
X123029107Y-77765225D01*
X123055128Y-77781575D01*
X123081835Y-77793466D01*
X123131633Y-77829646D01*
X123180792Y-77860535D01*
X123198444Y-77878187D01*
X123217084Y-77891730D01*
X123263165Y-77942908D01*
X123307465Y-77987208D01*
X123317654Y-78003424D01*
X123328946Y-78015965D01*
X123367573Y-78082870D01*
X123402775Y-78138893D01*
X123407170Y-78151453D01*
X123412535Y-78160746D01*
X123440010Y-78245305D01*
X123461942Y-78307983D01*
X123462773Y-78315363D01*
X123464195Y-78319738D01*
X123477076Y-78442306D01*
X123482000Y-78486000D01*
X123477076Y-78529697D01*
X123464195Y-78652261D01*
X123462773Y-78656635D01*
X123461942Y-78664017D01*
X123440005Y-78726707D01*
X123412535Y-78811253D01*
X123407171Y-78820543D01*
X123402775Y-78833107D01*
X123367566Y-78889140D01*
X123328946Y-78956034D01*
X123317656Y-78968572D01*
X123307465Y-78984792D01*
X123263155Y-79029101D01*
X123217084Y-79080269D01*
X123198448Y-79093808D01*
X123180792Y-79111465D01*
X123131623Y-79142359D01*
X123081835Y-79178533D01*
X123055134Y-79190421D01*
X123029107Y-79206775D01*
X122979107Y-79224270D01*
X122929110Y-79246531D01*
X122894414Y-79253905D01*
X122860017Y-79265942D01*
X122812715Y-79271271D01*
X122765588Y-79281289D01*
X122723811Y-79281289D01*
X122682000Y-79286000D01*
X122640189Y-79281289D01*
X122598412Y-79281289D01*
X122551284Y-79271271D01*
X122503983Y-79265942D01*
X122469586Y-79253906D01*
X122434889Y-79246531D01*
X122384887Y-79224268D01*
X122334893Y-79206775D01*
X122308868Y-79190422D01*
X122282164Y-79178533D01*
X122232369Y-79142355D01*
X122183208Y-79111465D01*
X122165554Y-79093811D01*
X122146915Y-79080269D01*
X122100833Y-79029090D01*
X122056535Y-78984792D01*
X122046345Y-78968575D01*
X122035053Y-78956034D01*
X121996420Y-78889120D01*
X121961225Y-78833107D01*
X121956830Y-78820547D01*
X121951464Y-78811253D01*
X121923980Y-78726667D01*
X121902058Y-78664017D01*
X121901226Y-78656639D01*
X121899804Y-78652261D01*
X121886908Y-78529565D01*
X121882000Y-78486000D01*
X121886908Y-78442438D01*
X121899804Y-78319738D01*
X121901226Y-78315358D01*
X121902058Y-78307983D01*
X121923975Y-78245345D01*
X121951464Y-78160746D01*
X121956831Y-78151449D01*
X121961225Y-78138893D01*
X121996413Y-78082890D01*
X122035053Y-78015965D01*
X122046347Y-78003421D01*
X122056535Y-77987208D01*
X122100826Y-77942916D01*
X122146917Y-77891728D01*
X122165559Y-77878183D01*
X122183208Y-77860535D01*
X122232354Y-77829654D01*
X122282162Y-77793467D01*
X122308873Y-77781574D01*
X122334893Y-77765225D01*
X122384877Y-77747734D01*
X122434889Y-77725468D01*
X122469592Y-77718091D01*
X122503983Y-77706058D01*
X122551281Y-77700728D01*
X122598412Y-77690711D01*
X122640189Y-77690711D01*
X122682000Y-77686000D01*
X122723811Y-77690711D01*
G37*
M02*
