G04 #@! TF.GenerationSoftware,KiCad,Pcbnew,8.0.8*
G04 #@! TF.CreationDate,2025-02-12T23:04:25-08:00*
G04 #@! TF.ProjectId,gamecontroller,67616d65-636f-46e7-9472-6f6c6c65722e,rev?*
G04 #@! TF.SameCoordinates,Original*
G04 #@! TF.FileFunction,Copper,L3,Inr*
G04 #@! TF.FilePolarity,Positive*
%FSLAX46Y46*%
G04 Gerber Fmt 4.6, Leading zero omitted, Abs format (unit mm)*
G04 Created by KiCad (PCBNEW 8.0.8) date 2025-02-12 23:04:25*
%MOMM*%
%LPD*%
G01*
G04 APERTURE LIST*
G04 #@! TA.AperFunction,ComponentPad*
%ADD10C,1.600000*%
G04 #@! TD*
G04 #@! TA.AperFunction,ComponentPad*
%ADD11O,1.600000X1.600000*%
G04 #@! TD*
G04 #@! TA.AperFunction,ComponentPad*
%ADD12O,3.200000X1.900000*%
G04 #@! TD*
G04 #@! TA.AperFunction,ComponentPad*
%ADD13C,1.778000*%
G04 #@! TD*
G04 #@! TA.AperFunction,ComponentPad*
%ADD14C,2.286000*%
G04 #@! TD*
G04 #@! TA.AperFunction,ComponentPad*
%ADD15R,1.800000X1.800000*%
G04 #@! TD*
G04 #@! TA.AperFunction,ComponentPad*
%ADD16C,1.800000*%
G04 #@! TD*
G04 #@! TA.AperFunction,ComponentPad*
%ADD17C,2.000000*%
G04 #@! TD*
G04 #@! TA.AperFunction,ComponentPad*
%ADD18C,1.524000*%
G04 #@! TD*
G04 #@! TA.AperFunction,ViaPad*
%ADD19C,0.600000*%
G04 #@! TD*
G04 APERTURE END LIST*
D10*
X117450000Y-78486000D03*
D11*
X117450000Y-86106000D03*
D12*
X193250000Y-90250000D03*
X180750000Y-85250000D03*
X193250000Y-85250000D03*
X180750000Y-90250000D03*
D10*
X167005000Y-119126000D03*
D11*
X159385000Y-119126000D03*
D10*
X112268000Y-78486000D03*
D11*
X112268000Y-86106000D03*
D13*
X92105000Y-101867500D03*
X98455000Y-101867500D03*
X92105000Y-106947500D03*
X98455000Y-106947500D03*
X92740000Y-124727500D03*
X95280000Y-124727500D03*
X97820000Y-124727500D03*
D14*
X87660000Y-107900000D03*
X87660000Y-121235000D03*
X102900000Y-121235000D03*
X102900000Y-107900000D03*
D13*
X85120000Y-112027500D03*
X85120000Y-114567500D03*
X85120000Y-117107500D03*
D12*
X176530000Y-105584000D03*
X164030000Y-100584000D03*
X176530000Y-100584000D03*
X164030000Y-105584000D03*
D15*
X87122000Y-88392000D03*
D16*
X89662000Y-88392000D03*
D10*
X171276000Y-124460000D03*
X176276000Y-124460000D03*
X122682000Y-78486000D03*
D11*
X122682000Y-86106000D03*
D10*
X123050000Y-98044000D03*
D11*
X123050000Y-90424000D03*
D10*
X167005000Y-81838000D03*
D11*
X159385000Y-81838000D03*
D10*
X123000000Y-110998000D03*
D11*
X123000000Y-118618000D03*
D10*
X167005000Y-87042000D03*
D11*
X159385000Y-87042000D03*
D10*
X122936000Y-127428000D03*
X122936000Y-122428000D03*
D17*
X111850000Y-106800000D03*
X118350000Y-102300000D03*
X111850000Y-102300000D03*
X118350000Y-106800000D03*
D15*
X102362000Y-88392000D03*
D16*
X104902000Y-88392000D03*
D10*
X171196000Y-87042000D03*
X176196000Y-87042000D03*
D12*
X209804000Y-100584000D03*
X209804000Y-105584000D03*
X197304000Y-100584000D03*
X197304000Y-105584000D03*
D10*
X123000000Y-107200000D03*
X123000000Y-102200000D03*
D17*
X111950000Y-95700000D03*
X111950000Y-91200000D03*
X118450000Y-91200000D03*
X118450000Y-95700000D03*
D10*
X171236000Y-119126000D03*
X176236000Y-119126000D03*
D18*
X128905000Y-85725000D03*
X128905000Y-88265000D03*
X128905000Y-90805000D03*
X128905000Y-93345000D03*
X128905000Y-95885000D03*
X128905000Y-98425000D03*
X128905000Y-100965000D03*
X128905000Y-103505000D03*
X128905000Y-106045000D03*
X128905000Y-108585000D03*
X128905000Y-111125000D03*
X128905000Y-113665000D03*
X128905000Y-116205000D03*
X128905000Y-118745000D03*
X128905000Y-121285000D03*
X154305000Y-85725000D03*
X154305000Y-88265000D03*
X154305000Y-90805000D03*
X154305000Y-93345000D03*
X154305000Y-95885000D03*
X154305000Y-98425000D03*
X154305000Y-100965000D03*
X154305000Y-103505000D03*
X154305000Y-106045000D03*
X154305000Y-108585000D03*
X154305000Y-111125000D03*
X154305000Y-113665000D03*
X154305000Y-116205000D03*
X154305000Y-118745000D03*
X154305000Y-121285000D03*
D15*
X94742000Y-88392000D03*
D16*
X97282000Y-88392000D03*
D10*
X167005000Y-124460000D03*
D11*
X159385000Y-124460000D03*
D12*
X180694000Y-116100000D03*
X193194000Y-121100000D03*
X193194000Y-116100000D03*
X180694000Y-121100000D03*
D10*
X171236000Y-81788000D03*
X176236000Y-81788000D03*
D19*
X118700000Y-113300000D03*
X148500000Y-114900000D03*
X135600000Y-109600000D03*
X145400000Y-99900000D03*
X146600000Y-103200000D03*
X143300000Y-99449000D03*
X143300000Y-103200000D03*
X138000000Y-102700000D03*
X137400000Y-96500000D03*
M02*
