%TF.GenerationSoftware,KiCad,Pcbnew,8.0.8*%
%TF.CreationDate,2025-02-12T23:03:32-08:00*%
%TF.ProjectId,gamecontroller,67616d65-636f-46e7-9472-6f6c6c65722e,rev?*%
%TF.SameCoordinates,Original*%
%TF.FileFunction,Drillmap*%
%TF.FilePolarity,Positive*%
%FSLAX45Y45*%
G04 Gerber Fmt 4.5, Leading zero omitted, Abs format (unit mm)*
G04 Created by KiCad (PCBNEW 8.0.8) date 2025-02-12 23:03:32*
%MOMM*%
%LPD*%
G01*
G04 APERTURE LIST*
%ADD10C,0.038100*%
%ADD11C,0.200000*%
%ADD12C,0.100000*%
%ADD13C,0.110000*%
%ADD14C,0.130000*%
%ADD15C,0.139700*%
G04 APERTURE END LIST*
D10*
X7993800Y-7600000D02*
X21321200Y-7600000D01*
X21321200Y-13130000D01*
X7993800Y-13130000D01*
X7993800Y-7600000D01*
D11*
D12*
X11855000Y-11315000D02*
X11885000Y-11345000D01*
X11885000Y-11315000D02*
X11855000Y-11345000D01*
X13545000Y-10945000D02*
X13575000Y-10975000D01*
X13575000Y-10945000D02*
X13545000Y-10975000D01*
X13725000Y-9635000D02*
X13755000Y-9665000D01*
X13755000Y-9635000D02*
X13725000Y-9665000D01*
X13785000Y-10255000D02*
X13815000Y-10285000D01*
X13815000Y-10255000D02*
X13785000Y-10285000D01*
X14315000Y-9929900D02*
X14345000Y-9959900D01*
X14345000Y-9929900D02*
X14315000Y-9959900D01*
X14315000Y-10305000D02*
X14345000Y-10335000D01*
X14345000Y-10305000D02*
X14315000Y-10335000D01*
X14525000Y-9975000D02*
X14555000Y-10005000D01*
X14555000Y-9975000D02*
X14525000Y-10005000D01*
X14645000Y-10305000D02*
X14675000Y-10335000D01*
X14675000Y-10305000D02*
X14645000Y-10335000D01*
X14835000Y-11475000D02*
X14865000Y-11505000D01*
X14865000Y-11475000D02*
X14835000Y-11505000D01*
X12928600Y-8572500D02*
G75*
G02*
X12852400Y-8572500I-38100J0D01*
G01*
X12852400Y-8572500D02*
G75*
G02*
X12928600Y-8572500I38100J0D01*
G01*
X12928600Y-8826500D02*
G75*
G02*
X12852400Y-8826500I-38100J0D01*
G01*
X12852400Y-8826500D02*
G75*
G02*
X12928600Y-8826500I38100J0D01*
G01*
X12928600Y-9080500D02*
G75*
G02*
X12852400Y-9080500I-38100J0D01*
G01*
X12852400Y-9080500D02*
G75*
G02*
X12928600Y-9080500I38100J0D01*
G01*
X12928600Y-9334500D02*
G75*
G02*
X12852400Y-9334500I-38100J0D01*
G01*
X12852400Y-9334500D02*
G75*
G02*
X12928600Y-9334500I38100J0D01*
G01*
X12928600Y-9588500D02*
G75*
G02*
X12852400Y-9588500I-38100J0D01*
G01*
X12852400Y-9588500D02*
G75*
G02*
X12928600Y-9588500I38100J0D01*
G01*
X12928600Y-9842500D02*
G75*
G02*
X12852400Y-9842500I-38100J0D01*
G01*
X12852400Y-9842500D02*
G75*
G02*
X12928600Y-9842500I38100J0D01*
G01*
X12928600Y-10096500D02*
G75*
G02*
X12852400Y-10096500I-38100J0D01*
G01*
X12852400Y-10096500D02*
G75*
G02*
X12928600Y-10096500I38100J0D01*
G01*
X12928600Y-10350500D02*
G75*
G02*
X12852400Y-10350500I-38100J0D01*
G01*
X12852400Y-10350500D02*
G75*
G02*
X12928600Y-10350500I38100J0D01*
G01*
X12928600Y-10604500D02*
G75*
G02*
X12852400Y-10604500I-38100J0D01*
G01*
X12852400Y-10604500D02*
G75*
G02*
X12928600Y-10604500I38100J0D01*
G01*
X12928600Y-10858500D02*
G75*
G02*
X12852400Y-10858500I-38100J0D01*
G01*
X12852400Y-10858500D02*
G75*
G02*
X12928600Y-10858500I38100J0D01*
G01*
X12928600Y-11112500D02*
G75*
G02*
X12852400Y-11112500I-38100J0D01*
G01*
X12852400Y-11112500D02*
G75*
G02*
X12928600Y-11112500I38100J0D01*
G01*
X12928600Y-11366500D02*
G75*
G02*
X12852400Y-11366500I-38100J0D01*
G01*
X12852400Y-11366500D02*
G75*
G02*
X12928600Y-11366500I38100J0D01*
G01*
X12928600Y-11620500D02*
G75*
G02*
X12852400Y-11620500I-38100J0D01*
G01*
X12852400Y-11620500D02*
G75*
G02*
X12928600Y-11620500I38100J0D01*
G01*
X12928600Y-11874500D02*
G75*
G02*
X12852400Y-11874500I-38100J0D01*
G01*
X12852400Y-11874500D02*
G75*
G02*
X12928600Y-11874500I38100J0D01*
G01*
X12928600Y-12128500D02*
G75*
G02*
X12852400Y-12128500I-38100J0D01*
G01*
X12852400Y-12128500D02*
G75*
G02*
X12928600Y-12128500I38100J0D01*
G01*
X15468600Y-8572500D02*
G75*
G02*
X15392400Y-8572500I-38100J0D01*
G01*
X15392400Y-8572500D02*
G75*
G02*
X15468600Y-8572500I38100J0D01*
G01*
X15468600Y-8826500D02*
G75*
G02*
X15392400Y-8826500I-38100J0D01*
G01*
X15392400Y-8826500D02*
G75*
G02*
X15468600Y-8826500I38100J0D01*
G01*
X15468600Y-9080500D02*
G75*
G02*
X15392400Y-9080500I-38100J0D01*
G01*
X15392400Y-9080500D02*
G75*
G02*
X15468600Y-9080500I38100J0D01*
G01*
X15468600Y-9334500D02*
G75*
G02*
X15392400Y-9334500I-38100J0D01*
G01*
X15392400Y-9334500D02*
G75*
G02*
X15468600Y-9334500I38100J0D01*
G01*
X15468600Y-9588500D02*
G75*
G02*
X15392400Y-9588500I-38100J0D01*
G01*
X15392400Y-9588500D02*
G75*
G02*
X15468600Y-9588500I38100J0D01*
G01*
X15468600Y-9842500D02*
G75*
G02*
X15392400Y-9842500I-38100J0D01*
G01*
X15392400Y-9842500D02*
G75*
G02*
X15468600Y-9842500I38100J0D01*
G01*
X15468600Y-10096500D02*
G75*
G02*
X15392400Y-10096500I-38100J0D01*
G01*
X15392400Y-10096500D02*
G75*
G02*
X15468600Y-10096500I38100J0D01*
G01*
X15468600Y-10350500D02*
G75*
G02*
X15392400Y-10350500I-38100J0D01*
G01*
X15392400Y-10350500D02*
G75*
G02*
X15468600Y-10350500I38100J0D01*
G01*
X15468600Y-10604500D02*
G75*
G02*
X15392400Y-10604500I-38100J0D01*
G01*
X15392400Y-10604500D02*
G75*
G02*
X15468600Y-10604500I38100J0D01*
G01*
X15468600Y-10858500D02*
G75*
G02*
X15392400Y-10858500I-38100J0D01*
G01*
X15392400Y-10858500D02*
G75*
G02*
X15468600Y-10858500I38100J0D01*
G01*
X15468600Y-11112500D02*
G75*
G02*
X15392400Y-11112500I-38100J0D01*
G01*
X15392400Y-11112500D02*
G75*
G02*
X15468600Y-11112500I38100J0D01*
G01*
X15468600Y-11366500D02*
G75*
G02*
X15392400Y-11366500I-38100J0D01*
G01*
X15392400Y-11366500D02*
G75*
G02*
X15468600Y-11366500I38100J0D01*
G01*
X15468600Y-11620500D02*
G75*
G02*
X15392400Y-11620500I-38100J0D01*
G01*
X15392400Y-11620500D02*
G75*
G02*
X15468600Y-11620500I38100J0D01*
G01*
X15468600Y-11874500D02*
G75*
G02*
X15392400Y-11874500I-38100J0D01*
G01*
X15392400Y-11874500D02*
G75*
G02*
X15468600Y-11874500I38100J0D01*
G01*
X15468600Y-12128500D02*
G75*
G02*
X15392400Y-12128500I-38100J0D01*
G01*
X15392400Y-12128500D02*
G75*
G02*
X15468600Y-12128500I38100J0D01*
G01*
X11226800Y-7808600D02*
X11226800Y-7888600D01*
X11186800Y-7848600D02*
X11266800Y-7848600D01*
X11226800Y-8570600D02*
X11226800Y-8650600D01*
X11186800Y-8610600D02*
X11266800Y-8610600D01*
X11745000Y-7808600D02*
X11745000Y-7888600D01*
X11705000Y-7848600D02*
X11785000Y-7848600D01*
X11745000Y-8570600D02*
X11745000Y-8650600D01*
X11705000Y-8610600D02*
X11785000Y-8610600D01*
X12268200Y-7808600D02*
X12268200Y-7888600D01*
X12228200Y-7848600D02*
X12308200Y-7848600D01*
X12268200Y-8570600D02*
X12268200Y-8650600D01*
X12228200Y-8610600D02*
X12308200Y-8610600D01*
X12293600Y-12202800D02*
X12293600Y-12282800D01*
X12253600Y-12242800D02*
X12333600Y-12242800D01*
X12293600Y-12702800D02*
X12293600Y-12782800D01*
X12253600Y-12742800D02*
X12333600Y-12742800D01*
X12300000Y-10180000D02*
X12300000Y-10260000D01*
X12260000Y-10220000D02*
X12340000Y-10220000D01*
X12300000Y-10680000D02*
X12300000Y-10760000D01*
X12260000Y-10720000D02*
X12340000Y-10720000D01*
X12300000Y-11059800D02*
X12300000Y-11139800D01*
X12260000Y-11099800D02*
X12340000Y-11099800D01*
X12300000Y-11821800D02*
X12300000Y-11901800D01*
X12260000Y-11861800D02*
X12340000Y-11861800D01*
X12305000Y-9002400D02*
X12305000Y-9082400D01*
X12265000Y-9042400D02*
X12345000Y-9042400D01*
X12305000Y-9764400D02*
X12305000Y-9844400D01*
X12265000Y-9804400D02*
X12345000Y-9804400D01*
X15938500Y-8143800D02*
X15938500Y-8223800D01*
X15898500Y-8183800D02*
X15978500Y-8183800D01*
X15938500Y-8664200D02*
X15938500Y-8744200D01*
X15898500Y-8704200D02*
X15978500Y-8704200D01*
X15938500Y-11872600D02*
X15938500Y-11952600D01*
X15898500Y-11912600D02*
X15978500Y-11912600D01*
X15938500Y-12406000D02*
X15938500Y-12486000D01*
X15898500Y-12446000D02*
X15978500Y-12446000D01*
X16700500Y-8143800D02*
X16700500Y-8223800D01*
X16660500Y-8183800D02*
X16740500Y-8183800D01*
X16700500Y-8664200D02*
X16700500Y-8744200D01*
X16660500Y-8704200D02*
X16740500Y-8704200D01*
X16700500Y-11872600D02*
X16700500Y-11952600D01*
X16660500Y-11912600D02*
X16740500Y-11912600D01*
X16700500Y-12406000D02*
X16700500Y-12486000D01*
X16660500Y-12446000D02*
X16740500Y-12446000D01*
X17119600Y-8664200D02*
X17119600Y-8744200D01*
X17079600Y-8704200D02*
X17159600Y-8704200D01*
X17123600Y-8138800D02*
X17123600Y-8218800D01*
X17083600Y-8178800D02*
X17163600Y-8178800D01*
X17123600Y-11872600D02*
X17123600Y-11952600D01*
X17083600Y-11912600D02*
X17163600Y-11912600D01*
X17127600Y-12406000D02*
X17127600Y-12486000D01*
X17087600Y-12446000D02*
X17167600Y-12446000D01*
X17619600Y-8664200D02*
X17619600Y-8744200D01*
X17579600Y-8704200D02*
X17659600Y-8704200D01*
X17623600Y-8138800D02*
X17623600Y-8218800D01*
X17583600Y-8178800D02*
X17663600Y-8178800D01*
X17623600Y-11872600D02*
X17623600Y-11952600D01*
X17583600Y-11912600D02*
X17663600Y-11912600D01*
X17627600Y-12406000D02*
X17627600Y-12486000D01*
X17587600Y-12446000D02*
X17667600Y-12446000D01*
X8543431Y-11234181D02*
X8543431Y-11171319D01*
X8480569Y-11171319D01*
X8480569Y-11234181D01*
X8543431Y-11234181D01*
X8543431Y-11488181D02*
X8543431Y-11425319D01*
X8480569Y-11425319D01*
X8480569Y-11488181D01*
X8543431Y-11488181D01*
X8543431Y-11742181D02*
X8543431Y-11679319D01*
X8480569Y-11679319D01*
X8480569Y-11742181D01*
X8543431Y-11742181D01*
X9305431Y-12504181D02*
X9305431Y-12441319D01*
X9242569Y-12441319D01*
X9242569Y-12504181D01*
X9305431Y-12504181D01*
X9559431Y-12504181D02*
X9559431Y-12441319D01*
X9496569Y-12441319D01*
X9496569Y-12504181D01*
X9559431Y-12504181D01*
X9813431Y-12504181D02*
X9813431Y-12441319D01*
X9750569Y-12441319D01*
X9750569Y-12504181D01*
X9813431Y-12504181D01*
X8712200Y-8884200D02*
X8757200Y-8839200D01*
X8712200Y-8794200D01*
X8667200Y-8839200D01*
X8712200Y-8884200D01*
X8966200Y-8884200D02*
X9011200Y-8839200D01*
X8966200Y-8794200D01*
X8921200Y-8839200D01*
X8966200Y-8884200D01*
X9210500Y-10231750D02*
X9255500Y-10186750D01*
X9210500Y-10141750D01*
X9165500Y-10186750D01*
X9210500Y-10231750D01*
X9210500Y-10739750D02*
X9255500Y-10694750D01*
X9210500Y-10649750D01*
X9165500Y-10694750D01*
X9210500Y-10739750D01*
X9474200Y-8884200D02*
X9519200Y-8839200D01*
X9474200Y-8794200D01*
X9429200Y-8839200D01*
X9474200Y-8884200D01*
X9728200Y-8884200D02*
X9773200Y-8839200D01*
X9728200Y-8794200D01*
X9683200Y-8839200D01*
X9728200Y-8884200D01*
X9845500Y-10231750D02*
X9890500Y-10186750D01*
X9845500Y-10141750D01*
X9800500Y-10186750D01*
X9845500Y-10231750D01*
X9845500Y-10739750D02*
X9890500Y-10694750D01*
X9845500Y-10649750D01*
X9800500Y-10694750D01*
X9845500Y-10739750D01*
X10236200Y-8884200D02*
X10281200Y-8839200D01*
X10236200Y-8794200D01*
X10191200Y-8839200D01*
X10236200Y-8884200D01*
X10490200Y-8884200D02*
X10535200Y-8839200D01*
X10490200Y-8794200D01*
X10445200Y-8839200D01*
X10490200Y-8884200D01*
D13*
X11130000Y-10175000D02*
X11240000Y-10285000D01*
X11240000Y-10175000D02*
X11130000Y-10285000D01*
X11240000Y-10230000D02*
G75*
G02*
X11130000Y-10230000I-55000J0D01*
G01*
X11130000Y-10230000D02*
G75*
G02*
X11240000Y-10230000I55000J0D01*
G01*
X11130000Y-10625000D02*
X11240000Y-10735000D01*
X11240000Y-10625000D02*
X11130000Y-10735000D01*
X11240000Y-10680000D02*
G75*
G02*
X11130000Y-10680000I-55000J0D01*
G01*
X11130000Y-10680000D02*
G75*
G02*
X11240000Y-10680000I55000J0D01*
G01*
X11140000Y-9065000D02*
X11250000Y-9175000D01*
X11250000Y-9065000D02*
X11140000Y-9175000D01*
X11250000Y-9120000D02*
G75*
G02*
X11140000Y-9120000I-55000J0D01*
G01*
X11140000Y-9120000D02*
G75*
G02*
X11250000Y-9120000I55000J0D01*
G01*
X11140000Y-9515000D02*
X11250000Y-9625000D01*
X11250000Y-9515000D02*
X11140000Y-9625000D01*
X11250000Y-9570000D02*
G75*
G02*
X11140000Y-9570000I-55000J0D01*
G01*
X11140000Y-9570000D02*
G75*
G02*
X11250000Y-9570000I55000J0D01*
G01*
X11780000Y-10175000D02*
X11890000Y-10285000D01*
X11890000Y-10175000D02*
X11780000Y-10285000D01*
X11890000Y-10230000D02*
G75*
G02*
X11780000Y-10230000I-55000J0D01*
G01*
X11780000Y-10230000D02*
G75*
G02*
X11890000Y-10230000I55000J0D01*
G01*
X11780000Y-10625000D02*
X11890000Y-10735000D01*
X11890000Y-10625000D02*
X11780000Y-10735000D01*
X11890000Y-10680000D02*
G75*
G02*
X11780000Y-10680000I-55000J0D01*
G01*
X11780000Y-10680000D02*
G75*
G02*
X11890000Y-10680000I55000J0D01*
G01*
X11790000Y-9065000D02*
X11900000Y-9175000D01*
X11900000Y-9065000D02*
X11790000Y-9175000D01*
X11900000Y-9120000D02*
G75*
G02*
X11790000Y-9120000I-55000J0D01*
G01*
X11790000Y-9120000D02*
G75*
G02*
X11900000Y-9120000I55000J0D01*
G01*
X11790000Y-9515000D02*
X11900000Y-9625000D01*
X11900000Y-9515000D02*
X11790000Y-9625000D01*
X11900000Y-9570000D02*
G75*
G02*
X11790000Y-9570000I-55000J0D01*
G01*
X11790000Y-9570000D02*
G75*
G02*
X11900000Y-9570000I55000J0D01*
G01*
D14*
X16338000Y-9993400D02*
X16468000Y-10123400D01*
X16468000Y-9993400D02*
X16338000Y-10123400D01*
X16403000Y-9993400D02*
X16403000Y-10123400D01*
X16338000Y-10058400D02*
X16468000Y-10058400D01*
X16338000Y-10493400D02*
X16468000Y-10623400D01*
X16468000Y-10493400D02*
X16338000Y-10623400D01*
X16403000Y-10493400D02*
X16403000Y-10623400D01*
X16338000Y-10558400D02*
X16468000Y-10558400D01*
X17588000Y-9993400D02*
X17718000Y-10123400D01*
X17718000Y-9993400D02*
X17588000Y-10123400D01*
X17653000Y-9993400D02*
X17653000Y-10123400D01*
X17588000Y-10058400D02*
X17718000Y-10058400D01*
X17588000Y-10493400D02*
X17718000Y-10623400D01*
X17718000Y-10493400D02*
X17588000Y-10623400D01*
X17653000Y-10493400D02*
X17653000Y-10623400D01*
X17588000Y-10558400D02*
X17718000Y-10558400D01*
X18004400Y-11545000D02*
X18134400Y-11675000D01*
X18134400Y-11545000D02*
X18004400Y-11675000D01*
X18069400Y-11545000D02*
X18069400Y-11675000D01*
X18004400Y-11610000D02*
X18134400Y-11610000D01*
X18004400Y-12045000D02*
X18134400Y-12175000D01*
X18134400Y-12045000D02*
X18004400Y-12175000D01*
X18069400Y-12045000D02*
X18069400Y-12175000D01*
X18004400Y-12110000D02*
X18134400Y-12110000D01*
X18010000Y-8460000D02*
X18140000Y-8590000D01*
X18140000Y-8460000D02*
X18010000Y-8590000D01*
X18075000Y-8460000D02*
X18075000Y-8590000D01*
X18010000Y-8525000D02*
X18140000Y-8525000D01*
X18010000Y-8960000D02*
X18140000Y-9090000D01*
X18140000Y-8960000D02*
X18010000Y-9090000D01*
X18075000Y-8960000D02*
X18075000Y-9090000D01*
X18010000Y-9025000D02*
X18140000Y-9025000D01*
X19254400Y-11545000D02*
X19384400Y-11675000D01*
X19384400Y-11545000D02*
X19254400Y-11675000D01*
X19319400Y-11545000D02*
X19319400Y-11675000D01*
X19254400Y-11610000D02*
X19384400Y-11610000D01*
X19254400Y-12045000D02*
X19384400Y-12175000D01*
X19384400Y-12045000D02*
X19254400Y-12175000D01*
X19319400Y-12045000D02*
X19319400Y-12175000D01*
X19254400Y-12110000D02*
X19384400Y-12110000D01*
X19260000Y-8460000D02*
X19390000Y-8590000D01*
X19390000Y-8460000D02*
X19260000Y-8590000D01*
X19325000Y-8460000D02*
X19325000Y-8590000D01*
X19260000Y-8525000D02*
X19390000Y-8525000D01*
X19260000Y-8960000D02*
X19390000Y-9090000D01*
X19390000Y-8960000D02*
X19260000Y-9090000D01*
X19325000Y-8960000D02*
X19325000Y-9090000D01*
X19260000Y-9025000D02*
X19390000Y-9025000D01*
X19665400Y-9993400D02*
X19795400Y-10123400D01*
X19795400Y-9993400D02*
X19665400Y-10123400D01*
X19730400Y-9993400D02*
X19730400Y-10123400D01*
X19665400Y-10058400D02*
X19795400Y-10058400D01*
X19665400Y-10493400D02*
X19795400Y-10623400D01*
X19795400Y-10493400D02*
X19665400Y-10623400D01*
X19730400Y-10493400D02*
X19730400Y-10623400D01*
X19665400Y-10558400D02*
X19795400Y-10558400D01*
X20915400Y-9993400D02*
X21045400Y-10123400D01*
X21045400Y-9993400D02*
X20915400Y-10123400D01*
X20980400Y-9993400D02*
X20980400Y-10123400D01*
X20915400Y-10058400D02*
X21045400Y-10058400D01*
X20915400Y-10493400D02*
X21045400Y-10623400D01*
X21045400Y-10493400D02*
X20915400Y-10623400D01*
X20980400Y-10493400D02*
X20980400Y-10623400D01*
X20915400Y-10558400D02*
X21045400Y-10558400D01*
D15*
X8696150Y-10720150D02*
X8835850Y-10859850D01*
X8835850Y-10720150D02*
X8696150Y-10859850D01*
X8815392Y-10839392D02*
X8815392Y-10740608D01*
X8716608Y-10740608D01*
X8716608Y-10839392D01*
X8815392Y-10839392D01*
X8696150Y-12053650D02*
X8835850Y-12193350D01*
X8835850Y-12053650D02*
X8696150Y-12193350D01*
X8815392Y-12172892D02*
X8815392Y-12074108D01*
X8716608Y-12074108D01*
X8716608Y-12172892D01*
X8815392Y-12172892D01*
X10220150Y-10720150D02*
X10359850Y-10859850D01*
X10359850Y-10720150D02*
X10220150Y-10859850D01*
X10339392Y-10839392D02*
X10339392Y-10740608D01*
X10240608Y-10740608D01*
X10240608Y-10839392D01*
X10339392Y-10839392D01*
X10220150Y-12053650D02*
X10359850Y-12193350D01*
X10359850Y-12053650D02*
X10220150Y-12193350D01*
X10339392Y-12172892D02*
X10339392Y-12074108D01*
X10240608Y-12074108D01*
X10240608Y-12172892D01*
X10339392Y-12172892D01*
D11*
X8252672Y-13443389D02*
X8252672Y-13243389D01*
X8252672Y-13243389D02*
X8300291Y-13243389D01*
X8300291Y-13243389D02*
X8328862Y-13252913D01*
X8328862Y-13252913D02*
X8347910Y-13271960D01*
X8347910Y-13271960D02*
X8357434Y-13291008D01*
X8357434Y-13291008D02*
X8366957Y-13329103D01*
X8366957Y-13329103D02*
X8366957Y-13357674D01*
X8366957Y-13357674D02*
X8357434Y-13395770D01*
X8357434Y-13395770D02*
X8347910Y-13414817D01*
X8347910Y-13414817D02*
X8328862Y-13433865D01*
X8328862Y-13433865D02*
X8300291Y-13443389D01*
X8300291Y-13443389D02*
X8252672Y-13443389D01*
X8452672Y-13443389D02*
X8452672Y-13310055D01*
X8452672Y-13348151D02*
X8462196Y-13329103D01*
X8462196Y-13329103D02*
X8471719Y-13319579D01*
X8471719Y-13319579D02*
X8490767Y-13310055D01*
X8490767Y-13310055D02*
X8509815Y-13310055D01*
X8576481Y-13443389D02*
X8576481Y-13310055D01*
X8576481Y-13243389D02*
X8566958Y-13252913D01*
X8566958Y-13252913D02*
X8576481Y-13262436D01*
X8576481Y-13262436D02*
X8586005Y-13252913D01*
X8586005Y-13252913D02*
X8576481Y-13243389D01*
X8576481Y-13243389D02*
X8576481Y-13262436D01*
X8700291Y-13443389D02*
X8681243Y-13433865D01*
X8681243Y-13433865D02*
X8671719Y-13414817D01*
X8671719Y-13414817D02*
X8671719Y-13243389D01*
X8805053Y-13443389D02*
X8786005Y-13433865D01*
X8786005Y-13433865D02*
X8776481Y-13414817D01*
X8776481Y-13414817D02*
X8776481Y-13243389D01*
X9033624Y-13443389D02*
X9033624Y-13243389D01*
X9033624Y-13243389D02*
X9100291Y-13386246D01*
X9100291Y-13386246D02*
X9166958Y-13243389D01*
X9166958Y-13243389D02*
X9166958Y-13443389D01*
X9347910Y-13443389D02*
X9347910Y-13338627D01*
X9347910Y-13338627D02*
X9338386Y-13319579D01*
X9338386Y-13319579D02*
X9319339Y-13310055D01*
X9319339Y-13310055D02*
X9281243Y-13310055D01*
X9281243Y-13310055D02*
X9262196Y-13319579D01*
X9347910Y-13433865D02*
X9328862Y-13443389D01*
X9328862Y-13443389D02*
X9281243Y-13443389D01*
X9281243Y-13443389D02*
X9262196Y-13433865D01*
X9262196Y-13433865D02*
X9252672Y-13414817D01*
X9252672Y-13414817D02*
X9252672Y-13395770D01*
X9252672Y-13395770D02*
X9262196Y-13376722D01*
X9262196Y-13376722D02*
X9281243Y-13367198D01*
X9281243Y-13367198D02*
X9328862Y-13367198D01*
X9328862Y-13367198D02*
X9347910Y-13357674D01*
X9443148Y-13310055D02*
X9443148Y-13510055D01*
X9443148Y-13319579D02*
X9462196Y-13310055D01*
X9462196Y-13310055D02*
X9500291Y-13310055D01*
X9500291Y-13310055D02*
X9519339Y-13319579D01*
X9519339Y-13319579D02*
X9528862Y-13329103D01*
X9528862Y-13329103D02*
X9538386Y-13348151D01*
X9538386Y-13348151D02*
X9538386Y-13405293D01*
X9538386Y-13405293D02*
X9528862Y-13424341D01*
X9528862Y-13424341D02*
X9519339Y-13433865D01*
X9519339Y-13433865D02*
X9500291Y-13443389D01*
X9500291Y-13443389D02*
X9462196Y-13443389D01*
X9462196Y-13443389D02*
X9443148Y-13433865D01*
X9624100Y-13424341D02*
X9633624Y-13433865D01*
X9633624Y-13433865D02*
X9624100Y-13443389D01*
X9624100Y-13443389D02*
X9614577Y-13433865D01*
X9614577Y-13433865D02*
X9624100Y-13424341D01*
X9624100Y-13424341D02*
X9624100Y-13443389D01*
X9624100Y-13319579D02*
X9633624Y-13329103D01*
X9633624Y-13329103D02*
X9624100Y-13338627D01*
X9624100Y-13338627D02*
X9614577Y-13329103D01*
X9614577Y-13329103D02*
X9624100Y-13319579D01*
X9624100Y-13319579D02*
X9624100Y-13338627D01*
D12*
X7961895Y-13756905D02*
X7991895Y-13786905D01*
X7991895Y-13756905D02*
X7961895Y-13786905D01*
D11*
X8290767Y-13663389D02*
X8309815Y-13663389D01*
X8309815Y-13663389D02*
X8328862Y-13672913D01*
X8328862Y-13672913D02*
X8338386Y-13682436D01*
X8338386Y-13682436D02*
X8347910Y-13701484D01*
X8347910Y-13701484D02*
X8357434Y-13739579D01*
X8357434Y-13739579D02*
X8357434Y-13787198D01*
X8357434Y-13787198D02*
X8347910Y-13825293D01*
X8347910Y-13825293D02*
X8338386Y-13844341D01*
X8338386Y-13844341D02*
X8328862Y-13853865D01*
X8328862Y-13853865D02*
X8309815Y-13863389D01*
X8309815Y-13863389D02*
X8290767Y-13863389D01*
X8290767Y-13863389D02*
X8271719Y-13853865D01*
X8271719Y-13853865D02*
X8262196Y-13844341D01*
X8262196Y-13844341D02*
X8252672Y-13825293D01*
X8252672Y-13825293D02*
X8243148Y-13787198D01*
X8243148Y-13787198D02*
X8243148Y-13739579D01*
X8243148Y-13739579D02*
X8252672Y-13701484D01*
X8252672Y-13701484D02*
X8262196Y-13682436D01*
X8262196Y-13682436D02*
X8271719Y-13672913D01*
X8271719Y-13672913D02*
X8290767Y-13663389D01*
X8443148Y-13844341D02*
X8452672Y-13853865D01*
X8452672Y-13853865D02*
X8443148Y-13863389D01*
X8443148Y-13863389D02*
X8433624Y-13853865D01*
X8433624Y-13853865D02*
X8443148Y-13844341D01*
X8443148Y-13844341D02*
X8443148Y-13863389D01*
X8519339Y-13663389D02*
X8643148Y-13663389D01*
X8643148Y-13663389D02*
X8576481Y-13739579D01*
X8576481Y-13739579D02*
X8605053Y-13739579D01*
X8605053Y-13739579D02*
X8624100Y-13749103D01*
X8624100Y-13749103D02*
X8633624Y-13758627D01*
X8633624Y-13758627D02*
X8643148Y-13777674D01*
X8643148Y-13777674D02*
X8643148Y-13825293D01*
X8643148Y-13825293D02*
X8633624Y-13844341D01*
X8633624Y-13844341D02*
X8624100Y-13853865D01*
X8624100Y-13853865D02*
X8605053Y-13863389D01*
X8605053Y-13863389D02*
X8547910Y-13863389D01*
X8547910Y-13863389D02*
X8528862Y-13853865D01*
X8528862Y-13853865D02*
X8519339Y-13844341D01*
X8766958Y-13663389D02*
X8786005Y-13663389D01*
X8786005Y-13663389D02*
X8805053Y-13672913D01*
X8805053Y-13672913D02*
X8814577Y-13682436D01*
X8814577Y-13682436D02*
X8824100Y-13701484D01*
X8824100Y-13701484D02*
X8833624Y-13739579D01*
X8833624Y-13739579D02*
X8833624Y-13787198D01*
X8833624Y-13787198D02*
X8824100Y-13825293D01*
X8824100Y-13825293D02*
X8814577Y-13844341D01*
X8814577Y-13844341D02*
X8805053Y-13853865D01*
X8805053Y-13853865D02*
X8786005Y-13863389D01*
X8786005Y-13863389D02*
X8766958Y-13863389D01*
X8766958Y-13863389D02*
X8747910Y-13853865D01*
X8747910Y-13853865D02*
X8738386Y-13844341D01*
X8738386Y-13844341D02*
X8728862Y-13825293D01*
X8728862Y-13825293D02*
X8719339Y-13787198D01*
X8719339Y-13787198D02*
X8719339Y-13739579D01*
X8719339Y-13739579D02*
X8728862Y-13701484D01*
X8728862Y-13701484D02*
X8738386Y-13682436D01*
X8738386Y-13682436D02*
X8747910Y-13672913D01*
X8747910Y-13672913D02*
X8766958Y-13663389D01*
X8957434Y-13663389D02*
X8976481Y-13663389D01*
X8976481Y-13663389D02*
X8995529Y-13672913D01*
X8995529Y-13672913D02*
X9005053Y-13682436D01*
X9005053Y-13682436D02*
X9014577Y-13701484D01*
X9014577Y-13701484D02*
X9024100Y-13739579D01*
X9024100Y-13739579D02*
X9024100Y-13787198D01*
X9024100Y-13787198D02*
X9014577Y-13825293D01*
X9014577Y-13825293D02*
X9005053Y-13844341D01*
X9005053Y-13844341D02*
X8995529Y-13853865D01*
X8995529Y-13853865D02*
X8976481Y-13863389D01*
X8976481Y-13863389D02*
X8957434Y-13863389D01*
X8957434Y-13863389D02*
X8938386Y-13853865D01*
X8938386Y-13853865D02*
X8928862Y-13844341D01*
X8928862Y-13844341D02*
X8919339Y-13825293D01*
X8919339Y-13825293D02*
X8909815Y-13787198D01*
X8909815Y-13787198D02*
X8909815Y-13739579D01*
X8909815Y-13739579D02*
X8919339Y-13701484D01*
X8919339Y-13701484D02*
X8928862Y-13682436D01*
X8928862Y-13682436D02*
X8938386Y-13672913D01*
X8938386Y-13672913D02*
X8957434Y-13663389D01*
X9109815Y-13863389D02*
X9109815Y-13730055D01*
X9109815Y-13749103D02*
X9119339Y-13739579D01*
X9119339Y-13739579D02*
X9138386Y-13730055D01*
X9138386Y-13730055D02*
X9166958Y-13730055D01*
X9166958Y-13730055D02*
X9186005Y-13739579D01*
X9186005Y-13739579D02*
X9195529Y-13758627D01*
X9195529Y-13758627D02*
X9195529Y-13863389D01*
X9195529Y-13758627D02*
X9205053Y-13739579D01*
X9205053Y-13739579D02*
X9224100Y-13730055D01*
X9224100Y-13730055D02*
X9252672Y-13730055D01*
X9252672Y-13730055D02*
X9271720Y-13739579D01*
X9271720Y-13739579D02*
X9281243Y-13758627D01*
X9281243Y-13758627D02*
X9281243Y-13863389D01*
X9376481Y-13863389D02*
X9376481Y-13730055D01*
X9376481Y-13749103D02*
X9386005Y-13739579D01*
X9386005Y-13739579D02*
X9405053Y-13730055D01*
X9405053Y-13730055D02*
X9433624Y-13730055D01*
X9433624Y-13730055D02*
X9452672Y-13739579D01*
X9452672Y-13739579D02*
X9462196Y-13758627D01*
X9462196Y-13758627D02*
X9462196Y-13863389D01*
X9462196Y-13758627D02*
X9471720Y-13739579D01*
X9471720Y-13739579D02*
X9490767Y-13730055D01*
X9490767Y-13730055D02*
X9519339Y-13730055D01*
X9519339Y-13730055D02*
X9538386Y-13739579D01*
X9538386Y-13739579D02*
X9547910Y-13758627D01*
X9547910Y-13758627D02*
X9547910Y-13863389D01*
X9938386Y-13653865D02*
X9766958Y-13911008D01*
X10195529Y-13663389D02*
X10214577Y-13663389D01*
X10214577Y-13663389D02*
X10233624Y-13672913D01*
X10233624Y-13672913D02*
X10243148Y-13682436D01*
X10243148Y-13682436D02*
X10252672Y-13701484D01*
X10252672Y-13701484D02*
X10262196Y-13739579D01*
X10262196Y-13739579D02*
X10262196Y-13787198D01*
X10262196Y-13787198D02*
X10252672Y-13825293D01*
X10252672Y-13825293D02*
X10243148Y-13844341D01*
X10243148Y-13844341D02*
X10233624Y-13853865D01*
X10233624Y-13853865D02*
X10214577Y-13863389D01*
X10214577Y-13863389D02*
X10195529Y-13863389D01*
X10195529Y-13863389D02*
X10176482Y-13853865D01*
X10176482Y-13853865D02*
X10166958Y-13844341D01*
X10166958Y-13844341D02*
X10157434Y-13825293D01*
X10157434Y-13825293D02*
X10147910Y-13787198D01*
X10147910Y-13787198D02*
X10147910Y-13739579D01*
X10147910Y-13739579D02*
X10157434Y-13701484D01*
X10157434Y-13701484D02*
X10166958Y-13682436D01*
X10166958Y-13682436D02*
X10176482Y-13672913D01*
X10176482Y-13672913D02*
X10195529Y-13663389D01*
X10347910Y-13844341D02*
X10357434Y-13853865D01*
X10357434Y-13853865D02*
X10347910Y-13863389D01*
X10347910Y-13863389D02*
X10338386Y-13853865D01*
X10338386Y-13853865D02*
X10347910Y-13844341D01*
X10347910Y-13844341D02*
X10347910Y-13863389D01*
X10481243Y-13663389D02*
X10500291Y-13663389D01*
X10500291Y-13663389D02*
X10519339Y-13672913D01*
X10519339Y-13672913D02*
X10528863Y-13682436D01*
X10528863Y-13682436D02*
X10538386Y-13701484D01*
X10538386Y-13701484D02*
X10547910Y-13739579D01*
X10547910Y-13739579D02*
X10547910Y-13787198D01*
X10547910Y-13787198D02*
X10538386Y-13825293D01*
X10538386Y-13825293D02*
X10528863Y-13844341D01*
X10528863Y-13844341D02*
X10519339Y-13853865D01*
X10519339Y-13853865D02*
X10500291Y-13863389D01*
X10500291Y-13863389D02*
X10481243Y-13863389D01*
X10481243Y-13863389D02*
X10462196Y-13853865D01*
X10462196Y-13853865D02*
X10452672Y-13844341D01*
X10452672Y-13844341D02*
X10443148Y-13825293D01*
X10443148Y-13825293D02*
X10433624Y-13787198D01*
X10433624Y-13787198D02*
X10433624Y-13739579D01*
X10433624Y-13739579D02*
X10443148Y-13701484D01*
X10443148Y-13701484D02*
X10452672Y-13682436D01*
X10452672Y-13682436D02*
X10462196Y-13672913D01*
X10462196Y-13672913D02*
X10481243Y-13663389D01*
X10738386Y-13863389D02*
X10624101Y-13863389D01*
X10681243Y-13863389D02*
X10681243Y-13663389D01*
X10681243Y-13663389D02*
X10662196Y-13691960D01*
X10662196Y-13691960D02*
X10643148Y-13711008D01*
X10643148Y-13711008D02*
X10624101Y-13720532D01*
X10928863Y-13863389D02*
X10814577Y-13863389D01*
X10871720Y-13863389D02*
X10871720Y-13663389D01*
X10871720Y-13663389D02*
X10852672Y-13691960D01*
X10852672Y-13691960D02*
X10833624Y-13711008D01*
X10833624Y-13711008D02*
X10814577Y-13720532D01*
X11043148Y-13749103D02*
X11024101Y-13739579D01*
X11024101Y-13739579D02*
X11014577Y-13730055D01*
X11014577Y-13730055D02*
X11005053Y-13711008D01*
X11005053Y-13711008D02*
X11005053Y-13701484D01*
X11005053Y-13701484D02*
X11014577Y-13682436D01*
X11014577Y-13682436D02*
X11024101Y-13672913D01*
X11024101Y-13672913D02*
X11043148Y-13663389D01*
X11043148Y-13663389D02*
X11081244Y-13663389D01*
X11081244Y-13663389D02*
X11100291Y-13672913D01*
X11100291Y-13672913D02*
X11109815Y-13682436D01*
X11109815Y-13682436D02*
X11119339Y-13701484D01*
X11119339Y-13701484D02*
X11119339Y-13711008D01*
X11119339Y-13711008D02*
X11109815Y-13730055D01*
X11109815Y-13730055D02*
X11100291Y-13739579D01*
X11100291Y-13739579D02*
X11081244Y-13749103D01*
X11081244Y-13749103D02*
X11043148Y-13749103D01*
X11043148Y-13749103D02*
X11024101Y-13758627D01*
X11024101Y-13758627D02*
X11014577Y-13768151D01*
X11014577Y-13768151D02*
X11005053Y-13787198D01*
X11005053Y-13787198D02*
X11005053Y-13825293D01*
X11005053Y-13825293D02*
X11014577Y-13844341D01*
X11014577Y-13844341D02*
X11024101Y-13853865D01*
X11024101Y-13853865D02*
X11043148Y-13863389D01*
X11043148Y-13863389D02*
X11081244Y-13863389D01*
X11081244Y-13863389D02*
X11100291Y-13853865D01*
X11100291Y-13853865D02*
X11109815Y-13844341D01*
X11109815Y-13844341D02*
X11119339Y-13825293D01*
X11119339Y-13825293D02*
X11119339Y-13787198D01*
X11119339Y-13787198D02*
X11109815Y-13768151D01*
X11109815Y-13768151D02*
X11100291Y-13758627D01*
X11100291Y-13758627D02*
X11081244Y-13749103D01*
X11195529Y-13663389D02*
X11195529Y-13701484D01*
X11271720Y-13663389D02*
X11271720Y-13701484D01*
X11566958Y-13939579D02*
X11557434Y-13930055D01*
X11557434Y-13930055D02*
X11538386Y-13901484D01*
X11538386Y-13901484D02*
X11528863Y-13882436D01*
X11528863Y-13882436D02*
X11519339Y-13853865D01*
X11519339Y-13853865D02*
X11509815Y-13806246D01*
X11509815Y-13806246D02*
X11509815Y-13768151D01*
X11509815Y-13768151D02*
X11519339Y-13720532D01*
X11519339Y-13720532D02*
X11528863Y-13691960D01*
X11528863Y-13691960D02*
X11538386Y-13672913D01*
X11538386Y-13672913D02*
X11557434Y-13644341D01*
X11557434Y-13644341D02*
X11566958Y-13634817D01*
X11652672Y-13863389D02*
X11690767Y-13863389D01*
X11690767Y-13863389D02*
X11709815Y-13853865D01*
X11709815Y-13853865D02*
X11719339Y-13844341D01*
X11719339Y-13844341D02*
X11738386Y-13815770D01*
X11738386Y-13815770D02*
X11747910Y-13777674D01*
X11747910Y-13777674D02*
X11747910Y-13701484D01*
X11747910Y-13701484D02*
X11738386Y-13682436D01*
X11738386Y-13682436D02*
X11728863Y-13672913D01*
X11728863Y-13672913D02*
X11709815Y-13663389D01*
X11709815Y-13663389D02*
X11671720Y-13663389D01*
X11671720Y-13663389D02*
X11652672Y-13672913D01*
X11652672Y-13672913D02*
X11643148Y-13682436D01*
X11643148Y-13682436D02*
X11633624Y-13701484D01*
X11633624Y-13701484D02*
X11633624Y-13749103D01*
X11633624Y-13749103D02*
X11643148Y-13768151D01*
X11643148Y-13768151D02*
X11652672Y-13777674D01*
X11652672Y-13777674D02*
X11671720Y-13787198D01*
X11671720Y-13787198D02*
X11709815Y-13787198D01*
X11709815Y-13787198D02*
X11728863Y-13777674D01*
X11728863Y-13777674D02*
X11738386Y-13768151D01*
X11738386Y-13768151D02*
X11747910Y-13749103D01*
X11986005Y-13863389D02*
X11986005Y-13663389D01*
X12071720Y-13863389D02*
X12071720Y-13758627D01*
X12071720Y-13758627D02*
X12062196Y-13739579D01*
X12062196Y-13739579D02*
X12043148Y-13730055D01*
X12043148Y-13730055D02*
X12014577Y-13730055D01*
X12014577Y-13730055D02*
X11995529Y-13739579D01*
X11995529Y-13739579D02*
X11986005Y-13749103D01*
X12195529Y-13863389D02*
X12176482Y-13853865D01*
X12176482Y-13853865D02*
X12166958Y-13844341D01*
X12166958Y-13844341D02*
X12157434Y-13825293D01*
X12157434Y-13825293D02*
X12157434Y-13768151D01*
X12157434Y-13768151D02*
X12166958Y-13749103D01*
X12166958Y-13749103D02*
X12176482Y-13739579D01*
X12176482Y-13739579D02*
X12195529Y-13730055D01*
X12195529Y-13730055D02*
X12224101Y-13730055D01*
X12224101Y-13730055D02*
X12243148Y-13739579D01*
X12243148Y-13739579D02*
X12252672Y-13749103D01*
X12252672Y-13749103D02*
X12262196Y-13768151D01*
X12262196Y-13768151D02*
X12262196Y-13825293D01*
X12262196Y-13825293D02*
X12252672Y-13844341D01*
X12252672Y-13844341D02*
X12243148Y-13853865D01*
X12243148Y-13853865D02*
X12224101Y-13863389D01*
X12224101Y-13863389D02*
X12195529Y-13863389D01*
X12376482Y-13863389D02*
X12357434Y-13853865D01*
X12357434Y-13853865D02*
X12347910Y-13834817D01*
X12347910Y-13834817D02*
X12347910Y-13663389D01*
X12528863Y-13853865D02*
X12509815Y-13863389D01*
X12509815Y-13863389D02*
X12471720Y-13863389D01*
X12471720Y-13863389D02*
X12452672Y-13853865D01*
X12452672Y-13853865D02*
X12443148Y-13834817D01*
X12443148Y-13834817D02*
X12443148Y-13758627D01*
X12443148Y-13758627D02*
X12452672Y-13739579D01*
X12452672Y-13739579D02*
X12471720Y-13730055D01*
X12471720Y-13730055D02*
X12509815Y-13730055D01*
X12509815Y-13730055D02*
X12528863Y-13739579D01*
X12528863Y-13739579D02*
X12538386Y-13758627D01*
X12538386Y-13758627D02*
X12538386Y-13777674D01*
X12538386Y-13777674D02*
X12443148Y-13796722D01*
X12614577Y-13853865D02*
X12633625Y-13863389D01*
X12633625Y-13863389D02*
X12671720Y-13863389D01*
X12671720Y-13863389D02*
X12690767Y-13853865D01*
X12690767Y-13853865D02*
X12700291Y-13834817D01*
X12700291Y-13834817D02*
X12700291Y-13825293D01*
X12700291Y-13825293D02*
X12690767Y-13806246D01*
X12690767Y-13806246D02*
X12671720Y-13796722D01*
X12671720Y-13796722D02*
X12643148Y-13796722D01*
X12643148Y-13796722D02*
X12624101Y-13787198D01*
X12624101Y-13787198D02*
X12614577Y-13768151D01*
X12614577Y-13768151D02*
X12614577Y-13758627D01*
X12614577Y-13758627D02*
X12624101Y-13739579D01*
X12624101Y-13739579D02*
X12643148Y-13730055D01*
X12643148Y-13730055D02*
X12671720Y-13730055D01*
X12671720Y-13730055D02*
X12690767Y-13739579D01*
X12766958Y-13939579D02*
X12776482Y-13930055D01*
X12776482Y-13930055D02*
X12795529Y-13901484D01*
X12795529Y-13901484D02*
X12805053Y-13882436D01*
X12805053Y-13882436D02*
X12814577Y-13853865D01*
X12814577Y-13853865D02*
X12824101Y-13806246D01*
X12824101Y-13806246D02*
X12824101Y-13768151D01*
X12824101Y-13768151D02*
X12814577Y-13720532D01*
X12814577Y-13720532D02*
X12805053Y-13691960D01*
X12805053Y-13691960D02*
X12795529Y-13672913D01*
X12795529Y-13672913D02*
X12776482Y-13644341D01*
X12776482Y-13644341D02*
X12766958Y-13634817D01*
D12*
X7991895Y-14035905D02*
G75*
G02*
X7915695Y-14035905I-38100J0D01*
G01*
X7915695Y-14035905D02*
G75*
G02*
X7991895Y-14035905I38100J0D01*
G01*
D11*
X8290767Y-13927389D02*
X8309815Y-13927389D01*
X8309815Y-13927389D02*
X8328862Y-13936913D01*
X8328862Y-13936913D02*
X8338386Y-13946436D01*
X8338386Y-13946436D02*
X8347910Y-13965484D01*
X8347910Y-13965484D02*
X8357434Y-14003579D01*
X8357434Y-14003579D02*
X8357434Y-14051198D01*
X8357434Y-14051198D02*
X8347910Y-14089293D01*
X8347910Y-14089293D02*
X8338386Y-14108341D01*
X8338386Y-14108341D02*
X8328862Y-14117865D01*
X8328862Y-14117865D02*
X8309815Y-14127389D01*
X8309815Y-14127389D02*
X8290767Y-14127389D01*
X8290767Y-14127389D02*
X8271719Y-14117865D01*
X8271719Y-14117865D02*
X8262196Y-14108341D01*
X8262196Y-14108341D02*
X8252672Y-14089293D01*
X8252672Y-14089293D02*
X8243148Y-14051198D01*
X8243148Y-14051198D02*
X8243148Y-14003579D01*
X8243148Y-14003579D02*
X8252672Y-13965484D01*
X8252672Y-13965484D02*
X8262196Y-13946436D01*
X8262196Y-13946436D02*
X8271719Y-13936913D01*
X8271719Y-13936913D02*
X8290767Y-13927389D01*
X8443148Y-14108341D02*
X8452672Y-14117865D01*
X8452672Y-14117865D02*
X8443148Y-14127389D01*
X8443148Y-14127389D02*
X8433624Y-14117865D01*
X8433624Y-14117865D02*
X8443148Y-14108341D01*
X8443148Y-14108341D02*
X8443148Y-14127389D01*
X8519339Y-13927389D02*
X8652672Y-13927389D01*
X8652672Y-13927389D02*
X8566958Y-14127389D01*
X8814577Y-13927389D02*
X8776481Y-13927389D01*
X8776481Y-13927389D02*
X8757434Y-13936913D01*
X8757434Y-13936913D02*
X8747910Y-13946436D01*
X8747910Y-13946436D02*
X8728862Y-13975008D01*
X8728862Y-13975008D02*
X8719339Y-14013103D01*
X8719339Y-14013103D02*
X8719339Y-14089293D01*
X8719339Y-14089293D02*
X8728862Y-14108341D01*
X8728862Y-14108341D02*
X8738386Y-14117865D01*
X8738386Y-14117865D02*
X8757434Y-14127389D01*
X8757434Y-14127389D02*
X8795529Y-14127389D01*
X8795529Y-14127389D02*
X8814577Y-14117865D01*
X8814577Y-14117865D02*
X8824100Y-14108341D01*
X8824100Y-14108341D02*
X8833624Y-14089293D01*
X8833624Y-14089293D02*
X8833624Y-14041674D01*
X8833624Y-14041674D02*
X8824100Y-14022627D01*
X8824100Y-14022627D02*
X8814577Y-14013103D01*
X8814577Y-14013103D02*
X8795529Y-14003579D01*
X8795529Y-14003579D02*
X8757434Y-14003579D01*
X8757434Y-14003579D02*
X8738386Y-14013103D01*
X8738386Y-14013103D02*
X8728862Y-14022627D01*
X8728862Y-14022627D02*
X8719339Y-14041674D01*
X8909815Y-13946436D02*
X8919339Y-13936913D01*
X8919339Y-13936913D02*
X8938386Y-13927389D01*
X8938386Y-13927389D02*
X8986005Y-13927389D01*
X8986005Y-13927389D02*
X9005053Y-13936913D01*
X9005053Y-13936913D02*
X9014577Y-13946436D01*
X9014577Y-13946436D02*
X9024100Y-13965484D01*
X9024100Y-13965484D02*
X9024100Y-13984532D01*
X9024100Y-13984532D02*
X9014577Y-14013103D01*
X9014577Y-14013103D02*
X8900291Y-14127389D01*
X8900291Y-14127389D02*
X9024100Y-14127389D01*
X9109815Y-14127389D02*
X9109815Y-13994055D01*
X9109815Y-14013103D02*
X9119339Y-14003579D01*
X9119339Y-14003579D02*
X9138386Y-13994055D01*
X9138386Y-13994055D02*
X9166958Y-13994055D01*
X9166958Y-13994055D02*
X9186005Y-14003579D01*
X9186005Y-14003579D02*
X9195529Y-14022627D01*
X9195529Y-14022627D02*
X9195529Y-14127389D01*
X9195529Y-14022627D02*
X9205053Y-14003579D01*
X9205053Y-14003579D02*
X9224100Y-13994055D01*
X9224100Y-13994055D02*
X9252672Y-13994055D01*
X9252672Y-13994055D02*
X9271720Y-14003579D01*
X9271720Y-14003579D02*
X9281243Y-14022627D01*
X9281243Y-14022627D02*
X9281243Y-14127389D01*
X9376481Y-14127389D02*
X9376481Y-13994055D01*
X9376481Y-14013103D02*
X9386005Y-14003579D01*
X9386005Y-14003579D02*
X9405053Y-13994055D01*
X9405053Y-13994055D02*
X9433624Y-13994055D01*
X9433624Y-13994055D02*
X9452672Y-14003579D01*
X9452672Y-14003579D02*
X9462196Y-14022627D01*
X9462196Y-14022627D02*
X9462196Y-14127389D01*
X9462196Y-14022627D02*
X9471720Y-14003579D01*
X9471720Y-14003579D02*
X9490767Y-13994055D01*
X9490767Y-13994055D02*
X9519339Y-13994055D01*
X9519339Y-13994055D02*
X9538386Y-14003579D01*
X9538386Y-14003579D02*
X9547910Y-14022627D01*
X9547910Y-14022627D02*
X9547910Y-14127389D01*
X9938386Y-13917865D02*
X9766958Y-14175008D01*
X10195529Y-13927389D02*
X10214577Y-13927389D01*
X10214577Y-13927389D02*
X10233624Y-13936913D01*
X10233624Y-13936913D02*
X10243148Y-13946436D01*
X10243148Y-13946436D02*
X10252672Y-13965484D01*
X10252672Y-13965484D02*
X10262196Y-14003579D01*
X10262196Y-14003579D02*
X10262196Y-14051198D01*
X10262196Y-14051198D02*
X10252672Y-14089293D01*
X10252672Y-14089293D02*
X10243148Y-14108341D01*
X10243148Y-14108341D02*
X10233624Y-14117865D01*
X10233624Y-14117865D02*
X10214577Y-14127389D01*
X10214577Y-14127389D02*
X10195529Y-14127389D01*
X10195529Y-14127389D02*
X10176482Y-14117865D01*
X10176482Y-14117865D02*
X10166958Y-14108341D01*
X10166958Y-14108341D02*
X10157434Y-14089293D01*
X10157434Y-14089293D02*
X10147910Y-14051198D01*
X10147910Y-14051198D02*
X10147910Y-14003579D01*
X10147910Y-14003579D02*
X10157434Y-13965484D01*
X10157434Y-13965484D02*
X10166958Y-13946436D01*
X10166958Y-13946436D02*
X10176482Y-13936913D01*
X10176482Y-13936913D02*
X10195529Y-13927389D01*
X10347910Y-14108341D02*
X10357434Y-14117865D01*
X10357434Y-14117865D02*
X10347910Y-14127389D01*
X10347910Y-14127389D02*
X10338386Y-14117865D01*
X10338386Y-14117865D02*
X10347910Y-14108341D01*
X10347910Y-14108341D02*
X10347910Y-14127389D01*
X10481243Y-13927389D02*
X10500291Y-13927389D01*
X10500291Y-13927389D02*
X10519339Y-13936913D01*
X10519339Y-13936913D02*
X10528863Y-13946436D01*
X10528863Y-13946436D02*
X10538386Y-13965484D01*
X10538386Y-13965484D02*
X10547910Y-14003579D01*
X10547910Y-14003579D02*
X10547910Y-14051198D01*
X10547910Y-14051198D02*
X10538386Y-14089293D01*
X10538386Y-14089293D02*
X10528863Y-14108341D01*
X10528863Y-14108341D02*
X10519339Y-14117865D01*
X10519339Y-14117865D02*
X10500291Y-14127389D01*
X10500291Y-14127389D02*
X10481243Y-14127389D01*
X10481243Y-14127389D02*
X10462196Y-14117865D01*
X10462196Y-14117865D02*
X10452672Y-14108341D01*
X10452672Y-14108341D02*
X10443148Y-14089293D01*
X10443148Y-14089293D02*
X10433624Y-14051198D01*
X10433624Y-14051198D02*
X10433624Y-14003579D01*
X10433624Y-14003579D02*
X10443148Y-13965484D01*
X10443148Y-13965484D02*
X10452672Y-13946436D01*
X10452672Y-13946436D02*
X10462196Y-13936913D01*
X10462196Y-13936913D02*
X10481243Y-13927389D01*
X10614577Y-13927389D02*
X10738386Y-13927389D01*
X10738386Y-13927389D02*
X10671720Y-14003579D01*
X10671720Y-14003579D02*
X10700291Y-14003579D01*
X10700291Y-14003579D02*
X10719339Y-14013103D01*
X10719339Y-14013103D02*
X10728863Y-14022627D01*
X10728863Y-14022627D02*
X10738386Y-14041674D01*
X10738386Y-14041674D02*
X10738386Y-14089293D01*
X10738386Y-14089293D02*
X10728863Y-14108341D01*
X10728863Y-14108341D02*
X10719339Y-14117865D01*
X10719339Y-14117865D02*
X10700291Y-14127389D01*
X10700291Y-14127389D02*
X10643148Y-14127389D01*
X10643148Y-14127389D02*
X10624101Y-14117865D01*
X10624101Y-14117865D02*
X10614577Y-14108341D01*
X10862196Y-13927389D02*
X10881244Y-13927389D01*
X10881244Y-13927389D02*
X10900291Y-13936913D01*
X10900291Y-13936913D02*
X10909815Y-13946436D01*
X10909815Y-13946436D02*
X10919339Y-13965484D01*
X10919339Y-13965484D02*
X10928863Y-14003579D01*
X10928863Y-14003579D02*
X10928863Y-14051198D01*
X10928863Y-14051198D02*
X10919339Y-14089293D01*
X10919339Y-14089293D02*
X10909815Y-14108341D01*
X10909815Y-14108341D02*
X10900291Y-14117865D01*
X10900291Y-14117865D02*
X10881244Y-14127389D01*
X10881244Y-14127389D02*
X10862196Y-14127389D01*
X10862196Y-14127389D02*
X10843148Y-14117865D01*
X10843148Y-14117865D02*
X10833624Y-14108341D01*
X10833624Y-14108341D02*
X10824101Y-14089293D01*
X10824101Y-14089293D02*
X10814577Y-14051198D01*
X10814577Y-14051198D02*
X10814577Y-14003579D01*
X10814577Y-14003579D02*
X10824101Y-13965484D01*
X10824101Y-13965484D02*
X10833624Y-13946436D01*
X10833624Y-13946436D02*
X10843148Y-13936913D01*
X10843148Y-13936913D02*
X10862196Y-13927389D01*
X11052672Y-13927389D02*
X11071720Y-13927389D01*
X11071720Y-13927389D02*
X11090767Y-13936913D01*
X11090767Y-13936913D02*
X11100291Y-13946436D01*
X11100291Y-13946436D02*
X11109815Y-13965484D01*
X11109815Y-13965484D02*
X11119339Y-14003579D01*
X11119339Y-14003579D02*
X11119339Y-14051198D01*
X11119339Y-14051198D02*
X11109815Y-14089293D01*
X11109815Y-14089293D02*
X11100291Y-14108341D01*
X11100291Y-14108341D02*
X11090767Y-14117865D01*
X11090767Y-14117865D02*
X11071720Y-14127389D01*
X11071720Y-14127389D02*
X11052672Y-14127389D01*
X11052672Y-14127389D02*
X11033624Y-14117865D01*
X11033624Y-14117865D02*
X11024101Y-14108341D01*
X11024101Y-14108341D02*
X11014577Y-14089293D01*
X11014577Y-14089293D02*
X11005053Y-14051198D01*
X11005053Y-14051198D02*
X11005053Y-14003579D01*
X11005053Y-14003579D02*
X11014577Y-13965484D01*
X11014577Y-13965484D02*
X11024101Y-13946436D01*
X11024101Y-13946436D02*
X11033624Y-13936913D01*
X11033624Y-13936913D02*
X11052672Y-13927389D01*
X11195529Y-13927389D02*
X11195529Y-13965484D01*
X11271720Y-13927389D02*
X11271720Y-13965484D01*
X11566958Y-14203579D02*
X11557434Y-14194055D01*
X11557434Y-14194055D02*
X11538386Y-14165484D01*
X11538386Y-14165484D02*
X11528863Y-14146436D01*
X11528863Y-14146436D02*
X11519339Y-14117865D01*
X11519339Y-14117865D02*
X11509815Y-14070246D01*
X11509815Y-14070246D02*
X11509815Y-14032151D01*
X11509815Y-14032151D02*
X11519339Y-13984532D01*
X11519339Y-13984532D02*
X11528863Y-13955960D01*
X11528863Y-13955960D02*
X11538386Y-13936913D01*
X11538386Y-13936913D02*
X11557434Y-13908341D01*
X11557434Y-13908341D02*
X11566958Y-13898817D01*
X11624101Y-13927389D02*
X11747910Y-13927389D01*
X11747910Y-13927389D02*
X11681243Y-14003579D01*
X11681243Y-14003579D02*
X11709815Y-14003579D01*
X11709815Y-14003579D02*
X11728863Y-14013103D01*
X11728863Y-14013103D02*
X11738386Y-14022627D01*
X11738386Y-14022627D02*
X11747910Y-14041674D01*
X11747910Y-14041674D02*
X11747910Y-14089293D01*
X11747910Y-14089293D02*
X11738386Y-14108341D01*
X11738386Y-14108341D02*
X11728863Y-14117865D01*
X11728863Y-14117865D02*
X11709815Y-14127389D01*
X11709815Y-14127389D02*
X11652672Y-14127389D01*
X11652672Y-14127389D02*
X11633624Y-14117865D01*
X11633624Y-14117865D02*
X11624101Y-14108341D01*
X11871720Y-13927389D02*
X11890767Y-13927389D01*
X11890767Y-13927389D02*
X11909815Y-13936913D01*
X11909815Y-13936913D02*
X11919339Y-13946436D01*
X11919339Y-13946436D02*
X11928863Y-13965484D01*
X11928863Y-13965484D02*
X11938386Y-14003579D01*
X11938386Y-14003579D02*
X11938386Y-14051198D01*
X11938386Y-14051198D02*
X11928863Y-14089293D01*
X11928863Y-14089293D02*
X11919339Y-14108341D01*
X11919339Y-14108341D02*
X11909815Y-14117865D01*
X11909815Y-14117865D02*
X11890767Y-14127389D01*
X11890767Y-14127389D02*
X11871720Y-14127389D01*
X11871720Y-14127389D02*
X11852672Y-14117865D01*
X11852672Y-14117865D02*
X11843148Y-14108341D01*
X11843148Y-14108341D02*
X11833624Y-14089293D01*
X11833624Y-14089293D02*
X11824101Y-14051198D01*
X11824101Y-14051198D02*
X11824101Y-14003579D01*
X11824101Y-14003579D02*
X11833624Y-13965484D01*
X11833624Y-13965484D02*
X11843148Y-13946436D01*
X11843148Y-13946436D02*
X11852672Y-13936913D01*
X11852672Y-13936913D02*
X11871720Y-13927389D01*
X12176482Y-14127389D02*
X12176482Y-13927389D01*
X12262196Y-14127389D02*
X12262196Y-14022627D01*
X12262196Y-14022627D02*
X12252672Y-14003579D01*
X12252672Y-14003579D02*
X12233625Y-13994055D01*
X12233625Y-13994055D02*
X12205053Y-13994055D01*
X12205053Y-13994055D02*
X12186005Y-14003579D01*
X12186005Y-14003579D02*
X12176482Y-14013103D01*
X12386005Y-14127389D02*
X12366958Y-14117865D01*
X12366958Y-14117865D02*
X12357434Y-14108341D01*
X12357434Y-14108341D02*
X12347910Y-14089293D01*
X12347910Y-14089293D02*
X12347910Y-14032151D01*
X12347910Y-14032151D02*
X12357434Y-14013103D01*
X12357434Y-14013103D02*
X12366958Y-14003579D01*
X12366958Y-14003579D02*
X12386005Y-13994055D01*
X12386005Y-13994055D02*
X12414577Y-13994055D01*
X12414577Y-13994055D02*
X12433625Y-14003579D01*
X12433625Y-14003579D02*
X12443148Y-14013103D01*
X12443148Y-14013103D02*
X12452672Y-14032151D01*
X12452672Y-14032151D02*
X12452672Y-14089293D01*
X12452672Y-14089293D02*
X12443148Y-14108341D01*
X12443148Y-14108341D02*
X12433625Y-14117865D01*
X12433625Y-14117865D02*
X12414577Y-14127389D01*
X12414577Y-14127389D02*
X12386005Y-14127389D01*
X12566958Y-14127389D02*
X12547910Y-14117865D01*
X12547910Y-14117865D02*
X12538386Y-14098817D01*
X12538386Y-14098817D02*
X12538386Y-13927389D01*
X12719339Y-14117865D02*
X12700291Y-14127389D01*
X12700291Y-14127389D02*
X12662196Y-14127389D01*
X12662196Y-14127389D02*
X12643148Y-14117865D01*
X12643148Y-14117865D02*
X12633625Y-14098817D01*
X12633625Y-14098817D02*
X12633625Y-14022627D01*
X12633625Y-14022627D02*
X12643148Y-14003579D01*
X12643148Y-14003579D02*
X12662196Y-13994055D01*
X12662196Y-13994055D02*
X12700291Y-13994055D01*
X12700291Y-13994055D02*
X12719339Y-14003579D01*
X12719339Y-14003579D02*
X12728863Y-14022627D01*
X12728863Y-14022627D02*
X12728863Y-14041674D01*
X12728863Y-14041674D02*
X12633625Y-14060722D01*
X12805053Y-14117865D02*
X12824101Y-14127389D01*
X12824101Y-14127389D02*
X12862196Y-14127389D01*
X12862196Y-14127389D02*
X12881244Y-14117865D01*
X12881244Y-14117865D02*
X12890767Y-14098817D01*
X12890767Y-14098817D02*
X12890767Y-14089293D01*
X12890767Y-14089293D02*
X12881244Y-14070246D01*
X12881244Y-14070246D02*
X12862196Y-14060722D01*
X12862196Y-14060722D02*
X12833625Y-14060722D01*
X12833625Y-14060722D02*
X12814577Y-14051198D01*
X12814577Y-14051198D02*
X12805053Y-14032151D01*
X12805053Y-14032151D02*
X12805053Y-14022627D01*
X12805053Y-14022627D02*
X12814577Y-14003579D01*
X12814577Y-14003579D02*
X12833625Y-13994055D01*
X12833625Y-13994055D02*
X12862196Y-13994055D01*
X12862196Y-13994055D02*
X12881244Y-14003579D01*
X12957434Y-14203579D02*
X12966958Y-14194055D01*
X12966958Y-14194055D02*
X12986006Y-14165484D01*
X12986006Y-14165484D02*
X12995529Y-14146436D01*
X12995529Y-14146436D02*
X13005053Y-14117865D01*
X13005053Y-14117865D02*
X13014577Y-14070246D01*
X13014577Y-14070246D02*
X13014577Y-14032151D01*
X13014577Y-14032151D02*
X13005053Y-13984532D01*
X13005053Y-13984532D02*
X12995529Y-13955960D01*
X12995529Y-13955960D02*
X12986006Y-13936913D01*
X12986006Y-13936913D02*
X12966958Y-13908341D01*
X12966958Y-13908341D02*
X12957434Y-13898817D01*
D12*
X7951895Y-14259905D02*
X7951895Y-14339905D01*
X7911895Y-14299905D02*
X7991895Y-14299905D01*
D11*
X8290767Y-14191389D02*
X8309815Y-14191389D01*
X8309815Y-14191389D02*
X8328862Y-14200913D01*
X8328862Y-14200913D02*
X8338386Y-14210436D01*
X8338386Y-14210436D02*
X8347910Y-14229484D01*
X8347910Y-14229484D02*
X8357434Y-14267579D01*
X8357434Y-14267579D02*
X8357434Y-14315198D01*
X8357434Y-14315198D02*
X8347910Y-14353293D01*
X8347910Y-14353293D02*
X8338386Y-14372341D01*
X8338386Y-14372341D02*
X8328862Y-14381865D01*
X8328862Y-14381865D02*
X8309815Y-14391389D01*
X8309815Y-14391389D02*
X8290767Y-14391389D01*
X8290767Y-14391389D02*
X8271719Y-14381865D01*
X8271719Y-14381865D02*
X8262196Y-14372341D01*
X8262196Y-14372341D02*
X8252672Y-14353293D01*
X8252672Y-14353293D02*
X8243148Y-14315198D01*
X8243148Y-14315198D02*
X8243148Y-14267579D01*
X8243148Y-14267579D02*
X8252672Y-14229484D01*
X8252672Y-14229484D02*
X8262196Y-14210436D01*
X8262196Y-14210436D02*
X8271719Y-14200913D01*
X8271719Y-14200913D02*
X8290767Y-14191389D01*
X8443148Y-14372341D02*
X8452672Y-14381865D01*
X8452672Y-14381865D02*
X8443148Y-14391389D01*
X8443148Y-14391389D02*
X8433624Y-14381865D01*
X8433624Y-14381865D02*
X8443148Y-14372341D01*
X8443148Y-14372341D02*
X8443148Y-14391389D01*
X8566958Y-14277103D02*
X8547910Y-14267579D01*
X8547910Y-14267579D02*
X8538386Y-14258055D01*
X8538386Y-14258055D02*
X8528862Y-14239008D01*
X8528862Y-14239008D02*
X8528862Y-14229484D01*
X8528862Y-14229484D02*
X8538386Y-14210436D01*
X8538386Y-14210436D02*
X8547910Y-14200913D01*
X8547910Y-14200913D02*
X8566958Y-14191389D01*
X8566958Y-14191389D02*
X8605053Y-14191389D01*
X8605053Y-14191389D02*
X8624100Y-14200913D01*
X8624100Y-14200913D02*
X8633624Y-14210436D01*
X8633624Y-14210436D02*
X8643148Y-14229484D01*
X8643148Y-14229484D02*
X8643148Y-14239008D01*
X8643148Y-14239008D02*
X8633624Y-14258055D01*
X8633624Y-14258055D02*
X8624100Y-14267579D01*
X8624100Y-14267579D02*
X8605053Y-14277103D01*
X8605053Y-14277103D02*
X8566958Y-14277103D01*
X8566958Y-14277103D02*
X8547910Y-14286627D01*
X8547910Y-14286627D02*
X8538386Y-14296151D01*
X8538386Y-14296151D02*
X8528862Y-14315198D01*
X8528862Y-14315198D02*
X8528862Y-14353293D01*
X8528862Y-14353293D02*
X8538386Y-14372341D01*
X8538386Y-14372341D02*
X8547910Y-14381865D01*
X8547910Y-14381865D02*
X8566958Y-14391389D01*
X8566958Y-14391389D02*
X8605053Y-14391389D01*
X8605053Y-14391389D02*
X8624100Y-14381865D01*
X8624100Y-14381865D02*
X8633624Y-14372341D01*
X8633624Y-14372341D02*
X8643148Y-14353293D01*
X8643148Y-14353293D02*
X8643148Y-14315198D01*
X8643148Y-14315198D02*
X8633624Y-14296151D01*
X8633624Y-14296151D02*
X8624100Y-14286627D01*
X8624100Y-14286627D02*
X8605053Y-14277103D01*
X8766958Y-14191389D02*
X8786005Y-14191389D01*
X8786005Y-14191389D02*
X8805053Y-14200913D01*
X8805053Y-14200913D02*
X8814577Y-14210436D01*
X8814577Y-14210436D02*
X8824100Y-14229484D01*
X8824100Y-14229484D02*
X8833624Y-14267579D01*
X8833624Y-14267579D02*
X8833624Y-14315198D01*
X8833624Y-14315198D02*
X8824100Y-14353293D01*
X8824100Y-14353293D02*
X8814577Y-14372341D01*
X8814577Y-14372341D02*
X8805053Y-14381865D01*
X8805053Y-14381865D02*
X8786005Y-14391389D01*
X8786005Y-14391389D02*
X8766958Y-14391389D01*
X8766958Y-14391389D02*
X8747910Y-14381865D01*
X8747910Y-14381865D02*
X8738386Y-14372341D01*
X8738386Y-14372341D02*
X8728862Y-14353293D01*
X8728862Y-14353293D02*
X8719339Y-14315198D01*
X8719339Y-14315198D02*
X8719339Y-14267579D01*
X8719339Y-14267579D02*
X8728862Y-14229484D01*
X8728862Y-14229484D02*
X8738386Y-14210436D01*
X8738386Y-14210436D02*
X8747910Y-14200913D01*
X8747910Y-14200913D02*
X8766958Y-14191389D01*
X8957434Y-14191389D02*
X8976481Y-14191389D01*
X8976481Y-14191389D02*
X8995529Y-14200913D01*
X8995529Y-14200913D02*
X9005053Y-14210436D01*
X9005053Y-14210436D02*
X9014577Y-14229484D01*
X9014577Y-14229484D02*
X9024100Y-14267579D01*
X9024100Y-14267579D02*
X9024100Y-14315198D01*
X9024100Y-14315198D02*
X9014577Y-14353293D01*
X9014577Y-14353293D02*
X9005053Y-14372341D01*
X9005053Y-14372341D02*
X8995529Y-14381865D01*
X8995529Y-14381865D02*
X8976481Y-14391389D01*
X8976481Y-14391389D02*
X8957434Y-14391389D01*
X8957434Y-14391389D02*
X8938386Y-14381865D01*
X8938386Y-14381865D02*
X8928862Y-14372341D01*
X8928862Y-14372341D02*
X8919339Y-14353293D01*
X8919339Y-14353293D02*
X8909815Y-14315198D01*
X8909815Y-14315198D02*
X8909815Y-14267579D01*
X8909815Y-14267579D02*
X8919339Y-14229484D01*
X8919339Y-14229484D02*
X8928862Y-14210436D01*
X8928862Y-14210436D02*
X8938386Y-14200913D01*
X8938386Y-14200913D02*
X8957434Y-14191389D01*
X9109815Y-14391389D02*
X9109815Y-14258055D01*
X9109815Y-14277103D02*
X9119339Y-14267579D01*
X9119339Y-14267579D02*
X9138386Y-14258055D01*
X9138386Y-14258055D02*
X9166958Y-14258055D01*
X9166958Y-14258055D02*
X9186005Y-14267579D01*
X9186005Y-14267579D02*
X9195529Y-14286627D01*
X9195529Y-14286627D02*
X9195529Y-14391389D01*
X9195529Y-14286627D02*
X9205053Y-14267579D01*
X9205053Y-14267579D02*
X9224100Y-14258055D01*
X9224100Y-14258055D02*
X9252672Y-14258055D01*
X9252672Y-14258055D02*
X9271720Y-14267579D01*
X9271720Y-14267579D02*
X9281243Y-14286627D01*
X9281243Y-14286627D02*
X9281243Y-14391389D01*
X9376481Y-14391389D02*
X9376481Y-14258055D01*
X9376481Y-14277103D02*
X9386005Y-14267579D01*
X9386005Y-14267579D02*
X9405053Y-14258055D01*
X9405053Y-14258055D02*
X9433624Y-14258055D01*
X9433624Y-14258055D02*
X9452672Y-14267579D01*
X9452672Y-14267579D02*
X9462196Y-14286627D01*
X9462196Y-14286627D02*
X9462196Y-14391389D01*
X9462196Y-14286627D02*
X9471720Y-14267579D01*
X9471720Y-14267579D02*
X9490767Y-14258055D01*
X9490767Y-14258055D02*
X9519339Y-14258055D01*
X9519339Y-14258055D02*
X9538386Y-14267579D01*
X9538386Y-14267579D02*
X9547910Y-14286627D01*
X9547910Y-14286627D02*
X9547910Y-14391389D01*
X9938386Y-14181865D02*
X9766958Y-14439008D01*
X10195529Y-14191389D02*
X10214577Y-14191389D01*
X10214577Y-14191389D02*
X10233624Y-14200913D01*
X10233624Y-14200913D02*
X10243148Y-14210436D01*
X10243148Y-14210436D02*
X10252672Y-14229484D01*
X10252672Y-14229484D02*
X10262196Y-14267579D01*
X10262196Y-14267579D02*
X10262196Y-14315198D01*
X10262196Y-14315198D02*
X10252672Y-14353293D01*
X10252672Y-14353293D02*
X10243148Y-14372341D01*
X10243148Y-14372341D02*
X10233624Y-14381865D01*
X10233624Y-14381865D02*
X10214577Y-14391389D01*
X10214577Y-14391389D02*
X10195529Y-14391389D01*
X10195529Y-14391389D02*
X10176482Y-14381865D01*
X10176482Y-14381865D02*
X10166958Y-14372341D01*
X10166958Y-14372341D02*
X10157434Y-14353293D01*
X10157434Y-14353293D02*
X10147910Y-14315198D01*
X10147910Y-14315198D02*
X10147910Y-14267579D01*
X10147910Y-14267579D02*
X10157434Y-14229484D01*
X10157434Y-14229484D02*
X10166958Y-14210436D01*
X10166958Y-14210436D02*
X10176482Y-14200913D01*
X10176482Y-14200913D02*
X10195529Y-14191389D01*
X10347910Y-14372341D02*
X10357434Y-14381865D01*
X10357434Y-14381865D02*
X10347910Y-14391389D01*
X10347910Y-14391389D02*
X10338386Y-14381865D01*
X10338386Y-14381865D02*
X10347910Y-14372341D01*
X10347910Y-14372341D02*
X10347910Y-14391389D01*
X10481243Y-14191389D02*
X10500291Y-14191389D01*
X10500291Y-14191389D02*
X10519339Y-14200913D01*
X10519339Y-14200913D02*
X10528863Y-14210436D01*
X10528863Y-14210436D02*
X10538386Y-14229484D01*
X10538386Y-14229484D02*
X10547910Y-14267579D01*
X10547910Y-14267579D02*
X10547910Y-14315198D01*
X10547910Y-14315198D02*
X10538386Y-14353293D01*
X10538386Y-14353293D02*
X10528863Y-14372341D01*
X10528863Y-14372341D02*
X10519339Y-14381865D01*
X10519339Y-14381865D02*
X10500291Y-14391389D01*
X10500291Y-14391389D02*
X10481243Y-14391389D01*
X10481243Y-14391389D02*
X10462196Y-14381865D01*
X10462196Y-14381865D02*
X10452672Y-14372341D01*
X10452672Y-14372341D02*
X10443148Y-14353293D01*
X10443148Y-14353293D02*
X10433624Y-14315198D01*
X10433624Y-14315198D02*
X10433624Y-14267579D01*
X10433624Y-14267579D02*
X10443148Y-14229484D01*
X10443148Y-14229484D02*
X10452672Y-14210436D01*
X10452672Y-14210436D02*
X10462196Y-14200913D01*
X10462196Y-14200913D02*
X10481243Y-14191389D01*
X10614577Y-14191389D02*
X10738386Y-14191389D01*
X10738386Y-14191389D02*
X10671720Y-14267579D01*
X10671720Y-14267579D02*
X10700291Y-14267579D01*
X10700291Y-14267579D02*
X10719339Y-14277103D01*
X10719339Y-14277103D02*
X10728863Y-14286627D01*
X10728863Y-14286627D02*
X10738386Y-14305674D01*
X10738386Y-14305674D02*
X10738386Y-14353293D01*
X10738386Y-14353293D02*
X10728863Y-14372341D01*
X10728863Y-14372341D02*
X10719339Y-14381865D01*
X10719339Y-14381865D02*
X10700291Y-14391389D01*
X10700291Y-14391389D02*
X10643148Y-14391389D01*
X10643148Y-14391389D02*
X10624101Y-14381865D01*
X10624101Y-14381865D02*
X10614577Y-14372341D01*
X10928863Y-14391389D02*
X10814577Y-14391389D01*
X10871720Y-14391389D02*
X10871720Y-14191389D01*
X10871720Y-14191389D02*
X10852672Y-14219960D01*
X10852672Y-14219960D02*
X10833624Y-14239008D01*
X10833624Y-14239008D02*
X10814577Y-14248532D01*
X11109815Y-14191389D02*
X11014577Y-14191389D01*
X11014577Y-14191389D02*
X11005053Y-14286627D01*
X11005053Y-14286627D02*
X11014577Y-14277103D01*
X11014577Y-14277103D02*
X11033624Y-14267579D01*
X11033624Y-14267579D02*
X11081244Y-14267579D01*
X11081244Y-14267579D02*
X11100291Y-14277103D01*
X11100291Y-14277103D02*
X11109815Y-14286627D01*
X11109815Y-14286627D02*
X11119339Y-14305674D01*
X11119339Y-14305674D02*
X11119339Y-14353293D01*
X11119339Y-14353293D02*
X11109815Y-14372341D01*
X11109815Y-14372341D02*
X11100291Y-14381865D01*
X11100291Y-14381865D02*
X11081244Y-14391389D01*
X11081244Y-14391389D02*
X11033624Y-14391389D01*
X11033624Y-14391389D02*
X11014577Y-14381865D01*
X11014577Y-14381865D02*
X11005053Y-14372341D01*
X11195529Y-14191389D02*
X11195529Y-14229484D01*
X11271720Y-14191389D02*
X11271720Y-14229484D01*
X11566958Y-14467579D02*
X11557434Y-14458055D01*
X11557434Y-14458055D02*
X11538386Y-14429484D01*
X11538386Y-14429484D02*
X11528863Y-14410436D01*
X11528863Y-14410436D02*
X11519339Y-14381865D01*
X11519339Y-14381865D02*
X11509815Y-14334246D01*
X11509815Y-14334246D02*
X11509815Y-14296151D01*
X11509815Y-14296151D02*
X11519339Y-14248532D01*
X11519339Y-14248532D02*
X11528863Y-14219960D01*
X11528863Y-14219960D02*
X11538386Y-14200913D01*
X11538386Y-14200913D02*
X11557434Y-14172341D01*
X11557434Y-14172341D02*
X11566958Y-14162817D01*
X11624101Y-14191389D02*
X11747910Y-14191389D01*
X11747910Y-14191389D02*
X11681243Y-14267579D01*
X11681243Y-14267579D02*
X11709815Y-14267579D01*
X11709815Y-14267579D02*
X11728863Y-14277103D01*
X11728863Y-14277103D02*
X11738386Y-14286627D01*
X11738386Y-14286627D02*
X11747910Y-14305674D01*
X11747910Y-14305674D02*
X11747910Y-14353293D01*
X11747910Y-14353293D02*
X11738386Y-14372341D01*
X11738386Y-14372341D02*
X11728863Y-14381865D01*
X11728863Y-14381865D02*
X11709815Y-14391389D01*
X11709815Y-14391389D02*
X11652672Y-14391389D01*
X11652672Y-14391389D02*
X11633624Y-14381865D01*
X11633624Y-14381865D02*
X11624101Y-14372341D01*
X11871720Y-14191389D02*
X11890767Y-14191389D01*
X11890767Y-14191389D02*
X11909815Y-14200913D01*
X11909815Y-14200913D02*
X11919339Y-14210436D01*
X11919339Y-14210436D02*
X11928863Y-14229484D01*
X11928863Y-14229484D02*
X11938386Y-14267579D01*
X11938386Y-14267579D02*
X11938386Y-14315198D01*
X11938386Y-14315198D02*
X11928863Y-14353293D01*
X11928863Y-14353293D02*
X11919339Y-14372341D01*
X11919339Y-14372341D02*
X11909815Y-14381865D01*
X11909815Y-14381865D02*
X11890767Y-14391389D01*
X11890767Y-14391389D02*
X11871720Y-14391389D01*
X11871720Y-14391389D02*
X11852672Y-14381865D01*
X11852672Y-14381865D02*
X11843148Y-14372341D01*
X11843148Y-14372341D02*
X11833624Y-14353293D01*
X11833624Y-14353293D02*
X11824101Y-14315198D01*
X11824101Y-14315198D02*
X11824101Y-14267579D01*
X11824101Y-14267579D02*
X11833624Y-14229484D01*
X11833624Y-14229484D02*
X11843148Y-14210436D01*
X11843148Y-14210436D02*
X11852672Y-14200913D01*
X11852672Y-14200913D02*
X11871720Y-14191389D01*
X12176482Y-14391389D02*
X12176482Y-14191389D01*
X12262196Y-14391389D02*
X12262196Y-14286627D01*
X12262196Y-14286627D02*
X12252672Y-14267579D01*
X12252672Y-14267579D02*
X12233625Y-14258055D01*
X12233625Y-14258055D02*
X12205053Y-14258055D01*
X12205053Y-14258055D02*
X12186005Y-14267579D01*
X12186005Y-14267579D02*
X12176482Y-14277103D01*
X12386005Y-14391389D02*
X12366958Y-14381865D01*
X12366958Y-14381865D02*
X12357434Y-14372341D01*
X12357434Y-14372341D02*
X12347910Y-14353293D01*
X12347910Y-14353293D02*
X12347910Y-14296151D01*
X12347910Y-14296151D02*
X12357434Y-14277103D01*
X12357434Y-14277103D02*
X12366958Y-14267579D01*
X12366958Y-14267579D02*
X12386005Y-14258055D01*
X12386005Y-14258055D02*
X12414577Y-14258055D01*
X12414577Y-14258055D02*
X12433625Y-14267579D01*
X12433625Y-14267579D02*
X12443148Y-14277103D01*
X12443148Y-14277103D02*
X12452672Y-14296151D01*
X12452672Y-14296151D02*
X12452672Y-14353293D01*
X12452672Y-14353293D02*
X12443148Y-14372341D01*
X12443148Y-14372341D02*
X12433625Y-14381865D01*
X12433625Y-14381865D02*
X12414577Y-14391389D01*
X12414577Y-14391389D02*
X12386005Y-14391389D01*
X12566958Y-14391389D02*
X12547910Y-14381865D01*
X12547910Y-14381865D02*
X12538386Y-14362817D01*
X12538386Y-14362817D02*
X12538386Y-14191389D01*
X12719339Y-14381865D02*
X12700291Y-14391389D01*
X12700291Y-14391389D02*
X12662196Y-14391389D01*
X12662196Y-14391389D02*
X12643148Y-14381865D01*
X12643148Y-14381865D02*
X12633625Y-14362817D01*
X12633625Y-14362817D02*
X12633625Y-14286627D01*
X12633625Y-14286627D02*
X12643148Y-14267579D01*
X12643148Y-14267579D02*
X12662196Y-14258055D01*
X12662196Y-14258055D02*
X12700291Y-14258055D01*
X12700291Y-14258055D02*
X12719339Y-14267579D01*
X12719339Y-14267579D02*
X12728863Y-14286627D01*
X12728863Y-14286627D02*
X12728863Y-14305674D01*
X12728863Y-14305674D02*
X12633625Y-14324722D01*
X12805053Y-14381865D02*
X12824101Y-14391389D01*
X12824101Y-14391389D02*
X12862196Y-14391389D01*
X12862196Y-14391389D02*
X12881244Y-14381865D01*
X12881244Y-14381865D02*
X12890767Y-14362817D01*
X12890767Y-14362817D02*
X12890767Y-14353293D01*
X12890767Y-14353293D02*
X12881244Y-14334246D01*
X12881244Y-14334246D02*
X12862196Y-14324722D01*
X12862196Y-14324722D02*
X12833625Y-14324722D01*
X12833625Y-14324722D02*
X12814577Y-14315198D01*
X12814577Y-14315198D02*
X12805053Y-14296151D01*
X12805053Y-14296151D02*
X12805053Y-14286627D01*
X12805053Y-14286627D02*
X12814577Y-14267579D01*
X12814577Y-14267579D02*
X12833625Y-14258055D01*
X12833625Y-14258055D02*
X12862196Y-14258055D01*
X12862196Y-14258055D02*
X12881244Y-14267579D01*
X12957434Y-14467579D02*
X12966958Y-14458055D01*
X12966958Y-14458055D02*
X12986006Y-14429484D01*
X12986006Y-14429484D02*
X12995529Y-14410436D01*
X12995529Y-14410436D02*
X13005053Y-14381865D01*
X13005053Y-14381865D02*
X13014577Y-14334246D01*
X13014577Y-14334246D02*
X13014577Y-14296151D01*
X13014577Y-14296151D02*
X13005053Y-14248532D01*
X13005053Y-14248532D02*
X12995529Y-14219960D01*
X12995529Y-14219960D02*
X12986006Y-14200913D01*
X12986006Y-14200913D02*
X12966958Y-14172341D01*
X12966958Y-14172341D02*
X12957434Y-14162817D01*
D12*
X7978876Y-14595336D02*
X7978876Y-14532474D01*
X7916014Y-14532474D01*
X7916014Y-14595336D01*
X7978876Y-14595336D01*
D11*
X8290767Y-14455389D02*
X8309815Y-14455389D01*
X8309815Y-14455389D02*
X8328862Y-14464913D01*
X8328862Y-14464913D02*
X8338386Y-14474436D01*
X8338386Y-14474436D02*
X8347910Y-14493484D01*
X8347910Y-14493484D02*
X8357434Y-14531579D01*
X8357434Y-14531579D02*
X8357434Y-14579198D01*
X8357434Y-14579198D02*
X8347910Y-14617293D01*
X8347910Y-14617293D02*
X8338386Y-14636341D01*
X8338386Y-14636341D02*
X8328862Y-14645865D01*
X8328862Y-14645865D02*
X8309815Y-14655389D01*
X8309815Y-14655389D02*
X8290767Y-14655389D01*
X8290767Y-14655389D02*
X8271719Y-14645865D01*
X8271719Y-14645865D02*
X8262196Y-14636341D01*
X8262196Y-14636341D02*
X8252672Y-14617293D01*
X8252672Y-14617293D02*
X8243148Y-14579198D01*
X8243148Y-14579198D02*
X8243148Y-14531579D01*
X8243148Y-14531579D02*
X8252672Y-14493484D01*
X8252672Y-14493484D02*
X8262196Y-14474436D01*
X8262196Y-14474436D02*
X8271719Y-14464913D01*
X8271719Y-14464913D02*
X8290767Y-14455389D01*
X8443148Y-14636341D02*
X8452672Y-14645865D01*
X8452672Y-14645865D02*
X8443148Y-14655389D01*
X8443148Y-14655389D02*
X8433624Y-14645865D01*
X8433624Y-14645865D02*
X8443148Y-14636341D01*
X8443148Y-14636341D02*
X8443148Y-14655389D01*
X8566958Y-14541103D02*
X8547910Y-14531579D01*
X8547910Y-14531579D02*
X8538386Y-14522055D01*
X8538386Y-14522055D02*
X8528862Y-14503008D01*
X8528862Y-14503008D02*
X8528862Y-14493484D01*
X8528862Y-14493484D02*
X8538386Y-14474436D01*
X8538386Y-14474436D02*
X8547910Y-14464913D01*
X8547910Y-14464913D02*
X8566958Y-14455389D01*
X8566958Y-14455389D02*
X8605053Y-14455389D01*
X8605053Y-14455389D02*
X8624100Y-14464913D01*
X8624100Y-14464913D02*
X8633624Y-14474436D01*
X8633624Y-14474436D02*
X8643148Y-14493484D01*
X8643148Y-14493484D02*
X8643148Y-14503008D01*
X8643148Y-14503008D02*
X8633624Y-14522055D01*
X8633624Y-14522055D02*
X8624100Y-14531579D01*
X8624100Y-14531579D02*
X8605053Y-14541103D01*
X8605053Y-14541103D02*
X8566958Y-14541103D01*
X8566958Y-14541103D02*
X8547910Y-14550627D01*
X8547910Y-14550627D02*
X8538386Y-14560151D01*
X8538386Y-14560151D02*
X8528862Y-14579198D01*
X8528862Y-14579198D02*
X8528862Y-14617293D01*
X8528862Y-14617293D02*
X8538386Y-14636341D01*
X8538386Y-14636341D02*
X8547910Y-14645865D01*
X8547910Y-14645865D02*
X8566958Y-14655389D01*
X8566958Y-14655389D02*
X8605053Y-14655389D01*
X8605053Y-14655389D02*
X8624100Y-14645865D01*
X8624100Y-14645865D02*
X8633624Y-14636341D01*
X8633624Y-14636341D02*
X8643148Y-14617293D01*
X8643148Y-14617293D02*
X8643148Y-14579198D01*
X8643148Y-14579198D02*
X8633624Y-14560151D01*
X8633624Y-14560151D02*
X8624100Y-14550627D01*
X8624100Y-14550627D02*
X8605053Y-14541103D01*
X8757434Y-14541103D02*
X8738386Y-14531579D01*
X8738386Y-14531579D02*
X8728862Y-14522055D01*
X8728862Y-14522055D02*
X8719339Y-14503008D01*
X8719339Y-14503008D02*
X8719339Y-14493484D01*
X8719339Y-14493484D02*
X8728862Y-14474436D01*
X8728862Y-14474436D02*
X8738386Y-14464913D01*
X8738386Y-14464913D02*
X8757434Y-14455389D01*
X8757434Y-14455389D02*
X8795529Y-14455389D01*
X8795529Y-14455389D02*
X8814577Y-14464913D01*
X8814577Y-14464913D02*
X8824100Y-14474436D01*
X8824100Y-14474436D02*
X8833624Y-14493484D01*
X8833624Y-14493484D02*
X8833624Y-14503008D01*
X8833624Y-14503008D02*
X8824100Y-14522055D01*
X8824100Y-14522055D02*
X8814577Y-14531579D01*
X8814577Y-14531579D02*
X8795529Y-14541103D01*
X8795529Y-14541103D02*
X8757434Y-14541103D01*
X8757434Y-14541103D02*
X8738386Y-14550627D01*
X8738386Y-14550627D02*
X8728862Y-14560151D01*
X8728862Y-14560151D02*
X8719339Y-14579198D01*
X8719339Y-14579198D02*
X8719339Y-14617293D01*
X8719339Y-14617293D02*
X8728862Y-14636341D01*
X8728862Y-14636341D02*
X8738386Y-14645865D01*
X8738386Y-14645865D02*
X8757434Y-14655389D01*
X8757434Y-14655389D02*
X8795529Y-14655389D01*
X8795529Y-14655389D02*
X8814577Y-14645865D01*
X8814577Y-14645865D02*
X8824100Y-14636341D01*
X8824100Y-14636341D02*
X8833624Y-14617293D01*
X8833624Y-14617293D02*
X8833624Y-14579198D01*
X8833624Y-14579198D02*
X8824100Y-14560151D01*
X8824100Y-14560151D02*
X8814577Y-14550627D01*
X8814577Y-14550627D02*
X8795529Y-14541103D01*
X8928862Y-14655389D02*
X8966958Y-14655389D01*
X8966958Y-14655389D02*
X8986005Y-14645865D01*
X8986005Y-14645865D02*
X8995529Y-14636341D01*
X8995529Y-14636341D02*
X9014577Y-14607770D01*
X9014577Y-14607770D02*
X9024100Y-14569674D01*
X9024100Y-14569674D02*
X9024100Y-14493484D01*
X9024100Y-14493484D02*
X9014577Y-14474436D01*
X9014577Y-14474436D02*
X9005053Y-14464913D01*
X9005053Y-14464913D02*
X8986005Y-14455389D01*
X8986005Y-14455389D02*
X8947910Y-14455389D01*
X8947910Y-14455389D02*
X8928862Y-14464913D01*
X8928862Y-14464913D02*
X8919339Y-14474436D01*
X8919339Y-14474436D02*
X8909815Y-14493484D01*
X8909815Y-14493484D02*
X8909815Y-14541103D01*
X8909815Y-14541103D02*
X8919339Y-14560151D01*
X8919339Y-14560151D02*
X8928862Y-14569674D01*
X8928862Y-14569674D02*
X8947910Y-14579198D01*
X8947910Y-14579198D02*
X8986005Y-14579198D01*
X8986005Y-14579198D02*
X9005053Y-14569674D01*
X9005053Y-14569674D02*
X9014577Y-14560151D01*
X9014577Y-14560151D02*
X9024100Y-14541103D01*
X9109815Y-14655389D02*
X9109815Y-14522055D01*
X9109815Y-14541103D02*
X9119339Y-14531579D01*
X9119339Y-14531579D02*
X9138386Y-14522055D01*
X9138386Y-14522055D02*
X9166958Y-14522055D01*
X9166958Y-14522055D02*
X9186005Y-14531579D01*
X9186005Y-14531579D02*
X9195529Y-14550627D01*
X9195529Y-14550627D02*
X9195529Y-14655389D01*
X9195529Y-14550627D02*
X9205053Y-14531579D01*
X9205053Y-14531579D02*
X9224100Y-14522055D01*
X9224100Y-14522055D02*
X9252672Y-14522055D01*
X9252672Y-14522055D02*
X9271720Y-14531579D01*
X9271720Y-14531579D02*
X9281243Y-14550627D01*
X9281243Y-14550627D02*
X9281243Y-14655389D01*
X9376481Y-14655389D02*
X9376481Y-14522055D01*
X9376481Y-14541103D02*
X9386005Y-14531579D01*
X9386005Y-14531579D02*
X9405053Y-14522055D01*
X9405053Y-14522055D02*
X9433624Y-14522055D01*
X9433624Y-14522055D02*
X9452672Y-14531579D01*
X9452672Y-14531579D02*
X9462196Y-14550627D01*
X9462196Y-14550627D02*
X9462196Y-14655389D01*
X9462196Y-14550627D02*
X9471720Y-14531579D01*
X9471720Y-14531579D02*
X9490767Y-14522055D01*
X9490767Y-14522055D02*
X9519339Y-14522055D01*
X9519339Y-14522055D02*
X9538386Y-14531579D01*
X9538386Y-14531579D02*
X9547910Y-14550627D01*
X9547910Y-14550627D02*
X9547910Y-14655389D01*
X9938386Y-14445865D02*
X9766958Y-14703008D01*
X10195529Y-14455389D02*
X10214577Y-14455389D01*
X10214577Y-14455389D02*
X10233624Y-14464913D01*
X10233624Y-14464913D02*
X10243148Y-14474436D01*
X10243148Y-14474436D02*
X10252672Y-14493484D01*
X10252672Y-14493484D02*
X10262196Y-14531579D01*
X10262196Y-14531579D02*
X10262196Y-14579198D01*
X10262196Y-14579198D02*
X10252672Y-14617293D01*
X10252672Y-14617293D02*
X10243148Y-14636341D01*
X10243148Y-14636341D02*
X10233624Y-14645865D01*
X10233624Y-14645865D02*
X10214577Y-14655389D01*
X10214577Y-14655389D02*
X10195529Y-14655389D01*
X10195529Y-14655389D02*
X10176482Y-14645865D01*
X10176482Y-14645865D02*
X10166958Y-14636341D01*
X10166958Y-14636341D02*
X10157434Y-14617293D01*
X10157434Y-14617293D02*
X10147910Y-14579198D01*
X10147910Y-14579198D02*
X10147910Y-14531579D01*
X10147910Y-14531579D02*
X10157434Y-14493484D01*
X10157434Y-14493484D02*
X10166958Y-14474436D01*
X10166958Y-14474436D02*
X10176482Y-14464913D01*
X10176482Y-14464913D02*
X10195529Y-14455389D01*
X10347910Y-14636341D02*
X10357434Y-14645865D01*
X10357434Y-14645865D02*
X10347910Y-14655389D01*
X10347910Y-14655389D02*
X10338386Y-14645865D01*
X10338386Y-14645865D02*
X10347910Y-14636341D01*
X10347910Y-14636341D02*
X10347910Y-14655389D01*
X10481243Y-14455389D02*
X10500291Y-14455389D01*
X10500291Y-14455389D02*
X10519339Y-14464913D01*
X10519339Y-14464913D02*
X10528863Y-14474436D01*
X10528863Y-14474436D02*
X10538386Y-14493484D01*
X10538386Y-14493484D02*
X10547910Y-14531579D01*
X10547910Y-14531579D02*
X10547910Y-14579198D01*
X10547910Y-14579198D02*
X10538386Y-14617293D01*
X10538386Y-14617293D02*
X10528863Y-14636341D01*
X10528863Y-14636341D02*
X10519339Y-14645865D01*
X10519339Y-14645865D02*
X10500291Y-14655389D01*
X10500291Y-14655389D02*
X10481243Y-14655389D01*
X10481243Y-14655389D02*
X10462196Y-14645865D01*
X10462196Y-14645865D02*
X10452672Y-14636341D01*
X10452672Y-14636341D02*
X10443148Y-14617293D01*
X10443148Y-14617293D02*
X10433624Y-14579198D01*
X10433624Y-14579198D02*
X10433624Y-14531579D01*
X10433624Y-14531579D02*
X10443148Y-14493484D01*
X10443148Y-14493484D02*
X10452672Y-14474436D01*
X10452672Y-14474436D02*
X10462196Y-14464913D01*
X10462196Y-14464913D02*
X10481243Y-14455389D01*
X10614577Y-14455389D02*
X10738386Y-14455389D01*
X10738386Y-14455389D02*
X10671720Y-14531579D01*
X10671720Y-14531579D02*
X10700291Y-14531579D01*
X10700291Y-14531579D02*
X10719339Y-14541103D01*
X10719339Y-14541103D02*
X10728863Y-14550627D01*
X10728863Y-14550627D02*
X10738386Y-14569674D01*
X10738386Y-14569674D02*
X10738386Y-14617293D01*
X10738386Y-14617293D02*
X10728863Y-14636341D01*
X10728863Y-14636341D02*
X10719339Y-14645865D01*
X10719339Y-14645865D02*
X10700291Y-14655389D01*
X10700291Y-14655389D02*
X10643148Y-14655389D01*
X10643148Y-14655389D02*
X10624101Y-14645865D01*
X10624101Y-14645865D02*
X10614577Y-14636341D01*
X10919339Y-14455389D02*
X10824101Y-14455389D01*
X10824101Y-14455389D02*
X10814577Y-14550627D01*
X10814577Y-14550627D02*
X10824101Y-14541103D01*
X10824101Y-14541103D02*
X10843148Y-14531579D01*
X10843148Y-14531579D02*
X10890767Y-14531579D01*
X10890767Y-14531579D02*
X10909815Y-14541103D01*
X10909815Y-14541103D02*
X10919339Y-14550627D01*
X10919339Y-14550627D02*
X10928863Y-14569674D01*
X10928863Y-14569674D02*
X10928863Y-14617293D01*
X10928863Y-14617293D02*
X10919339Y-14636341D01*
X10919339Y-14636341D02*
X10909815Y-14645865D01*
X10909815Y-14645865D02*
X10890767Y-14655389D01*
X10890767Y-14655389D02*
X10843148Y-14655389D01*
X10843148Y-14655389D02*
X10824101Y-14645865D01*
X10824101Y-14645865D02*
X10814577Y-14636341D01*
X11052672Y-14455389D02*
X11071720Y-14455389D01*
X11071720Y-14455389D02*
X11090767Y-14464913D01*
X11090767Y-14464913D02*
X11100291Y-14474436D01*
X11100291Y-14474436D02*
X11109815Y-14493484D01*
X11109815Y-14493484D02*
X11119339Y-14531579D01*
X11119339Y-14531579D02*
X11119339Y-14579198D01*
X11119339Y-14579198D02*
X11109815Y-14617293D01*
X11109815Y-14617293D02*
X11100291Y-14636341D01*
X11100291Y-14636341D02*
X11090767Y-14645865D01*
X11090767Y-14645865D02*
X11071720Y-14655389D01*
X11071720Y-14655389D02*
X11052672Y-14655389D01*
X11052672Y-14655389D02*
X11033624Y-14645865D01*
X11033624Y-14645865D02*
X11024101Y-14636341D01*
X11024101Y-14636341D02*
X11014577Y-14617293D01*
X11014577Y-14617293D02*
X11005053Y-14579198D01*
X11005053Y-14579198D02*
X11005053Y-14531579D01*
X11005053Y-14531579D02*
X11014577Y-14493484D01*
X11014577Y-14493484D02*
X11024101Y-14474436D01*
X11024101Y-14474436D02*
X11033624Y-14464913D01*
X11033624Y-14464913D02*
X11052672Y-14455389D01*
X11195529Y-14455389D02*
X11195529Y-14493484D01*
X11271720Y-14455389D02*
X11271720Y-14493484D01*
X11566958Y-14731579D02*
X11557434Y-14722055D01*
X11557434Y-14722055D02*
X11538386Y-14693484D01*
X11538386Y-14693484D02*
X11528863Y-14674436D01*
X11528863Y-14674436D02*
X11519339Y-14645865D01*
X11519339Y-14645865D02*
X11509815Y-14598246D01*
X11509815Y-14598246D02*
X11509815Y-14560151D01*
X11509815Y-14560151D02*
X11519339Y-14512532D01*
X11519339Y-14512532D02*
X11528863Y-14483960D01*
X11528863Y-14483960D02*
X11538386Y-14464913D01*
X11538386Y-14464913D02*
X11557434Y-14436341D01*
X11557434Y-14436341D02*
X11566958Y-14426817D01*
X11728863Y-14455389D02*
X11690767Y-14455389D01*
X11690767Y-14455389D02*
X11671720Y-14464913D01*
X11671720Y-14464913D02*
X11662196Y-14474436D01*
X11662196Y-14474436D02*
X11643148Y-14503008D01*
X11643148Y-14503008D02*
X11633624Y-14541103D01*
X11633624Y-14541103D02*
X11633624Y-14617293D01*
X11633624Y-14617293D02*
X11643148Y-14636341D01*
X11643148Y-14636341D02*
X11652672Y-14645865D01*
X11652672Y-14645865D02*
X11671720Y-14655389D01*
X11671720Y-14655389D02*
X11709815Y-14655389D01*
X11709815Y-14655389D02*
X11728863Y-14645865D01*
X11728863Y-14645865D02*
X11738386Y-14636341D01*
X11738386Y-14636341D02*
X11747910Y-14617293D01*
X11747910Y-14617293D02*
X11747910Y-14569674D01*
X11747910Y-14569674D02*
X11738386Y-14550627D01*
X11738386Y-14550627D02*
X11728863Y-14541103D01*
X11728863Y-14541103D02*
X11709815Y-14531579D01*
X11709815Y-14531579D02*
X11671720Y-14531579D01*
X11671720Y-14531579D02*
X11652672Y-14541103D01*
X11652672Y-14541103D02*
X11643148Y-14550627D01*
X11643148Y-14550627D02*
X11633624Y-14569674D01*
X11986005Y-14655389D02*
X11986005Y-14455389D01*
X12071720Y-14655389D02*
X12071720Y-14550627D01*
X12071720Y-14550627D02*
X12062196Y-14531579D01*
X12062196Y-14531579D02*
X12043148Y-14522055D01*
X12043148Y-14522055D02*
X12014577Y-14522055D01*
X12014577Y-14522055D02*
X11995529Y-14531579D01*
X11995529Y-14531579D02*
X11986005Y-14541103D01*
X12195529Y-14655389D02*
X12176482Y-14645865D01*
X12176482Y-14645865D02*
X12166958Y-14636341D01*
X12166958Y-14636341D02*
X12157434Y-14617293D01*
X12157434Y-14617293D02*
X12157434Y-14560151D01*
X12157434Y-14560151D02*
X12166958Y-14541103D01*
X12166958Y-14541103D02*
X12176482Y-14531579D01*
X12176482Y-14531579D02*
X12195529Y-14522055D01*
X12195529Y-14522055D02*
X12224101Y-14522055D01*
X12224101Y-14522055D02*
X12243148Y-14531579D01*
X12243148Y-14531579D02*
X12252672Y-14541103D01*
X12252672Y-14541103D02*
X12262196Y-14560151D01*
X12262196Y-14560151D02*
X12262196Y-14617293D01*
X12262196Y-14617293D02*
X12252672Y-14636341D01*
X12252672Y-14636341D02*
X12243148Y-14645865D01*
X12243148Y-14645865D02*
X12224101Y-14655389D01*
X12224101Y-14655389D02*
X12195529Y-14655389D01*
X12376482Y-14655389D02*
X12357434Y-14645865D01*
X12357434Y-14645865D02*
X12347910Y-14626817D01*
X12347910Y-14626817D02*
X12347910Y-14455389D01*
X12528863Y-14645865D02*
X12509815Y-14655389D01*
X12509815Y-14655389D02*
X12471720Y-14655389D01*
X12471720Y-14655389D02*
X12452672Y-14645865D01*
X12452672Y-14645865D02*
X12443148Y-14626817D01*
X12443148Y-14626817D02*
X12443148Y-14550627D01*
X12443148Y-14550627D02*
X12452672Y-14531579D01*
X12452672Y-14531579D02*
X12471720Y-14522055D01*
X12471720Y-14522055D02*
X12509815Y-14522055D01*
X12509815Y-14522055D02*
X12528863Y-14531579D01*
X12528863Y-14531579D02*
X12538386Y-14550627D01*
X12538386Y-14550627D02*
X12538386Y-14569674D01*
X12538386Y-14569674D02*
X12443148Y-14588722D01*
X12614577Y-14645865D02*
X12633625Y-14655389D01*
X12633625Y-14655389D02*
X12671720Y-14655389D01*
X12671720Y-14655389D02*
X12690767Y-14645865D01*
X12690767Y-14645865D02*
X12700291Y-14626817D01*
X12700291Y-14626817D02*
X12700291Y-14617293D01*
X12700291Y-14617293D02*
X12690767Y-14598246D01*
X12690767Y-14598246D02*
X12671720Y-14588722D01*
X12671720Y-14588722D02*
X12643148Y-14588722D01*
X12643148Y-14588722D02*
X12624101Y-14579198D01*
X12624101Y-14579198D02*
X12614577Y-14560151D01*
X12614577Y-14560151D02*
X12614577Y-14550627D01*
X12614577Y-14550627D02*
X12624101Y-14531579D01*
X12624101Y-14531579D02*
X12643148Y-14522055D01*
X12643148Y-14522055D02*
X12671720Y-14522055D01*
X12671720Y-14522055D02*
X12690767Y-14531579D01*
X12766958Y-14731579D02*
X12776482Y-14722055D01*
X12776482Y-14722055D02*
X12795529Y-14693484D01*
X12795529Y-14693484D02*
X12805053Y-14674436D01*
X12805053Y-14674436D02*
X12814577Y-14645865D01*
X12814577Y-14645865D02*
X12824101Y-14598246D01*
X12824101Y-14598246D02*
X12824101Y-14560151D01*
X12824101Y-14560151D02*
X12814577Y-14512532D01*
X12814577Y-14512532D02*
X12805053Y-14483960D01*
X12805053Y-14483960D02*
X12795529Y-14464913D01*
X12795529Y-14464913D02*
X12776482Y-14436341D01*
X12776482Y-14436341D02*
X12766958Y-14426817D01*
D12*
X7946895Y-14872905D02*
X7991895Y-14827905D01*
X7946895Y-14782905D01*
X7901895Y-14827905D01*
X7946895Y-14872905D01*
D11*
X8290767Y-14719389D02*
X8309815Y-14719389D01*
X8309815Y-14719389D02*
X8328862Y-14728913D01*
X8328862Y-14728913D02*
X8338386Y-14738436D01*
X8338386Y-14738436D02*
X8347910Y-14757484D01*
X8347910Y-14757484D02*
X8357434Y-14795579D01*
X8357434Y-14795579D02*
X8357434Y-14843198D01*
X8357434Y-14843198D02*
X8347910Y-14881293D01*
X8347910Y-14881293D02*
X8338386Y-14900341D01*
X8338386Y-14900341D02*
X8328862Y-14909865D01*
X8328862Y-14909865D02*
X8309815Y-14919389D01*
X8309815Y-14919389D02*
X8290767Y-14919389D01*
X8290767Y-14919389D02*
X8271719Y-14909865D01*
X8271719Y-14909865D02*
X8262196Y-14900341D01*
X8262196Y-14900341D02*
X8252672Y-14881293D01*
X8252672Y-14881293D02*
X8243148Y-14843198D01*
X8243148Y-14843198D02*
X8243148Y-14795579D01*
X8243148Y-14795579D02*
X8252672Y-14757484D01*
X8252672Y-14757484D02*
X8262196Y-14738436D01*
X8262196Y-14738436D02*
X8271719Y-14728913D01*
X8271719Y-14728913D02*
X8290767Y-14719389D01*
X8443148Y-14900341D02*
X8452672Y-14909865D01*
X8452672Y-14909865D02*
X8443148Y-14919389D01*
X8443148Y-14919389D02*
X8433624Y-14909865D01*
X8433624Y-14909865D02*
X8443148Y-14900341D01*
X8443148Y-14900341D02*
X8443148Y-14919389D01*
X8547910Y-14919389D02*
X8586005Y-14919389D01*
X8586005Y-14919389D02*
X8605053Y-14909865D01*
X8605053Y-14909865D02*
X8614577Y-14900341D01*
X8614577Y-14900341D02*
X8633624Y-14871770D01*
X8633624Y-14871770D02*
X8643148Y-14833674D01*
X8643148Y-14833674D02*
X8643148Y-14757484D01*
X8643148Y-14757484D02*
X8633624Y-14738436D01*
X8633624Y-14738436D02*
X8624100Y-14728913D01*
X8624100Y-14728913D02*
X8605053Y-14719389D01*
X8605053Y-14719389D02*
X8566958Y-14719389D01*
X8566958Y-14719389D02*
X8547910Y-14728913D01*
X8547910Y-14728913D02*
X8538386Y-14738436D01*
X8538386Y-14738436D02*
X8528862Y-14757484D01*
X8528862Y-14757484D02*
X8528862Y-14805103D01*
X8528862Y-14805103D02*
X8538386Y-14824151D01*
X8538386Y-14824151D02*
X8547910Y-14833674D01*
X8547910Y-14833674D02*
X8566958Y-14843198D01*
X8566958Y-14843198D02*
X8605053Y-14843198D01*
X8605053Y-14843198D02*
X8624100Y-14833674D01*
X8624100Y-14833674D02*
X8633624Y-14824151D01*
X8633624Y-14824151D02*
X8643148Y-14805103D01*
X8766958Y-14719389D02*
X8786005Y-14719389D01*
X8786005Y-14719389D02*
X8805053Y-14728913D01*
X8805053Y-14728913D02*
X8814577Y-14738436D01*
X8814577Y-14738436D02*
X8824100Y-14757484D01*
X8824100Y-14757484D02*
X8833624Y-14795579D01*
X8833624Y-14795579D02*
X8833624Y-14843198D01*
X8833624Y-14843198D02*
X8824100Y-14881293D01*
X8824100Y-14881293D02*
X8814577Y-14900341D01*
X8814577Y-14900341D02*
X8805053Y-14909865D01*
X8805053Y-14909865D02*
X8786005Y-14919389D01*
X8786005Y-14919389D02*
X8766958Y-14919389D01*
X8766958Y-14919389D02*
X8747910Y-14909865D01*
X8747910Y-14909865D02*
X8738386Y-14900341D01*
X8738386Y-14900341D02*
X8728862Y-14881293D01*
X8728862Y-14881293D02*
X8719339Y-14843198D01*
X8719339Y-14843198D02*
X8719339Y-14795579D01*
X8719339Y-14795579D02*
X8728862Y-14757484D01*
X8728862Y-14757484D02*
X8738386Y-14738436D01*
X8738386Y-14738436D02*
X8747910Y-14728913D01*
X8747910Y-14728913D02*
X8766958Y-14719389D01*
X8957434Y-14719389D02*
X8976481Y-14719389D01*
X8976481Y-14719389D02*
X8995529Y-14728913D01*
X8995529Y-14728913D02*
X9005053Y-14738436D01*
X9005053Y-14738436D02*
X9014577Y-14757484D01*
X9014577Y-14757484D02*
X9024100Y-14795579D01*
X9024100Y-14795579D02*
X9024100Y-14843198D01*
X9024100Y-14843198D02*
X9014577Y-14881293D01*
X9014577Y-14881293D02*
X9005053Y-14900341D01*
X9005053Y-14900341D02*
X8995529Y-14909865D01*
X8995529Y-14909865D02*
X8976481Y-14919389D01*
X8976481Y-14919389D02*
X8957434Y-14919389D01*
X8957434Y-14919389D02*
X8938386Y-14909865D01*
X8938386Y-14909865D02*
X8928862Y-14900341D01*
X8928862Y-14900341D02*
X8919339Y-14881293D01*
X8919339Y-14881293D02*
X8909815Y-14843198D01*
X8909815Y-14843198D02*
X8909815Y-14795579D01*
X8909815Y-14795579D02*
X8919339Y-14757484D01*
X8919339Y-14757484D02*
X8928862Y-14738436D01*
X8928862Y-14738436D02*
X8938386Y-14728913D01*
X8938386Y-14728913D02*
X8957434Y-14719389D01*
X9109815Y-14919389D02*
X9109815Y-14786055D01*
X9109815Y-14805103D02*
X9119339Y-14795579D01*
X9119339Y-14795579D02*
X9138386Y-14786055D01*
X9138386Y-14786055D02*
X9166958Y-14786055D01*
X9166958Y-14786055D02*
X9186005Y-14795579D01*
X9186005Y-14795579D02*
X9195529Y-14814627D01*
X9195529Y-14814627D02*
X9195529Y-14919389D01*
X9195529Y-14814627D02*
X9205053Y-14795579D01*
X9205053Y-14795579D02*
X9224100Y-14786055D01*
X9224100Y-14786055D02*
X9252672Y-14786055D01*
X9252672Y-14786055D02*
X9271720Y-14795579D01*
X9271720Y-14795579D02*
X9281243Y-14814627D01*
X9281243Y-14814627D02*
X9281243Y-14919389D01*
X9376481Y-14919389D02*
X9376481Y-14786055D01*
X9376481Y-14805103D02*
X9386005Y-14795579D01*
X9386005Y-14795579D02*
X9405053Y-14786055D01*
X9405053Y-14786055D02*
X9433624Y-14786055D01*
X9433624Y-14786055D02*
X9452672Y-14795579D01*
X9452672Y-14795579D02*
X9462196Y-14814627D01*
X9462196Y-14814627D02*
X9462196Y-14919389D01*
X9462196Y-14814627D02*
X9471720Y-14795579D01*
X9471720Y-14795579D02*
X9490767Y-14786055D01*
X9490767Y-14786055D02*
X9519339Y-14786055D01*
X9519339Y-14786055D02*
X9538386Y-14795579D01*
X9538386Y-14795579D02*
X9547910Y-14814627D01*
X9547910Y-14814627D02*
X9547910Y-14919389D01*
X9938386Y-14709865D02*
X9766958Y-14967008D01*
X10195529Y-14719389D02*
X10214577Y-14719389D01*
X10214577Y-14719389D02*
X10233624Y-14728913D01*
X10233624Y-14728913D02*
X10243148Y-14738436D01*
X10243148Y-14738436D02*
X10252672Y-14757484D01*
X10252672Y-14757484D02*
X10262196Y-14795579D01*
X10262196Y-14795579D02*
X10262196Y-14843198D01*
X10262196Y-14843198D02*
X10252672Y-14881293D01*
X10252672Y-14881293D02*
X10243148Y-14900341D01*
X10243148Y-14900341D02*
X10233624Y-14909865D01*
X10233624Y-14909865D02*
X10214577Y-14919389D01*
X10214577Y-14919389D02*
X10195529Y-14919389D01*
X10195529Y-14919389D02*
X10176482Y-14909865D01*
X10176482Y-14909865D02*
X10166958Y-14900341D01*
X10166958Y-14900341D02*
X10157434Y-14881293D01*
X10157434Y-14881293D02*
X10147910Y-14843198D01*
X10147910Y-14843198D02*
X10147910Y-14795579D01*
X10147910Y-14795579D02*
X10157434Y-14757484D01*
X10157434Y-14757484D02*
X10166958Y-14738436D01*
X10166958Y-14738436D02*
X10176482Y-14728913D01*
X10176482Y-14728913D02*
X10195529Y-14719389D01*
X10347910Y-14900341D02*
X10357434Y-14909865D01*
X10357434Y-14909865D02*
X10347910Y-14919389D01*
X10347910Y-14919389D02*
X10338386Y-14909865D01*
X10338386Y-14909865D02*
X10347910Y-14900341D01*
X10347910Y-14900341D02*
X10347910Y-14919389D01*
X10481243Y-14719389D02*
X10500291Y-14719389D01*
X10500291Y-14719389D02*
X10519339Y-14728913D01*
X10519339Y-14728913D02*
X10528863Y-14738436D01*
X10528863Y-14738436D02*
X10538386Y-14757484D01*
X10538386Y-14757484D02*
X10547910Y-14795579D01*
X10547910Y-14795579D02*
X10547910Y-14843198D01*
X10547910Y-14843198D02*
X10538386Y-14881293D01*
X10538386Y-14881293D02*
X10528863Y-14900341D01*
X10528863Y-14900341D02*
X10519339Y-14909865D01*
X10519339Y-14909865D02*
X10500291Y-14919389D01*
X10500291Y-14919389D02*
X10481243Y-14919389D01*
X10481243Y-14919389D02*
X10462196Y-14909865D01*
X10462196Y-14909865D02*
X10452672Y-14900341D01*
X10452672Y-14900341D02*
X10443148Y-14881293D01*
X10443148Y-14881293D02*
X10433624Y-14843198D01*
X10433624Y-14843198D02*
X10433624Y-14795579D01*
X10433624Y-14795579D02*
X10443148Y-14757484D01*
X10443148Y-14757484D02*
X10452672Y-14738436D01*
X10452672Y-14738436D02*
X10462196Y-14728913D01*
X10462196Y-14728913D02*
X10481243Y-14719389D01*
X10614577Y-14719389D02*
X10738386Y-14719389D01*
X10738386Y-14719389D02*
X10671720Y-14795579D01*
X10671720Y-14795579D02*
X10700291Y-14795579D01*
X10700291Y-14795579D02*
X10719339Y-14805103D01*
X10719339Y-14805103D02*
X10728863Y-14814627D01*
X10728863Y-14814627D02*
X10738386Y-14833674D01*
X10738386Y-14833674D02*
X10738386Y-14881293D01*
X10738386Y-14881293D02*
X10728863Y-14900341D01*
X10728863Y-14900341D02*
X10719339Y-14909865D01*
X10719339Y-14909865D02*
X10700291Y-14919389D01*
X10700291Y-14919389D02*
X10643148Y-14919389D01*
X10643148Y-14919389D02*
X10624101Y-14909865D01*
X10624101Y-14909865D02*
X10614577Y-14900341D01*
X10919339Y-14719389D02*
X10824101Y-14719389D01*
X10824101Y-14719389D02*
X10814577Y-14814627D01*
X10814577Y-14814627D02*
X10824101Y-14805103D01*
X10824101Y-14805103D02*
X10843148Y-14795579D01*
X10843148Y-14795579D02*
X10890767Y-14795579D01*
X10890767Y-14795579D02*
X10909815Y-14805103D01*
X10909815Y-14805103D02*
X10919339Y-14814627D01*
X10919339Y-14814627D02*
X10928863Y-14833674D01*
X10928863Y-14833674D02*
X10928863Y-14881293D01*
X10928863Y-14881293D02*
X10919339Y-14900341D01*
X10919339Y-14900341D02*
X10909815Y-14909865D01*
X10909815Y-14909865D02*
X10890767Y-14919389D01*
X10890767Y-14919389D02*
X10843148Y-14919389D01*
X10843148Y-14919389D02*
X10824101Y-14909865D01*
X10824101Y-14909865D02*
X10814577Y-14900341D01*
X11100291Y-14786055D02*
X11100291Y-14919389D01*
X11052672Y-14709865D02*
X11005053Y-14852722D01*
X11005053Y-14852722D02*
X11128863Y-14852722D01*
X11195529Y-14719389D02*
X11195529Y-14757484D01*
X11271720Y-14719389D02*
X11271720Y-14757484D01*
X11566958Y-14995579D02*
X11557434Y-14986055D01*
X11557434Y-14986055D02*
X11538386Y-14957484D01*
X11538386Y-14957484D02*
X11528863Y-14938436D01*
X11528863Y-14938436D02*
X11519339Y-14909865D01*
X11519339Y-14909865D02*
X11509815Y-14862246D01*
X11509815Y-14862246D02*
X11509815Y-14824151D01*
X11509815Y-14824151D02*
X11519339Y-14776532D01*
X11519339Y-14776532D02*
X11528863Y-14747960D01*
X11528863Y-14747960D02*
X11538386Y-14728913D01*
X11538386Y-14728913D02*
X11557434Y-14700341D01*
X11557434Y-14700341D02*
X11566958Y-14690817D01*
X11747910Y-14919389D02*
X11633624Y-14919389D01*
X11690767Y-14919389D02*
X11690767Y-14719389D01*
X11690767Y-14719389D02*
X11671720Y-14747960D01*
X11671720Y-14747960D02*
X11652672Y-14767008D01*
X11652672Y-14767008D02*
X11633624Y-14776532D01*
X11871720Y-14719389D02*
X11890767Y-14719389D01*
X11890767Y-14719389D02*
X11909815Y-14728913D01*
X11909815Y-14728913D02*
X11919339Y-14738436D01*
X11919339Y-14738436D02*
X11928863Y-14757484D01*
X11928863Y-14757484D02*
X11938386Y-14795579D01*
X11938386Y-14795579D02*
X11938386Y-14843198D01*
X11938386Y-14843198D02*
X11928863Y-14881293D01*
X11928863Y-14881293D02*
X11919339Y-14900341D01*
X11919339Y-14900341D02*
X11909815Y-14909865D01*
X11909815Y-14909865D02*
X11890767Y-14919389D01*
X11890767Y-14919389D02*
X11871720Y-14919389D01*
X11871720Y-14919389D02*
X11852672Y-14909865D01*
X11852672Y-14909865D02*
X11843148Y-14900341D01*
X11843148Y-14900341D02*
X11833624Y-14881293D01*
X11833624Y-14881293D02*
X11824101Y-14843198D01*
X11824101Y-14843198D02*
X11824101Y-14795579D01*
X11824101Y-14795579D02*
X11833624Y-14757484D01*
X11833624Y-14757484D02*
X11843148Y-14738436D01*
X11843148Y-14738436D02*
X11852672Y-14728913D01*
X11852672Y-14728913D02*
X11871720Y-14719389D01*
X12176482Y-14919389D02*
X12176482Y-14719389D01*
X12262196Y-14919389D02*
X12262196Y-14814627D01*
X12262196Y-14814627D02*
X12252672Y-14795579D01*
X12252672Y-14795579D02*
X12233625Y-14786055D01*
X12233625Y-14786055D02*
X12205053Y-14786055D01*
X12205053Y-14786055D02*
X12186005Y-14795579D01*
X12186005Y-14795579D02*
X12176482Y-14805103D01*
X12386005Y-14919389D02*
X12366958Y-14909865D01*
X12366958Y-14909865D02*
X12357434Y-14900341D01*
X12357434Y-14900341D02*
X12347910Y-14881293D01*
X12347910Y-14881293D02*
X12347910Y-14824151D01*
X12347910Y-14824151D02*
X12357434Y-14805103D01*
X12357434Y-14805103D02*
X12366958Y-14795579D01*
X12366958Y-14795579D02*
X12386005Y-14786055D01*
X12386005Y-14786055D02*
X12414577Y-14786055D01*
X12414577Y-14786055D02*
X12433625Y-14795579D01*
X12433625Y-14795579D02*
X12443148Y-14805103D01*
X12443148Y-14805103D02*
X12452672Y-14824151D01*
X12452672Y-14824151D02*
X12452672Y-14881293D01*
X12452672Y-14881293D02*
X12443148Y-14900341D01*
X12443148Y-14900341D02*
X12433625Y-14909865D01*
X12433625Y-14909865D02*
X12414577Y-14919389D01*
X12414577Y-14919389D02*
X12386005Y-14919389D01*
X12566958Y-14919389D02*
X12547910Y-14909865D01*
X12547910Y-14909865D02*
X12538386Y-14890817D01*
X12538386Y-14890817D02*
X12538386Y-14719389D01*
X12719339Y-14909865D02*
X12700291Y-14919389D01*
X12700291Y-14919389D02*
X12662196Y-14919389D01*
X12662196Y-14919389D02*
X12643148Y-14909865D01*
X12643148Y-14909865D02*
X12633625Y-14890817D01*
X12633625Y-14890817D02*
X12633625Y-14814627D01*
X12633625Y-14814627D02*
X12643148Y-14795579D01*
X12643148Y-14795579D02*
X12662196Y-14786055D01*
X12662196Y-14786055D02*
X12700291Y-14786055D01*
X12700291Y-14786055D02*
X12719339Y-14795579D01*
X12719339Y-14795579D02*
X12728863Y-14814627D01*
X12728863Y-14814627D02*
X12728863Y-14833674D01*
X12728863Y-14833674D02*
X12633625Y-14852722D01*
X12805053Y-14909865D02*
X12824101Y-14919389D01*
X12824101Y-14919389D02*
X12862196Y-14919389D01*
X12862196Y-14919389D02*
X12881244Y-14909865D01*
X12881244Y-14909865D02*
X12890767Y-14890817D01*
X12890767Y-14890817D02*
X12890767Y-14881293D01*
X12890767Y-14881293D02*
X12881244Y-14862246D01*
X12881244Y-14862246D02*
X12862196Y-14852722D01*
X12862196Y-14852722D02*
X12833625Y-14852722D01*
X12833625Y-14852722D02*
X12814577Y-14843198D01*
X12814577Y-14843198D02*
X12805053Y-14824151D01*
X12805053Y-14824151D02*
X12805053Y-14814627D01*
X12805053Y-14814627D02*
X12814577Y-14795579D01*
X12814577Y-14795579D02*
X12833625Y-14786055D01*
X12833625Y-14786055D02*
X12862196Y-14786055D01*
X12862196Y-14786055D02*
X12881244Y-14795579D01*
X12957434Y-14995579D02*
X12966958Y-14986055D01*
X12966958Y-14986055D02*
X12986006Y-14957484D01*
X12986006Y-14957484D02*
X12995529Y-14938436D01*
X12995529Y-14938436D02*
X13005053Y-14909865D01*
X13005053Y-14909865D02*
X13014577Y-14862246D01*
X13014577Y-14862246D02*
X13014577Y-14824151D01*
X13014577Y-14824151D02*
X13005053Y-14776532D01*
X13005053Y-14776532D02*
X12995529Y-14747960D01*
X12995529Y-14747960D02*
X12986006Y-14728913D01*
X12986006Y-14728913D02*
X12966958Y-14700341D01*
X12966958Y-14700341D02*
X12957434Y-14690817D01*
D13*
X7881895Y-15036905D02*
X7991895Y-15146905D01*
X7991895Y-15036905D02*
X7881895Y-15146905D01*
X7991895Y-15091905D02*
G75*
G02*
X7881895Y-15091905I-55000J0D01*
G01*
X7881895Y-15091905D02*
G75*
G02*
X7991895Y-15091905I55000J0D01*
G01*
D11*
X8357434Y-15183389D02*
X8243148Y-15183389D01*
X8300291Y-15183389D02*
X8300291Y-14983389D01*
X8300291Y-14983389D02*
X8281243Y-15011960D01*
X8281243Y-15011960D02*
X8262196Y-15031008D01*
X8262196Y-15031008D02*
X8243148Y-15040532D01*
X8443148Y-15164341D02*
X8452672Y-15173865D01*
X8452672Y-15173865D02*
X8443148Y-15183389D01*
X8443148Y-15183389D02*
X8433624Y-15173865D01*
X8433624Y-15173865D02*
X8443148Y-15164341D01*
X8443148Y-15164341D02*
X8443148Y-15183389D01*
X8643148Y-15183389D02*
X8528862Y-15183389D01*
X8586005Y-15183389D02*
X8586005Y-14983389D01*
X8586005Y-14983389D02*
X8566958Y-15011960D01*
X8566958Y-15011960D02*
X8547910Y-15031008D01*
X8547910Y-15031008D02*
X8528862Y-15040532D01*
X8766958Y-14983389D02*
X8786005Y-14983389D01*
X8786005Y-14983389D02*
X8805053Y-14992913D01*
X8805053Y-14992913D02*
X8814577Y-15002436D01*
X8814577Y-15002436D02*
X8824100Y-15021484D01*
X8824100Y-15021484D02*
X8833624Y-15059579D01*
X8833624Y-15059579D02*
X8833624Y-15107198D01*
X8833624Y-15107198D02*
X8824100Y-15145293D01*
X8824100Y-15145293D02*
X8814577Y-15164341D01*
X8814577Y-15164341D02*
X8805053Y-15173865D01*
X8805053Y-15173865D02*
X8786005Y-15183389D01*
X8786005Y-15183389D02*
X8766958Y-15183389D01*
X8766958Y-15183389D02*
X8747910Y-15173865D01*
X8747910Y-15173865D02*
X8738386Y-15164341D01*
X8738386Y-15164341D02*
X8728862Y-15145293D01*
X8728862Y-15145293D02*
X8719339Y-15107198D01*
X8719339Y-15107198D02*
X8719339Y-15059579D01*
X8719339Y-15059579D02*
X8728862Y-15021484D01*
X8728862Y-15021484D02*
X8738386Y-15002436D01*
X8738386Y-15002436D02*
X8747910Y-14992913D01*
X8747910Y-14992913D02*
X8766958Y-14983389D01*
X8957434Y-14983389D02*
X8976481Y-14983389D01*
X8976481Y-14983389D02*
X8995529Y-14992913D01*
X8995529Y-14992913D02*
X9005053Y-15002436D01*
X9005053Y-15002436D02*
X9014577Y-15021484D01*
X9014577Y-15021484D02*
X9024100Y-15059579D01*
X9024100Y-15059579D02*
X9024100Y-15107198D01*
X9024100Y-15107198D02*
X9014577Y-15145293D01*
X9014577Y-15145293D02*
X9005053Y-15164341D01*
X9005053Y-15164341D02*
X8995529Y-15173865D01*
X8995529Y-15173865D02*
X8976481Y-15183389D01*
X8976481Y-15183389D02*
X8957434Y-15183389D01*
X8957434Y-15183389D02*
X8938386Y-15173865D01*
X8938386Y-15173865D02*
X8928862Y-15164341D01*
X8928862Y-15164341D02*
X8919339Y-15145293D01*
X8919339Y-15145293D02*
X8909815Y-15107198D01*
X8909815Y-15107198D02*
X8909815Y-15059579D01*
X8909815Y-15059579D02*
X8919339Y-15021484D01*
X8919339Y-15021484D02*
X8928862Y-15002436D01*
X8928862Y-15002436D02*
X8938386Y-14992913D01*
X8938386Y-14992913D02*
X8957434Y-14983389D01*
X9109815Y-15183389D02*
X9109815Y-15050055D01*
X9109815Y-15069103D02*
X9119339Y-15059579D01*
X9119339Y-15059579D02*
X9138386Y-15050055D01*
X9138386Y-15050055D02*
X9166958Y-15050055D01*
X9166958Y-15050055D02*
X9186005Y-15059579D01*
X9186005Y-15059579D02*
X9195529Y-15078627D01*
X9195529Y-15078627D02*
X9195529Y-15183389D01*
X9195529Y-15078627D02*
X9205053Y-15059579D01*
X9205053Y-15059579D02*
X9224100Y-15050055D01*
X9224100Y-15050055D02*
X9252672Y-15050055D01*
X9252672Y-15050055D02*
X9271720Y-15059579D01*
X9271720Y-15059579D02*
X9281243Y-15078627D01*
X9281243Y-15078627D02*
X9281243Y-15183389D01*
X9376481Y-15183389D02*
X9376481Y-15050055D01*
X9376481Y-15069103D02*
X9386005Y-15059579D01*
X9386005Y-15059579D02*
X9405053Y-15050055D01*
X9405053Y-15050055D02*
X9433624Y-15050055D01*
X9433624Y-15050055D02*
X9452672Y-15059579D01*
X9452672Y-15059579D02*
X9462196Y-15078627D01*
X9462196Y-15078627D02*
X9462196Y-15183389D01*
X9462196Y-15078627D02*
X9471720Y-15059579D01*
X9471720Y-15059579D02*
X9490767Y-15050055D01*
X9490767Y-15050055D02*
X9519339Y-15050055D01*
X9519339Y-15050055D02*
X9538386Y-15059579D01*
X9538386Y-15059579D02*
X9547910Y-15078627D01*
X9547910Y-15078627D02*
X9547910Y-15183389D01*
X9938386Y-14973865D02*
X9766958Y-15231008D01*
X10195529Y-14983389D02*
X10214577Y-14983389D01*
X10214577Y-14983389D02*
X10233624Y-14992913D01*
X10233624Y-14992913D02*
X10243148Y-15002436D01*
X10243148Y-15002436D02*
X10252672Y-15021484D01*
X10252672Y-15021484D02*
X10262196Y-15059579D01*
X10262196Y-15059579D02*
X10262196Y-15107198D01*
X10262196Y-15107198D02*
X10252672Y-15145293D01*
X10252672Y-15145293D02*
X10243148Y-15164341D01*
X10243148Y-15164341D02*
X10233624Y-15173865D01*
X10233624Y-15173865D02*
X10214577Y-15183389D01*
X10214577Y-15183389D02*
X10195529Y-15183389D01*
X10195529Y-15183389D02*
X10176482Y-15173865D01*
X10176482Y-15173865D02*
X10166958Y-15164341D01*
X10166958Y-15164341D02*
X10157434Y-15145293D01*
X10157434Y-15145293D02*
X10147910Y-15107198D01*
X10147910Y-15107198D02*
X10147910Y-15059579D01*
X10147910Y-15059579D02*
X10157434Y-15021484D01*
X10157434Y-15021484D02*
X10166958Y-15002436D01*
X10166958Y-15002436D02*
X10176482Y-14992913D01*
X10176482Y-14992913D02*
X10195529Y-14983389D01*
X10347910Y-15164341D02*
X10357434Y-15173865D01*
X10357434Y-15173865D02*
X10347910Y-15183389D01*
X10347910Y-15183389D02*
X10338386Y-15173865D01*
X10338386Y-15173865D02*
X10347910Y-15164341D01*
X10347910Y-15164341D02*
X10347910Y-15183389D01*
X10481243Y-14983389D02*
X10500291Y-14983389D01*
X10500291Y-14983389D02*
X10519339Y-14992913D01*
X10519339Y-14992913D02*
X10528863Y-15002436D01*
X10528863Y-15002436D02*
X10538386Y-15021484D01*
X10538386Y-15021484D02*
X10547910Y-15059579D01*
X10547910Y-15059579D02*
X10547910Y-15107198D01*
X10547910Y-15107198D02*
X10538386Y-15145293D01*
X10538386Y-15145293D02*
X10528863Y-15164341D01*
X10528863Y-15164341D02*
X10519339Y-15173865D01*
X10519339Y-15173865D02*
X10500291Y-15183389D01*
X10500291Y-15183389D02*
X10481243Y-15183389D01*
X10481243Y-15183389D02*
X10462196Y-15173865D01*
X10462196Y-15173865D02*
X10452672Y-15164341D01*
X10452672Y-15164341D02*
X10443148Y-15145293D01*
X10443148Y-15145293D02*
X10433624Y-15107198D01*
X10433624Y-15107198D02*
X10433624Y-15059579D01*
X10433624Y-15059579D02*
X10443148Y-15021484D01*
X10443148Y-15021484D02*
X10452672Y-15002436D01*
X10452672Y-15002436D02*
X10462196Y-14992913D01*
X10462196Y-14992913D02*
X10481243Y-14983389D01*
X10719339Y-15050055D02*
X10719339Y-15183389D01*
X10671720Y-14973865D02*
X10624101Y-15116722D01*
X10624101Y-15116722D02*
X10747910Y-15116722D01*
X10805053Y-14983389D02*
X10928863Y-14983389D01*
X10928863Y-14983389D02*
X10862196Y-15059579D01*
X10862196Y-15059579D02*
X10890767Y-15059579D01*
X10890767Y-15059579D02*
X10909815Y-15069103D01*
X10909815Y-15069103D02*
X10919339Y-15078627D01*
X10919339Y-15078627D02*
X10928863Y-15097674D01*
X10928863Y-15097674D02*
X10928863Y-15145293D01*
X10928863Y-15145293D02*
X10919339Y-15164341D01*
X10919339Y-15164341D02*
X10909815Y-15173865D01*
X10909815Y-15173865D02*
X10890767Y-15183389D01*
X10890767Y-15183389D02*
X10833624Y-15183389D01*
X10833624Y-15183389D02*
X10814577Y-15173865D01*
X10814577Y-15173865D02*
X10805053Y-15164341D01*
X10995529Y-14983389D02*
X11119339Y-14983389D01*
X11119339Y-14983389D02*
X11052672Y-15059579D01*
X11052672Y-15059579D02*
X11081244Y-15059579D01*
X11081244Y-15059579D02*
X11100291Y-15069103D01*
X11100291Y-15069103D02*
X11109815Y-15078627D01*
X11109815Y-15078627D02*
X11119339Y-15097674D01*
X11119339Y-15097674D02*
X11119339Y-15145293D01*
X11119339Y-15145293D02*
X11109815Y-15164341D01*
X11109815Y-15164341D02*
X11100291Y-15173865D01*
X11100291Y-15173865D02*
X11081244Y-15183389D01*
X11081244Y-15183389D02*
X11024101Y-15183389D01*
X11024101Y-15183389D02*
X11005053Y-15173865D01*
X11005053Y-15173865D02*
X10995529Y-15164341D01*
X11195529Y-14983389D02*
X11195529Y-15021484D01*
X11271720Y-14983389D02*
X11271720Y-15021484D01*
X11566958Y-15259579D02*
X11557434Y-15250055D01*
X11557434Y-15250055D02*
X11538386Y-15221484D01*
X11538386Y-15221484D02*
X11528863Y-15202436D01*
X11528863Y-15202436D02*
X11519339Y-15173865D01*
X11519339Y-15173865D02*
X11509815Y-15126246D01*
X11509815Y-15126246D02*
X11509815Y-15088151D01*
X11509815Y-15088151D02*
X11519339Y-15040532D01*
X11519339Y-15040532D02*
X11528863Y-15011960D01*
X11528863Y-15011960D02*
X11538386Y-14992913D01*
X11538386Y-14992913D02*
X11557434Y-14964341D01*
X11557434Y-14964341D02*
X11566958Y-14954817D01*
X11671720Y-15069103D02*
X11652672Y-15059579D01*
X11652672Y-15059579D02*
X11643148Y-15050055D01*
X11643148Y-15050055D02*
X11633624Y-15031008D01*
X11633624Y-15031008D02*
X11633624Y-15021484D01*
X11633624Y-15021484D02*
X11643148Y-15002436D01*
X11643148Y-15002436D02*
X11652672Y-14992913D01*
X11652672Y-14992913D02*
X11671720Y-14983389D01*
X11671720Y-14983389D02*
X11709815Y-14983389D01*
X11709815Y-14983389D02*
X11728863Y-14992913D01*
X11728863Y-14992913D02*
X11738386Y-15002436D01*
X11738386Y-15002436D02*
X11747910Y-15021484D01*
X11747910Y-15021484D02*
X11747910Y-15031008D01*
X11747910Y-15031008D02*
X11738386Y-15050055D01*
X11738386Y-15050055D02*
X11728863Y-15059579D01*
X11728863Y-15059579D02*
X11709815Y-15069103D01*
X11709815Y-15069103D02*
X11671720Y-15069103D01*
X11671720Y-15069103D02*
X11652672Y-15078627D01*
X11652672Y-15078627D02*
X11643148Y-15088151D01*
X11643148Y-15088151D02*
X11633624Y-15107198D01*
X11633624Y-15107198D02*
X11633624Y-15145293D01*
X11633624Y-15145293D02*
X11643148Y-15164341D01*
X11643148Y-15164341D02*
X11652672Y-15173865D01*
X11652672Y-15173865D02*
X11671720Y-15183389D01*
X11671720Y-15183389D02*
X11709815Y-15183389D01*
X11709815Y-15183389D02*
X11728863Y-15173865D01*
X11728863Y-15173865D02*
X11738386Y-15164341D01*
X11738386Y-15164341D02*
X11747910Y-15145293D01*
X11747910Y-15145293D02*
X11747910Y-15107198D01*
X11747910Y-15107198D02*
X11738386Y-15088151D01*
X11738386Y-15088151D02*
X11728863Y-15078627D01*
X11728863Y-15078627D02*
X11709815Y-15069103D01*
X11986005Y-15183389D02*
X11986005Y-14983389D01*
X12071720Y-15183389D02*
X12071720Y-15078627D01*
X12071720Y-15078627D02*
X12062196Y-15059579D01*
X12062196Y-15059579D02*
X12043148Y-15050055D01*
X12043148Y-15050055D02*
X12014577Y-15050055D01*
X12014577Y-15050055D02*
X11995529Y-15059579D01*
X11995529Y-15059579D02*
X11986005Y-15069103D01*
X12195529Y-15183389D02*
X12176482Y-15173865D01*
X12176482Y-15173865D02*
X12166958Y-15164341D01*
X12166958Y-15164341D02*
X12157434Y-15145293D01*
X12157434Y-15145293D02*
X12157434Y-15088151D01*
X12157434Y-15088151D02*
X12166958Y-15069103D01*
X12166958Y-15069103D02*
X12176482Y-15059579D01*
X12176482Y-15059579D02*
X12195529Y-15050055D01*
X12195529Y-15050055D02*
X12224101Y-15050055D01*
X12224101Y-15050055D02*
X12243148Y-15059579D01*
X12243148Y-15059579D02*
X12252672Y-15069103D01*
X12252672Y-15069103D02*
X12262196Y-15088151D01*
X12262196Y-15088151D02*
X12262196Y-15145293D01*
X12262196Y-15145293D02*
X12252672Y-15164341D01*
X12252672Y-15164341D02*
X12243148Y-15173865D01*
X12243148Y-15173865D02*
X12224101Y-15183389D01*
X12224101Y-15183389D02*
X12195529Y-15183389D01*
X12376482Y-15183389D02*
X12357434Y-15173865D01*
X12357434Y-15173865D02*
X12347910Y-15154817D01*
X12347910Y-15154817D02*
X12347910Y-14983389D01*
X12528863Y-15173865D02*
X12509815Y-15183389D01*
X12509815Y-15183389D02*
X12471720Y-15183389D01*
X12471720Y-15183389D02*
X12452672Y-15173865D01*
X12452672Y-15173865D02*
X12443148Y-15154817D01*
X12443148Y-15154817D02*
X12443148Y-15078627D01*
X12443148Y-15078627D02*
X12452672Y-15059579D01*
X12452672Y-15059579D02*
X12471720Y-15050055D01*
X12471720Y-15050055D02*
X12509815Y-15050055D01*
X12509815Y-15050055D02*
X12528863Y-15059579D01*
X12528863Y-15059579D02*
X12538386Y-15078627D01*
X12538386Y-15078627D02*
X12538386Y-15097674D01*
X12538386Y-15097674D02*
X12443148Y-15116722D01*
X12614577Y-15173865D02*
X12633625Y-15183389D01*
X12633625Y-15183389D02*
X12671720Y-15183389D01*
X12671720Y-15183389D02*
X12690767Y-15173865D01*
X12690767Y-15173865D02*
X12700291Y-15154817D01*
X12700291Y-15154817D02*
X12700291Y-15145293D01*
X12700291Y-15145293D02*
X12690767Y-15126246D01*
X12690767Y-15126246D02*
X12671720Y-15116722D01*
X12671720Y-15116722D02*
X12643148Y-15116722D01*
X12643148Y-15116722D02*
X12624101Y-15107198D01*
X12624101Y-15107198D02*
X12614577Y-15088151D01*
X12614577Y-15088151D02*
X12614577Y-15078627D01*
X12614577Y-15078627D02*
X12624101Y-15059579D01*
X12624101Y-15059579D02*
X12643148Y-15050055D01*
X12643148Y-15050055D02*
X12671720Y-15050055D01*
X12671720Y-15050055D02*
X12690767Y-15059579D01*
X12766958Y-15259579D02*
X12776482Y-15250055D01*
X12776482Y-15250055D02*
X12795529Y-15221484D01*
X12795529Y-15221484D02*
X12805053Y-15202436D01*
X12805053Y-15202436D02*
X12814577Y-15173865D01*
X12814577Y-15173865D02*
X12824101Y-15126246D01*
X12824101Y-15126246D02*
X12824101Y-15088151D01*
X12824101Y-15088151D02*
X12814577Y-15040532D01*
X12814577Y-15040532D02*
X12805053Y-15011960D01*
X12805053Y-15011960D02*
X12795529Y-14992913D01*
X12795529Y-14992913D02*
X12776482Y-14964341D01*
X12776482Y-14964341D02*
X12766958Y-14954817D01*
D14*
X7861895Y-15290905D02*
X7991895Y-15420905D01*
X7991895Y-15290905D02*
X7861895Y-15420905D01*
X7926895Y-15290905D02*
X7926895Y-15420905D01*
X7861895Y-15355905D02*
X7991895Y-15355905D01*
D11*
X8357434Y-15447389D02*
X8243148Y-15447389D01*
X8300291Y-15447389D02*
X8300291Y-15247389D01*
X8300291Y-15247389D02*
X8281243Y-15275960D01*
X8281243Y-15275960D02*
X8262196Y-15295008D01*
X8262196Y-15295008D02*
X8243148Y-15304532D01*
X8443148Y-15428341D02*
X8452672Y-15437865D01*
X8452672Y-15437865D02*
X8443148Y-15447389D01*
X8443148Y-15447389D02*
X8433624Y-15437865D01*
X8433624Y-15437865D02*
X8443148Y-15428341D01*
X8443148Y-15428341D02*
X8443148Y-15447389D01*
X8519339Y-15247389D02*
X8643148Y-15247389D01*
X8643148Y-15247389D02*
X8576481Y-15323579D01*
X8576481Y-15323579D02*
X8605053Y-15323579D01*
X8605053Y-15323579D02*
X8624100Y-15333103D01*
X8624100Y-15333103D02*
X8633624Y-15342627D01*
X8633624Y-15342627D02*
X8643148Y-15361674D01*
X8643148Y-15361674D02*
X8643148Y-15409293D01*
X8643148Y-15409293D02*
X8633624Y-15428341D01*
X8633624Y-15428341D02*
X8624100Y-15437865D01*
X8624100Y-15437865D02*
X8605053Y-15447389D01*
X8605053Y-15447389D02*
X8547910Y-15447389D01*
X8547910Y-15447389D02*
X8528862Y-15437865D01*
X8528862Y-15437865D02*
X8519339Y-15428341D01*
X8766958Y-15247389D02*
X8786005Y-15247389D01*
X8786005Y-15247389D02*
X8805053Y-15256913D01*
X8805053Y-15256913D02*
X8814577Y-15266436D01*
X8814577Y-15266436D02*
X8824100Y-15285484D01*
X8824100Y-15285484D02*
X8833624Y-15323579D01*
X8833624Y-15323579D02*
X8833624Y-15371198D01*
X8833624Y-15371198D02*
X8824100Y-15409293D01*
X8824100Y-15409293D02*
X8814577Y-15428341D01*
X8814577Y-15428341D02*
X8805053Y-15437865D01*
X8805053Y-15437865D02*
X8786005Y-15447389D01*
X8786005Y-15447389D02*
X8766958Y-15447389D01*
X8766958Y-15447389D02*
X8747910Y-15437865D01*
X8747910Y-15437865D02*
X8738386Y-15428341D01*
X8738386Y-15428341D02*
X8728862Y-15409293D01*
X8728862Y-15409293D02*
X8719339Y-15371198D01*
X8719339Y-15371198D02*
X8719339Y-15323579D01*
X8719339Y-15323579D02*
X8728862Y-15285484D01*
X8728862Y-15285484D02*
X8738386Y-15266436D01*
X8738386Y-15266436D02*
X8747910Y-15256913D01*
X8747910Y-15256913D02*
X8766958Y-15247389D01*
X8957434Y-15247389D02*
X8976481Y-15247389D01*
X8976481Y-15247389D02*
X8995529Y-15256913D01*
X8995529Y-15256913D02*
X9005053Y-15266436D01*
X9005053Y-15266436D02*
X9014577Y-15285484D01*
X9014577Y-15285484D02*
X9024100Y-15323579D01*
X9024100Y-15323579D02*
X9024100Y-15371198D01*
X9024100Y-15371198D02*
X9014577Y-15409293D01*
X9014577Y-15409293D02*
X9005053Y-15428341D01*
X9005053Y-15428341D02*
X8995529Y-15437865D01*
X8995529Y-15437865D02*
X8976481Y-15447389D01*
X8976481Y-15447389D02*
X8957434Y-15447389D01*
X8957434Y-15447389D02*
X8938386Y-15437865D01*
X8938386Y-15437865D02*
X8928862Y-15428341D01*
X8928862Y-15428341D02*
X8919339Y-15409293D01*
X8919339Y-15409293D02*
X8909815Y-15371198D01*
X8909815Y-15371198D02*
X8909815Y-15323579D01*
X8909815Y-15323579D02*
X8919339Y-15285484D01*
X8919339Y-15285484D02*
X8928862Y-15266436D01*
X8928862Y-15266436D02*
X8938386Y-15256913D01*
X8938386Y-15256913D02*
X8957434Y-15247389D01*
X9109815Y-15447389D02*
X9109815Y-15314055D01*
X9109815Y-15333103D02*
X9119339Y-15323579D01*
X9119339Y-15323579D02*
X9138386Y-15314055D01*
X9138386Y-15314055D02*
X9166958Y-15314055D01*
X9166958Y-15314055D02*
X9186005Y-15323579D01*
X9186005Y-15323579D02*
X9195529Y-15342627D01*
X9195529Y-15342627D02*
X9195529Y-15447389D01*
X9195529Y-15342627D02*
X9205053Y-15323579D01*
X9205053Y-15323579D02*
X9224100Y-15314055D01*
X9224100Y-15314055D02*
X9252672Y-15314055D01*
X9252672Y-15314055D02*
X9271720Y-15323579D01*
X9271720Y-15323579D02*
X9281243Y-15342627D01*
X9281243Y-15342627D02*
X9281243Y-15447389D01*
X9376481Y-15447389D02*
X9376481Y-15314055D01*
X9376481Y-15333103D02*
X9386005Y-15323579D01*
X9386005Y-15323579D02*
X9405053Y-15314055D01*
X9405053Y-15314055D02*
X9433624Y-15314055D01*
X9433624Y-15314055D02*
X9452672Y-15323579D01*
X9452672Y-15323579D02*
X9462196Y-15342627D01*
X9462196Y-15342627D02*
X9462196Y-15447389D01*
X9462196Y-15342627D02*
X9471720Y-15323579D01*
X9471720Y-15323579D02*
X9490767Y-15314055D01*
X9490767Y-15314055D02*
X9519339Y-15314055D01*
X9519339Y-15314055D02*
X9538386Y-15323579D01*
X9538386Y-15323579D02*
X9547910Y-15342627D01*
X9547910Y-15342627D02*
X9547910Y-15447389D01*
X9938386Y-15237865D02*
X9766958Y-15495008D01*
X10195529Y-15247389D02*
X10214577Y-15247389D01*
X10214577Y-15247389D02*
X10233624Y-15256913D01*
X10233624Y-15256913D02*
X10243148Y-15266436D01*
X10243148Y-15266436D02*
X10252672Y-15285484D01*
X10252672Y-15285484D02*
X10262196Y-15323579D01*
X10262196Y-15323579D02*
X10262196Y-15371198D01*
X10262196Y-15371198D02*
X10252672Y-15409293D01*
X10252672Y-15409293D02*
X10243148Y-15428341D01*
X10243148Y-15428341D02*
X10233624Y-15437865D01*
X10233624Y-15437865D02*
X10214577Y-15447389D01*
X10214577Y-15447389D02*
X10195529Y-15447389D01*
X10195529Y-15447389D02*
X10176482Y-15437865D01*
X10176482Y-15437865D02*
X10166958Y-15428341D01*
X10166958Y-15428341D02*
X10157434Y-15409293D01*
X10157434Y-15409293D02*
X10147910Y-15371198D01*
X10147910Y-15371198D02*
X10147910Y-15323579D01*
X10147910Y-15323579D02*
X10157434Y-15285484D01*
X10157434Y-15285484D02*
X10166958Y-15266436D01*
X10166958Y-15266436D02*
X10176482Y-15256913D01*
X10176482Y-15256913D02*
X10195529Y-15247389D01*
X10347910Y-15428341D02*
X10357434Y-15437865D01*
X10357434Y-15437865D02*
X10347910Y-15447389D01*
X10347910Y-15447389D02*
X10338386Y-15437865D01*
X10338386Y-15437865D02*
X10347910Y-15428341D01*
X10347910Y-15428341D02*
X10347910Y-15447389D01*
X10481243Y-15247389D02*
X10500291Y-15247389D01*
X10500291Y-15247389D02*
X10519339Y-15256913D01*
X10519339Y-15256913D02*
X10528863Y-15266436D01*
X10528863Y-15266436D02*
X10538386Y-15285484D01*
X10538386Y-15285484D02*
X10547910Y-15323579D01*
X10547910Y-15323579D02*
X10547910Y-15371198D01*
X10547910Y-15371198D02*
X10538386Y-15409293D01*
X10538386Y-15409293D02*
X10528863Y-15428341D01*
X10528863Y-15428341D02*
X10519339Y-15437865D01*
X10519339Y-15437865D02*
X10500291Y-15447389D01*
X10500291Y-15447389D02*
X10481243Y-15447389D01*
X10481243Y-15447389D02*
X10462196Y-15437865D01*
X10462196Y-15437865D02*
X10452672Y-15428341D01*
X10452672Y-15428341D02*
X10443148Y-15409293D01*
X10443148Y-15409293D02*
X10433624Y-15371198D01*
X10433624Y-15371198D02*
X10433624Y-15323579D01*
X10433624Y-15323579D02*
X10443148Y-15285484D01*
X10443148Y-15285484D02*
X10452672Y-15266436D01*
X10452672Y-15266436D02*
X10462196Y-15256913D01*
X10462196Y-15256913D02*
X10481243Y-15247389D01*
X10728863Y-15247389D02*
X10633624Y-15247389D01*
X10633624Y-15247389D02*
X10624101Y-15342627D01*
X10624101Y-15342627D02*
X10633624Y-15333103D01*
X10633624Y-15333103D02*
X10652672Y-15323579D01*
X10652672Y-15323579D02*
X10700291Y-15323579D01*
X10700291Y-15323579D02*
X10719339Y-15333103D01*
X10719339Y-15333103D02*
X10728863Y-15342627D01*
X10728863Y-15342627D02*
X10738386Y-15361674D01*
X10738386Y-15361674D02*
X10738386Y-15409293D01*
X10738386Y-15409293D02*
X10728863Y-15428341D01*
X10728863Y-15428341D02*
X10719339Y-15437865D01*
X10719339Y-15437865D02*
X10700291Y-15447389D01*
X10700291Y-15447389D02*
X10652672Y-15447389D01*
X10652672Y-15447389D02*
X10633624Y-15437865D01*
X10633624Y-15437865D02*
X10624101Y-15428341D01*
X10928863Y-15447389D02*
X10814577Y-15447389D01*
X10871720Y-15447389D02*
X10871720Y-15247389D01*
X10871720Y-15247389D02*
X10852672Y-15275960D01*
X10852672Y-15275960D02*
X10833624Y-15295008D01*
X10833624Y-15295008D02*
X10814577Y-15304532D01*
X11005053Y-15266436D02*
X11014577Y-15256913D01*
X11014577Y-15256913D02*
X11033624Y-15247389D01*
X11033624Y-15247389D02*
X11081244Y-15247389D01*
X11081244Y-15247389D02*
X11100291Y-15256913D01*
X11100291Y-15256913D02*
X11109815Y-15266436D01*
X11109815Y-15266436D02*
X11119339Y-15285484D01*
X11119339Y-15285484D02*
X11119339Y-15304532D01*
X11119339Y-15304532D02*
X11109815Y-15333103D01*
X11109815Y-15333103D02*
X10995529Y-15447389D01*
X10995529Y-15447389D02*
X11119339Y-15447389D01*
X11195529Y-15247389D02*
X11195529Y-15285484D01*
X11271720Y-15247389D02*
X11271720Y-15285484D01*
X11566958Y-15523579D02*
X11557434Y-15514055D01*
X11557434Y-15514055D02*
X11538386Y-15485484D01*
X11538386Y-15485484D02*
X11528863Y-15466436D01*
X11528863Y-15466436D02*
X11519339Y-15437865D01*
X11519339Y-15437865D02*
X11509815Y-15390246D01*
X11509815Y-15390246D02*
X11509815Y-15352151D01*
X11509815Y-15352151D02*
X11519339Y-15304532D01*
X11519339Y-15304532D02*
X11528863Y-15275960D01*
X11528863Y-15275960D02*
X11538386Y-15256913D01*
X11538386Y-15256913D02*
X11557434Y-15228341D01*
X11557434Y-15228341D02*
X11566958Y-15218817D01*
X11747910Y-15447389D02*
X11633624Y-15447389D01*
X11690767Y-15447389D02*
X11690767Y-15247389D01*
X11690767Y-15247389D02*
X11671720Y-15275960D01*
X11671720Y-15275960D02*
X11652672Y-15295008D01*
X11652672Y-15295008D02*
X11633624Y-15304532D01*
X11919339Y-15247389D02*
X11881243Y-15247389D01*
X11881243Y-15247389D02*
X11862196Y-15256913D01*
X11862196Y-15256913D02*
X11852672Y-15266436D01*
X11852672Y-15266436D02*
X11833624Y-15295008D01*
X11833624Y-15295008D02*
X11824101Y-15333103D01*
X11824101Y-15333103D02*
X11824101Y-15409293D01*
X11824101Y-15409293D02*
X11833624Y-15428341D01*
X11833624Y-15428341D02*
X11843148Y-15437865D01*
X11843148Y-15437865D02*
X11862196Y-15447389D01*
X11862196Y-15447389D02*
X11900291Y-15447389D01*
X11900291Y-15447389D02*
X11919339Y-15437865D01*
X11919339Y-15437865D02*
X11928863Y-15428341D01*
X11928863Y-15428341D02*
X11938386Y-15409293D01*
X11938386Y-15409293D02*
X11938386Y-15361674D01*
X11938386Y-15361674D02*
X11928863Y-15342627D01*
X11928863Y-15342627D02*
X11919339Y-15333103D01*
X11919339Y-15333103D02*
X11900291Y-15323579D01*
X11900291Y-15323579D02*
X11862196Y-15323579D01*
X11862196Y-15323579D02*
X11843148Y-15333103D01*
X11843148Y-15333103D02*
X11833624Y-15342627D01*
X11833624Y-15342627D02*
X11824101Y-15361674D01*
X12176482Y-15447389D02*
X12176482Y-15247389D01*
X12262196Y-15447389D02*
X12262196Y-15342627D01*
X12262196Y-15342627D02*
X12252672Y-15323579D01*
X12252672Y-15323579D02*
X12233625Y-15314055D01*
X12233625Y-15314055D02*
X12205053Y-15314055D01*
X12205053Y-15314055D02*
X12186005Y-15323579D01*
X12186005Y-15323579D02*
X12176482Y-15333103D01*
X12386005Y-15447389D02*
X12366958Y-15437865D01*
X12366958Y-15437865D02*
X12357434Y-15428341D01*
X12357434Y-15428341D02*
X12347910Y-15409293D01*
X12347910Y-15409293D02*
X12347910Y-15352151D01*
X12347910Y-15352151D02*
X12357434Y-15333103D01*
X12357434Y-15333103D02*
X12366958Y-15323579D01*
X12366958Y-15323579D02*
X12386005Y-15314055D01*
X12386005Y-15314055D02*
X12414577Y-15314055D01*
X12414577Y-15314055D02*
X12433625Y-15323579D01*
X12433625Y-15323579D02*
X12443148Y-15333103D01*
X12443148Y-15333103D02*
X12452672Y-15352151D01*
X12452672Y-15352151D02*
X12452672Y-15409293D01*
X12452672Y-15409293D02*
X12443148Y-15428341D01*
X12443148Y-15428341D02*
X12433625Y-15437865D01*
X12433625Y-15437865D02*
X12414577Y-15447389D01*
X12414577Y-15447389D02*
X12386005Y-15447389D01*
X12566958Y-15447389D02*
X12547910Y-15437865D01*
X12547910Y-15437865D02*
X12538386Y-15418817D01*
X12538386Y-15418817D02*
X12538386Y-15247389D01*
X12719339Y-15437865D02*
X12700291Y-15447389D01*
X12700291Y-15447389D02*
X12662196Y-15447389D01*
X12662196Y-15447389D02*
X12643148Y-15437865D01*
X12643148Y-15437865D02*
X12633625Y-15418817D01*
X12633625Y-15418817D02*
X12633625Y-15342627D01*
X12633625Y-15342627D02*
X12643148Y-15323579D01*
X12643148Y-15323579D02*
X12662196Y-15314055D01*
X12662196Y-15314055D02*
X12700291Y-15314055D01*
X12700291Y-15314055D02*
X12719339Y-15323579D01*
X12719339Y-15323579D02*
X12728863Y-15342627D01*
X12728863Y-15342627D02*
X12728863Y-15361674D01*
X12728863Y-15361674D02*
X12633625Y-15380722D01*
X12805053Y-15437865D02*
X12824101Y-15447389D01*
X12824101Y-15447389D02*
X12862196Y-15447389D01*
X12862196Y-15447389D02*
X12881244Y-15437865D01*
X12881244Y-15437865D02*
X12890767Y-15418817D01*
X12890767Y-15418817D02*
X12890767Y-15409293D01*
X12890767Y-15409293D02*
X12881244Y-15390246D01*
X12881244Y-15390246D02*
X12862196Y-15380722D01*
X12862196Y-15380722D02*
X12833625Y-15380722D01*
X12833625Y-15380722D02*
X12814577Y-15371198D01*
X12814577Y-15371198D02*
X12805053Y-15352151D01*
X12805053Y-15352151D02*
X12805053Y-15342627D01*
X12805053Y-15342627D02*
X12814577Y-15323579D01*
X12814577Y-15323579D02*
X12833625Y-15314055D01*
X12833625Y-15314055D02*
X12862196Y-15314055D01*
X12862196Y-15314055D02*
X12881244Y-15323579D01*
X12957434Y-15523579D02*
X12966958Y-15514055D01*
X12966958Y-15514055D02*
X12986006Y-15485484D01*
X12986006Y-15485484D02*
X12995529Y-15466436D01*
X12995529Y-15466436D02*
X13005053Y-15437865D01*
X13005053Y-15437865D02*
X13014577Y-15390246D01*
X13014577Y-15390246D02*
X13014577Y-15352151D01*
X13014577Y-15352151D02*
X13005053Y-15304532D01*
X13005053Y-15304532D02*
X12995529Y-15275960D01*
X12995529Y-15275960D02*
X12986006Y-15256913D01*
X12986006Y-15256913D02*
X12966958Y-15228341D01*
X12966958Y-15228341D02*
X12957434Y-15218817D01*
D15*
X7852195Y-15550055D02*
X7991895Y-15689755D01*
X7991895Y-15550055D02*
X7852195Y-15689755D01*
X7971437Y-15669297D02*
X7971437Y-15570513D01*
X7872653Y-15570513D01*
X7872653Y-15669297D01*
X7971437Y-15669297D01*
D11*
X8357434Y-15711389D02*
X8243148Y-15711389D01*
X8300291Y-15711389D02*
X8300291Y-15511389D01*
X8300291Y-15511389D02*
X8281243Y-15539960D01*
X8281243Y-15539960D02*
X8262196Y-15559008D01*
X8262196Y-15559008D02*
X8243148Y-15568532D01*
X8443148Y-15692341D02*
X8452672Y-15701865D01*
X8452672Y-15701865D02*
X8443148Y-15711389D01*
X8443148Y-15711389D02*
X8433624Y-15701865D01*
X8433624Y-15701865D02*
X8443148Y-15692341D01*
X8443148Y-15692341D02*
X8443148Y-15711389D01*
X8519339Y-15511389D02*
X8643148Y-15511389D01*
X8643148Y-15511389D02*
X8576481Y-15587579D01*
X8576481Y-15587579D02*
X8605053Y-15587579D01*
X8605053Y-15587579D02*
X8624100Y-15597103D01*
X8624100Y-15597103D02*
X8633624Y-15606627D01*
X8633624Y-15606627D02*
X8643148Y-15625674D01*
X8643148Y-15625674D02*
X8643148Y-15673293D01*
X8643148Y-15673293D02*
X8633624Y-15692341D01*
X8633624Y-15692341D02*
X8624100Y-15701865D01*
X8624100Y-15701865D02*
X8605053Y-15711389D01*
X8605053Y-15711389D02*
X8547910Y-15711389D01*
X8547910Y-15711389D02*
X8528862Y-15701865D01*
X8528862Y-15701865D02*
X8519339Y-15692341D01*
X8738386Y-15711389D02*
X8776481Y-15711389D01*
X8776481Y-15711389D02*
X8795529Y-15701865D01*
X8795529Y-15701865D02*
X8805053Y-15692341D01*
X8805053Y-15692341D02*
X8824100Y-15663770D01*
X8824100Y-15663770D02*
X8833624Y-15625674D01*
X8833624Y-15625674D02*
X8833624Y-15549484D01*
X8833624Y-15549484D02*
X8824100Y-15530436D01*
X8824100Y-15530436D02*
X8814577Y-15520913D01*
X8814577Y-15520913D02*
X8795529Y-15511389D01*
X8795529Y-15511389D02*
X8757434Y-15511389D01*
X8757434Y-15511389D02*
X8738386Y-15520913D01*
X8738386Y-15520913D02*
X8728862Y-15530436D01*
X8728862Y-15530436D02*
X8719339Y-15549484D01*
X8719339Y-15549484D02*
X8719339Y-15597103D01*
X8719339Y-15597103D02*
X8728862Y-15616151D01*
X8728862Y-15616151D02*
X8738386Y-15625674D01*
X8738386Y-15625674D02*
X8757434Y-15635198D01*
X8757434Y-15635198D02*
X8795529Y-15635198D01*
X8795529Y-15635198D02*
X8814577Y-15625674D01*
X8814577Y-15625674D02*
X8824100Y-15616151D01*
X8824100Y-15616151D02*
X8833624Y-15597103D01*
X8900291Y-15511389D02*
X9033624Y-15511389D01*
X9033624Y-15511389D02*
X8947910Y-15711389D01*
X9109815Y-15711389D02*
X9109815Y-15578055D01*
X9109815Y-15597103D02*
X9119339Y-15587579D01*
X9119339Y-15587579D02*
X9138386Y-15578055D01*
X9138386Y-15578055D02*
X9166958Y-15578055D01*
X9166958Y-15578055D02*
X9186005Y-15587579D01*
X9186005Y-15587579D02*
X9195529Y-15606627D01*
X9195529Y-15606627D02*
X9195529Y-15711389D01*
X9195529Y-15606627D02*
X9205053Y-15587579D01*
X9205053Y-15587579D02*
X9224100Y-15578055D01*
X9224100Y-15578055D02*
X9252672Y-15578055D01*
X9252672Y-15578055D02*
X9271720Y-15587579D01*
X9271720Y-15587579D02*
X9281243Y-15606627D01*
X9281243Y-15606627D02*
X9281243Y-15711389D01*
X9376481Y-15711389D02*
X9376481Y-15578055D01*
X9376481Y-15597103D02*
X9386005Y-15587579D01*
X9386005Y-15587579D02*
X9405053Y-15578055D01*
X9405053Y-15578055D02*
X9433624Y-15578055D01*
X9433624Y-15578055D02*
X9452672Y-15587579D01*
X9452672Y-15587579D02*
X9462196Y-15606627D01*
X9462196Y-15606627D02*
X9462196Y-15711389D01*
X9462196Y-15606627D02*
X9471720Y-15587579D01*
X9471720Y-15587579D02*
X9490767Y-15578055D01*
X9490767Y-15578055D02*
X9519339Y-15578055D01*
X9519339Y-15578055D02*
X9538386Y-15587579D01*
X9538386Y-15587579D02*
X9547910Y-15606627D01*
X9547910Y-15606627D02*
X9547910Y-15711389D01*
X9938386Y-15501865D02*
X9766958Y-15759008D01*
X10195529Y-15511389D02*
X10214577Y-15511389D01*
X10214577Y-15511389D02*
X10233624Y-15520913D01*
X10233624Y-15520913D02*
X10243148Y-15530436D01*
X10243148Y-15530436D02*
X10252672Y-15549484D01*
X10252672Y-15549484D02*
X10262196Y-15587579D01*
X10262196Y-15587579D02*
X10262196Y-15635198D01*
X10262196Y-15635198D02*
X10252672Y-15673293D01*
X10252672Y-15673293D02*
X10243148Y-15692341D01*
X10243148Y-15692341D02*
X10233624Y-15701865D01*
X10233624Y-15701865D02*
X10214577Y-15711389D01*
X10214577Y-15711389D02*
X10195529Y-15711389D01*
X10195529Y-15711389D02*
X10176482Y-15701865D01*
X10176482Y-15701865D02*
X10166958Y-15692341D01*
X10166958Y-15692341D02*
X10157434Y-15673293D01*
X10157434Y-15673293D02*
X10147910Y-15635198D01*
X10147910Y-15635198D02*
X10147910Y-15587579D01*
X10147910Y-15587579D02*
X10157434Y-15549484D01*
X10157434Y-15549484D02*
X10166958Y-15530436D01*
X10166958Y-15530436D02*
X10176482Y-15520913D01*
X10176482Y-15520913D02*
X10195529Y-15511389D01*
X10347910Y-15692341D02*
X10357434Y-15701865D01*
X10357434Y-15701865D02*
X10347910Y-15711389D01*
X10347910Y-15711389D02*
X10338386Y-15701865D01*
X10338386Y-15701865D02*
X10347910Y-15692341D01*
X10347910Y-15692341D02*
X10347910Y-15711389D01*
X10481243Y-15511389D02*
X10500291Y-15511389D01*
X10500291Y-15511389D02*
X10519339Y-15520913D01*
X10519339Y-15520913D02*
X10528863Y-15530436D01*
X10528863Y-15530436D02*
X10538386Y-15549484D01*
X10538386Y-15549484D02*
X10547910Y-15587579D01*
X10547910Y-15587579D02*
X10547910Y-15635198D01*
X10547910Y-15635198D02*
X10538386Y-15673293D01*
X10538386Y-15673293D02*
X10528863Y-15692341D01*
X10528863Y-15692341D02*
X10519339Y-15701865D01*
X10519339Y-15701865D02*
X10500291Y-15711389D01*
X10500291Y-15711389D02*
X10481243Y-15711389D01*
X10481243Y-15711389D02*
X10462196Y-15701865D01*
X10462196Y-15701865D02*
X10452672Y-15692341D01*
X10452672Y-15692341D02*
X10443148Y-15673293D01*
X10443148Y-15673293D02*
X10433624Y-15635198D01*
X10433624Y-15635198D02*
X10433624Y-15587579D01*
X10433624Y-15587579D02*
X10443148Y-15549484D01*
X10443148Y-15549484D02*
X10452672Y-15530436D01*
X10452672Y-15530436D02*
X10462196Y-15520913D01*
X10462196Y-15520913D02*
X10481243Y-15511389D01*
X10728863Y-15511389D02*
X10633624Y-15511389D01*
X10633624Y-15511389D02*
X10624101Y-15606627D01*
X10624101Y-15606627D02*
X10633624Y-15597103D01*
X10633624Y-15597103D02*
X10652672Y-15587579D01*
X10652672Y-15587579D02*
X10700291Y-15587579D01*
X10700291Y-15587579D02*
X10719339Y-15597103D01*
X10719339Y-15597103D02*
X10728863Y-15606627D01*
X10728863Y-15606627D02*
X10738386Y-15625674D01*
X10738386Y-15625674D02*
X10738386Y-15673293D01*
X10738386Y-15673293D02*
X10728863Y-15692341D01*
X10728863Y-15692341D02*
X10719339Y-15701865D01*
X10719339Y-15701865D02*
X10700291Y-15711389D01*
X10700291Y-15711389D02*
X10652672Y-15711389D01*
X10652672Y-15711389D02*
X10633624Y-15701865D01*
X10633624Y-15701865D02*
X10624101Y-15692341D01*
X10919339Y-15511389D02*
X10824101Y-15511389D01*
X10824101Y-15511389D02*
X10814577Y-15606627D01*
X10814577Y-15606627D02*
X10824101Y-15597103D01*
X10824101Y-15597103D02*
X10843148Y-15587579D01*
X10843148Y-15587579D02*
X10890767Y-15587579D01*
X10890767Y-15587579D02*
X10909815Y-15597103D01*
X10909815Y-15597103D02*
X10919339Y-15606627D01*
X10919339Y-15606627D02*
X10928863Y-15625674D01*
X10928863Y-15625674D02*
X10928863Y-15673293D01*
X10928863Y-15673293D02*
X10919339Y-15692341D01*
X10919339Y-15692341D02*
X10909815Y-15701865D01*
X10909815Y-15701865D02*
X10890767Y-15711389D01*
X10890767Y-15711389D02*
X10843148Y-15711389D01*
X10843148Y-15711389D02*
X10824101Y-15701865D01*
X10824101Y-15701865D02*
X10814577Y-15692341D01*
X11052672Y-15511389D02*
X11071720Y-15511389D01*
X11071720Y-15511389D02*
X11090767Y-15520913D01*
X11090767Y-15520913D02*
X11100291Y-15530436D01*
X11100291Y-15530436D02*
X11109815Y-15549484D01*
X11109815Y-15549484D02*
X11119339Y-15587579D01*
X11119339Y-15587579D02*
X11119339Y-15635198D01*
X11119339Y-15635198D02*
X11109815Y-15673293D01*
X11109815Y-15673293D02*
X11100291Y-15692341D01*
X11100291Y-15692341D02*
X11090767Y-15701865D01*
X11090767Y-15701865D02*
X11071720Y-15711389D01*
X11071720Y-15711389D02*
X11052672Y-15711389D01*
X11052672Y-15711389D02*
X11033624Y-15701865D01*
X11033624Y-15701865D02*
X11024101Y-15692341D01*
X11024101Y-15692341D02*
X11014577Y-15673293D01*
X11014577Y-15673293D02*
X11005053Y-15635198D01*
X11005053Y-15635198D02*
X11005053Y-15587579D01*
X11005053Y-15587579D02*
X11014577Y-15549484D01*
X11014577Y-15549484D02*
X11024101Y-15530436D01*
X11024101Y-15530436D02*
X11033624Y-15520913D01*
X11033624Y-15520913D02*
X11052672Y-15511389D01*
X11195529Y-15511389D02*
X11195529Y-15549484D01*
X11271720Y-15511389D02*
X11271720Y-15549484D01*
X11566958Y-15787579D02*
X11557434Y-15778055D01*
X11557434Y-15778055D02*
X11538386Y-15749484D01*
X11538386Y-15749484D02*
X11528863Y-15730436D01*
X11528863Y-15730436D02*
X11519339Y-15701865D01*
X11519339Y-15701865D02*
X11509815Y-15654246D01*
X11509815Y-15654246D02*
X11509815Y-15616151D01*
X11509815Y-15616151D02*
X11519339Y-15568532D01*
X11519339Y-15568532D02*
X11528863Y-15539960D01*
X11528863Y-15539960D02*
X11538386Y-15520913D01*
X11538386Y-15520913D02*
X11557434Y-15492341D01*
X11557434Y-15492341D02*
X11566958Y-15482817D01*
X11728863Y-15578055D02*
X11728863Y-15711389D01*
X11681243Y-15501865D02*
X11633624Y-15644722D01*
X11633624Y-15644722D02*
X11757434Y-15644722D01*
X11986005Y-15711389D02*
X11986005Y-15511389D01*
X12071720Y-15711389D02*
X12071720Y-15606627D01*
X12071720Y-15606627D02*
X12062196Y-15587579D01*
X12062196Y-15587579D02*
X12043148Y-15578055D01*
X12043148Y-15578055D02*
X12014577Y-15578055D01*
X12014577Y-15578055D02*
X11995529Y-15587579D01*
X11995529Y-15587579D02*
X11986005Y-15597103D01*
X12195529Y-15711389D02*
X12176482Y-15701865D01*
X12176482Y-15701865D02*
X12166958Y-15692341D01*
X12166958Y-15692341D02*
X12157434Y-15673293D01*
X12157434Y-15673293D02*
X12157434Y-15616151D01*
X12157434Y-15616151D02*
X12166958Y-15597103D01*
X12166958Y-15597103D02*
X12176482Y-15587579D01*
X12176482Y-15587579D02*
X12195529Y-15578055D01*
X12195529Y-15578055D02*
X12224101Y-15578055D01*
X12224101Y-15578055D02*
X12243148Y-15587579D01*
X12243148Y-15587579D02*
X12252672Y-15597103D01*
X12252672Y-15597103D02*
X12262196Y-15616151D01*
X12262196Y-15616151D02*
X12262196Y-15673293D01*
X12262196Y-15673293D02*
X12252672Y-15692341D01*
X12252672Y-15692341D02*
X12243148Y-15701865D01*
X12243148Y-15701865D02*
X12224101Y-15711389D01*
X12224101Y-15711389D02*
X12195529Y-15711389D01*
X12376482Y-15711389D02*
X12357434Y-15701865D01*
X12357434Y-15701865D02*
X12347910Y-15682817D01*
X12347910Y-15682817D02*
X12347910Y-15511389D01*
X12528863Y-15701865D02*
X12509815Y-15711389D01*
X12509815Y-15711389D02*
X12471720Y-15711389D01*
X12471720Y-15711389D02*
X12452672Y-15701865D01*
X12452672Y-15701865D02*
X12443148Y-15682817D01*
X12443148Y-15682817D02*
X12443148Y-15606627D01*
X12443148Y-15606627D02*
X12452672Y-15587579D01*
X12452672Y-15587579D02*
X12471720Y-15578055D01*
X12471720Y-15578055D02*
X12509815Y-15578055D01*
X12509815Y-15578055D02*
X12528863Y-15587579D01*
X12528863Y-15587579D02*
X12538386Y-15606627D01*
X12538386Y-15606627D02*
X12538386Y-15625674D01*
X12538386Y-15625674D02*
X12443148Y-15644722D01*
X12614577Y-15701865D02*
X12633625Y-15711389D01*
X12633625Y-15711389D02*
X12671720Y-15711389D01*
X12671720Y-15711389D02*
X12690767Y-15701865D01*
X12690767Y-15701865D02*
X12700291Y-15682817D01*
X12700291Y-15682817D02*
X12700291Y-15673293D01*
X12700291Y-15673293D02*
X12690767Y-15654246D01*
X12690767Y-15654246D02*
X12671720Y-15644722D01*
X12671720Y-15644722D02*
X12643148Y-15644722D01*
X12643148Y-15644722D02*
X12624101Y-15635198D01*
X12624101Y-15635198D02*
X12614577Y-15616151D01*
X12614577Y-15616151D02*
X12614577Y-15606627D01*
X12614577Y-15606627D02*
X12624101Y-15587579D01*
X12624101Y-15587579D02*
X12643148Y-15578055D01*
X12643148Y-15578055D02*
X12671720Y-15578055D01*
X12671720Y-15578055D02*
X12690767Y-15587579D01*
X12766958Y-15787579D02*
X12776482Y-15778055D01*
X12776482Y-15778055D02*
X12795529Y-15749484D01*
X12795529Y-15749484D02*
X12805053Y-15730436D01*
X12805053Y-15730436D02*
X12814577Y-15701865D01*
X12814577Y-15701865D02*
X12824101Y-15654246D01*
X12824101Y-15654246D02*
X12824101Y-15616151D01*
X12824101Y-15616151D02*
X12814577Y-15568532D01*
X12814577Y-15568532D02*
X12805053Y-15539960D01*
X12805053Y-15539960D02*
X12795529Y-15520913D01*
X12795529Y-15520913D02*
X12776482Y-15492341D01*
X12776482Y-15492341D02*
X12766958Y-15482817D01*
M02*
