M48
; DRILL file {KiCad 8.0.8} date 2025-02-12T23:03:30-0800
; FORMAT={-:-/ absolute / metric / decimal}
; #@! TF.CreationDate,2025-02-12T23:03:30-08:00
; #@! TF.GenerationSoftware,Kicad,Pcbnew,8.0.8
; #@! TF.FileFunction,Plated,1,4,PTH
FMAT,2
METRIC
; #@! TA.AperFunction,Plated,PTH,ViaDrill
T1C0.300
; #@! TA.AperFunction,Plated,PTH,ComponentDrill
T2C0.762
; #@! TA.AperFunction,Plated,PTH,ComponentDrill
T3C0.800
; #@! TA.AperFunction,Plated,PTH,ComponentDrill
T4C0.889
; #@! TA.AperFunction,Plated,PTH,ComponentDrill
T5C0.900
; #@! TA.AperFunction,Plated,PTH,ComponentDrill
T6C1.100
; #@! TA.AperFunction,Plated,PTH,ComponentDrill
T7C1.300
; #@! TA.AperFunction,Plated,PTH,ComponentDrill
T8C1.397
%
G90
G05
T1
X118.7Y-113.3
X135.6Y-109.6
X137.4Y-96.5
X138.0Y-102.7
X143.3Y-99.449
X143.3Y-103.2
X145.4Y-99.9
X146.6Y-103.2
X148.5Y-114.9
T2
X128.905Y-85.725
X128.905Y-88.265
X128.905Y-90.805
X128.905Y-93.345
X128.905Y-95.885
X128.905Y-98.425
X128.905Y-100.965
X128.905Y-103.505
X128.905Y-106.045
X128.905Y-108.585
X128.905Y-111.125
X128.905Y-113.665
X128.905Y-116.205
X128.905Y-118.745
X128.905Y-121.285
X154.305Y-85.725
X154.305Y-88.265
X154.305Y-90.805
X154.305Y-93.345
X154.305Y-95.885
X154.305Y-98.425
X154.305Y-100.965
X154.305Y-103.505
X154.305Y-106.045
X154.305Y-108.585
X154.305Y-111.125
X154.305Y-113.665
X154.305Y-116.205
X154.305Y-118.745
X154.305Y-121.285
T3
X112.268Y-78.486
X112.268Y-86.106
X117.45Y-78.486
X117.45Y-86.106
X122.682Y-78.486
X122.682Y-86.106
X122.936Y-122.428
X122.936Y-127.428
X123.0Y-102.2
X123.0Y-107.2
X123.0Y-110.998
X123.0Y-118.618
X123.05Y-90.424
X123.05Y-98.044
X159.385Y-81.838
X159.385Y-87.042
X159.385Y-119.126
X159.385Y-124.46
X167.005Y-81.838
X167.005Y-87.042
X167.005Y-119.126
X167.005Y-124.46
X171.196Y-87.042
X171.236Y-81.788
X171.236Y-119.126
X171.276Y-124.46
X176.196Y-87.042
X176.236Y-81.788
X176.236Y-119.126
X176.276Y-124.46
T4
X85.12Y-112.027
X85.12Y-114.567
X85.12Y-117.108
X92.74Y-124.727
X95.28Y-124.727
X97.82Y-124.727
T5
X87.122Y-88.392
X89.662Y-88.392
X92.105Y-101.867
X92.105Y-106.947
X94.742Y-88.392
X97.282Y-88.392
X98.455Y-101.867
X98.455Y-106.947
X102.362Y-88.392
X104.902Y-88.392
T6
X111.85Y-102.3
X111.85Y-106.8
X111.95Y-91.2
X111.95Y-95.7
X118.35Y-102.3
X118.35Y-106.8
X118.45Y-91.2
X118.45Y-95.7
T7
X164.03Y-100.584
X164.03Y-105.584
X176.53Y-100.584
X176.53Y-105.584
X180.694Y-116.1
X180.694Y-121.1
X180.75Y-85.25
X180.75Y-90.25
X193.194Y-116.1
X193.194Y-121.1
X193.25Y-85.25
X193.25Y-90.25
X197.304Y-100.584
X197.304Y-105.584
X209.804Y-100.584
X209.804Y-105.584
T8
X87.66Y-107.9
X87.66Y-121.235
X102.9Y-107.9
X102.9Y-121.235
M30
