G04 #@! TF.GenerationSoftware,KiCad,Pcbnew,8.0.8*
G04 #@! TF.CreationDate,2025-02-12T23:04:25-08:00*
G04 #@! TF.ProjectId,gamecontroller,67616d65-636f-46e7-9472-6f6c6c65722e,rev?*
G04 #@! TF.SameCoordinates,Original*
G04 #@! TF.FileFunction,Legend,Bot*
G04 #@! TF.FilePolarity,Positive*
%FSLAX46Y46*%
G04 Gerber Fmt 4.6, Leading zero omitted, Abs format (unit mm)*
G04 Created by KiCad (PCBNEW 8.0.8) date 2025-02-12 23:04:25*
%MOMM*%
%LPD*%
G01*
G04 APERTURE LIST*
%ADD10C,0.152400*%
%ADD11C,0.200000*%
%ADD12C,0.100000*%
%ADD13C,1.600000*%
%ADD14O,1.600000X1.600000*%
%ADD15O,3.200000X1.900000*%
%ADD16C,1.982000*%
%ADD17C,2.490000*%
%ADD18R,1.800000X1.800000*%
%ADD19C,1.800000*%
%ADD20C,2.000000*%
%ADD21C,1.524000*%
G04 APERTURE END LIST*
D10*
X152315460Y-100718508D02*
X152392870Y-100679803D01*
X152392870Y-100679803D02*
X152508984Y-100679803D01*
X152508984Y-100679803D02*
X152625098Y-100718508D01*
X152625098Y-100718508D02*
X152702508Y-100795918D01*
X152702508Y-100795918D02*
X152741213Y-100873327D01*
X152741213Y-100873327D02*
X152779917Y-101028146D01*
X152779917Y-101028146D02*
X152779917Y-101144260D01*
X152779917Y-101144260D02*
X152741213Y-101299079D01*
X152741213Y-101299079D02*
X152702508Y-101376489D01*
X152702508Y-101376489D02*
X152625098Y-101453899D01*
X152625098Y-101453899D02*
X152508984Y-101492603D01*
X152508984Y-101492603D02*
X152431575Y-101492603D01*
X152431575Y-101492603D02*
X152315460Y-101453899D01*
X152315460Y-101453899D02*
X152276756Y-101415194D01*
X152276756Y-101415194D02*
X152276756Y-101144260D01*
X152276756Y-101144260D02*
X152431575Y-101144260D01*
X151928413Y-101492603D02*
X151928413Y-100679803D01*
X151928413Y-100679803D02*
X151618775Y-100679803D01*
X151618775Y-100679803D02*
X151541365Y-100718508D01*
X151541365Y-100718508D02*
X151502660Y-100757213D01*
X151502660Y-100757213D02*
X151463956Y-100834622D01*
X151463956Y-100834622D02*
X151463956Y-100950737D01*
X151463956Y-100950737D02*
X151502660Y-101028146D01*
X151502660Y-101028146D02*
X151541365Y-101066851D01*
X151541365Y-101066851D02*
X151618775Y-101105556D01*
X151618775Y-101105556D02*
X151928413Y-101105556D01*
X151115613Y-101492603D02*
X151115613Y-100679803D01*
X150573746Y-100679803D02*
X150418927Y-100679803D01*
X150418927Y-100679803D02*
X150341517Y-100718508D01*
X150341517Y-100718508D02*
X150264108Y-100795918D01*
X150264108Y-100795918D02*
X150225403Y-100950737D01*
X150225403Y-100950737D02*
X150225403Y-101221670D01*
X150225403Y-101221670D02*
X150264108Y-101376489D01*
X150264108Y-101376489D02*
X150341517Y-101453899D01*
X150341517Y-101453899D02*
X150418927Y-101492603D01*
X150418927Y-101492603D02*
X150573746Y-101492603D01*
X150573746Y-101492603D02*
X150651155Y-101453899D01*
X150651155Y-101453899D02*
X150728565Y-101376489D01*
X150728565Y-101376489D02*
X150767269Y-101221670D01*
X150767269Y-101221670D02*
X150767269Y-100950737D01*
X150767269Y-100950737D02*
X150728565Y-100795918D01*
X150728565Y-100795918D02*
X150651155Y-100718508D01*
X150651155Y-100718508D02*
X150573746Y-100679803D01*
X149451307Y-101492603D02*
X149915764Y-101492603D01*
X149683536Y-101492603D02*
X149683536Y-100679803D01*
X149683536Y-100679803D02*
X149760945Y-100795918D01*
X149760945Y-100795918D02*
X149838355Y-100873327D01*
X149838355Y-100873327D02*
X149915764Y-100912032D01*
X149180374Y-100679803D02*
X148638508Y-100679803D01*
X148638508Y-100679803D02*
X148986850Y-101492603D01*
X133900460Y-93098508D02*
X133977870Y-93059803D01*
X133977870Y-93059803D02*
X134093984Y-93059803D01*
X134093984Y-93059803D02*
X134210098Y-93098508D01*
X134210098Y-93098508D02*
X134287508Y-93175918D01*
X134287508Y-93175918D02*
X134326213Y-93253327D01*
X134326213Y-93253327D02*
X134364917Y-93408146D01*
X134364917Y-93408146D02*
X134364917Y-93524260D01*
X134364917Y-93524260D02*
X134326213Y-93679079D01*
X134326213Y-93679079D02*
X134287508Y-93756489D01*
X134287508Y-93756489D02*
X134210098Y-93833899D01*
X134210098Y-93833899D02*
X134093984Y-93872603D01*
X134093984Y-93872603D02*
X134016575Y-93872603D01*
X134016575Y-93872603D02*
X133900460Y-93833899D01*
X133900460Y-93833899D02*
X133861756Y-93795194D01*
X133861756Y-93795194D02*
X133861756Y-93524260D01*
X133861756Y-93524260D02*
X134016575Y-93524260D01*
X133513413Y-93872603D02*
X133513413Y-93059803D01*
X133513413Y-93059803D02*
X133203775Y-93059803D01*
X133203775Y-93059803D02*
X133126365Y-93098508D01*
X133126365Y-93098508D02*
X133087660Y-93137213D01*
X133087660Y-93137213D02*
X133048956Y-93214622D01*
X133048956Y-93214622D02*
X133048956Y-93330737D01*
X133048956Y-93330737D02*
X133087660Y-93408146D01*
X133087660Y-93408146D02*
X133126365Y-93446851D01*
X133126365Y-93446851D02*
X133203775Y-93485556D01*
X133203775Y-93485556D02*
X133513413Y-93485556D01*
X132700613Y-93872603D02*
X132700613Y-93059803D01*
X132158746Y-93059803D02*
X132003927Y-93059803D01*
X132003927Y-93059803D02*
X131926517Y-93098508D01*
X131926517Y-93098508D02*
X131849108Y-93175918D01*
X131849108Y-93175918D02*
X131810403Y-93330737D01*
X131810403Y-93330737D02*
X131810403Y-93601670D01*
X131810403Y-93601670D02*
X131849108Y-93756489D01*
X131849108Y-93756489D02*
X131926517Y-93833899D01*
X131926517Y-93833899D02*
X132003927Y-93872603D01*
X132003927Y-93872603D02*
X132158746Y-93872603D01*
X132158746Y-93872603D02*
X132236155Y-93833899D01*
X132236155Y-93833899D02*
X132313565Y-93756489D01*
X132313565Y-93756489D02*
X132352269Y-93601670D01*
X132352269Y-93601670D02*
X132352269Y-93330737D01*
X132352269Y-93330737D02*
X132313565Y-93175918D01*
X132313565Y-93175918D02*
X132236155Y-93098508D01*
X132236155Y-93098508D02*
X132158746Y-93059803D01*
X131036307Y-93872603D02*
X131500764Y-93872603D01*
X131268536Y-93872603D02*
X131268536Y-93059803D01*
X131268536Y-93059803D02*
X131345945Y-93175918D01*
X131345945Y-93175918D02*
X131423355Y-93253327D01*
X131423355Y-93253327D02*
X131500764Y-93292032D01*
X130726669Y-93137213D02*
X130687965Y-93098508D01*
X130687965Y-93098508D02*
X130610555Y-93059803D01*
X130610555Y-93059803D02*
X130417031Y-93059803D01*
X130417031Y-93059803D02*
X130339622Y-93098508D01*
X130339622Y-93098508D02*
X130300917Y-93137213D01*
X130300917Y-93137213D02*
X130262212Y-93214622D01*
X130262212Y-93214622D02*
X130262212Y-93292032D01*
X130262212Y-93292032D02*
X130300917Y-93408146D01*
X130300917Y-93408146D02*
X130765374Y-93872603D01*
X130765374Y-93872603D02*
X130262212Y-93872603D01*
X131995460Y-88018508D02*
X132072870Y-87979803D01*
X132072870Y-87979803D02*
X132188984Y-87979803D01*
X132188984Y-87979803D02*
X132305098Y-88018508D01*
X132305098Y-88018508D02*
X132382508Y-88095918D01*
X132382508Y-88095918D02*
X132421213Y-88173327D01*
X132421213Y-88173327D02*
X132459917Y-88328146D01*
X132459917Y-88328146D02*
X132459917Y-88444260D01*
X132459917Y-88444260D02*
X132421213Y-88599079D01*
X132421213Y-88599079D02*
X132382508Y-88676489D01*
X132382508Y-88676489D02*
X132305098Y-88753899D01*
X132305098Y-88753899D02*
X132188984Y-88792603D01*
X132188984Y-88792603D02*
X132111575Y-88792603D01*
X132111575Y-88792603D02*
X131995460Y-88753899D01*
X131995460Y-88753899D02*
X131956756Y-88715194D01*
X131956756Y-88715194D02*
X131956756Y-88444260D01*
X131956756Y-88444260D02*
X132111575Y-88444260D01*
X131608413Y-88792603D02*
X131608413Y-87979803D01*
X131608413Y-87979803D02*
X131143956Y-88792603D01*
X131143956Y-88792603D02*
X131143956Y-87979803D01*
X130756908Y-88792603D02*
X130756908Y-87979803D01*
X130756908Y-87979803D02*
X130563384Y-87979803D01*
X130563384Y-87979803D02*
X130447270Y-88018508D01*
X130447270Y-88018508D02*
X130369860Y-88095918D01*
X130369860Y-88095918D02*
X130331155Y-88173327D01*
X130331155Y-88173327D02*
X130292451Y-88328146D01*
X130292451Y-88328146D02*
X130292451Y-88444260D01*
X130292451Y-88444260D02*
X130331155Y-88599079D01*
X130331155Y-88599079D02*
X130369860Y-88676489D01*
X130369860Y-88676489D02*
X130447270Y-88753899D01*
X130447270Y-88753899D02*
X130563384Y-88792603D01*
X130563384Y-88792603D02*
X130756908Y-88792603D01*
X133900460Y-90558508D02*
X133977870Y-90519803D01*
X133977870Y-90519803D02*
X134093984Y-90519803D01*
X134093984Y-90519803D02*
X134210098Y-90558508D01*
X134210098Y-90558508D02*
X134287508Y-90635918D01*
X134287508Y-90635918D02*
X134326213Y-90713327D01*
X134326213Y-90713327D02*
X134364917Y-90868146D01*
X134364917Y-90868146D02*
X134364917Y-90984260D01*
X134364917Y-90984260D02*
X134326213Y-91139079D01*
X134326213Y-91139079D02*
X134287508Y-91216489D01*
X134287508Y-91216489D02*
X134210098Y-91293899D01*
X134210098Y-91293899D02*
X134093984Y-91332603D01*
X134093984Y-91332603D02*
X134016575Y-91332603D01*
X134016575Y-91332603D02*
X133900460Y-91293899D01*
X133900460Y-91293899D02*
X133861756Y-91255194D01*
X133861756Y-91255194D02*
X133861756Y-90984260D01*
X133861756Y-90984260D02*
X134016575Y-90984260D01*
X133513413Y-91332603D02*
X133513413Y-90519803D01*
X133513413Y-90519803D02*
X133203775Y-90519803D01*
X133203775Y-90519803D02*
X133126365Y-90558508D01*
X133126365Y-90558508D02*
X133087660Y-90597213D01*
X133087660Y-90597213D02*
X133048956Y-90674622D01*
X133048956Y-90674622D02*
X133048956Y-90790737D01*
X133048956Y-90790737D02*
X133087660Y-90868146D01*
X133087660Y-90868146D02*
X133126365Y-90906851D01*
X133126365Y-90906851D02*
X133203775Y-90945556D01*
X133203775Y-90945556D02*
X133513413Y-90945556D01*
X132700613Y-91332603D02*
X132700613Y-90519803D01*
X132158746Y-90519803D02*
X132003927Y-90519803D01*
X132003927Y-90519803D02*
X131926517Y-90558508D01*
X131926517Y-90558508D02*
X131849108Y-90635918D01*
X131849108Y-90635918D02*
X131810403Y-90790737D01*
X131810403Y-90790737D02*
X131810403Y-91061670D01*
X131810403Y-91061670D02*
X131849108Y-91216489D01*
X131849108Y-91216489D02*
X131926517Y-91293899D01*
X131926517Y-91293899D02*
X132003927Y-91332603D01*
X132003927Y-91332603D02*
X132158746Y-91332603D01*
X132158746Y-91332603D02*
X132236155Y-91293899D01*
X132236155Y-91293899D02*
X132313565Y-91216489D01*
X132313565Y-91216489D02*
X132352269Y-91061670D01*
X132352269Y-91061670D02*
X132352269Y-90790737D01*
X132352269Y-90790737D02*
X132313565Y-90635918D01*
X132313565Y-90635918D02*
X132236155Y-90558508D01*
X132236155Y-90558508D02*
X132158746Y-90519803D01*
X131036307Y-91332603D02*
X131500764Y-91332603D01*
X131268536Y-91332603D02*
X131268536Y-90519803D01*
X131268536Y-90519803D02*
X131345945Y-90635918D01*
X131345945Y-90635918D02*
X131423355Y-90713327D01*
X131423355Y-90713327D02*
X131500764Y-90752032D01*
X130765374Y-90519803D02*
X130262212Y-90519803D01*
X130262212Y-90519803D02*
X130533146Y-90829441D01*
X130533146Y-90829441D02*
X130417031Y-90829441D01*
X130417031Y-90829441D02*
X130339622Y-90868146D01*
X130339622Y-90868146D02*
X130300917Y-90906851D01*
X130300917Y-90906851D02*
X130262212Y-90984260D01*
X130262212Y-90984260D02*
X130262212Y-91177784D01*
X130262212Y-91177784D02*
X130300917Y-91255194D01*
X130300917Y-91255194D02*
X130339622Y-91293899D01*
X130339622Y-91293899D02*
X130417031Y-91332603D01*
X130417031Y-91332603D02*
X130649260Y-91332603D01*
X130649260Y-91332603D02*
X130726669Y-91293899D01*
X130726669Y-91293899D02*
X130765374Y-91255194D01*
X152315460Y-98178508D02*
X152392870Y-98139803D01*
X152392870Y-98139803D02*
X152508984Y-98139803D01*
X152508984Y-98139803D02*
X152625098Y-98178508D01*
X152625098Y-98178508D02*
X152702508Y-98255918D01*
X152702508Y-98255918D02*
X152741213Y-98333327D01*
X152741213Y-98333327D02*
X152779917Y-98488146D01*
X152779917Y-98488146D02*
X152779917Y-98604260D01*
X152779917Y-98604260D02*
X152741213Y-98759079D01*
X152741213Y-98759079D02*
X152702508Y-98836489D01*
X152702508Y-98836489D02*
X152625098Y-98913899D01*
X152625098Y-98913899D02*
X152508984Y-98952603D01*
X152508984Y-98952603D02*
X152431575Y-98952603D01*
X152431575Y-98952603D02*
X152315460Y-98913899D01*
X152315460Y-98913899D02*
X152276756Y-98875194D01*
X152276756Y-98875194D02*
X152276756Y-98604260D01*
X152276756Y-98604260D02*
X152431575Y-98604260D01*
X151928413Y-98952603D02*
X151928413Y-98139803D01*
X151928413Y-98139803D02*
X151618775Y-98139803D01*
X151618775Y-98139803D02*
X151541365Y-98178508D01*
X151541365Y-98178508D02*
X151502660Y-98217213D01*
X151502660Y-98217213D02*
X151463956Y-98294622D01*
X151463956Y-98294622D02*
X151463956Y-98410737D01*
X151463956Y-98410737D02*
X151502660Y-98488146D01*
X151502660Y-98488146D02*
X151541365Y-98526851D01*
X151541365Y-98526851D02*
X151618775Y-98565556D01*
X151618775Y-98565556D02*
X151928413Y-98565556D01*
X151115613Y-98952603D02*
X151115613Y-98139803D01*
X150573746Y-98139803D02*
X150418927Y-98139803D01*
X150418927Y-98139803D02*
X150341517Y-98178508D01*
X150341517Y-98178508D02*
X150264108Y-98255918D01*
X150264108Y-98255918D02*
X150225403Y-98410737D01*
X150225403Y-98410737D02*
X150225403Y-98681670D01*
X150225403Y-98681670D02*
X150264108Y-98836489D01*
X150264108Y-98836489D02*
X150341517Y-98913899D01*
X150341517Y-98913899D02*
X150418927Y-98952603D01*
X150418927Y-98952603D02*
X150573746Y-98952603D01*
X150573746Y-98952603D02*
X150651155Y-98913899D01*
X150651155Y-98913899D02*
X150728565Y-98836489D01*
X150728565Y-98836489D02*
X150767269Y-98681670D01*
X150767269Y-98681670D02*
X150767269Y-98410737D01*
X150767269Y-98410737D02*
X150728565Y-98255918D01*
X150728565Y-98255918D02*
X150651155Y-98178508D01*
X150651155Y-98178508D02*
X150573746Y-98139803D01*
X149451307Y-98952603D02*
X149915764Y-98952603D01*
X149683536Y-98952603D02*
X149683536Y-98139803D01*
X149683536Y-98139803D02*
X149760945Y-98255918D01*
X149760945Y-98255918D02*
X149838355Y-98333327D01*
X149838355Y-98333327D02*
X149915764Y-98372032D01*
X148754622Y-98139803D02*
X148909441Y-98139803D01*
X148909441Y-98139803D02*
X148986850Y-98178508D01*
X148986850Y-98178508D02*
X149025555Y-98217213D01*
X149025555Y-98217213D02*
X149102965Y-98333327D01*
X149102965Y-98333327D02*
X149141669Y-98488146D01*
X149141669Y-98488146D02*
X149141669Y-98797784D01*
X149141669Y-98797784D02*
X149102965Y-98875194D01*
X149102965Y-98875194D02*
X149064260Y-98913899D01*
X149064260Y-98913899D02*
X148986850Y-98952603D01*
X148986850Y-98952603D02*
X148832031Y-98952603D01*
X148832031Y-98952603D02*
X148754622Y-98913899D01*
X148754622Y-98913899D02*
X148715917Y-98875194D01*
X148715917Y-98875194D02*
X148677212Y-98797784D01*
X148677212Y-98797784D02*
X148677212Y-98604260D01*
X148677212Y-98604260D02*
X148715917Y-98526851D01*
X148715917Y-98526851D02*
X148754622Y-98488146D01*
X148754622Y-98488146D02*
X148832031Y-98449441D01*
X148832031Y-98449441D02*
X148986850Y-98449441D01*
X148986850Y-98449441D02*
X149064260Y-98488146D01*
X149064260Y-98488146D02*
X149102965Y-98526851D01*
X149102965Y-98526851D02*
X149141669Y-98604260D01*
X141753353Y-106294022D02*
X141753353Y-105894022D01*
X141124782Y-105722594D02*
X141124782Y-106294022D01*
X141124782Y-106294022D02*
X142324782Y-106294022D01*
X142324782Y-106294022D02*
X142324782Y-105722594D01*
X141181925Y-105265451D02*
X141124782Y-105094023D01*
X141124782Y-105094023D02*
X141124782Y-104808308D01*
X141124782Y-104808308D02*
X141181925Y-104694023D01*
X141181925Y-104694023D02*
X141239067Y-104636880D01*
X141239067Y-104636880D02*
X141353353Y-104579737D01*
X141353353Y-104579737D02*
X141467639Y-104579737D01*
X141467639Y-104579737D02*
X141581925Y-104636880D01*
X141581925Y-104636880D02*
X141639067Y-104694023D01*
X141639067Y-104694023D02*
X141696210Y-104808308D01*
X141696210Y-104808308D02*
X141753353Y-105036880D01*
X141753353Y-105036880D02*
X141810496Y-105151165D01*
X141810496Y-105151165D02*
X141867639Y-105208308D01*
X141867639Y-105208308D02*
X141981925Y-105265451D01*
X141981925Y-105265451D02*
X142096210Y-105265451D01*
X142096210Y-105265451D02*
X142210496Y-105208308D01*
X142210496Y-105208308D02*
X142267639Y-105151165D01*
X142267639Y-105151165D02*
X142324782Y-105036880D01*
X142324782Y-105036880D02*
X142324782Y-104751165D01*
X142324782Y-104751165D02*
X142267639Y-104579737D01*
X141124782Y-104065451D02*
X142324782Y-104065451D01*
X142324782Y-104065451D02*
X142324782Y-103608308D01*
X142324782Y-103608308D02*
X142267639Y-103494023D01*
X142267639Y-103494023D02*
X142210496Y-103436880D01*
X142210496Y-103436880D02*
X142096210Y-103379737D01*
X142096210Y-103379737D02*
X141924782Y-103379737D01*
X141924782Y-103379737D02*
X141810496Y-103436880D01*
X141810496Y-103436880D02*
X141753353Y-103494023D01*
X141753353Y-103494023D02*
X141696210Y-103608308D01*
X141696210Y-103608308D02*
X141696210Y-104065451D01*
X142324782Y-102979737D02*
X142324782Y-102236880D01*
X142324782Y-102236880D02*
X141867639Y-102636880D01*
X141867639Y-102636880D02*
X141867639Y-102465451D01*
X141867639Y-102465451D02*
X141810496Y-102351166D01*
X141810496Y-102351166D02*
X141753353Y-102294023D01*
X141753353Y-102294023D02*
X141639067Y-102236880D01*
X141639067Y-102236880D02*
X141353353Y-102236880D01*
X141353353Y-102236880D02*
X141239067Y-102294023D01*
X141239067Y-102294023D02*
X141181925Y-102351166D01*
X141181925Y-102351166D02*
X141124782Y-102465451D01*
X141124782Y-102465451D02*
X141124782Y-102808308D01*
X141124782Y-102808308D02*
X141181925Y-102922594D01*
X141181925Y-102922594D02*
X141239067Y-102979737D01*
X142210496Y-101779737D02*
X142267639Y-101722594D01*
X142267639Y-101722594D02*
X142324782Y-101608309D01*
X142324782Y-101608309D02*
X142324782Y-101322594D01*
X142324782Y-101322594D02*
X142267639Y-101208309D01*
X142267639Y-101208309D02*
X142210496Y-101151166D01*
X142210496Y-101151166D02*
X142096210Y-101094023D01*
X142096210Y-101094023D02*
X141981925Y-101094023D01*
X141981925Y-101094023D02*
X141810496Y-101151166D01*
X141810496Y-101151166D02*
X141124782Y-101836880D01*
X141124782Y-101836880D02*
X141124782Y-101094023D01*
X152315460Y-113418508D02*
X152392870Y-113379803D01*
X152392870Y-113379803D02*
X152508984Y-113379803D01*
X152508984Y-113379803D02*
X152625098Y-113418508D01*
X152625098Y-113418508D02*
X152702508Y-113495918D01*
X152702508Y-113495918D02*
X152741213Y-113573327D01*
X152741213Y-113573327D02*
X152779917Y-113728146D01*
X152779917Y-113728146D02*
X152779917Y-113844260D01*
X152779917Y-113844260D02*
X152741213Y-113999079D01*
X152741213Y-113999079D02*
X152702508Y-114076489D01*
X152702508Y-114076489D02*
X152625098Y-114153899D01*
X152625098Y-114153899D02*
X152508984Y-114192603D01*
X152508984Y-114192603D02*
X152431575Y-114192603D01*
X152431575Y-114192603D02*
X152315460Y-114153899D01*
X152315460Y-114153899D02*
X152276756Y-114115194D01*
X152276756Y-114115194D02*
X152276756Y-113844260D01*
X152276756Y-113844260D02*
X152431575Y-113844260D01*
X151928413Y-114192603D02*
X151928413Y-113379803D01*
X151928413Y-113379803D02*
X151618775Y-113379803D01*
X151618775Y-113379803D02*
X151541365Y-113418508D01*
X151541365Y-113418508D02*
X151502660Y-113457213D01*
X151502660Y-113457213D02*
X151463956Y-113534622D01*
X151463956Y-113534622D02*
X151463956Y-113650737D01*
X151463956Y-113650737D02*
X151502660Y-113728146D01*
X151502660Y-113728146D02*
X151541365Y-113766851D01*
X151541365Y-113766851D02*
X151618775Y-113805556D01*
X151618775Y-113805556D02*
X151928413Y-113805556D01*
X151115613Y-114192603D02*
X151115613Y-113379803D01*
X150573746Y-113379803D02*
X150418927Y-113379803D01*
X150418927Y-113379803D02*
X150341517Y-113418508D01*
X150341517Y-113418508D02*
X150264108Y-113495918D01*
X150264108Y-113495918D02*
X150225403Y-113650737D01*
X150225403Y-113650737D02*
X150225403Y-113921670D01*
X150225403Y-113921670D02*
X150264108Y-114076489D01*
X150264108Y-114076489D02*
X150341517Y-114153899D01*
X150341517Y-114153899D02*
X150418927Y-114192603D01*
X150418927Y-114192603D02*
X150573746Y-114192603D01*
X150573746Y-114192603D02*
X150651155Y-114153899D01*
X150651155Y-114153899D02*
X150728565Y-114076489D01*
X150728565Y-114076489D02*
X150767269Y-113921670D01*
X150767269Y-113921670D02*
X150767269Y-113650737D01*
X150767269Y-113650737D02*
X150728565Y-113495918D01*
X150728565Y-113495918D02*
X150651155Y-113418508D01*
X150651155Y-113418508D02*
X150573746Y-113379803D01*
X149954469Y-113379803D02*
X149451307Y-113379803D01*
X149451307Y-113379803D02*
X149722241Y-113689441D01*
X149722241Y-113689441D02*
X149606126Y-113689441D01*
X149606126Y-113689441D02*
X149528717Y-113728146D01*
X149528717Y-113728146D02*
X149490012Y-113766851D01*
X149490012Y-113766851D02*
X149451307Y-113844260D01*
X149451307Y-113844260D02*
X149451307Y-114037784D01*
X149451307Y-114037784D02*
X149490012Y-114115194D01*
X149490012Y-114115194D02*
X149528717Y-114153899D01*
X149528717Y-114153899D02*
X149606126Y-114192603D01*
X149606126Y-114192603D02*
X149838355Y-114192603D01*
X149838355Y-114192603D02*
X149915764Y-114153899D01*
X149915764Y-114153899D02*
X149954469Y-114115194D01*
X152315460Y-118498508D02*
X152392870Y-118459803D01*
X152392870Y-118459803D02*
X152508984Y-118459803D01*
X152508984Y-118459803D02*
X152625098Y-118498508D01*
X152625098Y-118498508D02*
X152702508Y-118575918D01*
X152702508Y-118575918D02*
X152741213Y-118653327D01*
X152741213Y-118653327D02*
X152779917Y-118808146D01*
X152779917Y-118808146D02*
X152779917Y-118924260D01*
X152779917Y-118924260D02*
X152741213Y-119079079D01*
X152741213Y-119079079D02*
X152702508Y-119156489D01*
X152702508Y-119156489D02*
X152625098Y-119233899D01*
X152625098Y-119233899D02*
X152508984Y-119272603D01*
X152508984Y-119272603D02*
X152431575Y-119272603D01*
X152431575Y-119272603D02*
X152315460Y-119233899D01*
X152315460Y-119233899D02*
X152276756Y-119195194D01*
X152276756Y-119195194D02*
X152276756Y-118924260D01*
X152276756Y-118924260D02*
X152431575Y-118924260D01*
X151928413Y-119272603D02*
X151928413Y-118459803D01*
X151928413Y-118459803D02*
X151618775Y-118459803D01*
X151618775Y-118459803D02*
X151541365Y-118498508D01*
X151541365Y-118498508D02*
X151502660Y-118537213D01*
X151502660Y-118537213D02*
X151463956Y-118614622D01*
X151463956Y-118614622D02*
X151463956Y-118730737D01*
X151463956Y-118730737D02*
X151502660Y-118808146D01*
X151502660Y-118808146D02*
X151541365Y-118846851D01*
X151541365Y-118846851D02*
X151618775Y-118885556D01*
X151618775Y-118885556D02*
X151928413Y-118885556D01*
X151115613Y-119272603D02*
X151115613Y-118459803D01*
X150573746Y-118459803D02*
X150418927Y-118459803D01*
X150418927Y-118459803D02*
X150341517Y-118498508D01*
X150341517Y-118498508D02*
X150264108Y-118575918D01*
X150264108Y-118575918D02*
X150225403Y-118730737D01*
X150225403Y-118730737D02*
X150225403Y-119001670D01*
X150225403Y-119001670D02*
X150264108Y-119156489D01*
X150264108Y-119156489D02*
X150341517Y-119233899D01*
X150341517Y-119233899D02*
X150418927Y-119272603D01*
X150418927Y-119272603D02*
X150573746Y-119272603D01*
X150573746Y-119272603D02*
X150651155Y-119233899D01*
X150651155Y-119233899D02*
X150728565Y-119156489D01*
X150728565Y-119156489D02*
X150767269Y-119001670D01*
X150767269Y-119001670D02*
X150767269Y-118730737D01*
X150767269Y-118730737D02*
X150728565Y-118575918D01*
X150728565Y-118575918D02*
X150651155Y-118498508D01*
X150651155Y-118498508D02*
X150573746Y-118459803D01*
X149915764Y-118537213D02*
X149877060Y-118498508D01*
X149877060Y-118498508D02*
X149799650Y-118459803D01*
X149799650Y-118459803D02*
X149606126Y-118459803D01*
X149606126Y-118459803D02*
X149528717Y-118498508D01*
X149528717Y-118498508D02*
X149490012Y-118537213D01*
X149490012Y-118537213D02*
X149451307Y-118614622D01*
X149451307Y-118614622D02*
X149451307Y-118692032D01*
X149451307Y-118692032D02*
X149490012Y-118808146D01*
X149490012Y-118808146D02*
X149954469Y-119272603D01*
X149954469Y-119272603D02*
X149451307Y-119272603D01*
X149141669Y-118537213D02*
X149102965Y-118498508D01*
X149102965Y-118498508D02*
X149025555Y-118459803D01*
X149025555Y-118459803D02*
X148832031Y-118459803D01*
X148832031Y-118459803D02*
X148754622Y-118498508D01*
X148754622Y-118498508D02*
X148715917Y-118537213D01*
X148715917Y-118537213D02*
X148677212Y-118614622D01*
X148677212Y-118614622D02*
X148677212Y-118692032D01*
X148677212Y-118692032D02*
X148715917Y-118808146D01*
X148715917Y-118808146D02*
X149180374Y-119272603D01*
X149180374Y-119272603D02*
X148677212Y-119272603D01*
X152315460Y-88018508D02*
X152392870Y-87979803D01*
X152392870Y-87979803D02*
X152508984Y-87979803D01*
X152508984Y-87979803D02*
X152625098Y-88018508D01*
X152625098Y-88018508D02*
X152702508Y-88095918D01*
X152702508Y-88095918D02*
X152741213Y-88173327D01*
X152741213Y-88173327D02*
X152779917Y-88328146D01*
X152779917Y-88328146D02*
X152779917Y-88444260D01*
X152779917Y-88444260D02*
X152741213Y-88599079D01*
X152741213Y-88599079D02*
X152702508Y-88676489D01*
X152702508Y-88676489D02*
X152625098Y-88753899D01*
X152625098Y-88753899D02*
X152508984Y-88792603D01*
X152508984Y-88792603D02*
X152431575Y-88792603D01*
X152431575Y-88792603D02*
X152315460Y-88753899D01*
X152315460Y-88753899D02*
X152276756Y-88715194D01*
X152276756Y-88715194D02*
X152276756Y-88444260D01*
X152276756Y-88444260D02*
X152431575Y-88444260D01*
X151928413Y-88792603D02*
X151928413Y-87979803D01*
X151928413Y-87979803D02*
X151463956Y-88792603D01*
X151463956Y-88792603D02*
X151463956Y-87979803D01*
X151076908Y-88792603D02*
X151076908Y-87979803D01*
X151076908Y-87979803D02*
X150883384Y-87979803D01*
X150883384Y-87979803D02*
X150767270Y-88018508D01*
X150767270Y-88018508D02*
X150689860Y-88095918D01*
X150689860Y-88095918D02*
X150651155Y-88173327D01*
X150651155Y-88173327D02*
X150612451Y-88328146D01*
X150612451Y-88328146D02*
X150612451Y-88444260D01*
X150612451Y-88444260D02*
X150651155Y-88599079D01*
X150651155Y-88599079D02*
X150689860Y-88676489D01*
X150689860Y-88676489D02*
X150767270Y-88753899D01*
X150767270Y-88753899D02*
X150883384Y-88792603D01*
X150883384Y-88792603D02*
X151076908Y-88792603D01*
X133900460Y-98178508D02*
X133977870Y-98139803D01*
X133977870Y-98139803D02*
X134093984Y-98139803D01*
X134093984Y-98139803D02*
X134210098Y-98178508D01*
X134210098Y-98178508D02*
X134287508Y-98255918D01*
X134287508Y-98255918D02*
X134326213Y-98333327D01*
X134326213Y-98333327D02*
X134364917Y-98488146D01*
X134364917Y-98488146D02*
X134364917Y-98604260D01*
X134364917Y-98604260D02*
X134326213Y-98759079D01*
X134326213Y-98759079D02*
X134287508Y-98836489D01*
X134287508Y-98836489D02*
X134210098Y-98913899D01*
X134210098Y-98913899D02*
X134093984Y-98952603D01*
X134093984Y-98952603D02*
X134016575Y-98952603D01*
X134016575Y-98952603D02*
X133900460Y-98913899D01*
X133900460Y-98913899D02*
X133861756Y-98875194D01*
X133861756Y-98875194D02*
X133861756Y-98604260D01*
X133861756Y-98604260D02*
X134016575Y-98604260D01*
X133513413Y-98952603D02*
X133513413Y-98139803D01*
X133513413Y-98139803D02*
X133203775Y-98139803D01*
X133203775Y-98139803D02*
X133126365Y-98178508D01*
X133126365Y-98178508D02*
X133087660Y-98217213D01*
X133087660Y-98217213D02*
X133048956Y-98294622D01*
X133048956Y-98294622D02*
X133048956Y-98410737D01*
X133048956Y-98410737D02*
X133087660Y-98488146D01*
X133087660Y-98488146D02*
X133126365Y-98526851D01*
X133126365Y-98526851D02*
X133203775Y-98565556D01*
X133203775Y-98565556D02*
X133513413Y-98565556D01*
X132700613Y-98952603D02*
X132700613Y-98139803D01*
X132158746Y-98139803D02*
X132003927Y-98139803D01*
X132003927Y-98139803D02*
X131926517Y-98178508D01*
X131926517Y-98178508D02*
X131849108Y-98255918D01*
X131849108Y-98255918D02*
X131810403Y-98410737D01*
X131810403Y-98410737D02*
X131810403Y-98681670D01*
X131810403Y-98681670D02*
X131849108Y-98836489D01*
X131849108Y-98836489D02*
X131926517Y-98913899D01*
X131926517Y-98913899D02*
X132003927Y-98952603D01*
X132003927Y-98952603D02*
X132158746Y-98952603D01*
X132158746Y-98952603D02*
X132236155Y-98913899D01*
X132236155Y-98913899D02*
X132313565Y-98836489D01*
X132313565Y-98836489D02*
X132352269Y-98681670D01*
X132352269Y-98681670D02*
X132352269Y-98410737D01*
X132352269Y-98410737D02*
X132313565Y-98255918D01*
X132313565Y-98255918D02*
X132236155Y-98178508D01*
X132236155Y-98178508D02*
X132158746Y-98139803D01*
X131500764Y-98217213D02*
X131462060Y-98178508D01*
X131462060Y-98178508D02*
X131384650Y-98139803D01*
X131384650Y-98139803D02*
X131191126Y-98139803D01*
X131191126Y-98139803D02*
X131113717Y-98178508D01*
X131113717Y-98178508D02*
X131075012Y-98217213D01*
X131075012Y-98217213D02*
X131036307Y-98294622D01*
X131036307Y-98294622D02*
X131036307Y-98372032D01*
X131036307Y-98372032D02*
X131075012Y-98488146D01*
X131075012Y-98488146D02*
X131539469Y-98952603D01*
X131539469Y-98952603D02*
X131036307Y-98952603D01*
X130765374Y-98139803D02*
X130223508Y-98139803D01*
X130223508Y-98139803D02*
X130571850Y-98952603D01*
X133900460Y-118498508D02*
X133977870Y-118459803D01*
X133977870Y-118459803D02*
X134093984Y-118459803D01*
X134093984Y-118459803D02*
X134210098Y-118498508D01*
X134210098Y-118498508D02*
X134287508Y-118575918D01*
X134287508Y-118575918D02*
X134326213Y-118653327D01*
X134326213Y-118653327D02*
X134364917Y-118808146D01*
X134364917Y-118808146D02*
X134364917Y-118924260D01*
X134364917Y-118924260D02*
X134326213Y-119079079D01*
X134326213Y-119079079D02*
X134287508Y-119156489D01*
X134287508Y-119156489D02*
X134210098Y-119233899D01*
X134210098Y-119233899D02*
X134093984Y-119272603D01*
X134093984Y-119272603D02*
X134016575Y-119272603D01*
X134016575Y-119272603D02*
X133900460Y-119233899D01*
X133900460Y-119233899D02*
X133861756Y-119195194D01*
X133861756Y-119195194D02*
X133861756Y-118924260D01*
X133861756Y-118924260D02*
X134016575Y-118924260D01*
X133513413Y-119272603D02*
X133513413Y-118459803D01*
X133513413Y-118459803D02*
X133203775Y-118459803D01*
X133203775Y-118459803D02*
X133126365Y-118498508D01*
X133126365Y-118498508D02*
X133087660Y-118537213D01*
X133087660Y-118537213D02*
X133048956Y-118614622D01*
X133048956Y-118614622D02*
X133048956Y-118730737D01*
X133048956Y-118730737D02*
X133087660Y-118808146D01*
X133087660Y-118808146D02*
X133126365Y-118846851D01*
X133126365Y-118846851D02*
X133203775Y-118885556D01*
X133203775Y-118885556D02*
X133513413Y-118885556D01*
X132700613Y-119272603D02*
X132700613Y-118459803D01*
X132158746Y-118459803D02*
X132003927Y-118459803D01*
X132003927Y-118459803D02*
X131926517Y-118498508D01*
X131926517Y-118498508D02*
X131849108Y-118575918D01*
X131849108Y-118575918D02*
X131810403Y-118730737D01*
X131810403Y-118730737D02*
X131810403Y-119001670D01*
X131810403Y-119001670D02*
X131849108Y-119156489D01*
X131849108Y-119156489D02*
X131926517Y-119233899D01*
X131926517Y-119233899D02*
X132003927Y-119272603D01*
X132003927Y-119272603D02*
X132158746Y-119272603D01*
X132158746Y-119272603D02*
X132236155Y-119233899D01*
X132236155Y-119233899D02*
X132313565Y-119156489D01*
X132313565Y-119156489D02*
X132352269Y-119001670D01*
X132352269Y-119001670D02*
X132352269Y-118730737D01*
X132352269Y-118730737D02*
X132313565Y-118575918D01*
X132313565Y-118575918D02*
X132236155Y-118498508D01*
X132236155Y-118498508D02*
X132158746Y-118459803D01*
X131539469Y-118459803D02*
X131036307Y-118459803D01*
X131036307Y-118459803D02*
X131307241Y-118769441D01*
X131307241Y-118769441D02*
X131191126Y-118769441D01*
X131191126Y-118769441D02*
X131113717Y-118808146D01*
X131113717Y-118808146D02*
X131075012Y-118846851D01*
X131075012Y-118846851D02*
X131036307Y-118924260D01*
X131036307Y-118924260D02*
X131036307Y-119117784D01*
X131036307Y-119117784D02*
X131075012Y-119195194D01*
X131075012Y-119195194D02*
X131113717Y-119233899D01*
X131113717Y-119233899D02*
X131191126Y-119272603D01*
X131191126Y-119272603D02*
X131423355Y-119272603D01*
X131423355Y-119272603D02*
X131500764Y-119233899D01*
X131500764Y-119233899D02*
X131539469Y-119195194D01*
X130339622Y-118459803D02*
X130494441Y-118459803D01*
X130494441Y-118459803D02*
X130571850Y-118498508D01*
X130571850Y-118498508D02*
X130610555Y-118537213D01*
X130610555Y-118537213D02*
X130687965Y-118653327D01*
X130687965Y-118653327D02*
X130726669Y-118808146D01*
X130726669Y-118808146D02*
X130726669Y-119117784D01*
X130726669Y-119117784D02*
X130687965Y-119195194D01*
X130687965Y-119195194D02*
X130649260Y-119233899D01*
X130649260Y-119233899D02*
X130571850Y-119272603D01*
X130571850Y-119272603D02*
X130417031Y-119272603D01*
X130417031Y-119272603D02*
X130339622Y-119233899D01*
X130339622Y-119233899D02*
X130300917Y-119195194D01*
X130300917Y-119195194D02*
X130262212Y-119117784D01*
X130262212Y-119117784D02*
X130262212Y-118924260D01*
X130262212Y-118924260D02*
X130300917Y-118846851D01*
X130300917Y-118846851D02*
X130339622Y-118808146D01*
X130339622Y-118808146D02*
X130417031Y-118769441D01*
X130417031Y-118769441D02*
X130571850Y-118769441D01*
X130571850Y-118769441D02*
X130649260Y-118808146D01*
X130649260Y-118808146D02*
X130687965Y-118846851D01*
X130687965Y-118846851D02*
X130726669Y-118924260D01*
X133900460Y-105798508D02*
X133977870Y-105759803D01*
X133977870Y-105759803D02*
X134093984Y-105759803D01*
X134093984Y-105759803D02*
X134210098Y-105798508D01*
X134210098Y-105798508D02*
X134287508Y-105875918D01*
X134287508Y-105875918D02*
X134326213Y-105953327D01*
X134326213Y-105953327D02*
X134364917Y-106108146D01*
X134364917Y-106108146D02*
X134364917Y-106224260D01*
X134364917Y-106224260D02*
X134326213Y-106379079D01*
X134326213Y-106379079D02*
X134287508Y-106456489D01*
X134287508Y-106456489D02*
X134210098Y-106533899D01*
X134210098Y-106533899D02*
X134093984Y-106572603D01*
X134093984Y-106572603D02*
X134016575Y-106572603D01*
X134016575Y-106572603D02*
X133900460Y-106533899D01*
X133900460Y-106533899D02*
X133861756Y-106495194D01*
X133861756Y-106495194D02*
X133861756Y-106224260D01*
X133861756Y-106224260D02*
X134016575Y-106224260D01*
X133513413Y-106572603D02*
X133513413Y-105759803D01*
X133513413Y-105759803D02*
X133203775Y-105759803D01*
X133203775Y-105759803D02*
X133126365Y-105798508D01*
X133126365Y-105798508D02*
X133087660Y-105837213D01*
X133087660Y-105837213D02*
X133048956Y-105914622D01*
X133048956Y-105914622D02*
X133048956Y-106030737D01*
X133048956Y-106030737D02*
X133087660Y-106108146D01*
X133087660Y-106108146D02*
X133126365Y-106146851D01*
X133126365Y-106146851D02*
X133203775Y-106185556D01*
X133203775Y-106185556D02*
X133513413Y-106185556D01*
X132700613Y-106572603D02*
X132700613Y-105759803D01*
X132158746Y-105759803D02*
X132003927Y-105759803D01*
X132003927Y-105759803D02*
X131926517Y-105798508D01*
X131926517Y-105798508D02*
X131849108Y-105875918D01*
X131849108Y-105875918D02*
X131810403Y-106030737D01*
X131810403Y-106030737D02*
X131810403Y-106301670D01*
X131810403Y-106301670D02*
X131849108Y-106456489D01*
X131849108Y-106456489D02*
X131926517Y-106533899D01*
X131926517Y-106533899D02*
X132003927Y-106572603D01*
X132003927Y-106572603D02*
X132158746Y-106572603D01*
X132158746Y-106572603D02*
X132236155Y-106533899D01*
X132236155Y-106533899D02*
X132313565Y-106456489D01*
X132313565Y-106456489D02*
X132352269Y-106301670D01*
X132352269Y-106301670D02*
X132352269Y-106030737D01*
X132352269Y-106030737D02*
X132313565Y-105875918D01*
X132313565Y-105875918D02*
X132236155Y-105798508D01*
X132236155Y-105798508D02*
X132158746Y-105759803D01*
X131539469Y-105759803D02*
X131036307Y-105759803D01*
X131036307Y-105759803D02*
X131307241Y-106069441D01*
X131307241Y-106069441D02*
X131191126Y-106069441D01*
X131191126Y-106069441D02*
X131113717Y-106108146D01*
X131113717Y-106108146D02*
X131075012Y-106146851D01*
X131075012Y-106146851D02*
X131036307Y-106224260D01*
X131036307Y-106224260D02*
X131036307Y-106417784D01*
X131036307Y-106417784D02*
X131075012Y-106495194D01*
X131075012Y-106495194D02*
X131113717Y-106533899D01*
X131113717Y-106533899D02*
X131191126Y-106572603D01*
X131191126Y-106572603D02*
X131423355Y-106572603D01*
X131423355Y-106572603D02*
X131500764Y-106533899D01*
X131500764Y-106533899D02*
X131539469Y-106495194D01*
X130765374Y-105759803D02*
X130262212Y-105759803D01*
X130262212Y-105759803D02*
X130533146Y-106069441D01*
X130533146Y-106069441D02*
X130417031Y-106069441D01*
X130417031Y-106069441D02*
X130339622Y-106108146D01*
X130339622Y-106108146D02*
X130300917Y-106146851D01*
X130300917Y-106146851D02*
X130262212Y-106224260D01*
X130262212Y-106224260D02*
X130262212Y-106417784D01*
X130262212Y-106417784D02*
X130300917Y-106495194D01*
X130300917Y-106495194D02*
X130339622Y-106533899D01*
X130339622Y-106533899D02*
X130417031Y-106572603D01*
X130417031Y-106572603D02*
X130649260Y-106572603D01*
X130649260Y-106572603D02*
X130726669Y-106533899D01*
X130726669Y-106533899D02*
X130765374Y-106495194D01*
X152315460Y-105798508D02*
X152392870Y-105759803D01*
X152392870Y-105759803D02*
X152508984Y-105759803D01*
X152508984Y-105759803D02*
X152625098Y-105798508D01*
X152625098Y-105798508D02*
X152702508Y-105875918D01*
X152702508Y-105875918D02*
X152741213Y-105953327D01*
X152741213Y-105953327D02*
X152779917Y-106108146D01*
X152779917Y-106108146D02*
X152779917Y-106224260D01*
X152779917Y-106224260D02*
X152741213Y-106379079D01*
X152741213Y-106379079D02*
X152702508Y-106456489D01*
X152702508Y-106456489D02*
X152625098Y-106533899D01*
X152625098Y-106533899D02*
X152508984Y-106572603D01*
X152508984Y-106572603D02*
X152431575Y-106572603D01*
X152431575Y-106572603D02*
X152315460Y-106533899D01*
X152315460Y-106533899D02*
X152276756Y-106495194D01*
X152276756Y-106495194D02*
X152276756Y-106224260D01*
X152276756Y-106224260D02*
X152431575Y-106224260D01*
X151928413Y-106572603D02*
X151928413Y-105759803D01*
X151928413Y-105759803D02*
X151618775Y-105759803D01*
X151618775Y-105759803D02*
X151541365Y-105798508D01*
X151541365Y-105798508D02*
X151502660Y-105837213D01*
X151502660Y-105837213D02*
X151463956Y-105914622D01*
X151463956Y-105914622D02*
X151463956Y-106030737D01*
X151463956Y-106030737D02*
X151502660Y-106108146D01*
X151502660Y-106108146D02*
X151541365Y-106146851D01*
X151541365Y-106146851D02*
X151618775Y-106185556D01*
X151618775Y-106185556D02*
X151928413Y-106185556D01*
X151115613Y-106572603D02*
X151115613Y-105759803D01*
X150573746Y-105759803D02*
X150418927Y-105759803D01*
X150418927Y-105759803D02*
X150341517Y-105798508D01*
X150341517Y-105798508D02*
X150264108Y-105875918D01*
X150264108Y-105875918D02*
X150225403Y-106030737D01*
X150225403Y-106030737D02*
X150225403Y-106301670D01*
X150225403Y-106301670D02*
X150264108Y-106456489D01*
X150264108Y-106456489D02*
X150341517Y-106533899D01*
X150341517Y-106533899D02*
X150418927Y-106572603D01*
X150418927Y-106572603D02*
X150573746Y-106572603D01*
X150573746Y-106572603D02*
X150651155Y-106533899D01*
X150651155Y-106533899D02*
X150728565Y-106456489D01*
X150728565Y-106456489D02*
X150767269Y-106301670D01*
X150767269Y-106301670D02*
X150767269Y-106030737D01*
X150767269Y-106030737D02*
X150728565Y-105875918D01*
X150728565Y-105875918D02*
X150651155Y-105798508D01*
X150651155Y-105798508D02*
X150573746Y-105759803D01*
X149451307Y-106572603D02*
X149915764Y-106572603D01*
X149683536Y-106572603D02*
X149683536Y-105759803D01*
X149683536Y-105759803D02*
X149760945Y-105875918D01*
X149760945Y-105875918D02*
X149838355Y-105953327D01*
X149838355Y-105953327D02*
X149915764Y-105992032D01*
X148986850Y-106108146D02*
X149064260Y-106069441D01*
X149064260Y-106069441D02*
X149102965Y-106030737D01*
X149102965Y-106030737D02*
X149141669Y-105953327D01*
X149141669Y-105953327D02*
X149141669Y-105914622D01*
X149141669Y-105914622D02*
X149102965Y-105837213D01*
X149102965Y-105837213D02*
X149064260Y-105798508D01*
X149064260Y-105798508D02*
X148986850Y-105759803D01*
X148986850Y-105759803D02*
X148832031Y-105759803D01*
X148832031Y-105759803D02*
X148754622Y-105798508D01*
X148754622Y-105798508D02*
X148715917Y-105837213D01*
X148715917Y-105837213D02*
X148677212Y-105914622D01*
X148677212Y-105914622D02*
X148677212Y-105953327D01*
X148677212Y-105953327D02*
X148715917Y-106030737D01*
X148715917Y-106030737D02*
X148754622Y-106069441D01*
X148754622Y-106069441D02*
X148832031Y-106108146D01*
X148832031Y-106108146D02*
X148986850Y-106108146D01*
X148986850Y-106108146D02*
X149064260Y-106146851D01*
X149064260Y-106146851D02*
X149102965Y-106185556D01*
X149102965Y-106185556D02*
X149141669Y-106262965D01*
X149141669Y-106262965D02*
X149141669Y-106417784D01*
X149141669Y-106417784D02*
X149102965Y-106495194D01*
X149102965Y-106495194D02*
X149064260Y-106533899D01*
X149064260Y-106533899D02*
X148986850Y-106572603D01*
X148986850Y-106572603D02*
X148832031Y-106572603D01*
X148832031Y-106572603D02*
X148754622Y-106533899D01*
X148754622Y-106533899D02*
X148715917Y-106495194D01*
X148715917Y-106495194D02*
X148677212Y-106417784D01*
X148677212Y-106417784D02*
X148677212Y-106262965D01*
X148677212Y-106262965D02*
X148715917Y-106185556D01*
X148715917Y-106185556D02*
X148754622Y-106146851D01*
X148754622Y-106146851D02*
X148832031Y-106108146D01*
X152315460Y-93098508D02*
X152392870Y-93059803D01*
X152392870Y-93059803D02*
X152508984Y-93059803D01*
X152508984Y-93059803D02*
X152625098Y-93098508D01*
X152625098Y-93098508D02*
X152702508Y-93175918D01*
X152702508Y-93175918D02*
X152741213Y-93253327D01*
X152741213Y-93253327D02*
X152779917Y-93408146D01*
X152779917Y-93408146D02*
X152779917Y-93524260D01*
X152779917Y-93524260D02*
X152741213Y-93679079D01*
X152741213Y-93679079D02*
X152702508Y-93756489D01*
X152702508Y-93756489D02*
X152625098Y-93833899D01*
X152625098Y-93833899D02*
X152508984Y-93872603D01*
X152508984Y-93872603D02*
X152431575Y-93872603D01*
X152431575Y-93872603D02*
X152315460Y-93833899D01*
X152315460Y-93833899D02*
X152276756Y-93795194D01*
X152276756Y-93795194D02*
X152276756Y-93524260D01*
X152276756Y-93524260D02*
X152431575Y-93524260D01*
X151928413Y-93872603D02*
X151928413Y-93059803D01*
X151928413Y-93059803D02*
X151618775Y-93059803D01*
X151618775Y-93059803D02*
X151541365Y-93098508D01*
X151541365Y-93098508D02*
X151502660Y-93137213D01*
X151502660Y-93137213D02*
X151463956Y-93214622D01*
X151463956Y-93214622D02*
X151463956Y-93330737D01*
X151463956Y-93330737D02*
X151502660Y-93408146D01*
X151502660Y-93408146D02*
X151541365Y-93446851D01*
X151541365Y-93446851D02*
X151618775Y-93485556D01*
X151618775Y-93485556D02*
X151928413Y-93485556D01*
X151115613Y-93872603D02*
X151115613Y-93059803D01*
X150573746Y-93059803D02*
X150418927Y-93059803D01*
X150418927Y-93059803D02*
X150341517Y-93098508D01*
X150341517Y-93098508D02*
X150264108Y-93175918D01*
X150264108Y-93175918D02*
X150225403Y-93330737D01*
X150225403Y-93330737D02*
X150225403Y-93601670D01*
X150225403Y-93601670D02*
X150264108Y-93756489D01*
X150264108Y-93756489D02*
X150341517Y-93833899D01*
X150341517Y-93833899D02*
X150418927Y-93872603D01*
X150418927Y-93872603D02*
X150573746Y-93872603D01*
X150573746Y-93872603D02*
X150651155Y-93833899D01*
X150651155Y-93833899D02*
X150728565Y-93756489D01*
X150728565Y-93756489D02*
X150767269Y-93601670D01*
X150767269Y-93601670D02*
X150767269Y-93330737D01*
X150767269Y-93330737D02*
X150728565Y-93175918D01*
X150728565Y-93175918D02*
X150651155Y-93098508D01*
X150651155Y-93098508D02*
X150573746Y-93059803D01*
X149915764Y-93137213D02*
X149877060Y-93098508D01*
X149877060Y-93098508D02*
X149799650Y-93059803D01*
X149799650Y-93059803D02*
X149606126Y-93059803D01*
X149606126Y-93059803D02*
X149528717Y-93098508D01*
X149528717Y-93098508D02*
X149490012Y-93137213D01*
X149490012Y-93137213D02*
X149451307Y-93214622D01*
X149451307Y-93214622D02*
X149451307Y-93292032D01*
X149451307Y-93292032D02*
X149490012Y-93408146D01*
X149490012Y-93408146D02*
X149954469Y-93872603D01*
X149954469Y-93872603D02*
X149451307Y-93872603D01*
X152315460Y-90558508D02*
X152392870Y-90519803D01*
X152392870Y-90519803D02*
X152508984Y-90519803D01*
X152508984Y-90519803D02*
X152625098Y-90558508D01*
X152625098Y-90558508D02*
X152702508Y-90635918D01*
X152702508Y-90635918D02*
X152741213Y-90713327D01*
X152741213Y-90713327D02*
X152779917Y-90868146D01*
X152779917Y-90868146D02*
X152779917Y-90984260D01*
X152779917Y-90984260D02*
X152741213Y-91139079D01*
X152741213Y-91139079D02*
X152702508Y-91216489D01*
X152702508Y-91216489D02*
X152625098Y-91293899D01*
X152625098Y-91293899D02*
X152508984Y-91332603D01*
X152508984Y-91332603D02*
X152431575Y-91332603D01*
X152431575Y-91332603D02*
X152315460Y-91293899D01*
X152315460Y-91293899D02*
X152276756Y-91255194D01*
X152276756Y-91255194D02*
X152276756Y-90984260D01*
X152276756Y-90984260D02*
X152431575Y-90984260D01*
X151928413Y-91332603D02*
X151928413Y-90519803D01*
X151928413Y-90519803D02*
X151618775Y-90519803D01*
X151618775Y-90519803D02*
X151541365Y-90558508D01*
X151541365Y-90558508D02*
X151502660Y-90597213D01*
X151502660Y-90597213D02*
X151463956Y-90674622D01*
X151463956Y-90674622D02*
X151463956Y-90790737D01*
X151463956Y-90790737D02*
X151502660Y-90868146D01*
X151502660Y-90868146D02*
X151541365Y-90906851D01*
X151541365Y-90906851D02*
X151618775Y-90945556D01*
X151618775Y-90945556D02*
X151928413Y-90945556D01*
X151115613Y-91332603D02*
X151115613Y-90519803D01*
X150573746Y-90519803D02*
X150418927Y-90519803D01*
X150418927Y-90519803D02*
X150341517Y-90558508D01*
X150341517Y-90558508D02*
X150264108Y-90635918D01*
X150264108Y-90635918D02*
X150225403Y-90790737D01*
X150225403Y-90790737D02*
X150225403Y-91061670D01*
X150225403Y-91061670D02*
X150264108Y-91216489D01*
X150264108Y-91216489D02*
X150341517Y-91293899D01*
X150341517Y-91293899D02*
X150418927Y-91332603D01*
X150418927Y-91332603D02*
X150573746Y-91332603D01*
X150573746Y-91332603D02*
X150651155Y-91293899D01*
X150651155Y-91293899D02*
X150728565Y-91216489D01*
X150728565Y-91216489D02*
X150767269Y-91061670D01*
X150767269Y-91061670D02*
X150767269Y-90790737D01*
X150767269Y-90790737D02*
X150728565Y-90635918D01*
X150728565Y-90635918D02*
X150651155Y-90558508D01*
X150651155Y-90558508D02*
X150573746Y-90519803D01*
X149451307Y-91332603D02*
X149915764Y-91332603D01*
X149683536Y-91332603D02*
X149683536Y-90519803D01*
X149683536Y-90519803D02*
X149760945Y-90635918D01*
X149760945Y-90635918D02*
X149838355Y-90713327D01*
X149838355Y-90713327D02*
X149915764Y-90752032D01*
X148715917Y-90519803D02*
X149102965Y-90519803D01*
X149102965Y-90519803D02*
X149141669Y-90906851D01*
X149141669Y-90906851D02*
X149102965Y-90868146D01*
X149102965Y-90868146D02*
X149025555Y-90829441D01*
X149025555Y-90829441D02*
X148832031Y-90829441D01*
X148832031Y-90829441D02*
X148754622Y-90868146D01*
X148754622Y-90868146D02*
X148715917Y-90906851D01*
X148715917Y-90906851D02*
X148677212Y-90984260D01*
X148677212Y-90984260D02*
X148677212Y-91177784D01*
X148677212Y-91177784D02*
X148715917Y-91255194D01*
X148715917Y-91255194D02*
X148754622Y-91293899D01*
X148754622Y-91293899D02*
X148832031Y-91332603D01*
X148832031Y-91332603D02*
X149025555Y-91332603D01*
X149025555Y-91332603D02*
X149102965Y-91293899D01*
X149102965Y-91293899D02*
X149141669Y-91255194D01*
X133900460Y-110878508D02*
X133977870Y-110839803D01*
X133977870Y-110839803D02*
X134093984Y-110839803D01*
X134093984Y-110839803D02*
X134210098Y-110878508D01*
X134210098Y-110878508D02*
X134287508Y-110955918D01*
X134287508Y-110955918D02*
X134326213Y-111033327D01*
X134326213Y-111033327D02*
X134364917Y-111188146D01*
X134364917Y-111188146D02*
X134364917Y-111304260D01*
X134364917Y-111304260D02*
X134326213Y-111459079D01*
X134326213Y-111459079D02*
X134287508Y-111536489D01*
X134287508Y-111536489D02*
X134210098Y-111613899D01*
X134210098Y-111613899D02*
X134093984Y-111652603D01*
X134093984Y-111652603D02*
X134016575Y-111652603D01*
X134016575Y-111652603D02*
X133900460Y-111613899D01*
X133900460Y-111613899D02*
X133861756Y-111575194D01*
X133861756Y-111575194D02*
X133861756Y-111304260D01*
X133861756Y-111304260D02*
X134016575Y-111304260D01*
X133513413Y-111652603D02*
X133513413Y-110839803D01*
X133513413Y-110839803D02*
X133203775Y-110839803D01*
X133203775Y-110839803D02*
X133126365Y-110878508D01*
X133126365Y-110878508D02*
X133087660Y-110917213D01*
X133087660Y-110917213D02*
X133048956Y-110994622D01*
X133048956Y-110994622D02*
X133048956Y-111110737D01*
X133048956Y-111110737D02*
X133087660Y-111188146D01*
X133087660Y-111188146D02*
X133126365Y-111226851D01*
X133126365Y-111226851D02*
X133203775Y-111265556D01*
X133203775Y-111265556D02*
X133513413Y-111265556D01*
X132700613Y-111652603D02*
X132700613Y-110839803D01*
X132158746Y-110839803D02*
X132003927Y-110839803D01*
X132003927Y-110839803D02*
X131926517Y-110878508D01*
X131926517Y-110878508D02*
X131849108Y-110955918D01*
X131849108Y-110955918D02*
X131810403Y-111110737D01*
X131810403Y-111110737D02*
X131810403Y-111381670D01*
X131810403Y-111381670D02*
X131849108Y-111536489D01*
X131849108Y-111536489D02*
X131926517Y-111613899D01*
X131926517Y-111613899D02*
X132003927Y-111652603D01*
X132003927Y-111652603D02*
X132158746Y-111652603D01*
X132158746Y-111652603D02*
X132236155Y-111613899D01*
X132236155Y-111613899D02*
X132313565Y-111536489D01*
X132313565Y-111536489D02*
X132352269Y-111381670D01*
X132352269Y-111381670D02*
X132352269Y-111110737D01*
X132352269Y-111110737D02*
X132313565Y-110955918D01*
X132313565Y-110955918D02*
X132236155Y-110878508D01*
X132236155Y-110878508D02*
X132158746Y-110839803D01*
X131539469Y-110839803D02*
X131036307Y-110839803D01*
X131036307Y-110839803D02*
X131307241Y-111149441D01*
X131307241Y-111149441D02*
X131191126Y-111149441D01*
X131191126Y-111149441D02*
X131113717Y-111188146D01*
X131113717Y-111188146D02*
X131075012Y-111226851D01*
X131075012Y-111226851D02*
X131036307Y-111304260D01*
X131036307Y-111304260D02*
X131036307Y-111497784D01*
X131036307Y-111497784D02*
X131075012Y-111575194D01*
X131075012Y-111575194D02*
X131113717Y-111613899D01*
X131113717Y-111613899D02*
X131191126Y-111652603D01*
X131191126Y-111652603D02*
X131423355Y-111652603D01*
X131423355Y-111652603D02*
X131500764Y-111613899D01*
X131500764Y-111613899D02*
X131539469Y-111575194D01*
X130300917Y-110839803D02*
X130687965Y-110839803D01*
X130687965Y-110839803D02*
X130726669Y-111226851D01*
X130726669Y-111226851D02*
X130687965Y-111188146D01*
X130687965Y-111188146D02*
X130610555Y-111149441D01*
X130610555Y-111149441D02*
X130417031Y-111149441D01*
X130417031Y-111149441D02*
X130339622Y-111188146D01*
X130339622Y-111188146D02*
X130300917Y-111226851D01*
X130300917Y-111226851D02*
X130262212Y-111304260D01*
X130262212Y-111304260D02*
X130262212Y-111497784D01*
X130262212Y-111497784D02*
X130300917Y-111575194D01*
X130300917Y-111575194D02*
X130339622Y-111613899D01*
X130339622Y-111613899D02*
X130417031Y-111652603D01*
X130417031Y-111652603D02*
X130610555Y-111652603D01*
X130610555Y-111652603D02*
X130687965Y-111613899D01*
X130687965Y-111613899D02*
X130726669Y-111575194D01*
X152315460Y-121038508D02*
X152392870Y-120999803D01*
X152392870Y-120999803D02*
X152508984Y-120999803D01*
X152508984Y-120999803D02*
X152625098Y-121038508D01*
X152625098Y-121038508D02*
X152702508Y-121115918D01*
X152702508Y-121115918D02*
X152741213Y-121193327D01*
X152741213Y-121193327D02*
X152779917Y-121348146D01*
X152779917Y-121348146D02*
X152779917Y-121464260D01*
X152779917Y-121464260D02*
X152741213Y-121619079D01*
X152741213Y-121619079D02*
X152702508Y-121696489D01*
X152702508Y-121696489D02*
X152625098Y-121773899D01*
X152625098Y-121773899D02*
X152508984Y-121812603D01*
X152508984Y-121812603D02*
X152431575Y-121812603D01*
X152431575Y-121812603D02*
X152315460Y-121773899D01*
X152315460Y-121773899D02*
X152276756Y-121735194D01*
X152276756Y-121735194D02*
X152276756Y-121464260D01*
X152276756Y-121464260D02*
X152431575Y-121464260D01*
X151928413Y-121812603D02*
X151928413Y-120999803D01*
X151928413Y-120999803D02*
X151618775Y-120999803D01*
X151618775Y-120999803D02*
X151541365Y-121038508D01*
X151541365Y-121038508D02*
X151502660Y-121077213D01*
X151502660Y-121077213D02*
X151463956Y-121154622D01*
X151463956Y-121154622D02*
X151463956Y-121270737D01*
X151463956Y-121270737D02*
X151502660Y-121348146D01*
X151502660Y-121348146D02*
X151541365Y-121386851D01*
X151541365Y-121386851D02*
X151618775Y-121425556D01*
X151618775Y-121425556D02*
X151928413Y-121425556D01*
X151115613Y-121812603D02*
X151115613Y-120999803D01*
X150573746Y-120999803D02*
X150418927Y-120999803D01*
X150418927Y-120999803D02*
X150341517Y-121038508D01*
X150341517Y-121038508D02*
X150264108Y-121115918D01*
X150264108Y-121115918D02*
X150225403Y-121270737D01*
X150225403Y-121270737D02*
X150225403Y-121541670D01*
X150225403Y-121541670D02*
X150264108Y-121696489D01*
X150264108Y-121696489D02*
X150341517Y-121773899D01*
X150341517Y-121773899D02*
X150418927Y-121812603D01*
X150418927Y-121812603D02*
X150573746Y-121812603D01*
X150573746Y-121812603D02*
X150651155Y-121773899D01*
X150651155Y-121773899D02*
X150728565Y-121696489D01*
X150728565Y-121696489D02*
X150767269Y-121541670D01*
X150767269Y-121541670D02*
X150767269Y-121270737D01*
X150767269Y-121270737D02*
X150728565Y-121115918D01*
X150728565Y-121115918D02*
X150651155Y-121038508D01*
X150651155Y-121038508D02*
X150573746Y-120999803D01*
X149915764Y-121077213D02*
X149877060Y-121038508D01*
X149877060Y-121038508D02*
X149799650Y-120999803D01*
X149799650Y-120999803D02*
X149606126Y-120999803D01*
X149606126Y-120999803D02*
X149528717Y-121038508D01*
X149528717Y-121038508D02*
X149490012Y-121077213D01*
X149490012Y-121077213D02*
X149451307Y-121154622D01*
X149451307Y-121154622D02*
X149451307Y-121232032D01*
X149451307Y-121232032D02*
X149490012Y-121348146D01*
X149490012Y-121348146D02*
X149954469Y-121812603D01*
X149954469Y-121812603D02*
X149451307Y-121812603D01*
X149180374Y-120999803D02*
X148677212Y-120999803D01*
X148677212Y-120999803D02*
X148948146Y-121309441D01*
X148948146Y-121309441D02*
X148832031Y-121309441D01*
X148832031Y-121309441D02*
X148754622Y-121348146D01*
X148754622Y-121348146D02*
X148715917Y-121386851D01*
X148715917Y-121386851D02*
X148677212Y-121464260D01*
X148677212Y-121464260D02*
X148677212Y-121657784D01*
X148677212Y-121657784D02*
X148715917Y-121735194D01*
X148715917Y-121735194D02*
X148754622Y-121773899D01*
X148754622Y-121773899D02*
X148832031Y-121812603D01*
X148832031Y-121812603D02*
X149064260Y-121812603D01*
X149064260Y-121812603D02*
X149141669Y-121773899D01*
X149141669Y-121773899D02*
X149180374Y-121735194D01*
X133900460Y-100718508D02*
X133977870Y-100679803D01*
X133977870Y-100679803D02*
X134093984Y-100679803D01*
X134093984Y-100679803D02*
X134210098Y-100718508D01*
X134210098Y-100718508D02*
X134287508Y-100795918D01*
X134287508Y-100795918D02*
X134326213Y-100873327D01*
X134326213Y-100873327D02*
X134364917Y-101028146D01*
X134364917Y-101028146D02*
X134364917Y-101144260D01*
X134364917Y-101144260D02*
X134326213Y-101299079D01*
X134326213Y-101299079D02*
X134287508Y-101376489D01*
X134287508Y-101376489D02*
X134210098Y-101453899D01*
X134210098Y-101453899D02*
X134093984Y-101492603D01*
X134093984Y-101492603D02*
X134016575Y-101492603D01*
X134016575Y-101492603D02*
X133900460Y-101453899D01*
X133900460Y-101453899D02*
X133861756Y-101415194D01*
X133861756Y-101415194D02*
X133861756Y-101144260D01*
X133861756Y-101144260D02*
X134016575Y-101144260D01*
X133513413Y-101492603D02*
X133513413Y-100679803D01*
X133513413Y-100679803D02*
X133203775Y-100679803D01*
X133203775Y-100679803D02*
X133126365Y-100718508D01*
X133126365Y-100718508D02*
X133087660Y-100757213D01*
X133087660Y-100757213D02*
X133048956Y-100834622D01*
X133048956Y-100834622D02*
X133048956Y-100950737D01*
X133048956Y-100950737D02*
X133087660Y-101028146D01*
X133087660Y-101028146D02*
X133126365Y-101066851D01*
X133126365Y-101066851D02*
X133203775Y-101105556D01*
X133203775Y-101105556D02*
X133513413Y-101105556D01*
X132700613Y-101492603D02*
X132700613Y-100679803D01*
X132158746Y-100679803D02*
X132003927Y-100679803D01*
X132003927Y-100679803D02*
X131926517Y-100718508D01*
X131926517Y-100718508D02*
X131849108Y-100795918D01*
X131849108Y-100795918D02*
X131810403Y-100950737D01*
X131810403Y-100950737D02*
X131810403Y-101221670D01*
X131810403Y-101221670D02*
X131849108Y-101376489D01*
X131849108Y-101376489D02*
X131926517Y-101453899D01*
X131926517Y-101453899D02*
X132003927Y-101492603D01*
X132003927Y-101492603D02*
X132158746Y-101492603D01*
X132158746Y-101492603D02*
X132236155Y-101453899D01*
X132236155Y-101453899D02*
X132313565Y-101376489D01*
X132313565Y-101376489D02*
X132352269Y-101221670D01*
X132352269Y-101221670D02*
X132352269Y-100950737D01*
X132352269Y-100950737D02*
X132313565Y-100795918D01*
X132313565Y-100795918D02*
X132236155Y-100718508D01*
X132236155Y-100718508D02*
X132158746Y-100679803D01*
X131500764Y-100757213D02*
X131462060Y-100718508D01*
X131462060Y-100718508D02*
X131384650Y-100679803D01*
X131384650Y-100679803D02*
X131191126Y-100679803D01*
X131191126Y-100679803D02*
X131113717Y-100718508D01*
X131113717Y-100718508D02*
X131075012Y-100757213D01*
X131075012Y-100757213D02*
X131036307Y-100834622D01*
X131036307Y-100834622D02*
X131036307Y-100912032D01*
X131036307Y-100912032D02*
X131075012Y-101028146D01*
X131075012Y-101028146D02*
X131539469Y-101492603D01*
X131539469Y-101492603D02*
X131036307Y-101492603D01*
X130339622Y-100679803D02*
X130494441Y-100679803D01*
X130494441Y-100679803D02*
X130571850Y-100718508D01*
X130571850Y-100718508D02*
X130610555Y-100757213D01*
X130610555Y-100757213D02*
X130687965Y-100873327D01*
X130687965Y-100873327D02*
X130726669Y-101028146D01*
X130726669Y-101028146D02*
X130726669Y-101337784D01*
X130726669Y-101337784D02*
X130687965Y-101415194D01*
X130687965Y-101415194D02*
X130649260Y-101453899D01*
X130649260Y-101453899D02*
X130571850Y-101492603D01*
X130571850Y-101492603D02*
X130417031Y-101492603D01*
X130417031Y-101492603D02*
X130339622Y-101453899D01*
X130339622Y-101453899D02*
X130300917Y-101415194D01*
X130300917Y-101415194D02*
X130262212Y-101337784D01*
X130262212Y-101337784D02*
X130262212Y-101144260D01*
X130262212Y-101144260D02*
X130300917Y-101066851D01*
X130300917Y-101066851D02*
X130339622Y-101028146D01*
X130339622Y-101028146D02*
X130417031Y-100989441D01*
X130417031Y-100989441D02*
X130571850Y-100989441D01*
X130571850Y-100989441D02*
X130649260Y-101028146D01*
X130649260Y-101028146D02*
X130687965Y-101066851D01*
X130687965Y-101066851D02*
X130726669Y-101144260D01*
X152315460Y-103258508D02*
X152392870Y-103219803D01*
X152392870Y-103219803D02*
X152508984Y-103219803D01*
X152508984Y-103219803D02*
X152625098Y-103258508D01*
X152625098Y-103258508D02*
X152702508Y-103335918D01*
X152702508Y-103335918D02*
X152741213Y-103413327D01*
X152741213Y-103413327D02*
X152779917Y-103568146D01*
X152779917Y-103568146D02*
X152779917Y-103684260D01*
X152779917Y-103684260D02*
X152741213Y-103839079D01*
X152741213Y-103839079D02*
X152702508Y-103916489D01*
X152702508Y-103916489D02*
X152625098Y-103993899D01*
X152625098Y-103993899D02*
X152508984Y-104032603D01*
X152508984Y-104032603D02*
X152431575Y-104032603D01*
X152431575Y-104032603D02*
X152315460Y-103993899D01*
X152315460Y-103993899D02*
X152276756Y-103955194D01*
X152276756Y-103955194D02*
X152276756Y-103684260D01*
X152276756Y-103684260D02*
X152431575Y-103684260D01*
X151928413Y-104032603D02*
X151928413Y-103219803D01*
X151928413Y-103219803D02*
X151618775Y-103219803D01*
X151618775Y-103219803D02*
X151541365Y-103258508D01*
X151541365Y-103258508D02*
X151502660Y-103297213D01*
X151502660Y-103297213D02*
X151463956Y-103374622D01*
X151463956Y-103374622D02*
X151463956Y-103490737D01*
X151463956Y-103490737D02*
X151502660Y-103568146D01*
X151502660Y-103568146D02*
X151541365Y-103606851D01*
X151541365Y-103606851D02*
X151618775Y-103645556D01*
X151618775Y-103645556D02*
X151928413Y-103645556D01*
X151115613Y-104032603D02*
X151115613Y-103219803D01*
X150573746Y-103219803D02*
X150418927Y-103219803D01*
X150418927Y-103219803D02*
X150341517Y-103258508D01*
X150341517Y-103258508D02*
X150264108Y-103335918D01*
X150264108Y-103335918D02*
X150225403Y-103490737D01*
X150225403Y-103490737D02*
X150225403Y-103761670D01*
X150225403Y-103761670D02*
X150264108Y-103916489D01*
X150264108Y-103916489D02*
X150341517Y-103993899D01*
X150341517Y-103993899D02*
X150418927Y-104032603D01*
X150418927Y-104032603D02*
X150573746Y-104032603D01*
X150573746Y-104032603D02*
X150651155Y-103993899D01*
X150651155Y-103993899D02*
X150728565Y-103916489D01*
X150728565Y-103916489D02*
X150767269Y-103761670D01*
X150767269Y-103761670D02*
X150767269Y-103490737D01*
X150767269Y-103490737D02*
X150728565Y-103335918D01*
X150728565Y-103335918D02*
X150651155Y-103258508D01*
X150651155Y-103258508D02*
X150573746Y-103219803D01*
X149490012Y-103219803D02*
X149877060Y-103219803D01*
X149877060Y-103219803D02*
X149915764Y-103606851D01*
X149915764Y-103606851D02*
X149877060Y-103568146D01*
X149877060Y-103568146D02*
X149799650Y-103529441D01*
X149799650Y-103529441D02*
X149606126Y-103529441D01*
X149606126Y-103529441D02*
X149528717Y-103568146D01*
X149528717Y-103568146D02*
X149490012Y-103606851D01*
X149490012Y-103606851D02*
X149451307Y-103684260D01*
X149451307Y-103684260D02*
X149451307Y-103877784D01*
X149451307Y-103877784D02*
X149490012Y-103955194D01*
X149490012Y-103955194D02*
X149528717Y-103993899D01*
X149528717Y-103993899D02*
X149606126Y-104032603D01*
X149606126Y-104032603D02*
X149799650Y-104032603D01*
X149799650Y-104032603D02*
X149877060Y-103993899D01*
X149877060Y-103993899D02*
X149915764Y-103955194D01*
X152315460Y-110878508D02*
X152392870Y-110839803D01*
X152392870Y-110839803D02*
X152508984Y-110839803D01*
X152508984Y-110839803D02*
X152625098Y-110878508D01*
X152625098Y-110878508D02*
X152702508Y-110955918D01*
X152702508Y-110955918D02*
X152741213Y-111033327D01*
X152741213Y-111033327D02*
X152779917Y-111188146D01*
X152779917Y-111188146D02*
X152779917Y-111304260D01*
X152779917Y-111304260D02*
X152741213Y-111459079D01*
X152741213Y-111459079D02*
X152702508Y-111536489D01*
X152702508Y-111536489D02*
X152625098Y-111613899D01*
X152625098Y-111613899D02*
X152508984Y-111652603D01*
X152508984Y-111652603D02*
X152431575Y-111652603D01*
X152431575Y-111652603D02*
X152315460Y-111613899D01*
X152315460Y-111613899D02*
X152276756Y-111575194D01*
X152276756Y-111575194D02*
X152276756Y-111304260D01*
X152276756Y-111304260D02*
X152431575Y-111304260D01*
X151928413Y-111652603D02*
X151928413Y-110839803D01*
X151928413Y-110839803D02*
X151618775Y-110839803D01*
X151618775Y-110839803D02*
X151541365Y-110878508D01*
X151541365Y-110878508D02*
X151502660Y-110917213D01*
X151502660Y-110917213D02*
X151463956Y-110994622D01*
X151463956Y-110994622D02*
X151463956Y-111110737D01*
X151463956Y-111110737D02*
X151502660Y-111188146D01*
X151502660Y-111188146D02*
X151541365Y-111226851D01*
X151541365Y-111226851D02*
X151618775Y-111265556D01*
X151618775Y-111265556D02*
X151928413Y-111265556D01*
X151115613Y-111652603D02*
X151115613Y-110839803D01*
X150573746Y-110839803D02*
X150418927Y-110839803D01*
X150418927Y-110839803D02*
X150341517Y-110878508D01*
X150341517Y-110878508D02*
X150264108Y-110955918D01*
X150264108Y-110955918D02*
X150225403Y-111110737D01*
X150225403Y-111110737D02*
X150225403Y-111381670D01*
X150225403Y-111381670D02*
X150264108Y-111536489D01*
X150264108Y-111536489D02*
X150341517Y-111613899D01*
X150341517Y-111613899D02*
X150418927Y-111652603D01*
X150418927Y-111652603D02*
X150573746Y-111652603D01*
X150573746Y-111652603D02*
X150651155Y-111613899D01*
X150651155Y-111613899D02*
X150728565Y-111536489D01*
X150728565Y-111536489D02*
X150767269Y-111381670D01*
X150767269Y-111381670D02*
X150767269Y-111110737D01*
X150767269Y-111110737D02*
X150728565Y-110955918D01*
X150728565Y-110955918D02*
X150651155Y-110878508D01*
X150651155Y-110878508D02*
X150573746Y-110839803D01*
X149915764Y-110917213D02*
X149877060Y-110878508D01*
X149877060Y-110878508D02*
X149799650Y-110839803D01*
X149799650Y-110839803D02*
X149606126Y-110839803D01*
X149606126Y-110839803D02*
X149528717Y-110878508D01*
X149528717Y-110878508D02*
X149490012Y-110917213D01*
X149490012Y-110917213D02*
X149451307Y-110994622D01*
X149451307Y-110994622D02*
X149451307Y-111072032D01*
X149451307Y-111072032D02*
X149490012Y-111188146D01*
X149490012Y-111188146D02*
X149954469Y-111652603D01*
X149954469Y-111652603D02*
X149451307Y-111652603D01*
X148677212Y-111652603D02*
X149141669Y-111652603D01*
X148909441Y-111652603D02*
X148909441Y-110839803D01*
X148909441Y-110839803D02*
X148986850Y-110955918D01*
X148986850Y-110955918D02*
X149064260Y-111033327D01*
X149064260Y-111033327D02*
X149141669Y-111072032D01*
X152315460Y-115958508D02*
X152392870Y-115919803D01*
X152392870Y-115919803D02*
X152508984Y-115919803D01*
X152508984Y-115919803D02*
X152625098Y-115958508D01*
X152625098Y-115958508D02*
X152702508Y-116035918D01*
X152702508Y-116035918D02*
X152741213Y-116113327D01*
X152741213Y-116113327D02*
X152779917Y-116268146D01*
X152779917Y-116268146D02*
X152779917Y-116384260D01*
X152779917Y-116384260D02*
X152741213Y-116539079D01*
X152741213Y-116539079D02*
X152702508Y-116616489D01*
X152702508Y-116616489D02*
X152625098Y-116693899D01*
X152625098Y-116693899D02*
X152508984Y-116732603D01*
X152508984Y-116732603D02*
X152431575Y-116732603D01*
X152431575Y-116732603D02*
X152315460Y-116693899D01*
X152315460Y-116693899D02*
X152276756Y-116655194D01*
X152276756Y-116655194D02*
X152276756Y-116384260D01*
X152276756Y-116384260D02*
X152431575Y-116384260D01*
X151928413Y-116732603D02*
X151928413Y-115919803D01*
X151928413Y-115919803D02*
X151618775Y-115919803D01*
X151618775Y-115919803D02*
X151541365Y-115958508D01*
X151541365Y-115958508D02*
X151502660Y-115997213D01*
X151502660Y-115997213D02*
X151463956Y-116074622D01*
X151463956Y-116074622D02*
X151463956Y-116190737D01*
X151463956Y-116190737D02*
X151502660Y-116268146D01*
X151502660Y-116268146D02*
X151541365Y-116306851D01*
X151541365Y-116306851D02*
X151618775Y-116345556D01*
X151618775Y-116345556D02*
X151928413Y-116345556D01*
X151115613Y-116732603D02*
X151115613Y-115919803D01*
X150573746Y-115919803D02*
X150418927Y-115919803D01*
X150418927Y-115919803D02*
X150341517Y-115958508D01*
X150341517Y-115958508D02*
X150264108Y-116035918D01*
X150264108Y-116035918D02*
X150225403Y-116190737D01*
X150225403Y-116190737D02*
X150225403Y-116461670D01*
X150225403Y-116461670D02*
X150264108Y-116616489D01*
X150264108Y-116616489D02*
X150341517Y-116693899D01*
X150341517Y-116693899D02*
X150418927Y-116732603D01*
X150418927Y-116732603D02*
X150573746Y-116732603D01*
X150573746Y-116732603D02*
X150651155Y-116693899D01*
X150651155Y-116693899D02*
X150728565Y-116616489D01*
X150728565Y-116616489D02*
X150767269Y-116461670D01*
X150767269Y-116461670D02*
X150767269Y-116190737D01*
X150767269Y-116190737D02*
X150728565Y-116035918D01*
X150728565Y-116035918D02*
X150651155Y-115958508D01*
X150651155Y-115958508D02*
X150573746Y-115919803D01*
X149451307Y-116732603D02*
X149915764Y-116732603D01*
X149683536Y-116732603D02*
X149683536Y-115919803D01*
X149683536Y-115919803D02*
X149760945Y-116035918D01*
X149760945Y-116035918D02*
X149838355Y-116113327D01*
X149838355Y-116113327D02*
X149915764Y-116152032D01*
X131902327Y-85439803D02*
X131631394Y-86252603D01*
X131631394Y-86252603D02*
X131360460Y-85439803D01*
X131089527Y-86252603D02*
X131089527Y-85439803D01*
X130702479Y-86252603D02*
X130702479Y-85439803D01*
X130702479Y-85439803D02*
X130238022Y-86252603D01*
X130238022Y-86252603D02*
X130238022Y-85439803D01*
X152315460Y-95638508D02*
X152392870Y-95599803D01*
X152392870Y-95599803D02*
X152508984Y-95599803D01*
X152508984Y-95599803D02*
X152625098Y-95638508D01*
X152625098Y-95638508D02*
X152702508Y-95715918D01*
X152702508Y-95715918D02*
X152741213Y-95793327D01*
X152741213Y-95793327D02*
X152779917Y-95948146D01*
X152779917Y-95948146D02*
X152779917Y-96064260D01*
X152779917Y-96064260D02*
X152741213Y-96219079D01*
X152741213Y-96219079D02*
X152702508Y-96296489D01*
X152702508Y-96296489D02*
X152625098Y-96373899D01*
X152625098Y-96373899D02*
X152508984Y-96412603D01*
X152508984Y-96412603D02*
X152431575Y-96412603D01*
X152431575Y-96412603D02*
X152315460Y-96373899D01*
X152315460Y-96373899D02*
X152276756Y-96335194D01*
X152276756Y-96335194D02*
X152276756Y-96064260D01*
X152276756Y-96064260D02*
X152431575Y-96064260D01*
X151928413Y-96412603D02*
X151928413Y-95599803D01*
X151928413Y-95599803D02*
X151618775Y-95599803D01*
X151618775Y-95599803D02*
X151541365Y-95638508D01*
X151541365Y-95638508D02*
X151502660Y-95677213D01*
X151502660Y-95677213D02*
X151463956Y-95754622D01*
X151463956Y-95754622D02*
X151463956Y-95870737D01*
X151463956Y-95870737D02*
X151502660Y-95948146D01*
X151502660Y-95948146D02*
X151541365Y-95986851D01*
X151541365Y-95986851D02*
X151618775Y-96025556D01*
X151618775Y-96025556D02*
X151928413Y-96025556D01*
X151115613Y-96412603D02*
X151115613Y-95599803D01*
X150573746Y-95599803D02*
X150418927Y-95599803D01*
X150418927Y-95599803D02*
X150341517Y-95638508D01*
X150341517Y-95638508D02*
X150264108Y-95715918D01*
X150264108Y-95715918D02*
X150225403Y-95870737D01*
X150225403Y-95870737D02*
X150225403Y-96141670D01*
X150225403Y-96141670D02*
X150264108Y-96296489D01*
X150264108Y-96296489D02*
X150341517Y-96373899D01*
X150341517Y-96373899D02*
X150418927Y-96412603D01*
X150418927Y-96412603D02*
X150573746Y-96412603D01*
X150573746Y-96412603D02*
X150651155Y-96373899D01*
X150651155Y-96373899D02*
X150728565Y-96296489D01*
X150728565Y-96296489D02*
X150767269Y-96141670D01*
X150767269Y-96141670D02*
X150767269Y-95870737D01*
X150767269Y-95870737D02*
X150728565Y-95715918D01*
X150728565Y-95715918D02*
X150651155Y-95638508D01*
X150651155Y-95638508D02*
X150573746Y-95599803D01*
X149528717Y-95870737D02*
X149528717Y-96412603D01*
X149722241Y-95561099D02*
X149915764Y-96141670D01*
X149915764Y-96141670D02*
X149412603Y-96141670D01*
X133900460Y-95638508D02*
X133977870Y-95599803D01*
X133977870Y-95599803D02*
X134093984Y-95599803D01*
X134093984Y-95599803D02*
X134210098Y-95638508D01*
X134210098Y-95638508D02*
X134287508Y-95715918D01*
X134287508Y-95715918D02*
X134326213Y-95793327D01*
X134326213Y-95793327D02*
X134364917Y-95948146D01*
X134364917Y-95948146D02*
X134364917Y-96064260D01*
X134364917Y-96064260D02*
X134326213Y-96219079D01*
X134326213Y-96219079D02*
X134287508Y-96296489D01*
X134287508Y-96296489D02*
X134210098Y-96373899D01*
X134210098Y-96373899D02*
X134093984Y-96412603D01*
X134093984Y-96412603D02*
X134016575Y-96412603D01*
X134016575Y-96412603D02*
X133900460Y-96373899D01*
X133900460Y-96373899D02*
X133861756Y-96335194D01*
X133861756Y-96335194D02*
X133861756Y-96064260D01*
X133861756Y-96064260D02*
X134016575Y-96064260D01*
X133513413Y-96412603D02*
X133513413Y-95599803D01*
X133513413Y-95599803D02*
X133203775Y-95599803D01*
X133203775Y-95599803D02*
X133126365Y-95638508D01*
X133126365Y-95638508D02*
X133087660Y-95677213D01*
X133087660Y-95677213D02*
X133048956Y-95754622D01*
X133048956Y-95754622D02*
X133048956Y-95870737D01*
X133048956Y-95870737D02*
X133087660Y-95948146D01*
X133087660Y-95948146D02*
X133126365Y-95986851D01*
X133126365Y-95986851D02*
X133203775Y-96025556D01*
X133203775Y-96025556D02*
X133513413Y-96025556D01*
X132700613Y-96412603D02*
X132700613Y-95599803D01*
X132158746Y-95599803D02*
X132003927Y-95599803D01*
X132003927Y-95599803D02*
X131926517Y-95638508D01*
X131926517Y-95638508D02*
X131849108Y-95715918D01*
X131849108Y-95715918D02*
X131810403Y-95870737D01*
X131810403Y-95870737D02*
X131810403Y-96141670D01*
X131810403Y-96141670D02*
X131849108Y-96296489D01*
X131849108Y-96296489D02*
X131926517Y-96373899D01*
X131926517Y-96373899D02*
X132003927Y-96412603D01*
X132003927Y-96412603D02*
X132158746Y-96412603D01*
X132158746Y-96412603D02*
X132236155Y-96373899D01*
X132236155Y-96373899D02*
X132313565Y-96296489D01*
X132313565Y-96296489D02*
X132352269Y-96141670D01*
X132352269Y-96141670D02*
X132352269Y-95870737D01*
X132352269Y-95870737D02*
X132313565Y-95715918D01*
X132313565Y-95715918D02*
X132236155Y-95638508D01*
X132236155Y-95638508D02*
X132158746Y-95599803D01*
X131036307Y-96412603D02*
X131500764Y-96412603D01*
X131268536Y-96412603D02*
X131268536Y-95599803D01*
X131268536Y-95599803D02*
X131345945Y-95715918D01*
X131345945Y-95715918D02*
X131423355Y-95793327D01*
X131423355Y-95793327D02*
X131500764Y-95832032D01*
X130339622Y-95870737D02*
X130339622Y-96412603D01*
X130533146Y-95561099D02*
X130726669Y-96141670D01*
X130726669Y-96141670D02*
X130223508Y-96141670D01*
X152315460Y-108338508D02*
X152392870Y-108299803D01*
X152392870Y-108299803D02*
X152508984Y-108299803D01*
X152508984Y-108299803D02*
X152625098Y-108338508D01*
X152625098Y-108338508D02*
X152702508Y-108415918D01*
X152702508Y-108415918D02*
X152741213Y-108493327D01*
X152741213Y-108493327D02*
X152779917Y-108648146D01*
X152779917Y-108648146D02*
X152779917Y-108764260D01*
X152779917Y-108764260D02*
X152741213Y-108919079D01*
X152741213Y-108919079D02*
X152702508Y-108996489D01*
X152702508Y-108996489D02*
X152625098Y-109073899D01*
X152625098Y-109073899D02*
X152508984Y-109112603D01*
X152508984Y-109112603D02*
X152431575Y-109112603D01*
X152431575Y-109112603D02*
X152315460Y-109073899D01*
X152315460Y-109073899D02*
X152276756Y-109035194D01*
X152276756Y-109035194D02*
X152276756Y-108764260D01*
X152276756Y-108764260D02*
X152431575Y-108764260D01*
X151928413Y-109112603D02*
X151928413Y-108299803D01*
X151928413Y-108299803D02*
X151618775Y-108299803D01*
X151618775Y-108299803D02*
X151541365Y-108338508D01*
X151541365Y-108338508D02*
X151502660Y-108377213D01*
X151502660Y-108377213D02*
X151463956Y-108454622D01*
X151463956Y-108454622D02*
X151463956Y-108570737D01*
X151463956Y-108570737D02*
X151502660Y-108648146D01*
X151502660Y-108648146D02*
X151541365Y-108686851D01*
X151541365Y-108686851D02*
X151618775Y-108725556D01*
X151618775Y-108725556D02*
X151928413Y-108725556D01*
X151115613Y-109112603D02*
X151115613Y-108299803D01*
X150573746Y-108299803D02*
X150418927Y-108299803D01*
X150418927Y-108299803D02*
X150341517Y-108338508D01*
X150341517Y-108338508D02*
X150264108Y-108415918D01*
X150264108Y-108415918D02*
X150225403Y-108570737D01*
X150225403Y-108570737D02*
X150225403Y-108841670D01*
X150225403Y-108841670D02*
X150264108Y-108996489D01*
X150264108Y-108996489D02*
X150341517Y-109073899D01*
X150341517Y-109073899D02*
X150418927Y-109112603D01*
X150418927Y-109112603D02*
X150573746Y-109112603D01*
X150573746Y-109112603D02*
X150651155Y-109073899D01*
X150651155Y-109073899D02*
X150728565Y-108996489D01*
X150728565Y-108996489D02*
X150767269Y-108841670D01*
X150767269Y-108841670D02*
X150767269Y-108570737D01*
X150767269Y-108570737D02*
X150728565Y-108415918D01*
X150728565Y-108415918D02*
X150651155Y-108338508D01*
X150651155Y-108338508D02*
X150573746Y-108299803D01*
X149451307Y-109112603D02*
X149915764Y-109112603D01*
X149683536Y-109112603D02*
X149683536Y-108299803D01*
X149683536Y-108299803D02*
X149760945Y-108415918D01*
X149760945Y-108415918D02*
X149838355Y-108493327D01*
X149838355Y-108493327D02*
X149915764Y-108532032D01*
X149064260Y-109112603D02*
X148909441Y-109112603D01*
X148909441Y-109112603D02*
X148832031Y-109073899D01*
X148832031Y-109073899D02*
X148793327Y-109035194D01*
X148793327Y-109035194D02*
X148715917Y-108919079D01*
X148715917Y-108919079D02*
X148677212Y-108764260D01*
X148677212Y-108764260D02*
X148677212Y-108454622D01*
X148677212Y-108454622D02*
X148715917Y-108377213D01*
X148715917Y-108377213D02*
X148754622Y-108338508D01*
X148754622Y-108338508D02*
X148832031Y-108299803D01*
X148832031Y-108299803D02*
X148986850Y-108299803D01*
X148986850Y-108299803D02*
X149064260Y-108338508D01*
X149064260Y-108338508D02*
X149102965Y-108377213D01*
X149102965Y-108377213D02*
X149141669Y-108454622D01*
X149141669Y-108454622D02*
X149141669Y-108648146D01*
X149141669Y-108648146D02*
X149102965Y-108725556D01*
X149102965Y-108725556D02*
X149064260Y-108764260D01*
X149064260Y-108764260D02*
X148986850Y-108802965D01*
X148986850Y-108802965D02*
X148832031Y-108802965D01*
X148832031Y-108802965D02*
X148754622Y-108764260D01*
X148754622Y-108764260D02*
X148715917Y-108725556D01*
X148715917Y-108725556D02*
X148677212Y-108648146D01*
X133900460Y-103258508D02*
X133977870Y-103219803D01*
X133977870Y-103219803D02*
X134093984Y-103219803D01*
X134093984Y-103219803D02*
X134210098Y-103258508D01*
X134210098Y-103258508D02*
X134287508Y-103335918D01*
X134287508Y-103335918D02*
X134326213Y-103413327D01*
X134326213Y-103413327D02*
X134364917Y-103568146D01*
X134364917Y-103568146D02*
X134364917Y-103684260D01*
X134364917Y-103684260D02*
X134326213Y-103839079D01*
X134326213Y-103839079D02*
X134287508Y-103916489D01*
X134287508Y-103916489D02*
X134210098Y-103993899D01*
X134210098Y-103993899D02*
X134093984Y-104032603D01*
X134093984Y-104032603D02*
X134016575Y-104032603D01*
X134016575Y-104032603D02*
X133900460Y-103993899D01*
X133900460Y-103993899D02*
X133861756Y-103955194D01*
X133861756Y-103955194D02*
X133861756Y-103684260D01*
X133861756Y-103684260D02*
X134016575Y-103684260D01*
X133513413Y-104032603D02*
X133513413Y-103219803D01*
X133513413Y-103219803D02*
X133203775Y-103219803D01*
X133203775Y-103219803D02*
X133126365Y-103258508D01*
X133126365Y-103258508D02*
X133087660Y-103297213D01*
X133087660Y-103297213D02*
X133048956Y-103374622D01*
X133048956Y-103374622D02*
X133048956Y-103490737D01*
X133048956Y-103490737D02*
X133087660Y-103568146D01*
X133087660Y-103568146D02*
X133126365Y-103606851D01*
X133126365Y-103606851D02*
X133203775Y-103645556D01*
X133203775Y-103645556D02*
X133513413Y-103645556D01*
X132700613Y-104032603D02*
X132700613Y-103219803D01*
X132158746Y-103219803D02*
X132003927Y-103219803D01*
X132003927Y-103219803D02*
X131926517Y-103258508D01*
X131926517Y-103258508D02*
X131849108Y-103335918D01*
X131849108Y-103335918D02*
X131810403Y-103490737D01*
X131810403Y-103490737D02*
X131810403Y-103761670D01*
X131810403Y-103761670D02*
X131849108Y-103916489D01*
X131849108Y-103916489D02*
X131926517Y-103993899D01*
X131926517Y-103993899D02*
X132003927Y-104032603D01*
X132003927Y-104032603D02*
X132158746Y-104032603D01*
X132158746Y-104032603D02*
X132236155Y-103993899D01*
X132236155Y-103993899D02*
X132313565Y-103916489D01*
X132313565Y-103916489D02*
X132352269Y-103761670D01*
X132352269Y-103761670D02*
X132352269Y-103490737D01*
X132352269Y-103490737D02*
X132313565Y-103335918D01*
X132313565Y-103335918D02*
X132236155Y-103258508D01*
X132236155Y-103258508D02*
X132158746Y-103219803D01*
X131500764Y-103297213D02*
X131462060Y-103258508D01*
X131462060Y-103258508D02*
X131384650Y-103219803D01*
X131384650Y-103219803D02*
X131191126Y-103219803D01*
X131191126Y-103219803D02*
X131113717Y-103258508D01*
X131113717Y-103258508D02*
X131075012Y-103297213D01*
X131075012Y-103297213D02*
X131036307Y-103374622D01*
X131036307Y-103374622D02*
X131036307Y-103452032D01*
X131036307Y-103452032D02*
X131075012Y-103568146D01*
X131075012Y-103568146D02*
X131539469Y-104032603D01*
X131539469Y-104032603D02*
X131036307Y-104032603D01*
X130300917Y-103219803D02*
X130687965Y-103219803D01*
X130687965Y-103219803D02*
X130726669Y-103606851D01*
X130726669Y-103606851D02*
X130687965Y-103568146D01*
X130687965Y-103568146D02*
X130610555Y-103529441D01*
X130610555Y-103529441D02*
X130417031Y-103529441D01*
X130417031Y-103529441D02*
X130339622Y-103568146D01*
X130339622Y-103568146D02*
X130300917Y-103606851D01*
X130300917Y-103606851D02*
X130262212Y-103684260D01*
X130262212Y-103684260D02*
X130262212Y-103877784D01*
X130262212Y-103877784D02*
X130300917Y-103955194D01*
X130300917Y-103955194D02*
X130339622Y-103993899D01*
X130339622Y-103993899D02*
X130417031Y-104032603D01*
X130417031Y-104032603D02*
X130610555Y-104032603D01*
X130610555Y-104032603D02*
X130687965Y-103993899D01*
X130687965Y-103993899D02*
X130726669Y-103955194D01*
X152818622Y-85439803D02*
X152315460Y-85439803D01*
X152315460Y-85439803D02*
X152586394Y-85749441D01*
X152586394Y-85749441D02*
X152470279Y-85749441D01*
X152470279Y-85749441D02*
X152392870Y-85788146D01*
X152392870Y-85788146D02*
X152354165Y-85826851D01*
X152354165Y-85826851D02*
X152315460Y-85904260D01*
X152315460Y-85904260D02*
X152315460Y-86097784D01*
X152315460Y-86097784D02*
X152354165Y-86175194D01*
X152354165Y-86175194D02*
X152392870Y-86213899D01*
X152392870Y-86213899D02*
X152470279Y-86252603D01*
X152470279Y-86252603D02*
X152702508Y-86252603D01*
X152702508Y-86252603D02*
X152779917Y-86213899D01*
X152779917Y-86213899D02*
X152818622Y-86175194D01*
X151967118Y-86175194D02*
X151928413Y-86213899D01*
X151928413Y-86213899D02*
X151967118Y-86252603D01*
X151967118Y-86252603D02*
X152005822Y-86213899D01*
X152005822Y-86213899D02*
X151967118Y-86175194D01*
X151967118Y-86175194D02*
X151967118Y-86252603D01*
X151657479Y-85439803D02*
X151154317Y-85439803D01*
X151154317Y-85439803D02*
X151425251Y-85749441D01*
X151425251Y-85749441D02*
X151309136Y-85749441D01*
X151309136Y-85749441D02*
X151231727Y-85788146D01*
X151231727Y-85788146D02*
X151193022Y-85826851D01*
X151193022Y-85826851D02*
X151154317Y-85904260D01*
X151154317Y-85904260D02*
X151154317Y-86097784D01*
X151154317Y-86097784D02*
X151193022Y-86175194D01*
X151193022Y-86175194D02*
X151231727Y-86213899D01*
X151231727Y-86213899D02*
X151309136Y-86252603D01*
X151309136Y-86252603D02*
X151541365Y-86252603D01*
X151541365Y-86252603D02*
X151618774Y-86213899D01*
X151618774Y-86213899D02*
X151657479Y-86175194D01*
X150883384Y-85710737D02*
X150689860Y-86252603D01*
X150689860Y-86252603D02*
X150496337Y-85710737D01*
X133900460Y-115958508D02*
X133977870Y-115919803D01*
X133977870Y-115919803D02*
X134093984Y-115919803D01*
X134093984Y-115919803D02*
X134210098Y-115958508D01*
X134210098Y-115958508D02*
X134287508Y-116035918D01*
X134287508Y-116035918D02*
X134326213Y-116113327D01*
X134326213Y-116113327D02*
X134364917Y-116268146D01*
X134364917Y-116268146D02*
X134364917Y-116384260D01*
X134364917Y-116384260D02*
X134326213Y-116539079D01*
X134326213Y-116539079D02*
X134287508Y-116616489D01*
X134287508Y-116616489D02*
X134210098Y-116693899D01*
X134210098Y-116693899D02*
X134093984Y-116732603D01*
X134093984Y-116732603D02*
X134016575Y-116732603D01*
X134016575Y-116732603D02*
X133900460Y-116693899D01*
X133900460Y-116693899D02*
X133861756Y-116655194D01*
X133861756Y-116655194D02*
X133861756Y-116384260D01*
X133861756Y-116384260D02*
X134016575Y-116384260D01*
X133513413Y-116732603D02*
X133513413Y-115919803D01*
X133513413Y-115919803D02*
X133203775Y-115919803D01*
X133203775Y-115919803D02*
X133126365Y-115958508D01*
X133126365Y-115958508D02*
X133087660Y-115997213D01*
X133087660Y-115997213D02*
X133048956Y-116074622D01*
X133048956Y-116074622D02*
X133048956Y-116190737D01*
X133048956Y-116190737D02*
X133087660Y-116268146D01*
X133087660Y-116268146D02*
X133126365Y-116306851D01*
X133126365Y-116306851D02*
X133203775Y-116345556D01*
X133203775Y-116345556D02*
X133513413Y-116345556D01*
X132700613Y-116732603D02*
X132700613Y-115919803D01*
X132158746Y-115919803D02*
X132003927Y-115919803D01*
X132003927Y-115919803D02*
X131926517Y-115958508D01*
X131926517Y-115958508D02*
X131849108Y-116035918D01*
X131849108Y-116035918D02*
X131810403Y-116190737D01*
X131810403Y-116190737D02*
X131810403Y-116461670D01*
X131810403Y-116461670D02*
X131849108Y-116616489D01*
X131849108Y-116616489D02*
X131926517Y-116693899D01*
X131926517Y-116693899D02*
X132003927Y-116732603D01*
X132003927Y-116732603D02*
X132158746Y-116732603D01*
X132158746Y-116732603D02*
X132236155Y-116693899D01*
X132236155Y-116693899D02*
X132313565Y-116616489D01*
X132313565Y-116616489D02*
X132352269Y-116461670D01*
X132352269Y-116461670D02*
X132352269Y-116190737D01*
X132352269Y-116190737D02*
X132313565Y-116035918D01*
X132313565Y-116035918D02*
X132236155Y-115958508D01*
X132236155Y-115958508D02*
X132158746Y-115919803D01*
X131539469Y-115919803D02*
X131036307Y-115919803D01*
X131036307Y-115919803D02*
X131307241Y-116229441D01*
X131307241Y-116229441D02*
X131191126Y-116229441D01*
X131191126Y-116229441D02*
X131113717Y-116268146D01*
X131113717Y-116268146D02*
X131075012Y-116306851D01*
X131075012Y-116306851D02*
X131036307Y-116384260D01*
X131036307Y-116384260D02*
X131036307Y-116577784D01*
X131036307Y-116577784D02*
X131075012Y-116655194D01*
X131075012Y-116655194D02*
X131113717Y-116693899D01*
X131113717Y-116693899D02*
X131191126Y-116732603D01*
X131191126Y-116732603D02*
X131423355Y-116732603D01*
X131423355Y-116732603D02*
X131500764Y-116693899D01*
X131500764Y-116693899D02*
X131539469Y-116655194D01*
X130649260Y-116732603D02*
X130494441Y-116732603D01*
X130494441Y-116732603D02*
X130417031Y-116693899D01*
X130417031Y-116693899D02*
X130378327Y-116655194D01*
X130378327Y-116655194D02*
X130300917Y-116539079D01*
X130300917Y-116539079D02*
X130262212Y-116384260D01*
X130262212Y-116384260D02*
X130262212Y-116074622D01*
X130262212Y-116074622D02*
X130300917Y-115997213D01*
X130300917Y-115997213D02*
X130339622Y-115958508D01*
X130339622Y-115958508D02*
X130417031Y-115919803D01*
X130417031Y-115919803D02*
X130571850Y-115919803D01*
X130571850Y-115919803D02*
X130649260Y-115958508D01*
X130649260Y-115958508D02*
X130687965Y-115997213D01*
X130687965Y-115997213D02*
X130726669Y-116074622D01*
X130726669Y-116074622D02*
X130726669Y-116268146D01*
X130726669Y-116268146D02*
X130687965Y-116345556D01*
X130687965Y-116345556D02*
X130649260Y-116384260D01*
X130649260Y-116384260D02*
X130571850Y-116422965D01*
X130571850Y-116422965D02*
X130417031Y-116422965D01*
X130417031Y-116422965D02*
X130339622Y-116384260D01*
X130339622Y-116384260D02*
X130300917Y-116345556D01*
X130300917Y-116345556D02*
X130262212Y-116268146D01*
X131786213Y-121386851D02*
X131515279Y-121386851D01*
X131399165Y-121812603D02*
X131786213Y-121812603D01*
X131786213Y-121812603D02*
X131786213Y-120999803D01*
X131786213Y-120999803D02*
X131399165Y-120999803D01*
X131050823Y-121812603D02*
X131050823Y-120999803D01*
X131050823Y-120999803D02*
X130586366Y-121812603D01*
X130586366Y-121812603D02*
X130586366Y-120999803D01*
X133900460Y-108338508D02*
X133977870Y-108299803D01*
X133977870Y-108299803D02*
X134093984Y-108299803D01*
X134093984Y-108299803D02*
X134210098Y-108338508D01*
X134210098Y-108338508D02*
X134287508Y-108415918D01*
X134287508Y-108415918D02*
X134326213Y-108493327D01*
X134326213Y-108493327D02*
X134364917Y-108648146D01*
X134364917Y-108648146D02*
X134364917Y-108764260D01*
X134364917Y-108764260D02*
X134326213Y-108919079D01*
X134326213Y-108919079D02*
X134287508Y-108996489D01*
X134287508Y-108996489D02*
X134210098Y-109073899D01*
X134210098Y-109073899D02*
X134093984Y-109112603D01*
X134093984Y-109112603D02*
X134016575Y-109112603D01*
X134016575Y-109112603D02*
X133900460Y-109073899D01*
X133900460Y-109073899D02*
X133861756Y-109035194D01*
X133861756Y-109035194D02*
X133861756Y-108764260D01*
X133861756Y-108764260D02*
X134016575Y-108764260D01*
X133513413Y-109112603D02*
X133513413Y-108299803D01*
X133513413Y-108299803D02*
X133203775Y-108299803D01*
X133203775Y-108299803D02*
X133126365Y-108338508D01*
X133126365Y-108338508D02*
X133087660Y-108377213D01*
X133087660Y-108377213D02*
X133048956Y-108454622D01*
X133048956Y-108454622D02*
X133048956Y-108570737D01*
X133048956Y-108570737D02*
X133087660Y-108648146D01*
X133087660Y-108648146D02*
X133126365Y-108686851D01*
X133126365Y-108686851D02*
X133203775Y-108725556D01*
X133203775Y-108725556D02*
X133513413Y-108725556D01*
X132700613Y-109112603D02*
X132700613Y-108299803D01*
X132158746Y-108299803D02*
X132003927Y-108299803D01*
X132003927Y-108299803D02*
X131926517Y-108338508D01*
X131926517Y-108338508D02*
X131849108Y-108415918D01*
X131849108Y-108415918D02*
X131810403Y-108570737D01*
X131810403Y-108570737D02*
X131810403Y-108841670D01*
X131810403Y-108841670D02*
X131849108Y-108996489D01*
X131849108Y-108996489D02*
X131926517Y-109073899D01*
X131926517Y-109073899D02*
X132003927Y-109112603D01*
X132003927Y-109112603D02*
X132158746Y-109112603D01*
X132158746Y-109112603D02*
X132236155Y-109073899D01*
X132236155Y-109073899D02*
X132313565Y-108996489D01*
X132313565Y-108996489D02*
X132352269Y-108841670D01*
X132352269Y-108841670D02*
X132352269Y-108570737D01*
X132352269Y-108570737D02*
X132313565Y-108415918D01*
X132313565Y-108415918D02*
X132236155Y-108338508D01*
X132236155Y-108338508D02*
X132158746Y-108299803D01*
X131539469Y-108299803D02*
X131036307Y-108299803D01*
X131036307Y-108299803D02*
X131307241Y-108609441D01*
X131307241Y-108609441D02*
X131191126Y-108609441D01*
X131191126Y-108609441D02*
X131113717Y-108648146D01*
X131113717Y-108648146D02*
X131075012Y-108686851D01*
X131075012Y-108686851D02*
X131036307Y-108764260D01*
X131036307Y-108764260D02*
X131036307Y-108957784D01*
X131036307Y-108957784D02*
X131075012Y-109035194D01*
X131075012Y-109035194D02*
X131113717Y-109073899D01*
X131113717Y-109073899D02*
X131191126Y-109112603D01*
X131191126Y-109112603D02*
X131423355Y-109112603D01*
X131423355Y-109112603D02*
X131500764Y-109073899D01*
X131500764Y-109073899D02*
X131539469Y-109035194D01*
X130726669Y-108377213D02*
X130687965Y-108338508D01*
X130687965Y-108338508D02*
X130610555Y-108299803D01*
X130610555Y-108299803D02*
X130417031Y-108299803D01*
X130417031Y-108299803D02*
X130339622Y-108338508D01*
X130339622Y-108338508D02*
X130300917Y-108377213D01*
X130300917Y-108377213D02*
X130262212Y-108454622D01*
X130262212Y-108454622D02*
X130262212Y-108532032D01*
X130262212Y-108532032D02*
X130300917Y-108648146D01*
X130300917Y-108648146D02*
X130765374Y-109112603D01*
X130765374Y-109112603D02*
X130262212Y-109112603D01*
X133900460Y-113418508D02*
X133977870Y-113379803D01*
X133977870Y-113379803D02*
X134093984Y-113379803D01*
X134093984Y-113379803D02*
X134210098Y-113418508D01*
X134210098Y-113418508D02*
X134287508Y-113495918D01*
X134287508Y-113495918D02*
X134326213Y-113573327D01*
X134326213Y-113573327D02*
X134364917Y-113728146D01*
X134364917Y-113728146D02*
X134364917Y-113844260D01*
X134364917Y-113844260D02*
X134326213Y-113999079D01*
X134326213Y-113999079D02*
X134287508Y-114076489D01*
X134287508Y-114076489D02*
X134210098Y-114153899D01*
X134210098Y-114153899D02*
X134093984Y-114192603D01*
X134093984Y-114192603D02*
X134016575Y-114192603D01*
X134016575Y-114192603D02*
X133900460Y-114153899D01*
X133900460Y-114153899D02*
X133861756Y-114115194D01*
X133861756Y-114115194D02*
X133861756Y-113844260D01*
X133861756Y-113844260D02*
X134016575Y-113844260D01*
X133513413Y-114192603D02*
X133513413Y-113379803D01*
X133513413Y-113379803D02*
X133203775Y-113379803D01*
X133203775Y-113379803D02*
X133126365Y-113418508D01*
X133126365Y-113418508D02*
X133087660Y-113457213D01*
X133087660Y-113457213D02*
X133048956Y-113534622D01*
X133048956Y-113534622D02*
X133048956Y-113650737D01*
X133048956Y-113650737D02*
X133087660Y-113728146D01*
X133087660Y-113728146D02*
X133126365Y-113766851D01*
X133126365Y-113766851D02*
X133203775Y-113805556D01*
X133203775Y-113805556D02*
X133513413Y-113805556D01*
X132700613Y-114192603D02*
X132700613Y-113379803D01*
X132158746Y-113379803D02*
X132003927Y-113379803D01*
X132003927Y-113379803D02*
X131926517Y-113418508D01*
X131926517Y-113418508D02*
X131849108Y-113495918D01*
X131849108Y-113495918D02*
X131810403Y-113650737D01*
X131810403Y-113650737D02*
X131810403Y-113921670D01*
X131810403Y-113921670D02*
X131849108Y-114076489D01*
X131849108Y-114076489D02*
X131926517Y-114153899D01*
X131926517Y-114153899D02*
X132003927Y-114192603D01*
X132003927Y-114192603D02*
X132158746Y-114192603D01*
X132158746Y-114192603D02*
X132236155Y-114153899D01*
X132236155Y-114153899D02*
X132313565Y-114076489D01*
X132313565Y-114076489D02*
X132352269Y-113921670D01*
X132352269Y-113921670D02*
X132352269Y-113650737D01*
X132352269Y-113650737D02*
X132313565Y-113495918D01*
X132313565Y-113495918D02*
X132236155Y-113418508D01*
X132236155Y-113418508D02*
X132158746Y-113379803D01*
X131539469Y-113379803D02*
X131036307Y-113379803D01*
X131036307Y-113379803D02*
X131307241Y-113689441D01*
X131307241Y-113689441D02*
X131191126Y-113689441D01*
X131191126Y-113689441D02*
X131113717Y-113728146D01*
X131113717Y-113728146D02*
X131075012Y-113766851D01*
X131075012Y-113766851D02*
X131036307Y-113844260D01*
X131036307Y-113844260D02*
X131036307Y-114037784D01*
X131036307Y-114037784D02*
X131075012Y-114115194D01*
X131075012Y-114115194D02*
X131113717Y-114153899D01*
X131113717Y-114153899D02*
X131191126Y-114192603D01*
X131191126Y-114192603D02*
X131423355Y-114192603D01*
X131423355Y-114192603D02*
X131500764Y-114153899D01*
X131500764Y-114153899D02*
X131539469Y-114115194D01*
X130339622Y-113650737D02*
X130339622Y-114192603D01*
X130533146Y-113341099D02*
X130726669Y-113921670D01*
X130726669Y-113921670D02*
X130223508Y-113921670D01*
D11*
X127505000Y-77659000D02*
X155805000Y-77659000D01*
X155805000Y-129159000D01*
X127505000Y-129159000D01*
X127505000Y-77659000D01*
D12*
X137795000Y-76605000D02*
X145415000Y-76605000D01*
X145415000Y-80859000D01*
X137795000Y-80859000D01*
X137795000Y-76605000D01*
%LPC*%
D13*
X117450000Y-78486000D03*
D14*
X117450000Y-86106000D03*
D15*
X193250000Y-90250000D03*
X180750000Y-85250000D03*
X193250000Y-85250000D03*
X180750000Y-90250000D03*
D13*
X167005000Y-119126000D03*
D14*
X159385000Y-119126000D03*
D13*
X112268000Y-78486000D03*
D14*
X112268000Y-86106000D03*
D16*
X92105000Y-101867500D03*
X98455000Y-101867500D03*
X92105000Y-106947500D03*
X98455000Y-106947500D03*
X92740000Y-124727500D03*
X95280000Y-124727500D03*
X97820000Y-124727500D03*
D17*
X87660000Y-107900000D03*
X87660000Y-121235000D03*
X102900000Y-121235000D03*
X102900000Y-107900000D03*
D16*
X85120000Y-112027500D03*
X85120000Y-114567500D03*
X85120000Y-117107500D03*
D15*
X176530000Y-105584000D03*
X164030000Y-100584000D03*
X176530000Y-100584000D03*
X164030000Y-105584000D03*
D18*
X87122000Y-88392000D03*
D19*
X89662000Y-88392000D03*
D13*
X171276000Y-124460000D03*
X176276000Y-124460000D03*
X122682000Y-78486000D03*
D14*
X122682000Y-86106000D03*
D13*
X123050000Y-98044000D03*
D14*
X123050000Y-90424000D03*
D13*
X167005000Y-81838000D03*
D14*
X159385000Y-81838000D03*
D13*
X123000000Y-110998000D03*
D14*
X123000000Y-118618000D03*
D13*
X167005000Y-87042000D03*
D14*
X159385000Y-87042000D03*
D13*
X122936000Y-127428000D03*
X122936000Y-122428000D03*
D20*
X111850000Y-106800000D03*
X118350000Y-102300000D03*
X111850000Y-102300000D03*
X118350000Y-106800000D03*
D18*
X102362000Y-88392000D03*
D19*
X104902000Y-88392000D03*
D13*
X171196000Y-87042000D03*
X176196000Y-87042000D03*
D15*
X209804000Y-100584000D03*
X209804000Y-105584000D03*
X197304000Y-100584000D03*
X197304000Y-105584000D03*
D13*
X123000000Y-107200000D03*
X123000000Y-102200000D03*
D20*
X111950000Y-95700000D03*
X111950000Y-91200000D03*
X118450000Y-91200000D03*
X118450000Y-95700000D03*
D13*
X171236000Y-119126000D03*
X176236000Y-119126000D03*
D21*
X128905000Y-85725000D03*
X128905000Y-88265000D03*
X128905000Y-90805000D03*
X128905000Y-93345000D03*
X128905000Y-95885000D03*
X128905000Y-98425000D03*
X128905000Y-100965000D03*
X128905000Y-103505000D03*
X128905000Y-106045000D03*
X128905000Y-108585000D03*
X128905000Y-111125000D03*
X128905000Y-113665000D03*
X128905000Y-116205000D03*
X128905000Y-118745000D03*
X128905000Y-121285000D03*
X154305000Y-85725000D03*
X154305000Y-88265000D03*
X154305000Y-90805000D03*
X154305000Y-93345000D03*
X154305000Y-95885000D03*
X154305000Y-98425000D03*
X154305000Y-100965000D03*
X154305000Y-103505000D03*
X154305000Y-106045000D03*
X154305000Y-108585000D03*
X154305000Y-111125000D03*
X154305000Y-113665000D03*
X154305000Y-116205000D03*
X154305000Y-118745000D03*
X154305000Y-121285000D03*
D18*
X94742000Y-88392000D03*
D19*
X97282000Y-88392000D03*
D13*
X167005000Y-124460000D03*
D14*
X159385000Y-124460000D03*
D15*
X180694000Y-116100000D03*
X193194000Y-121100000D03*
X193194000Y-116100000D03*
X180694000Y-121100000D03*
D13*
X171236000Y-81788000D03*
X176236000Y-81788000D03*
%LPD*%
M02*
